<svg viewBox="0 0 500 52.7" xmlns="http://www.w3.org/2000/svg"><title>icon--logo-bb icon</title><path d="M19.2 33.4v9.8c0 5.4-3.3 8.9-8.6 8.9H0V.7h10.1c5.3 0 8.6 3.5 8.6 8.9v8.5c0 4.1-1.8 6.6-4.8 7.6 3.4.9 5.3 3.4 5.3 7.7zM5.6 5.6v17.7h2.6c4 0 5-1.1 5-4.3V9.8c0-3.2-1-4.3-5-4.3l-2.6.1zm3.1 22.6H5.6v18.9h3.1c4 0 5-1.1 5-4.3V32.5c0-3.2-1.1-4.3-5-4.3zM69.1 9.5v33.6c0 4.9-3.3 9.5-10.2 9.5-6.8 0-10.2-4.6-10.2-9.5V9.5c0-4.9 3.5-9.5 10.2-9.5 6.9 0 10.2 4.6 10.2 9.5zm-10-4.4h-.4c-3 0-4.4 2.6-4.4 5.2v32.2c0 2.6 1.4 5.2 4.4 5.2h.4c3 0 4.4-2.6 4.4-5.2V10.3c0-2.6-1.4-5.2-4.4-5.2zm59.7 28.3v9.8c0 5.4-3.3 8.9-8.6 8.9H99.5V.7h10.1c5.3 0 8.6 3.5 8.6 8.9v8.5c0 4.1-1.8 6.6-4.8 7.6 3.4.9 5.4 3.4 5.4 7.7zM105.1 5.6v17.7h2.6c4 0 5-1.1 5-4.3V9.8c0-3.2-1-4.3-5-4.3l-2.6.1zm3.1 22.6h-3.1v18.9h3.1c4 0 5-1.1 5-4.3V32.5c0-3.2-1-4.3-5-4.3zm60.3 5.2v9.8c0 5.4-3.3 8.9-8.6 8.9h-10.7V.7h10.1c5.3 0 8.6 3.5 8.6 8.9v8.5c0 4.1-1.8 6.6-4.8 7.6 3.4.9 5.4 3.4 5.4 7.7zM154.8 5.6v17.7h2.6c4 0 5-1.1 5-4.3V9.8c0-3.2-1-4.3-5-4.3h-2.6zm3.1 22.6h-3.1v18.9h3.1c4 0 5-1.1 5-4.3V32.5c0-3.2-1.1-4.3-5-4.3zM200.3.7h5.6v51.4h-5.6V.7zm91 32.7v9.8c0 5.4-3.3 8.9-8.6 8.9h-10.6V.7h10.1c5.3 0 8.6 3.5 8.6 8.9v8.5c0 4.1-1.8 6.6-4.8 7.6 3.3.9 5.3 3.4 5.3 7.7zM277.7 5.6v17.7h2.6c4 0 5-1.1 5-4.3V9.8c0-3.2-1-4.3-5-4.3l-2.6.1zm3.1 22.6h-3.1v18.9h3.1c4 0 5-1.1 5-4.3V32.5c-.1-3.2-1.1-4.3-5-4.3zm49.8 1.7h-3.2v22.2h-5.6V.7h10.7c5.3 0 8.6 3.5 8.6 8.9V21c0 4-1.8 7-5 8.2l7.7 22.9h-5.9l-7.3-22.2zm-3.3-4.9h3.1c4 0 5-1.1 5-4.3V9.8c0-3.2-1-4.3-5-4.3h-3.2l.1 19.5zm64.3-15.5v33.6c0 4.9-3.3 9.5-10.2 9.5-6.8 0-10.2-4.6-10.2-9.5V9.5c0-4.9 3.5-9.5 10.2-9.5 6.9 0 10.2 4.6 10.2 9.5zm-10-4.4h-.4c-3 0-4.4 2.6-4.4 5.2v32.2c0 2.6 1.4 5.2 4.4 5.2h.4c3 0 4.4-2.6 4.4-5.2V10.3c0-2.6-1.4-5.2-4.4-5.2zM500 .7v51.4h-5.3l-10.7-36v36h-5.2V.7h5.3l10.7 35.9V.7h5.2zm-48.6 0l-5.3 51.4h-5.4L435.3 14l-5.5 38.1h-5.4L419.1.7h5.3l3.4 35.8L432.9.7h4.8l5.1 35.8L446.2.7h5.2z"></path></svg>