<svg width="199" height="62" fill="none" xmlns="http://www.w3.org/2000/svg"><g clip-path="url(#clip0_103_805)" fill-rule="evenodd" clip-rule="evenodd" fill="#262626"><path d="M197.913 60.784a5.08 5.08 0 01-.531-.05c-.355-.049-.424-.32-.457-.68-.061-.522-.061-1.497-.061-2.687v-1.984c0-1.93 0-2.279.024-2.672.021-.435.118-.646.435-.708.141-.025.212-.037.294-.037.049 0 .098-.122.098-.169 0-.077-.063-.1-.194-.1-.351 0-1.092.036-1.155.036-.056 0-.8-.036-1.19-.036-.127 0-.188.023-.188.1 0 .047.049.17.096.17.082 0 .235.011.364.048.261.064.379.274.401.696.023.394.023.741.023 2.672v1.984c0 1.19 0 2.165-.059 2.687-.046.36-.104.631-.34.68-.105.024-.249.05-.356.05-.068 0-.095.133-.095.17 0 .075.062.1.189.1.355 0 1.099-.037 1.155-.037.063 0 .804.037 1.451.037.133 0 .19-.037.19-.1 0-.038-.022-.17-.094-.17zm-72.811-9.087c-.354 0-.907.036-.99.036-.07 0-.721-.036-1.252-.036-.13 0-.188.025-.188.1 0 .049.049.17.095.17.107 0 .306.011.403.038.387.087.48.282.504.703.023.397.023.744.023 2.675v1.449c0 1.276-.14 2.328-.682 3.032a2.429 2.429 0 01-1.851.892c-.673 0-1.204-.112-1.78-.682-.508-.505-.885-1.272-.885-3.055v-1.636c0-1.93 0-2.279.023-2.675.023-.432.117-.656.436-.703.142-.027.212-.038.296-.038.046 0 .095-.121.095-.17 0-.075-.059-.1-.189-.1-.354 0-1.062.036-1.168.036-.108 0-.828-.036-1.357-.036-.129 0-.188.025-.188.1 0 .049.048.17.093.17.107 0 .309.011.403.038.388.087.482.282.506.703.025.397.025.744.025 2.675v1.709c0 1.808.447 2.674 1.025 3.257.836.829 2.027.877 2.428.877.696 0 1.582-.123 2.43-.916.944-.876 1.085-2.363 1.085-3.7v-1.227c0-1.93 0-2.279.024-2.675.023-.432.117-.643.435-.703.141-.038.213-.038.296-.038.047 0 .094-.121.094-.17 0-.075-.061-.1-.189-.1zM90.712 5.236c-.136 0-.265.067-.381.2a.098.098 0 00-.012.108c.018.034.06.048.097.047.066-.01.255.003.412.01.093.006.177.01.223.01h.025a.094.094 0 00.062-.16c-.054-.054-.213-.215-.426-.215z"/><path d="M87.806 31.228c.027-.015.05-.024.078-.039.061-.029.117-.058.18-.087l.58-.271c.002.121.001.235 0 .333-.003.134-.005.25.002.332.033.445-.523.764-.8.846-.546.206-.99.524-1.343.83.047-.183.093-.381.135-.586l.069-.335h-.344c-.097 0-.226.01-.38.029a13.02 13.02 0 01-.082.005c.437-.303 1.096-.667 1.905-1.057zm-1.958-2.62c.126-.069.315-.174.542-.306.336.405.981.842 1.669 1.266.095.059.169.102.203.127.168.118.26.318.314.543l-.077.034c-.139.063-.34.158-.563.266-1.686-.685-2.031-1.193-2.088-1.93zm-.013-1.404c0-.467.653-1.002 1.297-1.323.987-.49 1.633-1.262 2.056-1.95.188.419.367.83.528 1.23-.161.62-2.458 2.058-3.382 2.517l-.248.123.01.02c-.091.054-.181.104-.256.147.004-.24.01-.498-.005-.764zm-.113-11.505h24.011c.031.28.064.56.1.843-5.109 7.507-6.027 12.27-6.838 16.477-.084.425-.165.842-.249 1.259l-2.029-7.19h.397V25.75h-1.368v-3.822l.912-.96V16.86h-1.332v1.44h-.68v-1.44h-1.84v1.44h-.45v-1.44H94.79v4.107l.918.96v3.822H94.33v1.337h.397l-2.046 7.06c-.074-.376-.15-.748-.224-1.13-.811-4.205-1.73-8.968-6.838-16.475.036-.283.069-.563.102-.843zm12.16-8.062a.307.307 0 00-.014-.115.52.52 0 00-.1-.163l.009.002c.095 0 .165-.027.216-.092.032.012.062.02.09.03.174.065.334.14.375.225.01.023.024.065-.007.144-.032.092-.095.103-.57-.031zm-.262.507a.343.343 0 00-.019-.11.466.466 0 00-.095-.161h.013c.113 0 .2-.023.263-.069.306.109.463.264.48.363.006.03-.005.044-.017.054-.056.042-.247.071-.625-.077zm-.422.433l-.048.078-.004-.026a.539.539 0 00-.097-.21c.24.053.424.023.511-.095.227.1.382.23.418.35a.129.129 0 01-.014.113c-.037.051-.28.071-.766-.21zm-.402.403l-.012.015a.525.525 0 00-.032-.086c.137.036.261.024.35-.083a.216.216 0 00.036-.063c.225.154.357.348.375.465.003.029-.003.043-.004.047-.037.04-.273.044-.713-.295zm-.071.325a.23.23 0 00.058-.093c.305.271.373.503.347.541-.01.011-.03.01-.04.01-.046-.005-.206-.047-.495-.397a.216.216 0 00.13-.061zm.26-1.46a.347.347 0 00.032-.07c.22.09.37.206.407.318.015.042.01.08-.014.116-.037.062-.288.11-.779-.153l-.045.08a.475.475 0 00-.069-.184c.227.056.384.02.468-.107zm.224-.525a.306.306 0 00.047-.056c.257.093.401.222.432.317.013.038 0 .053-.002.059-.038.047-.223.096-.666-.067l-.007-.002a.473.473 0 00-.101-.165.48.48 0 00.297-.086zm.273-.597c.199.069.338.161.383.26a.14.14 0 01.005.123c-.036.09-.076.096-.564-.027l-.025-.007a.438.438 0 00-.116-.188h.002c.15 0 .258-.043.315-.161zm.163-.554c.32.105.472.233.48.317a.081.081 0 01-.033.075c-.032.027-.167.1-.563-.02-.001 0-.004 0-.005-.002a.303.303 0 00-.103-.213.376.376 0 00.151-.07.292.292 0 00.073-.087zm.82-.414c.3-.016.437.048.456.103.005.013.004.022-.003.033-.014.018-.092.098-.43.1l.008-.02c.018-.045.03-.12-.03-.216zm.41.655c.023.034.025.054.023.062-.02.058-.31.076-.587.063a.304.304 0 00.001-.067c-.01-.12-.101-.219-.22-.3.122.014.216.015.29-.036l-.002.045c.212.007.418.124.494.233zm-1.218-1.296a.693.693 0 00.176-.078c.33-.057.536.044.596.125.03.039.018.063.014.072-.035.069-.19.147-.512.165a.268.268 0 00-.05-.112.673.673 0 00-.224-.172zm.64.725c.026.038.026.058.025.06-.041.1-.042.1-.245.08a4.107 4.107 0 00-.398-.019h-.02a.523.523 0 00-.236-.265c.21-.019.339-.05.417-.102.188.02.38.136.457.246zm-2.141 2.57c.173.06.3.042.378-.052a.24.24 0 00.05-.11c.234.149.36.317.378.415.002.01.004.035-.005.045-.083.105-.374-.066-.603-.23l-.11.152c.326.234.364.415.368.466.003.033-.004.061-.02.077-.004.002-.016.008-.049.008-.095-.006-.264-.082-.455-.275a.28.28 0 00.079-.052c.034-.035.073-.1.064-.214a.65.65 0 00-.075-.23zm2.457-1.237c-.024.018-.126.062-.47-.05-.025-.008-.05-.019-.076-.027a.335.335 0 00-.03-.192.497.497 0 00-.073-.11.453.453 0 00.23-.073c.316.106.434.276.44.387.003.048-.014.06-.02.065zm-9.2-1.023v-.012c.025-.03.034-.036.036-.04l.027-.005a.412.412 0 01.07.024c.104.04.28.094.426.052a.234.234 0 01.064-.007c.134 0 .335.06.421.091a1.63 1.63 0 01-.442.116l-.438-.104c-.066-.036-.114-.076-.165-.115zm.435.587c.297.095.635.152.947.161.178.042.391.13.403.31.007.1-.05.207-.122.306a1.154 1.154 0 00-.904-.152 1.058 1.058 0 01-.686-.141.779.779 0 01-.34-.515 3.425 3.425 0 01-.11-.464c.022.023.03.051.055.074.17.17.432.314.757.42zm1.32-2.119c-.186 0-.358.087-.482.157-.255-.112-.458.081-.575.19l-.021.022c-.297.002-.776.24-.928.356.004-.007.004-.017.01-.026.244-.429.758-.744 1.531-.938a2.94 2.94 0 01.538-.085c-.09.079-.1.201-.074.324zm3.08 10.398c.051-.211.114-.358.169-.485.103-.241.183-.43.083-.787-.06-.22-.328-1.332-.464-1.903 2.497.588 3.403.243 4.703-.447-.023.27-.005.608.32 1.408.05.12.106.248.16.373.118.268.241.546.26.686l.01.07c.023.13.053.309-.045.424-.093.113-.303.175-.633.18-.27.005-.832.014-.919.488-.009.043-.003.076-.005.116h-3.702a.349.349 0 00.062-.123zm-1.302-.521c-.004-.332.01-.616.036-.855.055.133.096.25.113.337.085.445-.029.491-.149.518zm.058.325c.262-.059.546-.217.413-.906-.04-.203-.168-.492-.315-.827l-.012-.028c.014-.038.028-.086.042-.1.278-.305.469-.543.645-.791.14.586.35 1.457.407 1.664.07.246.023.353-.07.568-.056.134-.128.3-.186.538-.007.033-.11.047-.177.057a.685.685 0 00-.179.042c-.049.024-.08.064-.115.102h-.886c.171-.176.31-.286.433-.32zm6.375.204c-.03.043-.074.079-.117.115H98.21c0-.02-.002-.03.004-.057.035-.193.317-.214.626-.22.415-.006.696-.102.856-.296.193-.231.144-.518.116-.688l-.008-.062c-.027-.187-.153-.472-.284-.773a13.576 13.576 0 01-.158-.365c-.348-.85-.317-1.108-.287-1.379.002-.028.002-.06.006-.088.419-.226.888-.477 1.472-.747.071.357.176.623.292.834-.641.683-.769 1.418-.345 2.192l.06.113c.156.296.173.327.012.61l-.027.049c-.218.388-.355.62-.486.583-.31-.097-.526-.038-.68.18zm3.104-.323l.004.034a.396.396 0 00-.212.404h-2.021c.225-.098.392-.386.58-.717l.025-.047c.242-.422.175-.58-.006-.927l-.064-.116c-.143-.26-.492-.928.239-1.755a1.588 1.588 0 00.51.421c.245.638 1.027 1.242 1.457 1.573.096.075.171.133.21.168.008.01.025.045.027.118a1.09 1.09 0 01-.134.494l-.058-.01a.678.678 0 00-.376-.005c-.216.072-.191.284-.181.365zm4.985.013c-.927-.322-1.531-.852-1.802-1.575-.173-.463-1.503-3.15-2.805-4.283a.163.163 0 00-.22.004.162.162 0 00-.021.217c.414.565.606.938.583 1.528-.004.169.025 1.08.056 1.307.084.707.386 1.129.9 1.255.096.25-.102 1.528-.209 1.893a2.392 2.392 0 01-.42.079h-.92l-.014-.036c-.005-.037.012-.064.051-.08.197-.083.171-.278.161-.36 0-.008 0-.016-.002-.023.047-.006.103.007.162.02.074.017.15.035.227.016.168-.036.267-.308.313-.467.053-.187.114-.527-.08-.708a3.551 3.551 0 00-.235-.189c-.383-.296-1.18-.914-1.365-1.477a.158.158 0 00-.064-.086.876.876 0 00-.071-.04c-.204-.113-.684-.38-.853-1.506a.167.167 0 00-.082-.12.17.17 0 00-.149-.007c-.696.313-1.236.604-1.713.861-1.488.804-2.236 1.211-4.93.55a.161.161 0 00-.18.079c-.253.439-.48.715-.896 1.17-.244.271-.286 1.282-.272 1.834-.007.03-.093.095-.139.131-.06.048-.123.097-.166.143a.597.597 0 00-.32.027.786.786 0 00-.326.229l-.043.039h-.9l-.012-.001a2.632 2.632 0 01.36-.248c.304-.188.646-.401.713-.937.038-.292.17-1.958-.078-2.852-.22-.677-.125-1.059-.034-1.426.106-.435.204-.895-.21-1.71.467-.094.808-.3.986-.636.29-.551.062-1.217-.05-1.385a.165.165 0 00-.274.182c.068.1.252.636.034 1.05-.133.252-.393.416-.774.49a.795.795 0 00.141-.48c-.012-.172-.114-.48-.687-.612-.175-.006-.329-.053-.494-.082.162-.046.299-.111.32-.207.011-.049.002-.121-.1-.19l-.002.005-.016-.01v-.003l-.002.003c-.163-.083-.505-.117-.51-.117a.399.399 0 00-.115.014c-.095.028-.218-.013-.308-.046a.368.368 0 00-.133-.035l-.027.002c-.084.014-.114.027-.182.11-.039-.052-.074-.108-.07-.173.003-.074.05-.153.145-.232.118-.103.636-.34.764-.298a.165.165 0 00.148-.035l.08-.075c.166-.157.19-.151.248-.11.05.038.118.045.175.015l.09-.051c.205-.12.32-.174.519-.015a.17.17 0 00.212-.007.163.163 0 00.029-.21 1.112 1.112 0 01-.105-.219c.075.044.194.132.379.301.137.126.326.186.528.252.294.096.598.196.73.504.133.312.37 1.202.493 2.083l.262-.46c-.137-.766-.331-1.465-.453-1.75-.19-.448-.6-.58-.93-.69-.167-.054-.324-.104-.41-.182-.207-.191-.37-.312-.505-.377.233.014.473.053.776.104.576.1 1.344.23 2.656.277-.162.207-.305.497-.405.913-.011.04-.019.115-.03.216-.05.462-.17 1.546-.894 2.027-.047.03-.138.059-.245.092-.572.182-1.636.519-1.737 2.92l.328.014c.09-2.172.978-2.452 1.508-2.62.13-.041.242-.076.328-.134.023-.015.04-.035.064-.052.004-.006.01-.008.015-.012.776-.586.905-1.708.958-2.2.01-.08.016-.143.024-.175.232-.956.683-1.106 1.082-1.236.092-.031.179-.06.26-.096 1.646-.78 3.291-1.188 4.614-1.516 1.039-.256 1.864-.461 2.358-.76a.267.267 0 01.063-.003c-.039.053-.137.151-.366.308a.17.17 0 00-.07.16c.048.338.037.473-.268.54a.18.18 0 00-.104.071.163.163 0 00-.021.124l.035.14c.051.203.078.33.024.417-.061.096-.228.171-.498.23a.168.168 0 00-.131.18l.019.133c.049.318.069.45-.539.619a.167.167 0 00-.12.187c.012.057.035.107.057.155.046.1.069.158.032.25-.093.239-.593.685-2.456 1.454-.037.019-.066.048-.096.074-.008-.113-.074-.249-.223-.367.315-.012.438-.059.48-.194.016-.05.02-.128-.05-.227a.68.68 0 00-.179-.165.391.391 0 00.22-.133.224.224 0 00.03-.208c-.068-.191-.363-.27-.793-.211l.002.003c-.02-.014-.04-.03-.062-.042.187-.045.313-.123.365-.227a.25.25 0 00-.029-.268c-.093-.127-.318-.235-.617-.217a.25.25 0 00-.055-.167c-.109-.149-.41-.277-.813-.202l.032.183c.343-.059.569.049.632.13.023.033.015.051.012.058-.03.056-.19.15-.619.15v.188c.295 0 .592.187.594.252-.005.016-.061.087-.742.102l-.024.184c.36.106.496.243.504.33a.078.078 0 01-.031.07c-.03.022-.156.09-.514-.01l-.097-.028-.055.178.096.03c.205.063.394.135.44.22.008.02.02.052 0 .116-.03.095-.144.12-.671-.012l-.05.182c.312.093.476.24.497.338.007.03-.004.041-.015.051-.052.047-.249.082-.647-.06a.06.06 0 00-.015-.007l-.064.177.013.004c.25.093.422.222.464.344a.123.123 0 01-.01.11c-.046.074-.257.078-.69-.151l-.092.165c.234.137.339.303.356.403.007.034.002.06-.01.076-.003.003-.107.11-.64-.266l-.11.153c.28.2.391.412.402.531.004.042-.005.062-.009.066-.01.01-.02.02-.051.014-.045-.003-.213-.034-.484-.356l-.143.122c.198.236.36.343.481.39l-.008.008c.166.2.347.344.511.418l-.013.009c.29.39.55.607.748.623a.2.2 0 00.024 0c.064 0 .12-.02.16-.058a.215.215 0 00.063-.175.622.622 0 00-.098-.277c.215.071.356.037.426-.04.03-.034.063-.096.049-.198a.598.598 0 00-.098-.237c.253.075.435.052.518-.07a.31.31 0 00.04-.274.48.48 0 00-.1-.175c.133 0 .232-.021.304-.077a.238.238 0 00.086-.233.434.434 0 00-.112-.208c.152 0 .241-.05.293-.194v-.005c.066.192.258.373.619.331l.113-.01c2.817-.29 3.565.327 3.763.719.075.152.214.3.492.597.124.131.278.294.467.502.423.463.871 1.436 1.305 2.376.091.196.181.39.275.586.227.484.651 1.388 2.25 1.765.049.018.167.193.259.457-.025.027-.159.047-.259.006-.043-.015-.052-.03-.084-.078-.054-.077-.128-.184-.361-.266zm-3.033-1.73a.259.259 0 00-.17-.13c-.517-.109-.635-.612-.678-.981l-.006-.046a15.707 15.707 0 01-.049-1.21 2.1 2.1 0 00-.053-.589c.946 1.243 1.767 2.92 1.88 3.225.306.82.978 1.416 2.019 1.777.092.032.127.067.157.109h-3.268c.088-.338.378-1.783.168-2.156zm-13.4-9.75c.014.058.026.113.034.172-.037-.295-.127-.587-.298-.822.132.05.272.106.272.106a.72.72 0 00.22-.152c.011.639.593.485.593.044 0-.181.029-.338.12-.487.092.15.12.306.12.487 0 .44.582.595.594-.044.077.07.13.115.219.152l.273-.106a1.806 1.806 0 00-.323.946h-1.766c-.002-.036-.016-.072-.02-.107h1.806c.008-.065.024-.126.037-.19h-1.88zm-.574-.743c.277.323.46.756.45 1.23h2.13c-.012-.59.268-1.13.669-1.456l-.791.215s-.32-.258-.504-.487l.062.315c.093.434-.16.613-.199.285-.044-.362-.059-.528-.302-.81-.243.282-.258.448-.302.81-.04.328-.291.149-.2-.285l.064-.315c-.184.23-.503.487-.503.487l-.48-.13c.314-.5.627-1.037.938-1.631.636.256 1.693.57 6.233.57 4.539 0 5.598-.314 6.234-.57 2.24 4.297 4.663 6.005 5.945 6.85-.584 2.756-.502 5.127-.237 7.57h-1.18a.365.365 0 00-.01-.185c-.059-.182-.22-.613-.487-.678-1.448-.341-1.813-1.121-2.034-1.59-.092-.191-.18-.386-.271-.579-.446-.963-.903-1.958-1.36-2.46-.191-.209-.347-.374-.471-.508-.249-.262-.384-.407-.438-.516-.414-.832-1.786-1.132-4.09-.9l-.11.011c-.11.01-.25.001-.284-.12-.033-.11.028-.254.119-.298 2.098-.868 2.507-1.33 2.626-1.634a.56.56 0 00-.016-.45c.642-.221.664-.52.607-.909.284-.077.465-.187.561-.34.13-.207.076-.434.019-.655.399-.16.403-.51.375-.758.275-.196.537-.44.427-.675-.086-.182-.351-.202-.502-.156a.118.118 0 00-.039.019c-.448.28-1.261.481-2.286.734-1.338.331-3.002.744-4.673 1.537-.07.03-.145.055-.226.08-.167.057-.36.12-.548.242a17.81 17.81 0 01-2.947-.282c-.686-.118-1.1-.185-1.806-.01-.863.218-1.448.586-1.738 1.094-.355.626-.164 1.268-.084 1.543.01.034.02.06.023.08.068.314.23.558.485.721.331.212.739.227.932.184a.86.86 0 01.59.056c-.094.053-.24.157-.302.18-.076.029.037.126.475.124a.76.76 0 00.13-.01c.415.766.324 1.136.219 1.564-.097.394-.209.842.04 1.6.21.762.12 2.28.066 2.716-.048.383-.273.522-.56.698-.073.046-.149.093-.224.145-.212.15-.343.264-.375.385h-4.517c.264-2.443.347-4.814-.237-7.57 1.087-.716 2.993-2.07 4.914-5.078zm17.859 23.39c.646.323 1.297.857 1.297 1.31-.013.28-.009.54-.006.78a22.909 22.909 0 01-.254-.148l.009-.021-.249-.123c-.919-.459-3.219-1.895-3.381-2.518.162-.399.341-.81.527-1.23.425.689 1.07 1.46 2.057 1.95zm-.804 4.658c-.224-.11-.43-.205-.567-.268l-.073-.032c.055-.225.148-.425.314-.543.035-.024.108-.068.204-.127.686-.424 1.333-.861 1.667-1.266.228.132.417.237.543.305-.056.738-.401 1.246-2.088 1.93zm2.036 1.747a22.588 22.588 0 01-.082-.005 3.527 3.527 0 00-.38-.03h-.344l.068.336c.041.205.089.405.136.588a4.479 4.479 0 00-1.364-.839c-.257-.075-.815-.394-.78-.839.006-.082.004-.198.002-.33 0-.1-.002-.214 0-.335l.58.271c.068.032.13.063.196.096l.065.03c.807.39 1.464.752 1.903 1.057zm-13.158 1.22v1.125h-3.463l.327-1.126h3.136zm-1.737-1.203v.969h-1.331l.28-.969h1.05zM95.8 30.86v1.21h-2.126l.348-1.21H95.8zm.686-1.201v.967h-2.394l.28-.968h2.114zm-.686-1.2v.965h-1.36l.28-.965h1.081zm-.684-1.372h1.37v1.137h-1.698l.328-1.137zm4.533 2.337v-.965h1.065l.274.965H99.65zm-.685 1.202v-.968h2.089l.274.968h-2.363zm.685 1.443V30.86h1.741l.341 1.21H99.65zm1.147 1.202v-.969h1.004l.27.969h-1.274zm-1.739.233h3.08l.316 1.126h-3.395v-1.126zm-2.289-.8c0-.876.494-1.276.952-1.276.464 0 .962.401.962 1.287v1.915h-1.914v-1.926zm-.31-.402c-.024.133-.065.25-.065.402v.567h-1.55v-.969h1.615zm2.562 0h1.588v.969h-1.55v-.556a2.33 2.33 0 00-.038-.413zm.443-1.442v1.21h-.503c-.207-.668-.724-1.017-1.24-1.017-.512 0-1.02.352-1.224 1.016h-.51V30.86h3.477zm-2.788-.234h2.1v-.968h-2.1v.968zm2.289-2.402v-1.137h1.365l.32 1.137h-1.685zm-2.29 0h2.102v-1.137h-2.101v1.137zm-.687 1.2h3.476v-.965h-3.476v.965zm-1.281-2.712h6.033v-.586h-6.033v.586zm1.78-5.703v.727h-.446l-.693-.727h1.139zm-1.323-.234h2.468v-.967h-2.468v.967zm2.656 0h2.465v-.967H97.82v.967zm1.145.96v-.726h1.137l-.69.727h-.447zm-1.145 1.203h1.55v-.969h-1.55v.969zm-1.144-1.202h2.1v-.727h-2.1v.727zm-.594 1.202h1.55v-.969h-1.55v.969zm0 .96h3.288v-.727h-3.288v.727zm.594 1.853h2.1v-.657h-2.1v.657zm-.594 0h.405v-.657h-.405v.657zm0-.89h1.55v-.727h-1.55v.726zm2.883.89h.405v-.657h-.405v.657zm-1.145-.89h1.55v-.727h-1.55v.726zm-.638-6.184v-1.442h1.09v1.442H99.7v-1.442h.585v2.338h-5.121v-2.338h.818v1.442h1.2zM86.005 32.84a11.98 11.98 0 01-.34 1.154l-.337.957.783-.644c.08-.067.177-.162.295-.276.363-.352.913-.889 1.619-1.156.487-.144 1.239-.66 1.183-1.422-.007-.07-.005-.167-.003-.28.009-.556.024-1.489-.62-1.939-.041-.028-.123-.079-.232-.147-.3-.183-1.108-.68-1.477-1.062.688-.378 2.38-1.37 3.086-2.225 1.067 2.801 1.522 5.141 1.944 7.324.12.625.24 1.237.37 1.847l.046.221h10.81l.043-.22a83.68 83.68 0 00.371-1.848c.421-2.183.877-4.523 1.945-7.324.705.856 2.397 1.846 3.085 2.225-.369.382-1.178.88-1.476 1.063l-.233.146c-.644.45-.629 1.384-.62 1.941.002.113.004.208-.003.278-.056.763.695 1.278 1.165 1.415.726.274 1.275.81 1.64 1.165.115.114.213.207.292.274l.78.644-.334-.955c-.025-.061-.195-.55-.339-1.156.234.025.547.055.893.046l.539-.01-.32-.436c-.365-.5-1.402-1.094-2.37-1.576 1.925-.88 2.013-1.66 1.986-2.889a10.03 10.03 0 01.004-.771c0-.95-1.232-1.64-1.609-1.827-1.032-.515-1.656-1.386-2.016-2.072.915-1.937 2.129-4.085 3.803-6.535l.061-.088-.014-.105c-.384-3.004-.643-5.76.09-9.078l.041-.19-.162-.105c-1.21-.794-3.729-2.446-6.033-6.973L104.224 0l-.351.144c-.555.232-1.396.582-6.147.582-4.75 0-5.59-.35-6.146-.582L91.228 0l-.116.23c-2.303 4.527-4.823 6.179-6.034 6.973l-.163.106.043.19c.735 3.322.489 5.966.09 9.077l-.014.105.061.088c1.673 2.449 2.888 4.598 3.802 6.535-.36.686-.984 1.557-2.016 2.072-.377.188-1.609.877-1.607 1.842.012.273.008.523.003.755-.028 1.23.06 2.01 1.986 2.89-1.267.628-2.063 1.157-2.372 1.576l-.32.435.54.011c.345.011.66-.02.894-.046zM33.734 51.697c-.354 0-.906.036-.99.036-.07 0-.718-.036-1.25-.036-.13 0-.189.025-.189.1 0 .049.048.17.096.17.104 0 .305.011.4.038.389.087.483.282.506.703.023.397.023.744.023 2.675v1.449c0 1.276-.14 2.328-.683 3.032a2.429 2.429 0 01-1.85.892c-.673 0-1.205-.112-1.782-.682-.507-.505-.884-1.272-.884-3.055v-1.636c0-1.93 0-2.279.024-2.675.024-.432.117-.656.436-.703.14-.027.212-.038.295-.038.047 0 .095-.121.095-.17 0-.075-.06-.1-.19-.1-.354 0-1.06.036-1.167.036-.107 0-.826-.036-1.355-.036-.13 0-.19.025-.19.1 0 .049.048.17.095.17.105 0 .305.011.4.038.39.087.484.282.508.703.024.397.024.744.024 2.675v1.709c0 1.808.447 2.674 1.025 3.257.838.829 2.028.877 2.43.877.695 0 1.58-.123 2.428-.916.942-.876 1.085-2.363 1.085-3.7v-1.227c0-1.93 0-2.279.023-2.675.024-.432.119-.643.436-.703.142-.038.214-.038.297-.038.044 0 .092-.121.092-.17 0-.075-.058-.1-.188-.1zm54.814 9.059c-2.122 0-3.773-1.856-3.773-4.74 0-2.71 1.475-4.072 3.444-4.072 1.862 0 3.584 1.597 3.584 4.567 0 3.6-2.194 4.245-3.255 4.245zm-.247-9.233c-3.255 0-4.647 2.836-4.647 4.84 0 2.229 1.345 4.863 4.576 4.863 2.843 0 4.704-2.288 4.704-5.063 0-2.882-1.98-4.64-4.633-4.64zm23.655 7.29a.217.217 0 00-.208.186c-.035.223-.188.767-.436 1.038-.473.509-1.169.62-2.052.62-2.523 0-3.615-2.166-3.615-4.528 0-1.263.198-2.365 1.06-3.23.414-.421.502-.905 2.071-.905 1.038 0 1.947.334 2.359.705.307.271.494.78.494 1.263 0 .173.107.26.187.26.072 0 .095-.074.105-.26.013-.187.013-.867.035-1.274.023-.447.06-.595.06-.694 0-.073-.023-.123-.154-.137-.426.046-.755-.098-1.202-.184a9.444 9.444 0 00-1.71-.15c-1.817 0-2.338.582-3.048 1.325-1.049 1.1-1.317 2.55-1.317 3.379 0 1.176.282 2.586 1.425 3.662.931.881 1.572 1.337 3.343 1.337.753 0 1.426-.085 1.899-.286.21-.097.233-.123.306-.357.116-.422.484-1.497.484-1.584 0-.1-.026-.186-.086-.186zm33.564 1.971c-.107 0-.366-.026-.531-.05-.352-.049-.424-.32-.459-.68-.06-.522-.06-1.497-.06-2.687v-1.984c0-1.93 0-2.279.023-2.672.023-.435.118-.646.436-.708.144-.025.213-.037.295-.037.047 0 .096-.122.096-.169 0-.077-.059-.1-.189-.1-.354 0-1.097.036-1.156.036-.058 0-.803-.036-1.19-.036-.131 0-.189.023-.189.1 0 .047.047.17.093.17.084 0 .236.011.366.048.26.064.378.274.401.696.021.394.021.741.021 2.672v1.984c0 1.19 0 2.165-.058 2.687-.045.36-.104.631-.341.68-.104.024-.247.05-.351.05-.073 0-.096.133-.096.17 0 .075.058.1.188.1.353 0 1.098-.037 1.156-.037.059 0 .802.037 1.45.037.13 0 .188-.037.188-.1 0-.038-.022-.17-.093-.17zm-98.098-9.087c-.484 0-.872.036-1.004.036-.13 0-.693-.036-1.224-.036-.142 0-.237.013-.237.087 0 .05.011.182.095.182.094 0 .365.012.578.063.365.1.449.37.459 1.176l.13 6.192c-.377-.412-5.47-7.266-5.654-7.485a.326.326 0 00-.073-.083.264.264 0 00-.174-.06c-.04 0-.134-.008-.274-.013a50.912 50.912 0 00-1.479-.025c-.14 0-.212.025-.212.098 0 .05.034.17.093.17.106 0 .366.012.59.075.318.099.465.588.488 1.604l-.01 5.46c0 1.126-.057 1.486-.353 1.572a1.63 1.63 0 01-.483.074c-.06 0-.095.12-.095.17 0 .086.07.1.19.1.53 0 1.025-.037 1.132-.037.105 0 .578.037 1.249.037.14 0 .212-.027.212-.1 0-.05-.034-.17-.093-.17-.106 0-.366-.013-.59-.074-.318-.1-.435-.42-.46-1.435v-6.072c.378.444 5.396 7.069 5.526 7.193.626.655.813.745.907.745.081 0 .129-.062.129-.877v-7.16c0-.74.048-1.014.436-1.099.143-.039.224-.039.284-.039.083 0 .13-.132.13-.182 0-.074-.083-.087-.213-.087zm10.829 7.109c-.084 0-.111.06-.127.16a2.34 2.34 0 01-.33.788c-.193.296-.302.577-.715.723-.373.119-.956.119-1.307.119-1.387 0-1.599-.16-1.64-1.016-.015-.26 0-1.694 0-2.115v-1.092c0-.047.028-.084.097-.084.121 0 .534.006.965.015.191.007.387.011.56.02l.256.01c.1.005.184.011.243.016l.136.013c.373.072.644.743.725.935.072.157.084.277.097.4.005.062.039.108.11.101.097-.01.085-.144.075-.245a36.002 36.002 0 01-.023-1.276c0-.409.05-1.106.043-1.18l-.004-.027c-.009-.05-.035-.068-.07-.068-.055 0-.112.063-.212.162-.127.123-.324.627-.665.654-.325.023-2.064.023-2.248.023-.072 0-.085-.037-.085-.123v-3.415c0-.086.028-.126.085-.126.154 0 1.697.014 1.937.04l.077.006.165.018c.6.084.895.806 1.03.954.106.124.176.321.198.406.026.094.07.145.151.118.054-.014.063-.092.06-.157a55.153 55.153 0 00-.148-1.287c-.044-.319-.03-.447-.043-.538-.003-.055-4.009-.005-4.106-.005-.072 0-.963-.036-1.6-.036-.157 0-.226.023-.226.1 0 .047.056.17.112.17.128 0 .369.011.482.036.467.087.58.286.608.708.029.394.029.741.029 2.672v1.984c0 1.19 0 2.165-.07 2.687-.058.36-.128.631-.412.68-.127.024-.296.05-.424.05-.085 0-.114.133-.114.17 0 .075.072.1.227.1.425 0 1.316-.037 1.388-.037.41 0 1.357.074 3.493.074h.493c.44 0 .533 0 .598-.206.113-.36.216-1.76.216-1.895 0-.136-.014-.184-.087-.184z"/><path d="M55.336 56.324l.253.01a34.244 34.244 0 00-.253-.01zm30.366-14.426a.258.258 0 00-.252.262c0 .144.113.262.252.262a.257.257 0 00.249-.262.257.257 0 00-.25-.262zm2.523-.536l.375.893h-.735l.36-.893zm-.754 1.97l.34-.926h.835l.342.925h.343l-.993-2.386h-.072l-1.031 2.386h.236zm4.042-1.235c0 .769-.45 1.103-.97 1.103h-.484v-2.085h.567c.552 0 .887.316.887.982zm-1.752-1.106v2.34h.865c.773 0 1.199-.57 1.199-1.234 0-.682-.316-1.106-1.04-1.106h-1.024zm2.804 1.049c.109 0 .196-.097.196-.209 0-.116-.087-.208-.196-.208a.202.202 0 00-.198.209c0 .111.088.208.198.208zm3-1.049l-.993 1.81-.911-1.81h-.056l-.347 2.34h.238l.16-1.768.847 1.74h.03l.867-1.737.2 1.765h.295l-.273-2.34h-.057zm1.902.096c.269 0 .444.086.624.273h.041l.07-.256a1.708 1.708 0 00-.735-.158c-.713 0-1.226.47-1.226 1.23 0 .672.397 1.201 1.185 1.201.283 0 .516-.06.715-.192v-.224h-.037a.893.893 0 01-.637.278c-.614 0-.904-.499-.904-1.064 0-.671.368-1.088.904-1.088zm2.391 0c.269 0 .447.086.625.273h.041l.073-.256a1.731 1.731 0 00-.739-.158c-.71 0-1.225.47-1.225 1.23 0 .672.397 1.201 1.185 1.201.284 0 .516-.06.716-.192v-.224h-.037a.895.895 0 01-.639.278c-.613 0-.901-.499-.901-1.064 0-.671.369-1.088.901-1.088zm2.396 0c.268 0 .443.086.627.273h.038l.068-.256a1.696 1.696 0 00-.733-.158c-.714 0-1.226.47-1.226 1.23 0 .672.395 1.201 1.183 1.201.282 0 .517-.06.715-.192v-.224h-.036a.897.897 0 01-.636.278c-.615 0-.904-.499-.904-1.064 0-.671.367-1.088.904-1.088zm2.92 2.244l-.766-1.318.704-1.022h-.228l-.558.902-.528-.902h-.331l.676 1.176-.749 1.164h.232l.598-1.04.604 1.04h.346zm1.628-2.244c.269 0 .444.086.625.273h.041l.069-.256a1.706 1.706 0 00-.735-.158c-.714 0-1.225.47-1.225 1.23 0 .672.395 1.201 1.184 1.201.282 0 .516-.06.717-.192v-.224h-.037a.903.903 0 01-.639.278c-.614 0-.904-.499-.904-1.064 0-.671.369-1.088.904-1.088zm1.195 2.244h.295v-2.34h-.295v2.34zm1.577-.909a.257.257 0 00.251-.262.257.257 0 00-.251-.262.259.259 0 00-.251.262c0 .144.114.262.251.262zM85.725 38a.258.258 0 00-.253.26.26.26 0 00.253.264c.135 0 .247-.119.247-.264a.254.254 0 00-.247-.26zm2.12 1.33c-.236 0-.401-.15-.504-.365h-.022l-.07.31c.154.102.33.202.545.202.432 0 .813-.22.813-.724 0-.39-.28-.547-.546-.66-.258-.106-.498-.187-.498-.49a.41.41 0 01.424-.41c.196 0 .338.104.403.303h.03l.092-.28a.692.692 0 00-.488-.169c-.39 0-.712.213-.712.653 0 .432.35.545.641.663.214.094.386.214.386.46 0 .27-.199.506-.494.506zm3.428.027c-.513 0-.897-.386-.897-1.053 0-.595.285-1.144.939-1.144.569 0 .905.427.905 1.048 0 .584-.294 1.149-.947 1.149zm1.267-1.149c0-.805-.618-1.165-1.225-1.165-.724 0-1.257.44-1.257 1.26 0 .653.446 1.174 1.211 1.174.779 0 1.271-.5 1.271-1.269zm1.664-1.118v2.343h1.2v-.163h-.907v-2.18h-.293zm4.666 1.118c0 .584-.296 1.149-.948 1.149-.514 0-.897-.386-.897-1.053 0-.595.285-1.144.94-1.144.567 0 .904.427.904 1.048zm-2.164.096c0 .652.448 1.173 1.212 1.173.779 0 1.271-.5 1.271-1.269 0-.805-.617-1.165-1.224-1.165-.725 0-1.26.44-1.26 1.26zm6.481-1.214h-.055l-.993 1.812-.914-1.811h-.055l-.346 2.342h.241l.158-1.77.846 1.74h.028l.869-1.735.2 1.765h.294l-.273-2.342zm3.127.161v-.16h-1.194v2.342h1.194v-.163h-.898v-1.01h.799v-.16h-.799v-.849h.898zm1.662 2.179h.294v-2.34h-.294v2.34zm1.825-1.17a.255.255 0 00-.249-.26.256.256 0 00-.25.26c0 .145.113.264.25.264.138 0 .249-.119.249-.264zM15.416 56.71c-.623 0-.944-.087-1.158-.2-.07-.036-.098-.086-.098-.147v-4.048c0-.073.042-.123.113-.147.144-.037.26-.075.683-.075 1.515 0 2.384.927 2.384 2.476 0 .94-.367 1.608-.863 1.905-.326.197-.723.236-1.061.236zm6.172 4.074c-.084-.004-.282 0-.55-.037-.355-.05-.946-.11-1.728-.796-.911-.798-1.418-1.711-2.494-3.167 1.273-1.029 1.71-1.742 1.71-2.658 0-.854-.62-1.66-.975-1.884-.749-.472-1.632-.545-2.524-.545-.44 0-1.249.036-1.404.036-.072 0-.964-.036-1.6-.036-.156 0-.226.023-.226.1 0 .047.056.17.113.17.127 0 .368.011.482.036.466.087.58.286.608.708.028.394.028.741.028 2.672v1.984c0 1.19 0 2.165-.07 2.687-.056.36-.128.631-.411.68-.127.024-.297.05-.426.05-.084 0-.112.133-.112.17 0 .075.072.1.226.1.424 0 1.316-.037 1.33-.037.07 0 .963.037 1.742.037.153 0 .225-.037.225-.1 0-.038-.028-.17-.112-.17-.128 0-.44-.026-.638-.05-.424-.049-.509-.32-.552-.68-.07-.522-.07-1.497-.07-2.687v-.2c0-.061.027-.098.098-.098l1.41.023a.25.25 0 01.187.075c.283.322.69 1.12 1.251 1.832.701.89 1.144 1.534 1.752 1.82.368.173.722.235 1.514.235h1.004c.255 0 .34-.025.34-.1 0-.038-.004-.165-.128-.17zm116.103-1.971a.218.218 0 00-.21.186c-.035.223-.187.767-.436 1.038-.472.509-1.166.62-2.052.62-2.523 0-3.617-2.166-3.617-4.528 0-1.263.202-2.365 1.062-3.23.413-.421.504-.905 2.073-.905 1.035 0 1.943.334 2.358.705.304.271.494.78.494 1.263 0 .173.104.26.186.26.073 0 .096-.074.108-.26.009-.187.009-.867.034-1.274.023-.447.058-.595.058-.694 0-.073-.025-.123-.151-.137-.428.046-.755-.098-1.204-.184a9.454 9.454 0 00-1.711-.15c-1.815 0-2.34.582-3.046 1.325-1.051 1.1-1.321 2.55-1.321 3.379 0 1.176.284 2.586 1.426 3.662.932.881 1.576 1.337 3.343 1.337.755 0 1.425-.085 1.898-.286.214-.097.237-.123.306-.357.119-.422.484-1.497.484-1.584 0-.1-.024-.186-.082-.186zM4.23 60.693c-.256 0-.635-.024-1.018-.184-.438-.187-.438-.36-.48-.966-.015-.184-.015-1.72-.015-2.672v-.708c0-.06.028-.086.085-.086.212 0 .691 0 .875.026.34.037.694.074 1.174.358 1.09.657 1.373 1.734 1.373 2.477 0 1.398-1.232 1.755-1.995 1.755zm-1.513-8.451c0-.074.042-.111.17-.135.227-.05.799-.063.954-.063 1.388 0 1.91 1.1 1.91 2.128 0 .508-.213.953-.51 1.25-.296.297-.77.323-1.561.323-.524 0-.78-.037-.864-.05-.07-.026-.099-.05-.099-.137v-3.316zm2.506 3.54c.749-.432 1.576-1.04 1.576-2.055 0-.62-.473-2.03-3.077-2.03-.652 0-1.203.036-1.543.036-.07 0-.962-.036-1.598-.036-.156 0-.227.025-.227.1 0 .049.056.17.113.17.129 0 .369.011.482.036.465.087.579.284.608.705.028.397.028.697.028 2.627v2.08c0 1.19 0 2.167-.071 2.686-.056.36-.127.631-.41.681-.127.025-.297.05-.424.05-.084 0-.113.084-.113.121 0 .074.07.101.227.101.423 0 1.316-.037 1.385-.037.114 0 1.557.074 1.882.074 2.42 0 3.242-1.373 3.242-2.699 0-1.447-1.034-2.326-2.08-2.61zm153.736-4.044c-.482 0-.871.037-1.001.037-.13 0-.695-.037-1.226-.037-.141 0-.235.011-.235.087 0 .048.012.182.094.182.094 0 .365.013.579.061.364.1.446.373.459 1.178l.128 6.19c-.377-.409-5.469-7.266-5.653-7.483a.34.34 0 00-.075-.084.265.265 0 00-.172-.062 50.357 50.357 0 00-1.753-.037c-.143 0-.214.027-.214.1 0 .05.037.17.095.17.107 0 .368.012.589.076.32.098.465.588.489 1.602l-.008 5.461c0 1.127-.059 1.483-.354 1.571a1.62 1.62 0 01-.485.073c-.057 0-.095.121-.095.171 0 .088.073.099.189.099.531 0 1.027-.037 1.133-.037.106 0 .579.037 1.25.037.142 0 .212-.025.212-.099 0-.05-.035-.171-.095-.171-.105 0-.366-.011-.589-.073-.319-.099-.437-.422-.46-1.436l.002-6.072c.376.447 5.395 7.072 5.526 7.196.624.655.811.742.904.742.084 0 .131-.06.131-.877v-7.157c0-.742.047-1.015.437-1.102.141-.037.224-.037.282-.037.082 0 .13-.134.13-.182 0-.076-.083-.087-.214-.087zm-91.529 9.35c-.017 0-.03 0-.047-.002h-.156l.203.002z"/><path d="M68.91 58.802c-.085 0-.113.062-.126.162-.027.135-.246.634-.523 1.005-.202.27-.441.444-.616.508a3.985 3.985 0 01-.748.129c-1.104 0-1.472-.086-1.699-.284-.255-.223-.31-1.013-.31-2.833v-2.106c0-1.93 0-2.279.028-2.675.027-.432.14-.643.552-.703a3.43 3.43 0 01.466-.039c.057 0 .114-.12.114-.169 0-.077-.07-.1-.227-.1-.425 0-1.458.036-1.528.036-.071 0-.963-.036-1.598-.036-.157 0-.228.023-.228.1 0 .049.057.17.114.17.127 0 .368.011.48.038.468.085.582.284.609.703.029.397.029.744.029 2.675v1.984c0 1.19 0 2.167-.072 2.687-.057.36-.126.631-.41.68a2.29 2.29 0 01-.425.048c-.084 0-.112.135-.112.171 0 .074.07.101.226.101.424 0 1.259-.037 1.387-.037.72 0 1.528.056 3.09.069l.49.002h-.091s.416-.018.421-.032c.21-.016.792-1.931.792-2.068 0-.136-.014-.186-.086-.186zm10.57 0c-.085 0-.112.062-.127.162-.024.135-.246.634-.521 1.005-.205.27-.443.444-.617.508a3.97 3.97 0 01-.748.129c-1.105 0-1.472-.086-1.7-.284-.253-.223-.31-1.013-.31-2.833v-2.106c0-1.93 0-2.279.028-2.675.029-.432.142-.643.552-.703.17-.027.368-.039.467-.039.056 0 .113-.12.113-.169 0-.077-.07-.1-.227-.1-.423 0-1.457.036-1.526.036-.072 0-.963-.036-1.6-.036-.157 0-.226.023-.226.1 0 .049.056.17.113.17.127 0 .366.011.48.038.467.085.58.284.61.703.028.397.028.744.028 2.675v1.984c0 1.19 0 2.167-.071 2.687-.057.36-.128.631-.41.68a2.282 2.282 0 01-.425.048c-.085 0-.114.135-.114.171 0 .074.072.101.227.101.425 0 1.26-.037 1.388-.037.718 0 1.527.056 3.091.069l.487.002h-.091s.417-.018.422-.032c.21-.016.792-1.931.792-2.068 0-.136-.013-.186-.085-.186z"/><path d="M78 61.088c-.016 0-.029 0-.045-.002h-.157l.202.002zm102.378-2.286c-.086 0-.113.062-.129.162-.023.135-.245.634-.523 1.005-.2.27-.439.444-.613.508a4.015 4.015 0 01-.751.129c-1.102 0-1.473-.086-1.696-.284-.257-.223-.314-1.013-.314-2.833v-2.106c0-1.93 0-2.279.03-2.675.027-.432.142-.643.552-.703.171-.027.367-.039.465-.039.061 0 .115-.12.115-.169 0-.077-.07-.1-.227-.1-.425 0-1.458.036-1.525.036-.073 0-.964-.036-1.602-.036-.156 0-.227.023-.227.1 0 .049.058.17.114.17.127 0 .368.011.48.038.468.085.58.284.61.703.029.397.029.744.029 2.675v1.984c0 1.19 0 2.167-.07 2.687-.057.36-.128.631-.41.68-.129.027-.3.048-.425.048-.087 0-.113.135-.113.171 0 .074.069.101.222.101.428 0 1.263-.037 1.392-.037.717 0 1.529.056 3.088.069l.491.002h-.093s.416-.018.42-.032c.211-.016.793-1.931.793-2.068 0-.136-.015-.186-.083-.186z"/><path d="M178.895 61.088c-.014 0-.027 0-.045-.002h-.157l.202.002zm10.445 0c-.014 0-.026 0-.043-.002h-.161l.204.002z"/><path d="M190.822 58.802c-.084 0-.112.062-.127.162-.026.135-.245.634-.524 1.005-.202.27-.439.444-.612.508a3.998 3.998 0 01-.752.129c-1.102 0-1.472-.086-1.698-.284-.253-.223-.309-1.013-.309-2.833v-2.106c0-1.93 0-2.279.025-2.675.031-.432.145-.643.555-.703a3.43 3.43 0 01.464-.039c.059 0 .116-.12.116-.169 0-.077-.073-.1-.228-.1-.425 0-1.458.036-1.525.036-.072 0-.964-.036-1.601-.036-.156 0-.226.023-.226.1 0 .049.057.17.112.17.129 0 .366.011.483.038.465.085.578.284.607.703.029.397.029.744.029 2.675v1.984c0 1.19 0 2.167-.072 2.687-.056.36-.126.631-.408.68-.129.027-.3.048-.426.048-.084 0-.115.135-.115.171 0 .074.072.101.225.101.428 0 1.263-.037 1.392-.037.718 0 1.525.056 3.09.069l.488.002h-.092s.416-.018.42-.032c.213-.016.794-1.931.794-2.068 0-.136-.016-.186-.085-.186zm-20.835.004c-.087 0-.114.06-.128.16a2.486 2.486 0 01-.329.788c-.196.296-.304.577-.716.723-.376.119-.958.119-1.307.119-1.386 0-1.6-.16-1.643-1.016-.014-.26 0-1.694 0-2.115v-1.092c0-.047.027-.084.1-.084.12 0 .531.006.962.015.193.007.388.011.563.02l.253.01c.103.005.184.011.245.016l.136.013c.372.072.644.743.726.935.069.157.081.277.097.4.004.062.037.108.109.101.099-.01.083-.144.072-.245a55.472 55.472 0 01-.021-1.276c.002-.409.052-1.106.044-1.18l-.006-.027c-.006-.05-.03-.068-.065-.068-.057 0-.114.063-.216.162-.125.123-.323.627-.664.654-.325.023-2.064.023-2.251.023-.07 0-.084-.037-.084-.123v-3.415c0-.086.027-.126.084-.126.157 0 1.698.014 1.939.04l.077.006.166.018c.598.084.896.806 1.028.954.109.124.176.321.201.406.025.094.067.145.151.118.053-.014.061-.092.059-.157a61.212 61.212 0 00-.147-1.287c-.044-.319-.031-.447-.044-.538-.003-.055-4.008-.005-4.107-.005-.07 0-.961-.036-1.599-.036-.156 0-.228.023-.228.1 0 .047.057.17.115.17.127 0 .368.011.48.036.468.087.58.286.609.708.028.394.028.741.028 2.672v1.984c0 1.19 0 2.165-.073 2.687-.056.36-.124.631-.408.68-.129.024-.298.05-.424.05-.085 0-.115.133-.115.17 0 .075.073.1.228.1.426 0 1.317-.037 1.387-.037.41 0 1.356.074 3.494.074h.49c.444 0 .534 0 .602-.206.112-.36.214-1.76.214-1.895 0-.136-.016-.184-.084-.184z"/></g><defs><clipPath id="clip0_103_805"><path fill="#fff" transform="translate(.351)" d="M0 0h197.711v61.44H0z"/></clipPath></defs></svg>
