<svg width="191" height="24" viewBox="0 0 191 24" fill="none" xmlns="http://www.w3.org/2000/svg">
<g id="Logo" clip-path="url(#clip0_1141_249)">
<path id="Vector" d="M95.1735 1.52148H91.9468V10.4722H81.9258V1.52148H78.6992V20.3454C78.7511 21.1482 79.4558 21.782 80.3088 21.782C81.1618 21.782 81.8739 21.1271 81.9258 20.3243V20.3384C81.9258 20.3384 81.9258 20.2187 81.9258 20.2116V11.5285H91.9468V20.2327C91.9468 20.2327 91.9468 20.2468 91.9468 20.2539C91.9468 21.106 92.6663 21.782 93.5639 21.782C94.4614 21.782 95.1809 21.0919 95.1809 20.2468V1.52148H95.1735Z" fill="#FD6562"></path>
<path id="Vector_2" d="M155.849 1.52148H152.63V20.3032C152.645 21.1201 153.357 21.782 154.225 21.782C155.092 21.782 155.827 21.1201 155.842 20.3032V1.52148H155.849Z" fill="#FD6562"></path>
<path id="Vector_3" d="M72.788 17.9855C72.5283 17.9855 72.291 18.0841 72.113 18.2461C70.5108 19.6123 68.471 20.3729 66.3718 20.3729C62.2255 20.3729 59.2214 16.6475 59.2214 11.5067C59.2214 6.36581 62.2255 2.64046 66.3718 2.64046C68.4191 2.64046 70.3773 3.28131 71.8979 4.45032L72.7657 5.11933V2.77426L72.4838 2.63342C70.6666 1.71088 68.6119 1.24609 66.3718 1.24609C60.4156 1.24609 55.75 5.75314 55.75 11.5137C55.75 17.2743 60.4156 21.7813 66.3718 21.7813C69.0125 21.7813 71.3341 21.1052 73.0995 19.8236L73.3665 19.6123C73.5891 19.4433 73.7374 19.1898 73.7374 18.894C73.7374 18.394 73.3072 17.9855 72.7805 17.9855H72.788Z" fill="#FD6562"></path>
<path id="Vector_4" d="M28.8613 11.5637H21.8073L21.7924 20.6412H30.3522C30.3522 20.6412 30.367 20.6412 30.3745 20.6412C30.6934 20.6412 30.953 20.8877 30.953 21.1905C30.953 21.4933 30.6934 21.7398 30.3745 21.7398C30.3596 21.7398 30.3522 21.7398 30.3374 21.7398H18.5732V1.52148H30.3745C30.6934 1.52148 30.953 1.76796 30.953 2.07078C30.953 2.3736 30.6934 2.62008 30.3745 2.62008C30.3745 2.62008 30.367 2.62008 30.3596 2.62008H21.7998V10.4651H28.8465C28.8465 10.4651 28.8539 10.4651 28.8613 10.4651C29.1802 10.4651 29.4399 10.7116 29.4399 11.0074C29.4399 11.3032 29.1802 11.5567 28.8613 11.5567" fill="#FD6562"></path>
<path id="Vector_5" d="M52.642 19.831L44.4309 0L35.5225 21.7254H37.1172L39.832 14.838H47.116L49.6305 20.9014C49.9421 21.669 50.8396 22.0704 51.6629 21.8028C52.5085 21.5282 52.9536 20.6549 52.6569 19.8521V19.831H52.642ZM40.3142 13.7535L43.4963 6.08451L46.6561 13.7606H40.3142V13.7535Z" fill="#FD6562"></path>
<path id="Vector_6" d="M5.39993 1.52148H0V20.2539C0 21.0989 0.719496 21.782 1.61701 21.782C2.51453 21.782 3.22661 21.0989 3.23402 20.2609V2.62008H4.69527C7.77353 2.62008 9.27186 4.04965 9.27186 7.00036C9.27186 8.48627 8.89357 9.54261 8.12215 10.2257C7.36556 10.8947 6.37162 11.1975 4.91038 11.2116C4.59884 11.2116 4.34665 11.4511 4.34665 11.7468C4.34665 12.0426 4.59884 12.282 4.91038 12.282H5.57795C6.83892 12.282 7.91446 12.1201 8.97516 11.7609C11.3488 10.9581 12.6542 9.26796 12.6542 7.00036C12.6542 3.66937 9.80592 1.52148 5.39993 1.52148Z" fill="#FD6562"></path>
<path id="Vector_7" d="M124.947 21.866L124.933 21.852C124.881 21.7956 121.246 17.359 121.246 17.359C122.032 16.0351 122.522 14.366 122.693 12.4013L122.737 11.9083H121.469L121.432 12.3308C121.305 13.8731 120.949 15.2041 120.378 16.2956L114.912 9.64774C116.173 8.78858 117.382 7.71816 117.382 6.05619C117.382 4.21112 116.017 2.97168 113.984 2.97168C111.767 2.97168 110.328 4.38717 110.328 6.57731C110.328 7.31675 110.491 8.47872 111.826 10.1829C108.785 12.2041 107.42 13.6196 107.42 16.197C107.42 19.1337 109.964 21.028 113.895 21.028C116.158 21.028 118.012 20.4858 119.421 19.4224L122.707 23.4294C122.707 23.4294 122.73 23.4576 122.744 23.4787C123.212 24.0562 124.087 24.1689 124.695 23.7252C125.303 23.2815 125.422 22.4506 124.955 21.8731L124.947 21.866ZM113.97 4.21816C115.053 4.21816 115.282 5.19703 115.282 6.01393C115.282 7.0421 114.882 7.92238 114.088 8.64069L114.051 8.5914C112.709 6.9576 112.709 6.359 112.709 5.66182C112.709 5.32379 112.798 4.21816 113.97 4.21816ZM114.125 19.7745C111.781 19.7745 110.379 18.3027 110.379 15.8379C110.379 13.9858 111.069 12.5773 112.671 11.2182L118.605 18.4435C117.448 19.3308 115.943 19.7745 114.125 19.7745Z" fill="#FD6562"></path>
<path id="Vector_8" d="M146.866 20.6334H139.471V1.51367H136.244V21.7249H146.866C147.185 21.7249 147.445 21.4785 147.445 21.1756C147.445 20.8728 147.185 20.6334 146.873 20.6264L146.866 20.6334Z" fill="#FD6562"></path>
<path id="Vector_9" d="M172.887 20.6412H165.491V1.52148H162.265V21.7328H172.887C173.205 21.7328 173.465 21.4863 173.465 21.1835C173.465 20.8806 173.205 20.6412 172.894 20.6342L172.887 20.6412Z" fill="#FD6562"></path>
<path id="Vector_10" d="M184.25 20.1968V19.7883L184.221 12.1686L190.793 1.51367H189.539L183.798 10.8235L177.975 1.51367H174.318L181.009 12.2813V20.2672C181.009 21.1052 181.728 21.7813 182.626 21.7813C183.523 21.7813 184.243 21.1052 184.243 20.2672V20.1968H184.25Z" fill="#FD6562"></path>
</g>
<defs>
<clipPath id="clip0_1141_249">
<rect width="190.8" height="24" fill="white"></rect>
</clipPath>
</defs>
</svg>
