<svg xmlns="http://www.w3.org/2000/svg" viewBox="0 0 400 37"><path fill="currentColor" d="M286.60022,0 C292.580288,0 297.342192,1.85545723 300.885935,5.45722712 L300.885935,5.45722712 L295.902547,9.82300885 C292.580288,6.65781709 289.590255,5.56637169 286.157254,5.56637169 C280.730896,5.56637169 278.6268,8.18584071 278.6268,10.3687316 C278.6268,18.3362832 301.771871,10.3687316 301.993354,25.1032448 C301.993354,32.5250738 294.352159,37 286.157254,37 C281.173864,37 275.30454,35.1445427 270.764119,30.4513275 L270.764119,30.4513275 L275.747506,25.9764013 C278.405315,28.8141593 282.170543,30.778761 286.378737,30.778761 C291.362126,30.6696166 294.905869,28.8141593 294.905869,25.4306786 C294.905869,17.5722714 271.760798,25.2123895 271.760798,10.6961652 C271.760798,4.36578172 278.405315,0 286.60022,0 Z M129.346622,0 L129.346622,19.6460177 C129.346622,26.0855457 133.444075,30.0147492 138.648948,30.0147492 C143.85382,30.0147492 147.951273,26.1946902 147.951273,19.6460177 L147.951273,19.6460177 L147.951273,0 L154.595791,0 L154.595791,21.0648967 C154.595791,29.2507376 148.283499,36.2359882 138.648948,36.2359882 C129.014396,36.2359882 122.702104,29.2507376 122.702104,21.0648967 L122.702104,21.0648967 L122.702104,0 L129.346622,0 Z M329.014395,24.7758112 C332.225913,24.7758112 334.772978,27.2861356 334.772978,30.4513275 C334.772978,33.6165193 332.225913,36.1268435 329.014395,36.1268435 C325.913621,36.1268435 323.366554,33.5073746 323.366554,30.4513275 C323.366554,27.2861356 325.913621,24.7758112 329.014395,24.7758112 Z M361.683277,24.7758112 C364.784051,24.7758112 367.331118,27.2861356 367.44186,30.4513275 C367.44186,33.6165193 364.784051,36.1268435 361.683277,36.1268435 C358.471761,36.1268435 355.924692,33.5073746 355.924692,30.4513275 C355.924692,27.2861356 358.582503,24.7758112 361.683277,24.7758112 Z M394.241415,24.7758112 C397.452936,24.7758112 400,27.2861356 400,30.4513275 C400,33.6165193 397.452936,36.1268435 394.241415,36.1268435 C391.029899,36.1268435 388.482835,33.5073746 388.482835,30.4513275 C388.482835,27.2861356 391.140641,24.7758112 394.241415,24.7758112 Z M58.6932447,0.218289085 L58.6932447,35.6902654 L52.0487265,35.6902654 L52.0487265,0.218289085 L58.6932447,0.218289085 Z M21.3732004,0 C29.4573642,0 34.330011,5.23893804 34.330011,12.2241888 C34.330011,17.1770929 31.0264503,21.1125258 26.4128568,22.753386 L25.9136213,22.920354 L34.8837209,35.5811208 L26.578073,35.5811208 L19.047619,24.3392329 L10.9634551,24.3392329 L10.9634551,35.4719765 L4.31893687,35.4719765 L4.31893687,24.3392329 L0,24.3392329 L0,18.1179941 L4.31893687,18.1179941 L4.31893687,0 L21.3732004,0 Z M104.651163,0 L104.651163,6.22123895 L94.1306751,6.22123895 L94.1306751,35.5811208 L87.486157,35.5811208 L87.486157,6.22123895 L76.9656699,6.22123895 L76.9656699,0 L104.651163,0 Z M231.229235,0 L231.229235,29.359882 L245.404208,29.359882 L245.404208,20.8466077 L252.048725,20.8466077 L252.048725,35.5811208 L224.584717,35.5811208 L224.584717,0 L231.229235,0 Z M191.58361,0 L206.866002,35.4719765 L199.667774,35.4719765 L196.899224,28.8141593 L181.616833,28.8141593 L178.848283,35.4719765 L171.760797,35.4719765 L184.82835,5.89380529 L176.633444,5.89380529 L176.633444,0 L191.58361,0 Z M189.36877,10.259587 L184.053156,22.920354 L194.573643,22.920354 L189.36877,10.259587 Z M20.9302325,6.22123895 L10.9634551,6.22123895 L10.9634551,18.1179941 L20.9302325,18.1179941 C25.6921373,18.1179941 27.7962346,15.280236 27.7962346,12.1150443 C27.7962346,8.94985251 25.6921373,6.22123895 20.9302325,6.22123895 Z"></path></svg>