<?xml version="1.0" encoding="UTF-8"?>
<svg id="Layer_1" data-name="Layer 1" xmlns="http://www.w3.org/2000/svg" viewBox="0 0 185.03 108.51">
  <path d="M92.64,93.62c.15-.03,.34-.02,.44-.1,.84-.67,1.84-.74,2.81-.58,.74,.12,1.14,.8,1.45,1.45,.38,.77,.72,1.55,1.06,2.33,1.01,2.36,2.47,4.45,3.99,6.48,1.14,1.52,2.74,2.45,4.49,3.15,1.05,.42,2.13,.72,3.22,1.02,1.47,.4,2.8,.26,3.91-.9,.17-.17,.34-.34,.51-.51,.34-.32,.42-.31,.71,.05,.09,.12,.21,.22,.05,.38-.82,.77-1.45,1.82-2.72,1.98-.47,.06-.96,.19-1.4,.1-2.26-.46-4.44-1.15-6.43-2.35-.99-.6-1.87-1.34-2.61-2.22-1.36-1.63-2.53-3.41-3.56-5.26-.62-1.12-1.08-2.33-1.6-3.5-.16-.36-.28-.74-.48-1.06-.14-.21-.4-.34-.6-.52-.26-.23-.47-.04-.74,0-1.16,.2-2.1,.79-3.04,1.44-1.19,.83-2.38,1.64-3.57,2.46-.67,.47-1.32,.98-2.01,1.42-.35,.23-.76,.37-1.16,.51-.45,.15-.9,0-1.04-.39-.06-.18,0-.48,.11-.63,.27-.34,.58-.67,.92-.94,1.47-1.17,2.95-2.33,4.43-3.49,.19-.15,.34-.33,.51-.5,1.02-1.02,2.05-2.03,3.05-3.06,1.69-1.73,3.22-3.58,4.64-5.53,.7-.96,1.47-1.86,2.24-2.76,1.38-1.63,2.77-3.25,4.16-4.87,.05-.06,.11-.11,.17-.17,.4-.46,.8-.92,1.19-1.38-.6-.02-1.19-.04-1.79-.04-1.6,0-3.2,.03-4.8-.01-1.18-.03-2.39-.04-3.53-.27-1.22-.25-2.48-.21-3.68-.64-.68-.24-1.38-.02-1.94,.56-1.37,1.41-2.78,2.76-4.15,4.17-.97,1-1.91,2.03-2.84,3.06-1.36,1.5-2.75,2.97-4.03,4.53-1.77,2.16-3.57,4.3-5.13,6.6-2.2,3.26-4.1,6.71-5.08,10.57-.09,.36-.05,.76-.03,1.15,0,.23,.12,.46,.12,.68,0,.25-.08,.49-.13,.74-.17-.16-.4-.3-.51-.5-.15-.31-.23-.65-.32-.99-.09-.34-.2-.68-.2-1.02,0-.38,.12-.76,.2-1.14,.23-1.18,.44-2.36,.84-3.5,.56-1.58,1.25-3.09,2.03-4.58,.85-1.64,1.81-3.19,2.88-4.69,.96-1.34,1.9-2.68,3.01-3.92,1.29-1.44,2.5-2.95,3.75-4.43,.15-.18,.33-.35,.5-.52,2.3-2.38,4.6-4.77,6.92-7.13,.36-.37,.09-.39-.17-.48-.15-.05-.29-.12-.44-.15-2.5-.55-4.94-1.3-7.36-2.1-2.06-.68-4.12-1.36-6.15-2.11-.5-.18-.74-.06-1.02,.28-1.23,1.54-2.38,3.16-3.71,4.6-1.46,1.57-2.96,3.11-4.61,4.5-1.66,1.39-3.33,2.75-5.17,3.9-1.18,.74-2.38,1.47-3.61,2.14-2.31,1.26-4.71,2.31-7.26,3-1.31,.35-2.62,.68-3.94,.96-1.54,.32-3.11,.35-4.65,.62-.75,.13-1.57-.12-2.35-.09-.53,.02-1.04-.08-1.56-.11-3.44-.19-6.8-.86-10.08-1.91-4.03-1.28-7.76-3.12-11.03-5.82-1.04-.86-2.13-1.67-3.05-2.65-1.45-1.55-2.89-3.13-4.05-4.93-.34-.53-.48-1.07-.41-1.68,.01-.1,.12-.28,.16-.27,.14,.02,.31,.08,.39,.18,.08,.1,.14,.28,.11,.41-.11,.49,.03,.88,.36,1.23,1.52,1.67,2.88,3.5,4.56,5.03,2.72,2.48,5.73,4.48,9.15,5.91,2.27,.95,4.61,1.64,6.97,2.24,1.17,.3,2.39,.39,3.58,.56,.62,.09,1.24,.19,1.86,.23,.59,.04,1.18,.17,1.74,.19,1.22,.05,2.46,.28,3.67-.14,.22-.07,.48-.03,.71-.03,1.46,0,2.85-.41,4.28-.64,1.58-.25,3.09-.73,4.56-1.3,2.43-.93,4.8-1.95,7.02-3.35,1.72-1.09,3.38-2.24,5.01-3.44,.7-.51,1.35-1.1,1.98-1.7,1.07-1.02,2.15-2.04,3.14-3.14,1.19-1.32,2.29-2.72,3.43-4.09,.33-.39,.63-.81,.96-1.2,.19-.22,.13-.29-.13-.36-1-.29-1.99-.66-3-.92-2.4-.62-4.8-1.21-7.22-1.77-1.25-.29-2.52-.49-3.79-.69-1.63-.25-3.25-.16-4.87-.17-1.37-.01-2.73,.27-4.09,.42-1.52,.17-2.99,.55-4.48,.81-1.2,.2-2.36,.71-3.52,1.11-.62,.22-1.22,.5-1.82,.77-.31,.14-.32,.27-.03,.45,1.19,.75,2.39,1.47,3.79,1.79,1.3,.3,2.57,.67,3.92,.63,1.43-.04,2.79-.27,4.05-.97,.07-.04,.14-.1,.21-.1,.12,.01,.29,.03,.36,.11,.08,.1,.14,.34,.08,.4-.27,.29-.54,.67-.88,.76-.71,.19-1.37,.49-2.13,.57-.74,.08-1.49,.25-2.22,.16-2.73-.34-5.39-.94-7.59-2.73-.59-.48-1.08-.43-1.6-.09-1.74,1.13-3.33,2.44-4.45,4.2-.74,1.15-1.2,2.44-1.2,3.84,0,.83-.05,1.65,.24,2.46,.38,1.06,1.02,1.87,2.14,2.14,.44,.11,.74,.28,.92,.64,.08,.15-.68,.18-1.18-.03-1.4-.59-2.27-1.59-2.63-3.09-.72-3.06,.15-5.65,2.19-7.92,1.09-1.21,2.36-2.22,3.8-2.97,.34-.18,.17-.26,.04-.38-1.22-1.15-2.08-2.56-2.88-4-.82-1.47-1.31-3.07-1.68-4.7-.24-1.06-.36-2.16-.54-3.23-.2-1.19-.16-2.37-.19-3.55-.04-1.94,.34-3.82,.82-5.68,.4-1.54,.94-3.04,1.42-4.55,.05-.15,.14-.29,.14-.44,0-.39,.13-.96-.08-1.14-.35-.31-.9-.47-1.42-.38-1.37,.25-2.75,.47-4.03,1.07-2.2,1.02-4.25,2.29-6.16,3.78-2.26,1.76-4.48,3.56-6.76,5.29-1.05,.8-2.22,1.44-3.33,2.17-.52,.34-1.03,.72-1.55,1.06-1.76,1.15-3.51,2.32-5.39,3.27-.8,.4-1.59,.86-2.52,.87-.44,.44-.83,.06-1.14-.16-.65-.44-.64-1.04,.03-1.52,1.05-.75,2.12-1.46,3.22-2.13,1.89-1.15,3.84-2.21,5.72-3.38,1.62-1,3.21-2.06,4.75-3.16,1.08-.77,2.09-1.66,3.1-2.52,1.21-1.02,2.39-2.08,3.58-3.12,.21-.18,.41-.39,.6-.58,1.76-1.75,3.54-3.48,5.25-5.27,1.29-1.35,2.48-2.78,3.73-4.17,.93-1.03,1.87-2.06,2.82-3.08,1.93-2.09,3.84-4.21,5.82-6.26,2.08-2.16,4.22-4.26,6.36-6.37,.85-.84,1.74-1.63,2.65-2.4,1.26-1.07,2.54-2.13,3.84-3.15,1.64-1.28,3.27-2.59,4.99-3.77,1.77-1.22,3.57-2.4,5.46-3.41,2.42-1.29,5.02-2.19,7.68-2.89,.79-.21,1.63-.19,2.45-.27,.2-.02,.4-.02,.58-.07,1.35-.4,2.64-.1,3.91,.32,1.19,.39,1.8,1.33,2.1,2.49,.03,.12-.03,.29-.09,.42-.08,.16-.23,.22-.35,.04-.09-.12-.17-.27-.2-.41-.25-1.28-1.28-1.66-2.33-1.78-1.14-.14-2.32-.1-3.47,0-.84,.06-1.68,.29-2.49,.51-2.54,.71-4.99,1.66-7.28,2.95-2.08,1.16-4.1,2.44-5.94,3.98-1.54,1.28-3.15,2.49-4.69,3.77-.98,.81-1.91,1.68-2.82,2.57-1.59,1.53-3.15,3.09-4.71,4.65-1.43,1.43-2.86,2.86-4.25,4.33-1.8,1.91-3.58,3.84-5.33,5.79-1.48,1.65-2.86,3.39-4.36,5.02-1.97,2.14-4.02,4.21-6.03,6.31-.27,.28-.51,.59-.76,.89-.06,.03-.13,.05-.19,.08,.03,.03,.06,.06,.1,.09,.03-.06,.05-.13,.08-.19,.32-.12,.68-.18,.96-.37,1.34-.91,2.84-1.4,4.39-1.81,.79-.21,1.56-.23,2.34-.21,1.53,.03,2.48,1.39,2.04,2.87-.45,1.48-.92,2.96-1.34,4.45-.29,1.04-.51,2.11-.72,3.18-.38,1.9-.3,3.82-.17,5.71,.25,3.65,1.19,7.13,3.42,10.14,.38,.51,.89,.91,1.33,1.38,.38,.41,.75,.43,1.27,.19,1.06-.48,2.14-.92,3.24-1.27,1.25-.39,2.53-.7,3.82-.97,1.07-.22,2.15-.37,3.23-.52,2.2-.32,4.4-.57,6.6-.42,1.51,.1,3.03,.22,4.51,.63,1.53,.42,3.11,.66,4.66,1.03,2.22,.54,4.42,1.14,6.63,1.71,.15,.04,.28,.15,.43,.19,.88,.22,.86,.19,1.38-.5,1.53-2.01,2.78-4.19,4.08-6.35,.86-1.44,1.66-2.92,2.5-4.38,.39-.68,.83-1.33,1.24-2,.05-.09,.05-.21,.07-.32-.09,.02-.21,.02-.27,.07-1.79,1.53-3.72,2.83-5.8,3.94-.75,.4-1.54,.72-2.27,1.16-.71,.43-1.46,.51-2.27,.49-.66-.02-1.18-.28-1.51-.8-.67-1.01-.86-2.09-.28-3.23,.49-.95,1.11-1.81,1.85-2.58,1.63-1.69,3.37-3.23,5.28-4.6,2.03-1.47,4.04-2.98,6-4.55,1.2-.97,2.29-2.09,3.42-3.14,.6-.56,.81-1.33,1.08-2.06,.14-.39-.12-.7-.41-.87-.4-.23-.85-.4-1.3-.49-2.05-.41-4,.14-5.89,.83-2.34,.86-4.51,2.09-6.56,3.5-1.26,.87-2.42,1.86-3.62,2.82-1.69,1.35-3.37,2.71-5.03,4.09-.79,.66-1.56,1.34-2.3,2.06-1.19,1.16-2.56,2.08-3.83,3.13-1.06,.88-2.13,1.73-3.25,2.51-1.77,1.23-3.59,2.34-5.73,2.78-.5,.1-1.07-.05-1.6-.15-1.56-.31-2.33-1.3-2.69-2.87-.39-1.68,.09-3.16,.7-4.65,.69-1.65,1.67-3.11,2.95-4.37,.06-.06,.12-.11,.17-.17,1.26-1.58,3.1-2.38,4.72-3.45,.74-.49,1.69-.44,2.54-.29,.57,.1,1.04,.51,1.29,1.11,.23,.54,.42,.98,.22,1.66-.35,1.22-1.29,1.89-2.11,2.65-.62,.58-1.44,.94-2.1,1.47-.77,.62-1.71,.76-2.6,.94-.61,.12-1.33-.17-1.66-.86-.1-.21-.15-.25-.3-.1-.2,.2-.42,.38-.57,.61-.84,1.31-1.63,2.65-2.09,4.16-.19,.64-.21,1.26-.1,1.87,.09,.51,.39,.92,.99,1.14,1.28,.47,1.88,.53,3.13,0,2.28-.98,4.35-2.28,6.26-3.86,1.45-1.2,2.96-2.33,4.43-3.5,.65-.52,1.28-1.06,1.88-1.64,1.44-1.41,3.01-2.67,4.61-3.89,1.56-1.19,3.05-2.48,4.64-3.63,2.39-1.75,4.89-3.32,7.76-4.21,1.15-.36,2.31-.63,3.54-.72,.82-.06,1.61-.02,2.41,.04,.5,.04,.92,.22,1.28,.54,1.4,1.23,1.64,2.72,.69,4.44-1.05,1.9-2.65,3.33-4.34,4.67-1.26,1-2.52,2.02-3.78,3.03-.8,.64-1.61,1.26-2.41,1.9-.86,.69-1.72,1.39-2.56,2.1-.78,.67-1.55,1.37-2.3,2.07-.75,.71-1.36,1.51-1.83,2.44-.22,.44,0,.7,.24,.86,.47,.32,.97,.32,1.56,.12,2.04-.69,3.94-1.65,5.69-2.88,1.92-1.34,3.83-2.71,5.73-4.09,.42-.3,.75-.72,1.13-1.07,1.25-1.17,2.45-2.4,3.76-3.5,1.17-.98,2.61-1.51,4.05-1.98,1.36-.45,2.77-.61,4.19-.47,.52,.05,1.03,.34,1.51,.58,.33,.17,.3,.54,.25,.86,0,.05-.15,.12-.22,.1-.31-.06-.6-.15-.91-.21-.34-.06-.71-.18-1.04-.14-2.37,.34-4.58,1.08-6.53,2.55-2.06,1.55-3.66,3.51-5.19,5.53-1.45,1.91-2.53,4.05-3.77,6.09-1.27,2.07-2.54,4.14-3.81,6.22-.2,.33-.41,.67-.62,1-.28,.45-.55,.89-.83,1.34,.48,.16,.95,.33,1.43,.48,2.36,.77,4.7,1.58,7.08,2.28,2.18,.65,4.4,1.2,6.61,1.78,.12,.03,.31-.04,.41-.12,.33-.29,.63-.61,.95-.92,2.14-2.09,4.54-3.87,7.01-5.54,.22-.15,.5-.21,.74-.33,.91-.41,1.14-.3,1.41,.66,.04,.15,.13,.19-.07,.34-1.23,.91-2.46,1.82-3.62,2.82-1.24,1.06-2.4,2.2-3.6,3.31-.13,.12-.34,.28,.06,.35,.88,.15,1.73,.46,2.64,.48,.62,.02,1.24,.15,1.86,.23,.62,.07,1.26-.12,1.87,.21,.22,.12,.55,.03,.83,.03,1.84,0,3.68,.02,5.52-.01,.7-.01,1.4-.13,2.09-.25,.21-.04,.4-.24,.56-.4,.52-.5,1.04-1,1.53-1.53,1.32-1.43,2.93-2.53,4.46-3.69,1.95-1.48,4.03-2.78,6.24-3.86,1.29-.63,2.65-1.08,4.07-1.31,.65-.11,1.3-.39,1.94-.35,1.05,.07,2.23-.1,3.02,.88,.12,.15,.22,.32,.29,.5,.03,.09,0,.25-.07,.32-.06,.06-.24,.08-.3,.03-.66-.5-1.42-.41-2.17-.42-1.23,0-2.36,.45-3.48,.87-2.11,.79-4.09,1.85-5.9,3.21-1.31,.99-2.62,1.99-3.91,3-2.42,1.91-4.51,4.18-6.6,6.42-1.42,1.53-2.91,3.01-4.15,4.73-1.01,1.41-2.31,2.61-3.39,3.97-1.38,1.75-2.87,3.39-4.48,4.93-.48,.46-1.02,.86-1.53,1.3-.11,.1-.17,.25-.25,.38-.04,.06-.09,.12-.13,.17,.04-.07,.07-.13,.11-.2ZM3.36,56.18c.19-.01,.45,.1,.48-.24,.19-.01,.45,.09,.48-.24,.19-.01,.44,.08,.48-.24,.06-.03,.13-.06,.19-.09l-.11-.09c-.02,.06-.05,.13-.07,.19-.2,0-.44-.08-.48,.24-.19,.01-.45-.09-.48,.24-.19,.02-.45-.09-.48,.24-.08,0-.16-.02-.23,0-.07,.03-.12,.1-.18,.15,.07,.02,.16,.08,.2,.05,.08-.05,.13-.15,.19-.23Zm2.66-1.42c-.19,.02-.44-.09-.48,.24-.07,.03-.13,.05-.2,.08,.03,.03,.07,.06,.1,.09,.03-.06,.05-.13,.08-.19,.19-.01,.45,.09,.48-.24,.07-.02,.13-.05,.2-.07-.03-.03-.06-.06-.09-.1-.03,.06-.06,.13-.08,.19Zm42.07-4.35c.33,0,.45,.02,.57,0,.11-.02,.21-.09,.32-.12,1.43-.36,2.62-1.19,3.73-2.09,.72-.58,1.45-1.21,1.79-2.16,.31-.87,.13-1.21-.76-1.11-.26,.03-.54,.12-.77,.25-.8,.46-1.61,.92-2.38,1.44-1.05,.71-1.96,1.59-2.84,2.5-.3,.31-.32,.66-.15,.97,.11,.2,.42,.29,.48,.33Zm-41.42,3.95s-.05-.04-.07-.03c-.03,0-.05,.04-.08,.06l.15,.04v-.07Zm-4.07,2.16s-.05-.04-.07-.03c-.03,0-.05,.04-.08,.06,.05,.01,.1,.03,.15,.04,0-.02,0-.05,0-.07Z"/>
  <path d="M149.63,104.51c1.3-.11,2.63-.09,3.89-.37,2.53-.57,5.04-1.19,7.46-2.17,1.92-.77,3.78-1.65,5.61-2.59,1.92-.98,3.67-2.21,5.47-3.39,2.45-1.62,4.45-3.7,6.42-5.81,1.09-1.17,2.07-2.49,2.86-3.87,.91-1.58,1.8-3.19,2.29-4.99,.23-.87,.46-1.73,.46-2.64,0-.56,.01-1.12,0-1.68-.07-2.62-.94-4.96-2.45-7.08-.71-.99-1.37-2-2.04-3.02-.05-.07,0-.21,0-.32,.14,.01,.35-.03,.4,.04,1.66,2.13,3.41,4.21,4.2,6.86,.31,1.04,.67,2.08,.64,3.2-.01,.38,.23,.78,.18,1.14-.24,1.81-.38,3.62-1.1,5.35-1.19,2.85-2.8,5.4-4.86,7.69-.74,.82-1.47,1.66-2.24,2.46-1.46,1.51-3.18,2.69-4.87,3.92-2.21,1.62-4.56,3-7.05,4.16-2.21,1.03-4.46,2-6.8,2.68-1.64,.47-3.31,.83-4.99,1.13-.93,.17-1.9-.04-2.78,.39-.68-.28-1.4-.16-2.1-.21-.66-.05-1.34-.08-1.98-.26-1.5-.41-2.99-.81-4.4-1.51-1.88-.94-2.77-2.62-3.32-4.48-.2-.67-.21-1.5,.1-2.23,.07-.17,.06-.39,.07-.58,0-.07-.04-.15-.06-.22-.06,.02-.14,.03-.18,.07-.77,.68-1.53,1.37-2.3,2.06-1.68,1.49-3.36,2.98-5.21,4.25-1.29,.88-2.66,1.61-4.18,2.05-.81,.23-2.17-.08-2.69-.71-1.06-1.29-1.45-2.76-1.09-4.4,.55-2.53,1.76-4.75,3.24-6.83,.59-.83,1.24-1.63,1.92-2.4,1.5-1.7,3.03-3.36,4.55-5.04,1.12-1.24,1.34-2.6,.54-4.11-.24-.45-.41-.93-.68-1.36-.13-.22,.08-.68-.34-.64-.22,.02-.45,.3-.62,.5-.65,.79-1.27,1.6-1.91,2.4-.61,.77-1.23,1.54-1.85,2.3-2.7,3.36-5.85,6.3-8.86,9.37-1.56,1.59-3.32,2.87-5.3,3.88-1.02,.52-2.05,.91-3.22,.97-1.63,.08-2.98-1.32-3.17-3.02-.13-1.13,.14-2.19,.6-3.2,1.1-2.44,2.65-4.54,4.85-6.12,.51-.37,1-.75,1.5-1.14,.41-.32,.89-.46,1.39-.57,.86-.2,1.57,.06,2.12,.85,.41,.58,.4,1.29-.09,1.95-.59,.79-1.17,1.59-1.84,2.31-.59,.63-1.26,1.22-1.98,1.69-.84,.55-1.8,.8-2.79,.34-.29-.13-.54-.12-.73,.15-.98,1.33-1.92,2.69-1.83,4.46,.04,.88,.44,1.24,1.3,1.34,1.72,.19,3.12-.6,4.51-1.41,1.86-1.07,3.46-2.47,4.97-3.99,.73-.74,1.47-1.47,2.21-2.2,1.61-1.59,3.12-3.27,4.56-5.02,1.33-1.62,2.76-3.16,4.03-4.81,.95-1.24,2.01-2.42,2.64-3.88,.11-.24,.29-.49,.5-.64,.15-.1,.56-.11,.61-.02,.11,.19,.41,.37,.17,.7-.23,.31-.34,.71-.59,1-.67,.78-.54,1.59-.19,2.43,.41,.96,.88,1.9,1.25,2.88,.44,1.17,.33,2.34-.38,3.37-.6,.87-1.31,1.68-1.98,2.5-.7,.86-1.4,1.71-2.11,2.55-.56,.67-1.15,1.31-1.7,1.99-1.66,2.01-2.92,4.25-3.81,6.7-.35,.96-.54,1.94-.15,2.97,.17,.45,.4,.73,.85,.87,.65,.2,1.32,.17,1.92-.06,1.61-.61,3.1-1.45,4.47-2.49,1.49-1.13,2.86-2.37,4.18-3.69,.95-.95,2-1.81,2.96-2.76,.39-.38,.71-.85,.96-1.34,.54-1.07,1.16-2.05,2.04-2.87,.34-.32,.56-.77,.89-1.09,1.24-1.2,2.49-2.39,4.16-3.02,.9-.34,1.6-.27,2.27,.37,.55,.52,.74,1.16,.37,1.81-.97,1.71-2.24,3.11-4.12,3.88-.81,.33-1.52,.33-2.16-.31-.15-.15-.22-.14-.37,0-1.01,.97-1.74,2.13-2.31,3.38-.61,1.34-.87,2.77-.75,4.25,.1,1.16,.65,2.04,1.53,2.77,1.12,.93,2.52,1.21,3.84,1.63,1.47,.47,3.01,.59,4.56,.58Zm-38.68-13.64c.06,.04,.12,.1,.18,.1,.71,.04,1.39,.03,2.02-.43,1.56-1.12,2.82-2.5,3.74-4.19,.09-.16,.12-.35,.18-.53-.21,.04-.43,.04-.62,.13-.32,.14-.61,.33-.91,.51-1.42,.83-2.52,2.03-3.65,3.19-.33,.33-.58,.74-.87,1.12-.02,.03-.05,.07-.07,.1Zm32.86,.86c.52-.15,1.03-.18,1.4-.43,1.28-.87,2.47-1.85,3.15-3.3,.07-.16,.1-.35,.14-.52-.19-.01-.41-.1-.55-.02-.7,.41-1.44,.8-2.06,1.32-.82,.7-1.54,1.51-2.3,2.28-.09,.1-.23,.31-.2,.34,.12,.14,.29,.23,.42,.32Z"/>
  <path d="M158.77,92.63c-.28-.07-.54-.7-.43-.99,.6-1.65,1.33-3.24,2.33-4.69,.73-1.07,1.45-2.14,2.21-3.19,.76-1.05,1.57-2.06,2.36-3.08,.77-.99,1.54-1.99,2.31-2.98,.07-.09,.15-.19,.23-.27,1.42-1.5,2.84-3.01,4.26-4.5,.18-.19,.43-.33,.67-.46,.81-.42,1.42-.08,1.44,.8,0,.12-.1,.27-.19,.37-.93,1.03-1.9,2.02-2.81,3.07-1.1,1.28-2.16,2.61-3.23,3.91-.8,.97-1.62,1.93-2.4,2.92-.71,.89-1.39,1.79-2.08,2.7-1.27,1.69-2.54,3.38-3.79,5.09-.25,.34-.42,.74-.64,1.11-.05,.09-.17,.13-.23,.18Z"/>
  <path d="M155.52,97.68c-.09-.45,.16-.85,.44-1.23,.18-.25,.39-.21,.59,0,.33,.35,.39,.68,.17,1.11-.12,.24-.24,.49-.43,.68-.11,.12-.36,.2-.51,.16-.12-.04-.19-.28-.26-.44-.03-.07,0-.16,0-.29Z"/>
</svg>