<?xml version="1.0" encoding="UTF-8"?>
<svg id="Layer_2" data-name="Layer 2" xmlns="http://www.w3.org/2000/svg" viewBox="0 0 158.41 52.12">
  <g id="Layer_1-2" data-name="Layer 1">
    <g id="CKMlbb.tif">
      <g>
        <path d="M89.97,.43c.72,.02,1.36,.19,1.92,.67,.26,.23,.58,.4,.91,.54,.5,.21,.82,.59,1.11,1.02,.18,.28,.43,.51,.62,.79,.45,.67,.81,1.38,.96,2.18,.06,.3,.17,.6,.23,.9,.06,.34,.15,.67,.03,1.02-.12,.36-.14,.76-.25,1.14-.24,.87-.77,1.57-1.45,2.15-.07,.06-.1,.17-.16,.24-.2,.25-.4,.49-.6,.73-.04,.05-.1,.08-.12,.13-.18,.46-.53,.76-.92,1.04-.24,.17-.38,.47-.74,.42-.03,0-.08,.03-.1,.06-.22,.28-.56,.34-.86,.49-.81,.42-1.68,.61-2.56,.76-.36,.06-.72,.16-1.09,.21-.14,.02-.3-.09-.45-.08-.49,.03-.98,.09-1.47,.14-.25,.03-.51,.1-.76,.08-.22-.02-.43,.23-.61,.05-.18-.19-.41-.12-.6-.21-.24-.12-.48-.24-.73-.35-.09-.04-.19-.05-.28-.07-.1-.02-.21,0-.29-.05-.28-.19-.59-.21-.91-.21-.13,0-.26-.05-.39-.1-.64-.24-1.26-.52-1.78-.97-.16-.14-.27-.11-.41,0-.06,.04-.14,.07-.2,.12-.54,.5-1.08,1-1.62,1.49-.28,.25-.59,.47-.84,.75-.42,.48-.92,.9-1.25,1.46-.16,.27-.31,.59-.55,.75-.4,.26-.67,.61-.97,.96-.3,.35-.64,.67-.91,1.06-.11,.16-.26,.33-.43,.41-.3,.14-.45,.37-.56,.65-.1,.27-.29,.47-.48,.67-.32,.32-.68,.6-.83,1.05-.05,.14-.16,.27-.27,.38-.56,.59-.94,1.29-1.33,1.99-.23,.41-.36,.87-.61,1.26-.29,.46-.25,.93-.09,1.42,.11,.31,.25,.39,.56,.42,.42,.05,.77-.16,1.11-.33,.22-.11,.41-.27,.67-.31,.14-.03,.27-.15,.4-.24,.46-.37,.91-.75,1.37-1.12,.07-.06,.16-.13,.25-.14,.16-.02,.24-.11,.32-.23,.18-.32,.45-.54,.77-.72,.14-.08,.25-.19,.38-.27,.26-.13,.25-.48,.55-.59,.23-.08,.46-.21,.63-.39,.24-.25,.49-.5,.73-.74,.49-.49,1.04-.9,1.55-1.35,.45-.4,.99-.7,1.27-1.27,.09-.17,.25-.31,.4-.44,.74-.62,1.41-1.31,2.1-1.98,.08-.08,.19-.13,.29-.18,.17-.09,.34-.19,.52-.27,.48-.21,.95-.46,1.49-.44,.25,0,.5,.07,.74,.14,.07,.02,.18,.16,.16,.22-.05,.22-.08,.5-.22,.65-.45,.47-.76,1.07-1.36,1.39-.14,.07-.23,.22-.34,.33-.36,.33-.72,.65-1.07,1-.36,.36-.7,.75-1.04,1.13-.21,.23-.42,.47-.63,.71-.1,.11-.23,.2-.31,.33-.4,.61-.91,1.14-1.34,1.72-.41,.56-.76,1.18-.96,1.85-.15,.48,.05,.82,.49,1.09,.46,.28,.94,.24,1.39,.04,.18-.08,.34-.15,.54-.18,.48-.07,.84-.39,1.23-.63,.47-.28,.87-.71,1.36-.92,.38-.16,.68-.43,1.04-.62,.42-.21,.8-.5,1.16-.79,.08-.06,.16-.12,.24-.16,.45-.19,.77-.53,1.13-.85,.7-.61,1.4-1.21,2.15-1.76,.49-.36,.85-.81,1.16-1.31,.22-.35,.45-.69,.73-.99,.34-.38,.67-.77,.96-1.2,.93-1.39,2.06-2.6,3.31-3.71,.54-.49,1.01-1.06,1.53-1.57,.62-.6,1.27-1.18,1.99-1.67,.53-.37,1.02-.8,1.51-1.24,.41-.38,.91-.61,1.37-.9,.65-.4,1.33-.76,1.93-1.23,.63-.49,1.37-.75,2.06-1.13,.43-.24,.9-.38,1.32-.62,.62-.35,1.29-.52,1.96-.72,.77-.22,1.56-.18,2.34,0,.62,.14,.94,.58,1.12,1.16,.02,.07,0,.16-.02,.23-.16,.56-.29,1.13-.49,1.67-.09,.24-.32,.42-.48,.63-.32,.4-.62,.82-.97,1.19-.41,.43-.84,.85-1.33,1.19-.35,.24-.66,.53-.98,.8-.21,.18-.42,.35-.68,.46-.66,.29-1.29,.67-1.85,1.12-.21,.16-.43,.27-.65,.38-.49,.25-.96,.52-1.46,.75-.64,.3-1.29,.55-1.93,.83-.53,.24-1.05,.51-1.59,.74-.28,.13-.58,.23-.87,.32-.46,.15-.94,.24-1.39,.42-.6,.24-1.24,.32-1.84,.55-.07,.03-.15,.05-.23,.06-.78,.08-1.12,.71-1.56,1.23-.06,.07-.09,.19-.17,.23-.72,.37-1.09,1.06-1.5,1.69-.48,.74-.83,1.55-1.35,2.26-.54,.75-.85,1.64-1.48,2.33-.06,.07-.13,.17-.14,.26-.03,.29-.23,.45-.4,.64-.07,.08-.11,.2-.13,.31-.02,.13,.02,.22,.19,.24,.36,.03,.7-.1,1.03-.21,.38-.13,.73-.3,.96-.7,.38-.64,1.07-.82,1.74-.99,.14-.04,.36,.06,.47,.17,.07,.07,.02,.31-.04,.43-.13,.22-.29,.43-.48,.6-.5,.48-.97,.97-1.4,1.51-.19,.24-.29,.5-.39,.78-.05,.15-.12,.3-.3,.32-.18,.02-.41-.12-.49-.33-.05-.14-.08-.3-.09-.45-.01-.2,0-.4,0-.6,0-.12-.07-.2-.19-.14-.45,.27-1.04,.24-1.42,.66-.05,.05-.13,.09-.21,.1-.43,.08-.64,.4-.87,.73-.46,.68-.95,1.35-1.43,2.02-.07,.1-.15,.19-.25,.25-.36,.23-.58,.55-.72,.95-.06,.16-.18,.3-.3,.43-.36,.42-.84,.73-1.05,1.28-.04,.11-.2,.18-.31,.26-.09,.07-.19,.14-.28,.22-.28,.24-.58,.48-.85,.74-.17,.16-.29,.37-.46,.54-.28,.29-.58,.57-.85,.87-.28,.31-.55,.65-.9,.87-.86,.55-1.53,1.36-2.47,1.8-.22,.31-.6,.35-.88,.56-.15,.11-.34,.16-.44,.36-.03,.06-.12,.1-.19,.13-.05,.02-.13,0-.17,.03-.42,.33-.9,.54-1.4,.7-.22,.07-.26,.34-.53,.42-.26,.08-.49,.31-.81,.31-.07,0-.15,.06-.21,.1-.7,.52-1.56,.72-2.33,1.09-.17,.08-.39,.06-.58,.12-.2,.07-.38,.2-.57,.3-.1,.06-.21,.11-.3,.18-.18,.15-.4,.3-.17,.58,.02,.73,.34,1.34,.76,1.92,.17,.23,.28,.51,.4,.77,.24,.52,.65,.83,1.09,1.13,.08,.06,.17,.1,.24,.16,.03,.03,.03,.12,0,.15-.03,.03-.12,.05-.15,.03-.67-.36-1.22-.85-1.58-1.54-.14-.28-.35-.52-.51-.79-.37-.61-.56-1.28-.72-1.97-.02-.08-.02-.16-.06-.22-.03-.04-.13-.07-.18-.06-.55,.17-1.13,.31-1.65,.56-.35,.16-.68-.04-1.01,.1-.07,.03-.18-.03-.23,.01-.44,.3-.99,.22-1.45,.42-.09,.04-.19,.04-.29,.04-.53,0-1.05,.07-1.56,.23-.06,.02-.13,.03-.18,0-.22-.08-.43-.07-.67-.01-.21,.05-.44-.01-.66,.01-.48,.05-.97,.12-1.45,.21-.15,.03-.27-.05-.39-.05-.4,0-.77-.08-1.12-.27-.17-.09-.35-.18-.55-.03-.06,.04-.2,.02-.28-.02-.34-.17-.7-.24-1.06-.32-.13-.03-.26-.09-.38-.15-.46-.21-.93-.42-1.38-.65-.37-.19-.75-.36-1.06-.62-.3-.25-.53-.58-.79-.89-.14-.17-.26-.34-.4-.51-.32-.41-.46-.86-.3-1.37,.03-.11,.03-.24,.07-.34,.02-.05,.1-.09,.16-.13,.05,.07,.13,.14,.14,.22,0,.15-.06,.31-.05,.46,.01,.44,.1,.84,.46,1.16,.26,.23,.46,.54,.7,.8,.66,.72,.89,.71,1.67,1.08,.46,.22,.95,.32,1.39,.58,.22,.13,.51,.17,.77,.23,.61,.13,1.22,.29,1.84,.35,.43,.04,.88,0,1.3-.12,.32-.08,.62-.09,.93-.1,.24-.01,.48,0,.72,0,.43,0,.86,0,1.29-.12,.39-.11,.8-.17,1.2-.25,.07-.02,.17-.03,.21-.08,.14-.16,.32-.15,.5-.15,.24,0,.47-.07,.69-.09,.37-.03,.69-.15,1.02-.26,.57-.2,1.13-.42,1.71-.58,.26-.07,.39-.15,.39-.42,0-.07,.09-.14,.09-.21-.04-.92,.57-1.65,.74-2.51,.01-.05,.05-.1,.09-.15,.55-.74,1.07-1.51,1.69-2.2,.17-.18,.31-.39,.5-.54,.44-.35,.74-.84,1.21-1.18,.4-.29,.75-.67,1.13-1,.49-.43,1.05-.76,1.58-1.14,.74-.54,1.54-1.01,2.31-1.5,.23-.14,.48-.24,.72-.38,.74-.41,1.44-.88,2.21-1.21,1.11-.48,2.14-1.14,3.33-1.43,.32-.08,.6-.27,.94-.32,.18-.03,.32-.31,.47-.49,.43-.51,.7-1.13,1.04-1.7,.14-.24,.43-.39,.42-.76,0-.24,.19-.51,.35-.72,.33-.44,.47-.99,.83-1.42,.22-.25,.44-.55,.48-.92,0-.05-.03-.11-.05-.16-.03,.02-.07,.04-.1,.07-.34,.27-.72,.5-1.01,.81-.5,.55-1.11,.92-1.74,1.26-.12,.07-.27,.1-.36,.2-.44,.53-1.12,.73-1.61,1.19-.16,.15-.42,.2-.62,.31-.25,.15-.53,.28-.73,.48-.39,.39-.89,.57-1.37,.78-.33,.15-.71,.21-1.06,.31-.55,.16-1.04,.13-1.51-.28-.27-.23-.54-.45-.72-.76-.02-.03-.03-.08-.06-.1-.66-.41-.48-1.04-.43-1.64,0-.09,.04-.19,.01-.27-.14-.47-.07-.88,.28-1.26,.16-.18,.23-.44,.33-.67,.02-.04-.01-.1-.04-.14-.06-.09-.13-.05-.18,.02-.04,.04-.09,.08-.12,.13-.26,.42-.71,.64-1.06,.96-.34,.32-.75,.56-1.11,.87-.28,.23-.54,.48-.77,.75-.44,.52-1.04,.83-1.59,1.21-.13,.09-.29,.16-.37,.28-.32,.42-.76,.65-1.22,.87-.28,.13-.5,.36-.85,.38-.27,.01-.52,.23-.82,.11-.7-.28-1.36-.63-1.61-1.4-.22-.68-.48-1.38-.17-2.12-.13-.66,.39-1.13,.51-1.72,.01-.06,.06-.1,.08-.16,.02-.1-.1-.19-.2-.14-.1,.05-.22,.13-.25,.22-.08,.24-.27,.37-.45,.52-.27,.22-.61,.38-.75,.73-.01,.03-.05,.07-.08,.08-.64,.33-1.11,.88-1.67,1.3-.33,.24-.65,.47-.92,.79-.16,.19-.43,.29-.65,.43-.1,.06-.2,.12-.29,.19-.64,.59-1.32,1.11-2.12,1.48-.3,.14-.57,.4-.88,.45-.28,.04-.59-.17-.9-.19-.23-.02-.41-.08-.59-.22-.1-.08-.15-.14-.2-.26-.15-.38-.39-.72-.51-1.11-.09-.31-.06-.66-.06-1,0-.17,.06-.34,.1-.51,.03-.11,.04-.24,.1-.33,.2-.32,.36-.64,.4-1.02,.01-.12,.14-.23,.21-.35,.01-.02,0-.08-.03-.1-.02-.02-.09-.04-.1-.03-.25,.19-.54,.36-.72,.6-.21,.27-.43,.5-.71,.7-.32,.23-.59,.53-.9,.77-.47,.36-.85,.82-1.4,1.07-.08,.04-.13,.14-.19,.21-.16,.17-.35,.31-.49,.49-.45,.56-1.16,.71-1.73,1.08-.04,.03-.11,.07-.14,.06-.38-.14-.79-.14-1.11-.46-.33-.33-.56-.71-.79-1.09-.23-.39-.19-.81,.07-1.21,.11-.17,.17-.39,.22-.59,.02-.07-.06-.18-.12-.25-.02-.02-.13,.04-.19,.07-.29,.13-.55,.29-.72,.58-.07,.12-.23,.2-.34,.3-.76,.69-1.57,1.31-2.4,1.9-.4,.28-.88,.38-1.36,.46-.23,.03-.47-.05-.69,.11-.05,.03-.19-.02-.26-.08-.31-.25-.6-.52-.9-.77-.14-.11-.17-.25-.17-.42,0-.17,.01-.37-.06-.52-.19-.42-.19-.82,.03-1.23,.03-.05,.04-.11,.05-.17,.02-.13-.12-.23-.24-.16-.09,.06-.19,.14-.24,.24-.23,.43-.56,.74-.97,1.02-.35,.24-.67,.54-.95,.85-.35,.38-.79,.57-1.25,.76-.25,.1-.51,.16-.74,.33-.18,.13-.42,.21-.65,.24-.16,.02-.35-.04-.51-.11-.17-.08-.4-.11-.45-.34-.06-.28-.43-.27-.49-.55-.04-.23-.08-.46-.13-.69-.11-.43-.24-.86-.34-1.29-.02-.1,.01-.24,.06-.34,.12-.27,.26-.52,.38-.79,.02-.05-.02-.14-.05-.21-.05-.09-.12-.08-.19,0-.4,.47-.96,.75-1.44,1.11-.02,.01-.03,.03-.05,.03-.22,.09-.23,.38-.5,.46-.21,.06-.35,.31-.54,.44-.57,.41-1.13,.84-1.8,1.09-.09,.03-.21,.07-.24,.14-.15,.3-.45,.34-.71,.46-.32,.14-.65,.25-.95,.43-.3,.18-.64,.31-1.04,.19-.24-.07-.52-.04-.78-.01-.57,.07-.97-.26-1.38-.55-.1-.07-.16-.19-.26-.24-.54-.27-.67-.79-.82-1.3-.04-.13-.07-.26-.12-.39-.17-.44-.24-.89-.25-1.18,0-.43,.13-.8,.32-1.18,.09-.19,.11-.41,.18-.61,.12-.37,.25-.73,.39-1.1,.01-.04,.04-.07,.07-.09,.57-.35,.76-1.04,1.3-1.42,.21-.15,.39-.32,.59-.49,.06-.05,.15-.1,.17-.16,.16-.39,.56-.54,.83-.82,.16-.17,.34-.31,.5-.48,.2-.23,.49-.39,.76-.54,.54-.31,1.05-.67,1.63-.92,.24-.11,.48-.16,.74-.17,.25,0,.5-.08,.75-.11,.23-.03,.47-.05,.7-.08,.34-.05,.76,.15,.92,.45,.39,.71,.33,1.37-.16,2.01-.31,.4-.55,.87-.91,1.23-.39,.4-.87,.73-1.33,1.06-.17,.12-.39,.19-.59,.25-.33,.1-.62,.3-1,.25-.44-.05-.73-.26-.93-.63-.13-.24-.28-.31-.48-.15-.27,.22-.52,.47-.75,.73-.4,.45-.84,.87-.94,1.5-.33,.32-.32,.85-.73,1.12-.44,.74-.72,1.53-.57,2.4,.11,.65,.63,1.08,1.32,1.12,.06,0,.13-.01,.18,0,.61,.21,1.13-.02,1.64-.32,.12-.07,.25-.12,.38-.16,.89-.31,1.7-.76,2.44-1.34,.35-.27,.71-.54,1.13-.72,.21-.09,.31-.39,.59-.42,.49-.51,1.13-.84,1.58-1.4,.21-.26,.57-.41,.88-.57,.44-.24,.79-.54,1.01-1.01,.16-.32,.34-.66,.7-.83,.1-.05,.16-.17,.24-.26,.11-.14,.2-.29,.33-.41,.48-.45,.93-.94,1.41-1.39,.44-.41,.92-.8,1.46-1.1,.32-.18,.61-.44,.95-.57,.78-.31,1.57-.61,2.44-.52,.35,.04,.7,.07,1.04,.15,.73,.18,1.12,.71,1.43,1.36,.21,.45,.04,.87,.06,1.3,0,.05-.11,.11-.16,.16-.02-.05-.06-.1-.06-.15-.04-.31-.06-.62-.11-.93-.07-.38-.17-.73-.55-.98-.27-.18-.5-.37-.85-.32-.09,.01-.2,0-.28-.05-.17-.09-.3-.06-.43,.07-.13,.13-.27,.19-.45,.26-.29,.1-.53,.32-.79,.5-.18,.12-.35,.25-.52,.39-.09,.07-.16,.16-.24,.23-.67,.59-1.09,1.42-1.87,1.91-.11,.07-.15,.23-.24,.33-.53,.61-1.06,1.22-1.59,1.84-.15,.18-.29,.37-.44,.55-.19,.23-.36,.48-.57,.68-.62,.58-.99,1.32-1.32,2.08-.14,.31-.16,.68-.18,1.03-.02,.37,.28,.61,.62,.5,.86-.27,1.68-.63,2.37-1.24,.32-.29,.69-.52,1.03-.78,.06-.04,.12-.09,.17-.14,.27-.31,.51-.66,.9-.85,.24-.52,.86-.64,1.17-1.11,.29-.44,.69-.82,1.08-1.19,.39-.36,.81-.69,1.39-.67,.26,0,.52,0,.78,0,.16,0,.22,.08,.2,.22-.03,.19-.04,.41-.14,.56-.35,.52-.68,1.05-1.1,1.53-.42,.49-.69,1.1-1.2,1.52-.04,.35-.39,.53-.49,.85-.09,.26-.19,.51-.26,.77-.05,.19,.2,.52,.43,.53,.35,0,.69,.02,1.05-.12,.71-.28,1.28-.74,1.84-1.24,.12-.1,.28-.16,.38-.28,.23-.27,.59-.34,.82-.64,.2-.27,.56-.42,.84-.64,.23-.18,.37-.45,.62-.62,.24-.16,.46-.37,.68-.56,.08-.06,.21-.09,.24-.16,.16-.41,.58-.58,.81-.91,.41-.61,1.03-1.02,1.38-1.69,.22-.43,.59-.78,.9-1.16,.28-.34,.57-.68,.88-1,.12-.13,.28-.22,.43-.3,.52-.28,1.23-.33,1.76-.14,.14,.05,.21,.16,.22,.32,.03,.52-.13,.97-.44,1.36-.23,.29-.48,.58-.73,.86-.21,.23-.44,.44-.66,.66-.4,.4-.77,.83-1.18,1.23-.49,.49-.91,1.05-1.39,1.56-.44,.48-.83,.98-1.04,1.61-.1,.29-.33,.53-.51,.79-.19,.28-.21,.59-.18,.91,.01,.16,.1,.27,.26,.28,.29,.01,.6,.05,.87-.13,.17-.11,.33-.21,.49-.33,.47-.35,.94-.7,1.4-1.06,.53-.41,1.05-.83,1.57-1.24,.08-.06,.18-.12,.22-.2,.15-.29,.42-.45,.66-.65,.55-.46,1.06-.96,1.59-1.44,.1-.09,.22-.15,.34-.22,.08-.05,.18-.09,.25-.15,.32-.28,.63-.56,.95-.84,.06-.05,.13-.11,.16-.17,.26-.57,.7-1,1.12-1.44,.42-.44,.87-.86,1.29-1.3,.59-.62,1.33-.73,2.12-.64,.34,.04,.61,.57,.43,.86-.23,.38-.47,.78-.77,1.11-.45,.5-.94,.96-1.32,1.52-.08,.12-.26,.17-.36,.29-.36,.4-.71,.8-1.05,1.21-.19,.22-.34,.47-.52,.71-.35,.45-.66,.92-.95,1.41-.17,.29-.41,.53-.62,.79-.24,.29-.45,.6-.45,1,0,.09-.07,.18-.09,.27-.11,.44,.16,.77,.61,.77,.55,0,1.03-.2,1.47-.5,.67-.45,1.3-.95,1.95-1.42,.05-.03,.11-.05,.15-.08,.71-.58,1.48-1.08,2.15-1.7,.38-.36,.81-.67,1.17-1.07,.54-.62,1.22-1.11,1.85-1.66,.06-.05,.12-.1,.18-.16,.34-.38,.72-.72,1.06-1.09,.37-.4,.65-.88,.98-1.32,.1-.14,.21-.28,.32-.42,.2-.25,.4-.49,.6-.73,.34-.41,.66-.83,1.01-1.23,.21-.24,.46-.44,.55-.76,.01-.05,.07-.09,.11-.14,.6-.65,1.23-1.27,1.81-1.94,.64-.76,1.47-1.31,2.16-2.01,.08-.09,.17-.17,.25-.26,.11-.11,.1-.22-.01-.3-.31-.24-.61-.49-.93-.71-.33-.22-.67-.4-.95-.69-.11-.11-.25-.18-.38-.28-.34-.25-.63-.56-.9-.88-.03-.03-.03-.09-.04-.14,.05,0,.12,0,.16,.02,.38,.28,.75,.58,1.13,.86,.36,.27,.74,.51,1.1,.78,.22,.16,.43,.34,.64,.52,.08,.07,.15,.17,.24,.22,.35,.21,.39,.2,.61-.09,.12-.16,.23-.32,.37-.46,.65-.63,1.13-1.44,1.91-1.94,.22-.44,.64-.69,.97-1.01,.34-.33,.63-.73,.99-1.03,.54-.45,1.07-.92,1.76-1.15,.43-.15,.86-.09,1.29-.09,.16,0,.26,.11,.27,.26,.04,.38,.03,.75-.27,1.05-.1,.09-.17,.22-.24,.33-.3,.51-.73,.91-1.11,1.35-.37,.43-.68,.91-1.18,1.24-.24,.16-.36,.5-.54,.76-.05,.08-.1,.17-.17,.24-.26,.24-.59,.43-.79,.71-.19,.27-.33,.57-.58,.8-.2,.18-.19,.35,.06,.46,.72,.33,1.35,.83,2.17,.96,.53,.08,1.03,.33,1.55,.5,.31,.1,.65,.32,.94,.28,.44-.07,.88,.18,1.31-.04,.1-.05,.23-.02,.35-.03,.25-.03,.51,.05,.76-.1,.09-.05,.25-.05,.35,0,.43,.18,.84,.08,1.27-.02,.6-.14,1.21-.25,1.8-.47,.76-.27,1.46-.65,2.18-.99,.19-.09,.3-.33,.48-.44,.53-.32,.74-.9,1.14-1.32,.28-.3,.5-.66,.78-.96,.59-.61,.96-1.33,1.14-2.15,.06-.25,.08-.5,.12-.75,.1-.62-.15-1.2-.25-1.8-.05-.3-.15-.6-.25-.89-.1-.27-.21-.54-.35-.8-.09-.17-.21-.34-.35-.47-.41-.39-.64-.94-1.11-1.28-.24-.17-.48-.34-.73-.48-.49-.27-.94-.64-1.5-.78-.18-.05-.4-.07-.57-.01-.18,.06-.33,.09-.51,.01-.23-.09-.44-.06-.68,.03-.43,.15-.84,.32-1.18,.62-.17,.15-.49,.02-.52-.22,0-.04,.04-.11,.08-.13,.5-.31,1-.59,1.62-.62,.31-.01,.61-.1,.92-.15Zm18.68,5.17s0,.04,0,.06c-.25,.03-.5,.05-.75,.08-.12,.01-.25-.01-.35,.04-.45,.23-1.01,.26-1.36,.64-.21,.23-.48,.11-.7,.28-.46,.36-.97,.65-1.45,.99-.27,.19-.58,.36-.79,.6-.24,.29-.58,.36-.85,.57-.05,.04-.09,.08-.13,.12-.32,.28-.63,.57-.96,.84-.21,.17-.45,.28-.59,.55-.12,.22-.37,.38-.58,.53-.42,.29-.85,.56-1.28,.84-.06,.04-.11,.1-.13,.17-.11,.27-.32,.44-.56,.58-.36,.2-.73,.39-.91,.8-.03,.07-.1,.14-.17,.16-.35,.12-.48,.45-.69,.7-.14,.17-.25,.36-.4,.51-.36,.34-.74,.65-1.1,.99-.56,.53-1.02,1.16-1.63,1.63-.03,.02-.07,.05-.08,.09-.01,.08-.03,.18,0,.26,0,.03,.13,.05,.18,.03,.41-.12,.82-.24,1.22-.38,.68-.23,1.35-.5,2.04-.7,.56-.16,1.1-.38,1.64-.6,.63-.25,1.2-.63,1.87-.81,.22-.06,.43-.18,.65-.27,.72-.31,1.35-.76,2.06-1.09,.33-.16,.63-.39,.94-.59,.35-.22,.68-.48,1.06-.62,.42-.16,.77-.37,1.09-.68,.33-.31,.68-.61,1.02-.9,.24-.21,.51-.38,.72-.61,.57-.62,1.11-1.26,1.66-1.9,.04-.04,.07-.11,.07-.16-.03-.55,.33-.98,.48-1.48,.12-.41,.05-.81-.33-.99-.28-.13-.59-.19-.89-.27Zm-41.64,36.59c.04,.18,.09,.37,.13,.55,.13-.08,.27-.15,.4-.23,.07-.04,.13-.09,.21-.12,.59-.24,1.2-.45,1.78-.72,.43-.19,.82-.47,1.25-.65,.46-.19,.84-.47,1.25-.74,.75-.5,1.53-.94,2.24-1.5,.39-.3,.76-.63,1.14-.95,.37-.32,.76-.62,1.11-.96,.44-.42,.83-.89,1.26-1.31,.65-.64,1.28-1.29,1.93-1.93,.1-.1,.22-.19,.27-.31,.3-.67,.95-1.09,1.22-1.78,.65-.57,.98-1.38,1.53-2.02,.02-.03,.01-.13-.02-.15-.03-.03-.11-.02-.16,0-.33,.18-.66,.34-1.05,.34-.17,0-.35,.05-.5,.14-.67,.39-1.37,.73-2.09,1.04-.13,.05-.25,.12-.37,.19-.66,.38-1.31,.79-1.98,1.15-.65,.35-1.32,.68-1.92,1.1-.34,.24-.74,.38-1.01,.72-.07,.09-.2,.12-.3,.18-.2,.12-.4,.24-.59,.38-.23,.17-.45,.35-.67,.53-.2,.16-.41,.31-.59,.49-.33,.31-.53,.76-1.01,.91-.04,.01-.05,.1-.09,.14-.67,.7-1.31,1.43-1.91,2.19-.26,.34-.49,.7-.73,1.06-.03,.05-.1,.1-.09,.15,.05,.44-.24,.78-.4,1.14-.14,.31-.27,.61-.26,.97ZM33.61,18.59c0-.22,.01-.34,0-.46-.05-.35-.49-.57-.71-.33-.35,.39-.82,.6-1.2,.93-.39,.33-.8,.63-1.19,.96-.43,.37-.76,.8-.75,1.41,0,.17-.06,.34-.09,.52-.02,.14,.11,.3,.23,.28,.23-.04,.47-.06,.68-.16,.85-.39,1.63-.9,2.19-1.67,.21-.28,.39-.59,.61-.87,.17-.22,.25-.44,.23-.61Z"/>
        <path d="M113.62,51.57c.21,.05,.42,.1,.63,.13,.1,.02,.21,.05,.29,.01,.38-.16,.78-.07,1.18-.11,.53-.05,1.07,.11,1.59-.11,.28,.18,.56-.01,.84-.02,.45,0,.88-.11,1.31-.28,.27-.11,.56-.17,.85-.18,.55-.02,1.05-.33,1.62-.27,.08,0,.18-.07,.27-.1,.09-.04,.18-.12,.27-.11,.58,.06,1.02-.34,1.55-.45,.62-.13,1.22-.38,1.82-.6,.65-.24,1.28-.56,1.94-.77,.48-.16,.94-.38,1.4-.59,.26-.12,.49-.33,.77-.43,.72-.27,1.35-.71,2.01-1.07,.25-.13,.41-.37,.73-.43,.27-.05,.51-.28,.75-.44,.13-.08,.26-.17,.38-.28,.29-.26,.54-.58,.93-.72,.09-.03,.15-.13,.22-.2,.59-.54,1.16-1.1,1.8-1.59,.49-.38,.94-.83,1.37-1.3,.25-.27,.54-.5,.78-.79,.24-.29,.55-.53,.79-.82,.38-.47,.74-.97,1.1-1.46,.15-.2,.26-.44,.43-.62,.26-.26,.39-.58,.55-.9,.33-.67,.68-1.32,1-2,.21-.44,.35-.91,.56-1.35,.4-.86,.72-1.76,1.18-2.6,.16-.29,.25-.61,.36-.92,.15-.44,.27-.89,.41-1.33,.14-.42,.25-.87,.46-1.26,.39-.73,.56-1.54,.95-2.26,0-.02,.02-.03,.03-.05,.02-.15,.04-.3,.07-.45-.19-.02-.26,.14-.39,.24-.75,.6-1.52,1.17-2.29,1.75-.06,.05-.13,.1-.18,.16-.39,.56-.97,.89-1.53,1.25-.26,.17-.51,.36-.76,.56-.29,.23-.58,.47-.86,.72-.35,.3-.67,.65-1.19,.66-.06,0-.14,.08-.18,.14-.29,.43-.79,.49-1.21,.67-.16,.07-.34,.11-.51,.12-.29,.01-.6,.11-.84-.16-.05-.06-.19-.04-.27-.08-.23-.11-.5-.19-.45-.54,0-.04,0-.09-.03-.11-.27-.32-.31-.74-.45-1.12-.14-.36-.19-.71-.01-1.08,.12-.26,.21-.55,.24-.84,.03-.37,.24-.61,.45-.87,.42-.51,.93-.93,1.39-1.4,.94-.97,1.98-1.82,3.01-2.68,.4-.34,.79-.71,1.12-1.12,.25-.32,.41-.71,.54-1.09,.09-.25,.1-.54,.08-.81,0-.13-.14-.32-.26-.36-.28-.1-.53-.22-.89-.09-.59,.21-1.07,.57-1.56,.92-.24,.17-.39,.45-.72,.49-.05,0-.1,.07-.13,.12-.33,.5-.86,.79-1.29,1.18-.45,.42-.82,.92-1.28,1.33-.48,.42-.79,1.01-1.37,1.33-.21,.11-.37,.35-.52,.56-.28,.43-.69,.72-1.07,1.03-.09,.08-.2,.13-.3,.23-.27,.28-.58,.53-.88,.8-.13,.12-.26,.25-.39,.37-.1,.1-.19,.24-.31,.28-.39,.13-.62,.46-.91,.71-.39,.33-.77,.66-1.23,.91-.43,.23-.8,.56-1.22,.81-.54,.32-1.1,.63-1.72,.78-.09,.02-.19,.06-.28,.06-.41-.04-.82-.06-1.22-.16-.28-.07-.53-.23-.67-.52-.2-.4-.51-.73-.62-1.19-.05-.22-.21-.42-.34-.61-.26-.37-.31-.74-.13-1.17,.3-.72,.59-1.44,.85-2.17,.17-.48,.39-.93,.67-1.36,.04-.06,.02-.14,.03-.21-.09,0-.21-.04-.27,0-.36,.25-.7,.51-1.04,.77-.03,.02-.07,.05-.08,.08-.32,.61-.93,.88-1.45,1.27-.52,.39-1,.82-1.52,1.21-.39,.29-.81,.55-1.22,.82-.38,.24-.76,.47-1.15,.71-.08,.05-.16,.12-.25,.15-.24,.09-.42,.24-.58,.44-.23,.28-.58,.39-.9,.5-.13,.05-.25,.08-.36,.17-.52,.39-1.09,.69-1.77,.68-.11,0-.22,.07-.33,.09-.21,.04-.41,.03-.63-.07-.41-.19-.87-.3-1.13-.71-.3-.47-.67-.91-.72-1.51,0-.11-.07-.22-.1-.33-.08-.26-.17-.52-.14-.81,0-.04,0-.08,0-.12-.08-1.05,0-1.22,.36-2.13,.02-.05,.03-.11,.06-.16,.06-.09,.1-.19-.03-.23-.06-.02-.19,0-.21,.04-.27,.45-.78,.57-1.14,.9-.14,.13-.29,.24-.43,.36-.56,.5-1.05,1.1-1.76,1.42-.09,.04-.2,.07-.25,.15-.36,.46-.87,.73-1.33,1.05-.42,.3-.9,.52-1.42,.62-.08,.02-.17-.01-.23,.02-.17,.1-.32,.22-.48,.32-.16,.09-.31-.1-.5-.02-.27,.12-.54,0-.78-.16-.53-.33-.55-.33-.69-.84-.11-.4-.22-.79-.49-1.11-.18-.21-.19-.49-.12-.74,.09-.32,.24-.61,.24-.96,0-.08,.1-.16,.17-.24,.07-.09,.07-.17,0-.26-.1-.12-.18-.05-.23,.03-.15,.24-.37,.37-.6,.51-.22,.13-.37,.38-.53,.59-.32,.41-.76,.68-1.18,.97-.06,.04-.18,.05-.2,.11-.19,.43-.68,.48-.97,.8-.26,.29-.61,.46-1.03,.51-.27,.03-.53,.22-.79,.33-.78,.34-1.65-.21-1.7-1.06-.03-.52-.19-1.09-.44-1.61-.04-.08-.04-.2,0-.28,.28-.56,.59-1.1,.98-1.6,.17-.21,.27-.51,.48-.66,.23-.16,.32-.37,.45-.59,.08-.13,.21-.24,.32-.36,.34-.38,.7-.76,1.02-1.16,.12-.15,.2-.32,.4-.41,.11-.05,.18-.2,.27-.3,.23-.24,.46-.49,.7-.72,.08-.08,.23-.12,.27-.21,.13-.29,.41-.35,.64-.48,.23-.13,.54-.15,.73-.32,.27-.23,.56-.2,.84-.18,.25,.01,.57,.03,.71,.18,.16,.17,0,.47-.02,.72-.08,.73-.65,1.06-1.11,1.47-.19,.18-.48,.25-.71,.38-.06,.03-.11,.09-.15,.15-.15,.21-.3,.41-.45,.62-.03,.05-.04,.14-.08,.15-.58,.27-.73,.98-1.31,1.25-.13,.06-.2,.24-.29,.37-.44,.62-1.12,1-1.58,1.59-.56,.7-1,1.45-.97,2.39,0,.27,.07,.33,.31,.3,.54-.06,1.43-.38,1.91-.69,.54-.35,1.09-.69,1.62-1.05,.29-.2,.55-.45,.81-.69,.68-.62,1.38-1.21,2.12-1.75,.11-.08,.27-.07,.38-.15,.13-.09,.24-.21,.34-.33,.11-.13,.21-.28,.32-.42,.4-.49,.78-.99,1.21-1.45,.39-.42,.75-.86,1.2-1.22,.24-.2,.47-.43,.74-.59,.26-.16,.56-.31,.86-.36,.27-.04,.57,.07,.86,.11,.02,0,.03,.02,.05,.03,.15,.04,.4,.05,.42,.13,.07,.24,.1,.5-.07,.74-.24,.33-.41,.75-.72,1-.72,.57-1.21,1.33-1.9,1.92-.15,.13-.31,.24-.46,.37-.09,.08-.23,.15-.25,.25-.11,.51-.6,.73-.83,1.14-.12,.21-.41,.32-.52,.53-.11,.22-.4,.33-.39,.62,0,.03-.1,.05-.14,.09-.27,.27-.5,.55-.44,.97,.04,.29-.02,.58,.11,.87,.13,.29,.16,.32,.48,.25,.13-.03,.27-.05,.4-.06,.25-.02,.49,.02,.72-.18,.16-.14,.42-.16,.63-.26,.73-.34,1.41-.74,2.05-1.23,.5-.37,1.01-.73,1.49-1.14,.15-.13,.32-.21,.4-.41,.03-.07,.1-.14,.17-.17,.68-.25,1.14-.83,1.73-1.21,.63-.41,1.18-.95,1.54-1.67,.35-.68,.79-1.31,1.19-1.96,.39-.63,.78-1.27,1.2-1.87,.4-.58,.85-1.13,1.28-1.69,.14-.19,.28-.38,.44-.56,.55-.64,1.13-1.25,1.65-1.91,.24-.3,.54-.51,.79-.78,.62-.66,1.29-1.28,1.94-1.92,.75-.73,1.51-1.44,2.28-2.15,.15-.14,.42-.19,.54-.34,.34-.45,.94-.57,1.24-1.06,.07-.12,.24-.21,.38-.27,.54-.25,.83-.79,1.37-1.08,.49-.26,.98-.59,1.41-.94,.73-.6,1.62-.77,2.46-1.02,.34-.1,.75-.12,1.1,.08,.12,.06,.27,.14,.39,.11,.42-.09,.57,.24,.72,.48,.16,.24,.23,.55,.12,.87-.09,.26-.06,.55-.15,.8-.17,.45-.24,.94-.6,1.32-.16,.17-.34,.37-.37,.66,0,.11-.09,.22-.16,.31-.43,.52-.85,1.04-1.3,1.53-.28,.3-.62,.55-.93,.82-.31,.27-.63,.54-.94,.82-.66,.62-1.33,1.23-2.1,1.73-.16,.11-.33,.2-.51,.29-.32,.16-.6,.36-.87,.6-.34,.29-.74,.52-1.11,.76-.67,.44-1.37,.82-2.03,1.29-.28,.2-.61,.34-.93,.48-.78,.36-1.57,.66-2.32,1.08-.3,.16-.67,.21-.97,.4-.11,.07-.26,.12-.34,.23-.37,.51-.83,.94-1.15,1.5-.26,.46-.61,.86-.92,1.29-.56,.76-1.2,1.47-1.66,2.29-.63,1.13-1.28,2.28-1.42,3.62-.24,.51,.02,.93,.23,1.38,.12,.26,.33,.33,.55,.38,.33,.06,1.13-.11,1.52-.3,.05-.02,.11-.04,.17-.05,.74-.17,1.37-.54,1.96-1.01,.12-.1,.25-.19,.39-.26,.59-.34,1.19-.65,1.76-1.01,.54-.34,1.07-.7,1.55-1.12,.58-.51,1.2-.95,1.83-1.39,.05-.03,.11-.05,.15-.09,.97-1.04,2.27-1.71,3.19-2.81,.56-.31,.84-.87,1.23-1.33,.47-.56,.99-1.08,1.48-1.63,.2-.22,.38-.46,.57-.68,.24-.29,.48-.57,.74-.85,.51-.56,1.02-1.11,1.55-1.65,.37-.37,.78-.7,1.15-1.07,.29-.29,.55-.62,.82-.93,.17-.19,.31-.41,.49-.58,.69-.63,1.39-1.27,2.11-1.87,.84-.71,1.68-1.43,2.58-2.07,.75-.53,1.46-1.11,2.28-1.55,.45-.24,.84-.57,1.28-.83,.4-.24,.77-.52,1.24-.66,1.06-.3,2.04-.11,2.97,.44,.32,.19,.56,.88,.4,1.24-.28,.64-.4,1.35-.82,1.93-.06,.08-.09,.2-.16,.23-.37,.15-.48,.51-.64,.81-.13,.25-.26,.48-.52,.6-.24,.12-.39,.3-.54,.52-.29,.41-.76,.62-1.17,.88-.3,.19-.59,.35-.82,.63-.16,.19-.4,.31-.62,.43-.25,.15-.56,.22-.77,.41-.49,.45-1.09,.67-1.69,.92-.09,.04-.17,.09-.25,.15-.58,.43-1.17,.85-1.87,1.08-.38,.12-.74,.35-1.09,.55-.48,.27-1.03,.36-1.55,.49-.51,.12-.99,.35-1.52,.38-.08,0-.17,.1-.23,.17-.26,.29-.54,.56-.74,.92-.23,.4-.59,.74-.91,1.09-.42,.47-.92,.9-1.27,1.42-.47,.7-1.07,1.27-1.65,1.86-.47,.48-.78,1.08-1.14,1.64-.57,.9-1.12,1.81-1.66,2.73-.25,.42-.36,.92-.39,1.39-.02,.35,.15,.71,.25,1.07,.02,.06,.11,.14,.18,.14,.46,.05,.89,.19,1.39,.05,1.21-.34,1.48-.43,2.45-1.16,.3-.22,.59-.46,.91-.65,.2-.12,.36-.22,.45-.44,.02-.05,.07-.1,.12-.13,.95-.5,1.66-1.32,2.5-1.96,.51-.39,1-.85,1.36-1.41,.1-.16,.29-.27,.44-.4,.29-.26,.62-.45,.86-.78,.25-.35,.62-.6,.9-.92,.51-.58,1.06-1.12,1.68-1.6,.34-.26,.65-.58,.97-.88,.31-.3,.66-.56,1.01-.81,.27-.19,.57-.34,.87-.49,.17-.09,.35-.24,.52-.23,.24,0,.48,.12,.72,.21,.75,.26,1.14,.77,1.22,1.56,.11,1.19-.15,2.29-.86,3.24-.35,.47-.82,.86-1.25,1.28-.18,.18-.42,.31-.58,.5-.66,.76-1.47,1.37-2.21,2.05-.66,.6-1.21,1.27-1.6,2.07-.13,.27-.22,.54-.23,.84-.01,.44,.17,.64,.63,.66,.4,.02,.78-.08,1.14-.23,.71-.28,1.36-.67,1.98-1.1,.47-.32,.89-.72,1.35-1.06,.52-.39,1.1-.7,1.56-1.14,.32-.29,.66-.54,.99-.8,.35-.28,.69-.56,1.01-.88,.32-.31,.67-.63,1.07-.83,.61-.31,1.1-.76,1.63-1.15,.2-.15,.43-.3,.55-.5,.28-.49,.78-.72,1.16-1.1,.29-.3,.64-.53,.93-.83,.63-.64,1.31-1.18,2.18-1.47,.39-.13,.74-.33,1.15-.44,1.17-.31,2.32-.36,3.45,.15,.32,.14,.64,.29,.95,.44,.08,.04,.11,.12,.02,.18-.04,.03-.11,.06-.14,.04-.44-.33-1.01-.27-1.49-.51-.07-.03-.17-.05-.23-.03-.38,.17-.79,.2-1.2,.26-.23,.03-.49,.12-.66,.34-.23,.31-.57,.47-.93,.58-.07,.02-.17,.04-.21,.1-.26,.45-.77,.67-1.06,1.09-.16,.22-.37,.41-.56,.6-.39,.37-.79,.72-1.17,1.1-.25,.25-.43,.56-.66,.83-.5,.56-.76,1.26-1.13,1.9-.47,.81-.8,1.68-1.11,2.56-.17,.47-.38,.93-.57,1.4-.23,.56-.54,1.09-.69,1.67-.14,.53-.38,1.02-.58,1.52-.04,.11-.07,.23-.13,.33-.42,.75-.84,1.5-1.26,2.26-.06,.1-.14,.2-.16,.31-.18,.95-.83,1.63-1.35,2.38-.1,.15-.21,.28-.3,.43-.18,.3-.32,.62-.67,.79-.13,.07-.25,.21-.32,.35-.14,.29-.27,.57-.61,.68-.3,.51-.9,.74-1.2,1.28-.16,.27-.49,.45-.75,.66-.04,.04-.14,.04-.15,.08-.16,.37-.52,.53-.8,.77-.87,.75-1.72,1.51-2.62,2.23-.37,.29-.8,.54-1.25,.72-.23,.09-.45,.24-.66,.38-.69,.43-1.42,.81-2.16,1.16-.77,.37-1.58,.65-2.3,1.11-.27,.17-.62,.22-.93,.31-.24,.07-.5,.1-.73,.18-.92,.31-1.83,.65-2.75,.94-.76,.24-1.52,.46-2.29,.66-.32,.08-.66,.08-.99,.14-.54,.09-1.08,.18-1.61,.28-.46,.08-.92,.19-1.39,.2-.35,.01-.72-.08-1.05,.1-.03,.02-.08,.01-.12,0-.48-.17-.96,.02-1.45,.02-.48,0-.96,.04-1.44,0-.62-.06-1.26-.05-1.88-.21-.39-.11-.82-.1-1.23-.13-.22-.02-.44,.03-.6-.19-.02-.03-.08-.06-.1-.05-.34,.22-.52-.13-.77-.22-.31-.12-.58-.32-.95-.28-.12,.01-.28-.05-.38-.13-.3-.21-.57-.44-.97-.5-.22-.04-.42-.28-.6-.46-.28-.29-.69-.43-.83-.88-.07-.2-.29-.39-.49-.52-.4-.25-.67-.59-.88-1-.32-.63-.76-1.19-1.15-1.77-.1-.16-.14-.36-.2-.54-.05-.15-.05-.32-.14-.44-.12-.17-.14-.34-.1-.51,.15-.59-.02-1.16-.02-1.75,0-1.13,.44-2.08,1.11-2.96,.45-.59,1.04-1.02,1.61-1.46,.35-.27,.77-.47,1.16-.69,.17-.09,.52,.03,.62,.2,.01,.02-.02,.1-.05,.11-.22,.09-.43,.17-.65,.25-.13,.05-.3,.06-.37,.15-.36,.46-.92,.63-1.35,.97-.07,.06-.1,.16-.15,.24-.05,.08-.07,.21-.14,.24-.58,.28-.66,.9-.93,1.39-.17,.3-.26,.64-.4,.96-.1,.23-.05,.53-.04,.8,0,.37,.09,.75,.04,1.12-.03,.18,0,.32,.02,.49,.15,.97,.66,1.74,1.24,2.49,.19,.24,.2,.59,.44,.82,.06,.05,.07,.16,.13,.19,.59,.36,.9,.98,1.34,1.47,.23,.25,.49,.45,.83,.53,.13,.03,.28,.09,.36,.19,.41,.55,1.06,.55,1.62,.75,.38,.13,.79,.17,1.14,.42,.15,.11,.37,.17,.55,.17,.75-.02,1.47,.25,2.23,.21ZM132.79,5.84c-.06-.12-.15-.31-.22-.51-.06-.17-.12-.19-.3-.12-.46,.17-.9,.37-1.32,.61-.42,.24-.84,.44-1.19,.81-.5,.53-1.1,.96-1.65,1.44-.46,.4-.82,.92-1.36,1.24-.07,.04-.11,.12-.16,.18-.28,.35-.53,.74-.85,1.05-.45,.45-.87,.95-1.46,1.25-.17,.09-.35,.21-.46,.36-.47,.63-1.13,1.07-1.69,1.61-.05,.05-.11,.1-.16,.15-.5,.63-1,1.26-1.51,1.89-.07,.09-.17,.18-.27,.23-.28,.15-.45,.38-.59,.65-.14,.26-.3,.48-.54,.66-.21,.16-.36,.42-.52,.64-.03,.04-.04,.15-.03,.15,.06,.04,.14,.05,.21,.06,.02,0,.04,0,.06-.01,.87-.39,1.75-.76,2.6-1.2,.52-.26,.99-.63,1.48-.94,.26-.17,.55-.3,.81-.47,.66-.45,1.26-1,1.97-1.37,.29-.16,.6-.3,.86-.5,.56-.44,1.09-.91,1.62-1.38,.54-.48,1.03-1.03,1.61-1.45,.51-.37,.82-.89,1.22-1.34,.17-.19,.34-.39,.48-.6,.23-.34,.42-.71,.65-1.05,.4-.6,.58-1.27,.69-2.06Zm.78,11.16s0,.03,.01,.04c.32-.09,.63-.2,.95-.28,.64-.17,1.2-.55,1.82-.77,.25-.09,.49-.23,.73-.35,.73-.39,1.35-.94,2.12-1.26,.33-.14,.63-.29,.9-.54,.2-.18,.45-.34,.7-.41,.28-.08,.47-.27,.7-.42,.23-.15,.42-.37,.65-.51,.64-.36,1.21-.81,1.7-1.36,.24-.26,.47-.5,.64-.83,.19-.38,.55-.67,.83-1,.1-.12,.22-.23,.29-.37,.21-.46,.42-.92,.58-1.4,.06-.18,.03-.46-.07-.62-.19-.31-.53-.51-.88-.55-.32-.04-.64,.12-.9,.35-.06,.05-.11,.12-.17,.17-.14,.11-.28,.21-.42,.32-.19,.14-.4,.26-.56,.43-.46,.51-1.13,.79-1.51,1.38-.02,.03-.06,.06-.09,.08-.3,.26-.6,.52-.9,.77-.07,.06-.15,.13-.24,.17-.41,.21-.63,.39-.89,.7-.13,.15-.29,.27-.44,.39-.31,.23-.66,.42-.95,.69-.31,.29-.7,.5-.92,.89-.05,.09-.18,.15-.27,.22-.09,.07-.21,.13-.27,.22-.45,.63-.96,1.2-1.52,1.74-.09,.08-.16,.17-.24,.26-.38,.45-.76,.9-1.14,1.35-.06,.07-.17,.1-.24,.16-.08,.06-.15,.13-.22,.2-.02,.02-.03,.06-.05,.09,.04,.01,.07,.04,.11,.04,.06,0,.12,0,.18,0Z"/>
        <path d="M0,25.45c.05-.49,.09-.98,.15-1.47,0-.07,.05-.15,.1-.2,.03-.04,.1-.07,.15-.06,.04,0,.1,.07,.1,.11-.01,.31-.03,.63-.06,.94,0,.1-.07,.2-.05,.28,.16,.7,.07,1.46,.48,2.09,.21,.33,.47,.62,.71,.93,.13,.17,.27,.34,.41,.5,.09,.11,.18,.22,.29,.3,.44,.3,.88,.58,1.33,.86,.41,.26,.82,.52,1.25,.74,.35,.17,.72,.31,1.09,.39,.62,.15,1.26,.24,1.89,.36,.06,.01,.13,.02,.18,0,.49-.28,.99-.08,1.43,.05,.45,.13,.82,0,1.2-.09,.94-.22,1.84-.6,2.76-.92,.81-.28,1.46-.79,2.17-1.22,.43-.26,.87-.52,1.29-.82,.33-.23,.62-.52,.93-.79,.49-.43,.93-.89,1.32-1.41,.25-.33,.51-.67,.81-.94,.44-.39,.64-.94,.95-1.41,.2-.29,.35-.61,.53-.91,.44-.74,.61-1.6,1.01-2.36,.03-.53,.16-1.05,.18-1.6,.02-.47-.08-.79-.44-1.04-.1-.07-.22-.18-.42-.07-.14,.08-.36,.05-.53,.02-.41-.06-.73,.12-1.05,.31-.19,.1-.36,.23-.56,.32-.47,.22-.92,.46-1.25,.87-.03,.03-.05,.07-.09,.08-.97,.47-1.42,1.44-2.09,2.2-.24,.27-.49,.52-.75,.77-.24,.22-.5,.42-.74,.64-.1,.09-.17,.22-.23,.34-.14,.27-.32,.48-.61,.62-.23,.11-.4,.28-.56,.5-.4,.54-.93,.97-1.47,1.38-.36,.27-.79,.42-1.1,.76-.01,.01-.03,.03-.05,.04-.78,.21-1.5,.67-2.37,.53-.06,0-.14,.02-.17-.01-.11-.1-.24-.21-.3-.35-.02-.05,.11-.2,.2-.27,.42-.29,.86-.55,1.28-.83,.21-.14,.41-.3,.61-.46,.22-.17,.45-.33,.63-.53,.37-.41,.78-.81,1.04-1.28,.42-.77,.76-1.58,1.09-2.4,.18-.45,.22-.96,.43-1.38,.25-.51,.36-1.06,.61-1.56,.32-.66,.53-1.37,.81-2.06,.31-.78,.67-1.53,1.18-2.21,.11-.14,.17-.31,.27-.46,.46-.68,.91-1.37,1.4-2.03,.32-.44,.69-.86,1.05-1.27,.32-.37,.57-.79,.92-1.12,.55-.53,.98-1.18,1.64-1.6,.27-.17,.43-.51,.67-.75,.34-.33,.7-.65,1.07-.94,.17-.13,.3-.31,.46-.43,.38-.29,.62-.76,1.17-.85,.19-.03,.36-.27,.52-.43,.33-.35,.74-.58,1.16-.8,.09-.04,.19-.08,.25-.15,.6-.59,1.39-.88,2.06-1.35,.19-.13,.39-.26,.65-.26,.09,0,.19-.05,.27-.11,.49-.32,1.04-.41,1.6-.49,.37-.06,.71-.27,1.09-.36,.3-.08,.57-.14,.88-.12,.32,.02,.65-.09,.98-.15,.11-.02,.23-.07,.34-.06,.43,.05,.85,.12,1.27,.19,.08,.01,.16,.03,.23,.03,.63-.02,1.19,.2,1.73,.48,.21,.11,.44,.16,.65,.25,.14,.06,.27,.15,.4,.24,.04,.03,.04,.1,.06,.16-.05,0-.1,.01-.14,0-.54-.21-1.08-.43-1.63-.63-.18-.07-.38-.09-.57-.12-.29-.05-.58-.09-.87-.12-.56-.07-1.1,.05-1.65,.14-.23,.04-.47,.08-.71,.1-.26,.02-.42,.24-.7,.27-.54,.05-1.04,.31-1.55,.48-.41,.14-.77,.46-1.21,.57-.15,.42-.6,.3-.86,.5-.28,.22-.58,.4-.89,.58-.3,.18-.56,.43-.84,.64-.47,.35-.96,.68-1.43,1.02-.03,.02-.09,.03-.1,.05-.28,.53-.84,.76-1.24,1.16-.51,.52-.94,1.12-1.52,1.58-.26,.56-.69,1-1.1,1.45-.51,.56-.86,1.24-1.34,1.83-.45,.55-.74,1.2-1.13,1.78-.28,.42-.59,.83-.88,1.24-.24,.34-.37,.73-.56,1.09-.22,.41-.4,.85-.59,1.28-.42,.94-.93,1.84-1.19,2.85-.22,.86-.66,1.63-1.13,2.37-.11,.18-.2,.38-.28,.58-.02,.06,.02,.2,.05,.2,.08,.02,.21,.02,.27-.04,.53-.54,1.02-1.13,1.54-1.68,.43-.46,.8-1.01,1.38-1.35,.35-.2,.63-.53,.95-.8,.24-.2,.49-.39,.8-.47,.17-.04,.34-.12,.47-.23,.72-.61,1.53-.46,2.35-.31,.27,.26,.63,.48,.79,.8,.41,.82,.79,1.66,.76,2.62-.02,.54-.25,1.02-.36,1.53-.19,.85-.56,1.63-1.08,2.31-.46,.61-.95,1.19-1.39,1.82-.12,.17-.4,.23-.49,.41-.22,.41-.65,.54-.98,.8-.09,.07-.2,.13-.28,.22-.21,.24-.5,.36-.78,.51-.51,.28-1,.61-1.5,.92-.37,.22-.72,.48-1.12,.64-.34,.14-.67,.29-.97,.5-.29,.19-.64,.27-.96,.41-.43,.19-.93,.29-1.4,.39-.59,.12-1.16,.32-1.74,.44-.48,.1-.94,.06-1.42,.03-.19-.01-.38-.08-.58-.08-.67,0-1.32-.14-1.99-.21-.54-.06-1.04-.18-1.52-.4-.27-.12-.5-.32-.77-.41-.47-.14-.79-.48-1.19-.73-.38-.24-.8-.41-1.13-.74-.07-.07-.18-.09-.24-.16-.3-.34-.64-.65-.89-1.03-.22-.34-.64-.56-.64-1.03-.39-.42-.34-.94-.37-1.46Z"/>
        <path d="M56.26,2.88c-.3,0-.6,.01-.9,0-.44-.02-.86,.04-1.27,.18-.07,.03-.15,.05-.23,.04-.56-.04-1.09,.13-1.62,.26-.19,.04-.36,.16-.54,.23-.58,.23-1.21,.33-1.73,.69-.38-.1-.64,.29-1,.27-.04,0-.08,.02-.11,.04-.52,.46-1.15,.74-1.73,1.1-.68,.43-1.29,.95-1.96,1.4-.15,.1-.28,.24-.37,.38-.26,.41-.49,.84-.75,1.25-.24,.38-.25,.81-.37,1.22-.15,.49-.15,.96,.06,1.43,.05,.1,.07,.23,.06,.34-.08,.57,.23,.98,.58,1.36,.16,.18,.33,.34,.49,.52,.02,.02,0,.1-.01,.11-.04,.03-.13,.06-.15,.04-.53-.45-1.05-.94-1.24-1.63-.09-.33-.07-.7-.15-1.04-.05-.19-.08-.38-.11-.57-.08-.43,.12-.82,.25-1.2,.29-.81,.69-1.57,1.25-2.24,.11-.13,.28-.22,.42-.32,.37-.29,.76-.56,1.11-.88,.24-.22,.55-.29,.81-.45,.52-.32,1.01-.67,1.51-1.01,.05-.03,.1-.08,.15-.09,1.12-.21,2.09-.84,3.19-1.12,.74-.19,1.48-.33,2.23-.46,.77-.13,1.54-.06,2.31-.12,.64-.05,1.27,.04,1.9,.11,.64,.08,1.26,.25,1.9,.35,.5,.08,1.01,.12,1.5,.26,.28,.08,.58,.13,.83,.27,.43,.26,.92,.32,1.39,.43,.69,.16,1.34,.41,1.93,.8,.56,.37,1.2,.56,1.83,.75,.4,.12,.69,.34,1.02,.56,.18,.12,.33,.28,.51,.39,.67,.43,1.24,.97,1.84,1.48,.33,.28,.66,.57,.98,.86,.06,.05,.1,.12,.14,.19,.01,.02,0,.08-.03,.1-.02,.02-.08,.04-.11,.03-.05-.02-.12-.05-.14-.1-.24-.47-.84-.55-1.09-1.04-.08-.16-.37-.21-.53-.35-.57-.5-1.19-.94-1.8-1.4-.34-.25-.75-.42-1.15-.56-.72-.25-1.39-.57-2.05-.96-.4-.24-.84-.48-1.35-.51-.42-.02-.82-.28-1.26-.24-.03,0-.07-.04-.1-.07-.4-.42-.96-.38-1.46-.51-.56-.14-1.15-.16-1.71-.34-.31-.1-.66-.1-.99-.14-.37-.04-.74-.1-1.11-.12-.36-.02-.72,0-1.08,0h0Z"/>
        <path d="M90.01,10.02c-.05,.1-.09,.23-.16,.34-.38,.6-.95,.99-1.47,1.45-.15,.13-.32,.23-.46,.36-.2,.19-.42,.32-.69,.42-.32,.12-.6,.36-.89,.56-.04,.03-.08,.11-.07,.15,.09,.39-.18,.51-.46,.63-.04,.01-.06,.05-.09,.08-.09,.08-.18,.17-.3,.05-.12-.11-.15-.23-.09-.37,.07-.18,.11-.39,.23-.53,.18-.21,.22-.45,.28-.69,.1-.37,.3-.66,.56-.95,.39-.44,.84-.82,1.27-1.22,.21-.2,.49-.32,.74-.47,.1-.06,.21-.09,.31-.14,.16-.07,.32-.2,.47-.19,.24,.02,.49,.13,.72,.23,.06,.03,.06,.17,.11,.3Z"/>
      </g>
    </g>
  </g>
</svg>
