<?xml version="1.0" encoding="UTF-8"?>
<svg id="Layer_2" data-name="Layer 2" xmlns="http://www.w3.org/2000/svg" viewBox="0 0 170.44 45.78">
  <g id="Layer_1-2" data-name="Layer 1">
    <g id="X6ARgv.tif">
      <g>
        <path d="M140.44,9.65c.1,.74-.14,1.44-.48,2.11-.36,.73-.45,.84-1.03,1.35-.13,.11-.22,.28-.33,.41-.19,.23-.35,.48-.57,.68-.36,.33-.83,.52-1.09,.96-.69,.29-1.12,.97-1.83,1.25-.34,.13-.64,.38-.94,.59-.48,.33-.99,.59-1.56,.76-.48,.15-.95,.37-1.38,.64-.7,.44-1.47,.73-2.23,1.04-.49,.2-.96,.45-1.46,.6-.56,.16-1.1,.44-1.66,.52-1,.14-1.88,.63-2.87,.81-.24,.04-.43,.09-.67,0-.15-.06-.32-.05-.42,.19-.17,.4-.45,.74-.77,1.04-.19,.18-.35,.37-.38,.65-.01,.11-.07,.22-.14,.32-.11,.17-.2,.35-.35,.47-.28,.23-.27,.62-.49,.85-.24,.25-.38,.53-.51,.84-.14,.33-.32,.66-.54,.96-.5,.67-.94,1.38-1.34,2.12-.1,.19-.07,.23,.14,.21,.19-.02,.39-.06,.57-.12,.33-.11,.67-.2,1-.29,.45-.13,.7-.42,.92-.75,.4-.61,.97-1.04,1.54-1.46,.41-.3,.93-.32,1.43-.25,.29,.04,.38,.3,.19,.52-.11,.12-.23,.27-.36,.3-.22,.04-.33,.2-.5,.3-.49,.3-.8,.76-1.14,1.19-.35,.44-.6,.96-.87,1.46-.11,.21,.01,.39,.25,.42,.16,.02,.32,0,.48,.01,.06,0,.17,.06,.18,.11,0,.09-.03,.18-.07,.27-.02,.04-.09,.08-.15,.09-.73,.16-1.43-.25-1.57-1.02-.03-.19-.09-.38-.11-.57-.02-.25-.15-.23-.33-.16-.54,.22-1.08,.43-1.62,.64-.13,.05-.25,.21-.42,.06-.02-.02-.15,.04-.19,.1-.22,.25-.45,.5-.65,.76-.19,.25-.36,.51-.55,.76-.38,.49-.77,.98-1.16,1.46-.15,.18-.3,.38-.47,.53-.49,.43-.91,.92-1.37,1.38-.27,.27-.54,.52-.89,.67-.11,.05-.21,.14-.3,.25-.53,.62-1.15,1.14-1.8,1.62-.35,.26-.66,.57-.99,.85-.1,.09-.22,.16-.34,.24-.38,.24-.83,.41-1.13,.72-.61,.62-1.47,.78-2.12,1.29-.58,.07-.97,.59-1.56,.64-.71,.39-1.45,.72-2.24,.94-.12,.03-.28,.16-.16,.32,.24,.31,.1,.64,.02,.94-.06,.23-.06,.4,.03,.61,.15,.33,.26,.69,.37,1.04,.07,.23,.2,.36,.43,.44,.27,.09,.54,.21,.81,.33,.03,.01,.05,.06,.07,.09-.03,.02-.07,.06-.1,.05-.17-.03-.34-.07-.51-.12-.71-.22-1.17-.63-1.32-1.41-.09-.44-.08-.86-.1-1.29,0-.18,.01-.36,0-.54-.02-.17-.16-.2-.34-.19-.55,.04-1.02,.36-1.54,.48-.08,.02-.15,.08-.22,.07-.57-.09-1.05,.21-1.57,.35-.39,.11-.8,.18-1.2,.25-.41,.07-.8,.18-1.23,.14-.14-.02-.3,.09-.45,.11-.31,.05-.62,.12-.93,.11-.28,0-.56,.1-.85,.02-.17-.05-.37,.03-.56,.03-.18,0-.36-.05-.53-.03-.4,.03-.8-.09-1.21,0-.12,.03-.28-.02-.4-.07-.45-.19-.94-.21-1.4-.13-.21,.03-.4,.01-.55-.04-.38-.15-.84,0-1.18-.29-.02-.02-.1,.02-.15,.04-.18,.07-.34,0-.4-.15-.08-.22-.26-.37-.43-.36-.33,.01-.5-.3-.81-.31-.08,0-.19-.1-.22-.18-.21-.66-.8-.93-1.27-1.33-.21-.18-.47-.32-.62-.54-.5-.7-1.03-1.37-1.39-2.17-.3-.68-.12-1.29,.05-1.93,.01-.05,.07-.12,.11-.13,.1-.02,.21,0,.32,0-.01,.09,0,.25-.04,.26-.21,.07-.18,.23-.19,.39-.02,.25-.08,.51-.06,.76,.03,.37,.11,.77,.37,1.02,.4,.38,.54,.92,.9,1.31,.21,.23,.37,.55,.63,.69,.59,.32,.99,.84,1.5,1.24,.21,.16,.42,.34,.65,.46,.64,.33,1.29,.66,2,.82,.08,.02,.15,.06,.23,.06,.56,0,1.11,.09,1.67,.12,.53,.02,1.05,.1,1.58,.18,.03,0,.07,.04,.1,.03,.44-.18,.91-.09,1.36-.07,.5,.02,.98-.08,1.47-.15,.69-.1,1.37-.3,2.04-.48,.74-.2,1.48-.33,2.22-.47,.17-.03,.34-.09,.49-.17,.48-.27,1.02-.38,1.53-.55,.15-.05,.33-.19,.38-.33,.18-.55,.39-1.06,.81-1.47,.23-.79,.87-1.3,1.35-1.91,.25-.31,.61-.53,.9-.82,.76-.76,1.57-1.46,2.38-2.16,.44-.37,.83-.79,1.34-1.07,.75-.42,1.48-.88,2.25-1.27,.74-.38,1.53-.67,2.28-1.03,.33-.16,.64-.35,.99-.49,.24-.1,.46-.21,.72-.22,.22,0,.38-.13,.49-.35,.23-.47,.45-.96,.76-1.38,.42-.55,.69-1.18,1.02-1.78,.39-.71,.79-1.43,1.12-2.18,.02-.04,0-.13-.04-.15-.03-.02-.12-.01-.16,.02-.27,.22-.56,.44-.81,.69-.69,.69-1.51,1.19-2.34,1.67-.34,.2-.64,.45-.97,.67-.24,.16-.48,.34-.73,.47-.58,.32-1.1,.72-1.61,1.14-.2,.16-.42,.28-.64,.41-.38,.23-.77,.45-1.15,.67-.05,.03-.1,.09-.15,.09-.57,.02-1.01,.36-1.51,.58-.58,.25-1.2,.25-1.78,0-.26-.11-.47-.38-.64-.62-.42-.59-.48-1.28-.34-1.96,.13-.63,.46-1.2,.76-1.77,.23-.44,.55-.8,.84-1.19,.02-.03,0-.13-.02-.15-.03-.03-.12-.03-.15,0-.97,.88-2.12,1.54-3.08,2.44-.34,.32-.75,.58-1.13,.85-.88,.64-1.81,1.21-2.72,1.81-.06,.04-.13,.12-.19,.13-.33,.03-.52,.25-.75,.44-.16,.13-.37,.2-.57,.27-.18,.07-.39,.08-.55,.17-.21,.12-.46,.14-.63,.06-.61-.29-1.25-.57-1.35-1.39-.03-.28-.18-.55-.26-.83-.08-.29-.25-.57-.1-.88-.19-.59,.17-1.07,.32-1.6,.26-.95,.87-1.7,1.28-2.56,.08-.16,.16-.31,.25-.47,.06-.11,.28-.2,.17-.34-.14-.18-.31,.03-.4,.1-.43,.32-.89,.6-1.28,.98-.21,.21-.49,.34-.72,.54-.27,.23-.54,.46-.83,.67-.33,.24-.7,.43-1,.74-.15,.15-.34,.27-.5,.41-.64,.52-1.28,1.04-1.92,1.56-.23,.19-.46,.38-.68,.57-.14,.12-.25,.29-.4,.35-.63,.23-1.13,.69-1.75,.94-.44,.18-.89,.29-1.37,.26-.11,0-.25-.04-.32-.12-.24-.28-.47-.58-.68-.89-.4-.58-.33-1.23-.06-1.8,.26-.56,.41-1.18,.86-1.66,.22-.24,.35-.56,.5-.86,.04-.08,.03-.2,.02-.29,0-.04-.06-.08-.11-.1-.02-.01-.09,.03-.09,.04,0,.32-.27,.4-.48,.54-.29,.2-.57,.41-.84,.63-.32,.26-.62,.55-.94,.81-.26,.21-.53,.44-.83,.55-.45,.16-.77,.48-1.08,.79-.43,.43-.94,.73-1.45,1.01-.33,.18-.6,.43-.91,.62-.13,.08-.25,.2-.4,.24-.47,.13-.94,.26-1.41,.34-.19,.03-.44-.05-.59-.17-.26-.21-.49-.47-.69-.74-.19-.25-.28-.56-.26-.89,.01-.21,.05-.43-.08-.64-.04-.07,.03-.22,.08-.32,.37-.62,.75-1.24,1.13-1.86,.01-.02,.03-.03,.03-.05,0-.17,0-.35,.01-.52-.13,.07-.28,.11-.39,.21-.41,.38-.84,.73-1.2,1.16-.18,.21-.47,.34-.71,.5-.06,.04-.16,.05-.2,.1-.16,.17-.29,.37-.45,.54-.16,.16-.45,.15-.54,.41-.02,.05-.08,.1-.13,.12-.78,.32-1.39,.86-2.01,1.41-.19,.17-.48,.24-.72,.37-.44,.25-.92,.37-1.42,.34-.32-.02-.62-.05-.9-.29-.31-.27-.66-.49-.85-.88-.11-.22-.18-.43-.16-.68,.03-.61,.09-1.21,.53-1.69,.04-.04,.02-.14,.03-.2-.07,0-.15,0-.21,.03-.11,.05-.22,.11-.3,.19-.43,.44-.97,.74-1.45,1.11-.26,.2-.46,.47-.71,.7-.42,.39-.94,.64-1.41,.95-.18,.12-.37,.23-.53,.37-.46,.43-1.02,.34-1.57,.33-.04,0-.08-.02-.1-.04-.22-.28-.42-.57-.65-.83-.5-.59-.39-1.23-.17-1.88,.18-.51,.38-1.02,.58-1.53,.03-.07,.07-.14,.07-.22,0-.05-.02-.13-.06-.15-.04-.02-.13,0-.16,.03-.39,.52-1.09,.63-1.5,1.12-.49,.07-.75,.55-1.22,.67-.12,.03-.21,.18-.31,.27-.41,.38-.99,.53-1.36,.97-.45,.11-.75,.58-1.27,.54-.08,0-.15,.12-.24,.15-.18,.07-.36,.13-.55,.19-.11,.04-.23,.04-.33,.1-.33,.19-.71,.14-1.06,.19-.04,0-.09-.04-.11-.03-.45,.34-.84,0-1.23-.13-.42-.15-.69-.51-.92-.89-.28-.45-.42-.98-.82-1.35-.08-.07-.12-.21-.12-.32-.02-.67-.05-1.34,.17-2,.22-.65,.5-1.25,.9-1.82,.56-.8,1.14-1.56,1.85-2.23,.19-.17,.4-.31,.6-.47,.19-.15,.39-.3,.57-.47,.54-.52,1.2-.9,1.73-1.44,.27-.27,.64-.45,.99-.62,.47-.24,.96-.43,1.45-.64,.05-.02,.1-.07,.16-.07,.39-.05,.78-.12,1.17-.12,.39,0,.78,.06,1.17,.11,.3,.04,.59,.5,.51,.83-.12,.52-.3,.99-.7,1.39-.69,.69-1.39,1.35-2.21,1.87-.29,.19-.52,.47-.79,.69-.64,.52-1.33,.88-2.2,.61-.35-.11-.64-.23-.57-.68,0-.05-.06-.15-.11-.16-.06-.02-.2,0-.21,.05-.2,.48-.74,.61-.99,1.06-.21,.38-.58,.67-.86,1.01-.4,.48-.78,.97-.99,1.57-.1,.28-.26,.53-.4,.79-.32,.61-.4,1.22-.02,1.85,.06,.1,.09,.22,.13,.33,.27,.76,.91,1.07,1.72,.92,.5-.09,.99-.19,1.49-.27,.52-.09,.95-.35,1.38-.6,.54-.31,1.03-.72,1.56-1.05,.31-.2,.67-.31,.98-.51,.3-.19,.54-.47,.83-.67,.35-.24,.8-.38,1.09-.68,.39-.41,.94-.57,1.3-.96,.29-.31,.73-.52,.85-.99,.04-.16,.18-.3,.3-.44,.34-.39,.68-.77,1.02-1.16,.17-.19,.3-.42,.49-.59,.64-.58,1.28-1.18,1.96-1.71,.39-.3,.89-.48,1.33-.71,.14-.07,.29-.13,.41-.23,.76-.63,1.72-.69,2.62-.92,.65,.19,1.34-.06,1.98,.17,.11,.04,.24,0,.36,.02,.13,.03,.26,.08,.37,.15,.15,.1,.29,.21,.41,.34,.1,.11,.18,.26,.21,.4,.09,.36,.15,.72,.22,1.09,.01,.06,.03,.13,.01,.17-.19,.47-.24,.99-.51,1.43-.02,.03-.05,.07-.08,.09-.05,.02-.11,.04-.16,.03-.02,0-.06-.06-.06-.09,.01-.13,.02-.27,.06-.4,.12-.43,.31-.84,.31-1.31,0-.13,.02-.22-.06-.35-.08-.12-.07-.3-.08-.45-.02-.4-.17-.59-.55-.74-.66-.27-1.23-.1-1.75,.32-.46,.37-.93,.69-1.48,.94-.6,.27-1.12,.71-1.65,1.12-.52,.39-1,.83-1.49,1.26-.32,.28-.57,.63-.9,.92-.5,.44-.87,1.02-1.33,1.51-.51,.53-.99,1.07-1.34,1.72-.75,.68-1.06,1.62-1.53,2.46-.12,.21-.09,.42-.09,.64,.01,.45,.22,.59,.64,.49,.55-.13,1.01-.4,1.67-.93,.24-.2,.49-.39,.74-.59,.17-.13,.35-.26,.5-.41,.23-.22,.43-.47,.75-.57,.05-.02,.12-.04,.15-.09,.49-.59,1.21-.87,1.76-1.38,.25-.23,.58-.39,.88-.57,.38-.24,.7-.53,.97-.89,.14-.19,.39-.32,.62-.43,.27-.15,.57-.26,.86-.37,.23-.09,.7,.05,.82,.26,.04,.06,.07,.16,.05,.22-.1,.33-.2,.66-.51,.89-.17,.13-.31,.3-.44,.48-.39,.54-.86,1.01-1.3,1.5-.56,.62-1.11,1.27-1.36,2.11-.06,.19-.19,.38-.04,.55,.14,.16,.34,.32,.53,.35,.28,.04,.58,.11,.85-.13,.12-.11,.32-.14,.48-.19,.39-.11,.72-.3,1-.59,.15-.16,.37-.26,.56-.38,.19-.12,.31-.36,.58-.37,.05,0,.12-.03,.15-.08,.42-.53,1.06-.8,1.53-1.27,.12-.12,.28-.22,.43-.32,.25-.16,.47-.33,.64-.59,.15-.24,.43-.39,.66-.58,.4-.32,.8-.64,1.19-.96,.59-.49,1.18-.98,1.75-1.5,.39-.36,.72-.77,1.1-1.14,.44-.42,.89-.83,1.35-1.23,.28-.25,.55-.52,.87-.71,.66-.39,1.35-.73,2.16-.61,.06,0,.13-.01,.18,.01,.11,.08,.23,.16,.31,.27,.04,.05-.02,.17-.04,.26-.07,.32-.28,.55-.46,.81-.52,.75-1.24,1.3-1.91,1.9-.44,.4-.79,.89-1.31,1.22-.15,.09-.21,.32-.33,.46-.27,.31-.56,.61-.84,.92-.07,.07-.15,.14-.2,.22-.28,.5-.72,.84-1.12,1.23-.39,.38-.71,.84-1.05,1.27-.19,.25-.26,.57-.52,.78-.18,.15-.23,.94-.09,1.19,.06,.11,.11,.14,.23,.09,.24-.09,.48-.25,.77-.09,.05,.03,.16-.02,.21-.06,.12-.12,.25-.19,.43-.17,.04,0,.09,0,.11-.02,.26-.34,.68-.44,1.01-.67,.14-.09,.29-.19,.43-.28,.48-.32,1.03-.57,1.36-1.09,.05-.08,.14-.18,.22-.19,.49-.06,.75-.49,1.15-.69,.39-.19,.69-.5,1-.78,.19-.17,.4-.32,.61-.45,.36-.22,.7-.46,1-.77,.31-.32,.71-.55,1.09-.8,.28-.18,.44-.51,.82-.57,.11-.02,.19-.23,.28-.36,.42-.64,.86-1.26,1.47-1.75,.27-.22,.48-.52,.7-.8,.51-.65,1.25-.86,1.99-1.06,.35-.1,.7,.06,1.04,.15,.17,.04,.19,.21,.14,.4-.13,.49-.44,.87-.76,1.24-.43,.5-.88,.99-1.35,1.46-.45,.45-.94,.85-1.39,1.3-.28,.28-.51,.6-.77,.9-.04,.04-.04,.14-.08,.15-.52,.22-.61,.8-.99,1.14-.25,.23-.4,.56-.73,.72-.05,.02-.11,.08-.12,.13-.13,.45-.5,.71-.8,1.01-.14,.14-.16,.3-.22,.47-.16,.42-.32,.84-.31,1.3,0,.36,.12,.43,.48,.34,.61-.14,1.2-.35,1.71-.74,.1-.08,.25-.1,.37-.16,.31-.16,.65-.27,.8-.64,.04-.09,.11-.18,.2-.22,.33-.18,.6-.48,.92-.62,.42-.19,.6-.58,.97-.79,.2-.11,.31-.32,.57-.38,.24-.06,.44-.32,.65-.5,.4-.34,.76-.75,1.2-1.02,.56-.35,.98-.87,1.55-1.2,.27-.15,.53-.29,.7-.58,.04-.07,.16-.11,.24-.16,.65-.37,1.26-.79,1.82-1.29,.37-.33,.71-.67,1.04-1.04,.54-.61,1.16-1.16,1.74-1.73,.15-.15,.29-.31,.43-.47,.23-.27,.46-.54,.7-.81,.28-.32,.56-.65,.85-.95,.23-.24,.5-.45,.74-.68,.07-.07,.12-.15,.19-.22,.25-.25,.51-.49,.76-.73,.06-.05,.12-.1,.18-.16,.58-.51,1.16-1.02,1.74-1.53,.15-.13,.19-.36,.06-.51-.17-.19-.34-.42-.56-.53-.5-.26-.91-.62-1.3-1.01-.41-.42-.75-.91-1.15-1.34-.24-.25-.54-.45-.82-.67-.09-.07-.19-.14-.28-.22-.55-.51-1.1-1.02-1.65-1.52-.08-.08-.2-.12-.29-.19-.3-.22-.6-.44-.91-.65-.14-.1-.29-.24-.45-.27-.31-.06-.53-.24-.75-.45-.14-.13-.31-.24-.47-.35-.2-.15-.39-.31-.6-.44-.73-.46-1.38-1.02-2.15-1.42-.22-.12-.38-.07-.54,.04-.16,.11-.32,.26-.4,.43-.17,.34-.43,.59-.67,.86-.29,.33-.56,.66-.87,.97-.37,.36-.76,.69-1.15,1.03-.42,.36-.85,.7-1.27,1.06-.51,.45-.98,.93-1.5,1.36-.36,.3-.77,.54-1.16,.8-.66,.46-1.3,.94-1.98,1.36-1.01,.63-2.02,1.26-3.19,1.57-.15,.04-.27,.15-.42,.22-.56,.24-1.11,.45-1.73,.51-.67,.07-1.34,.23-2,.37-.72,.15-1.43,.43-2.2,.33-.16-.02-.34,.06-.52,.09-.08,.01-.17,.05-.23,.02-.48-.24-1.03,.05-1.5-.22-.03-.02-.09-.02-.12,0-.6,.28-1.14-.19-1.71-.13-.6-.43-1.36-.44-2.02-.72-.43-.18-.76-.43-.97-.87-.34-.69-.72-1.35-.83-2.12-.35-.52-.24-1.14-.34-1.71-.15-.84,.13-1.63,.36-2.42,.15-.53,.49-.94,.84-1.33,.58-.64,1.2-1.25,1.88-1.8,.66-.53,1.34-1.02,2.11-1.39,.63-.66,1.51-.9,2.26-1.36,.4-.24,.92-.3,1.38-.43,.68-.19,1.38-.32,2.07-.44,.57-.11,1.13-.33,1.74-.29,.19,.01,.38-.09,.57-.1,.58-.05,1.14,.02,1.68,.23,.24,.1,.49,.13,.75,.12,.6-.01,1.2-.04,1.8,.01,.83,.07,1.66,.23,2.45,.52,.46,.17,.94,.25,1.42,.32,.32,.05,.63,.2,.92,.34,.44,.21,.86,.45,1.28,.69,.32,.19,.68,.27,1,.48,.51,.32,1.09,.52,1.64,.77,.34,.16,.34,.15,.61-.1,.3-.28,.63-.54,.92-.83,.14-.13,.25-.31,.34-.48,.16-.29,.4-.48,.69-.62,.03-.01,.1,0,.11,.02,.02,.05,.05,.13,.02,.15-.5,.61-.81,1.35-1.39,1.9-.22,.21-.2,.37,.05,.53,.63,.4,1.26,.79,1.89,1.19,.08,.05,.19,.08,.25,.15,.45,.51,1.12,.73,1.59,1.22,.63,.21,1.05,.73,1.63,1.02,.17,.09,.33,.22,.47,.35,.59,.55,1.14,1.13,1.81,1.58,.07,.04,.13,.1,.17,.17,.32,.49,.82,.79,1.2,1.21,.2,.22,.39,.45,.57,.68,.42,.51,1.05,.75,1.52,1.2,.07,.07,.16,.12,.23,.19,.33,.3,.33,.31,.7,.05,.24-.17,.5-.33,.7-.54,.54-.57,1.18-1.02,1.78-1.52,.33-.28,.65-.58,.99-.85,.25-.19,.51-.36,.78-.53,.28-.18,.57-.35,.87-.5,.83-.41,1.7-.6,2.63-.49,.09,.01,.18,.08,.27,.1,.16,.04,.17,.11,.11,.26-.24,.55-.65,.95-1.11,1.3-.38,.28-.69,.62-1.04,.94-.12,.1-.24,.21-.37,.29-.44,.27-.86,.56-1.21,.95-.62,.67-1.36,1.21-2.09,1.74-.14,.1-.31,.15-.46,.23-.15,.08-.17,.21-.05,.34,.04,.04,.08,.11,.13,.12,.44,.13,.73,.52,1.15,.69,.09,.04,.18,.08,.26,.15,.64,.57,1.45,.83,2.19,1.21,.26,.13,.51,.31,.78,.39,.32,.08,.65,.1,.96,.24,.06,.03,.19-.03,.25-.08,.39-.44,.86-.79,1.23-1.23,.41-.48,.95-.78,1.44-1.14,.37-.27,.82-.4,1.28-.17,.02,0,.03,.02,.05,.02,.19,.01,.47-.03,.48,.22,0,.16-.15,.43-.29,.47-.51,.16-.72,.65-1.12,.93-.4,.28-.77,.61-1.16,.91-.1,.08-.26,.08-.37,.16-.07,.05-.13,.15-.14,.23,0,.05,.09,.16,.15,.16,.33,.02,.6,.16,.85,.37,.05,.04,.15,.03,.23,.04,.74,.08,1.47,.14,2.19,.34,.34,.09,.7-.05,1.06,.09,.17,.07,.45,0,.62-.1,.26-.16,.58-.14,.81-.27,.24-.13,.4-.42,.59-.65,.29-.34,.65-.62,.95-.95,.58-.63,1.19-1.24,1.82-1.82,.84-.77,1.67-1.57,2.63-2.2,.3-.19,.56-.44,.82-.68,.33-.3,.65-.62,1.11-.75,.23-.36,.64-.49,.96-.72,.75-.54,1.51-1.06,2.25-1.62,.9-.68,2-.98,2.97-1.52,.28-.16,.62-.24,.94-.28,.31-.04,.64,.04,.96,.04,.54,0,1.06,.08,1.59,.16,.42,.07,.68,.3,.93,.57,.24,.27,.42,.57,.36,.96-.03,.18,0,.36,0,.57Zm-66.27,5.36c.23-.04,.52-.11,.81-.13,.49-.03,.98,0,1.47-.12,.45-.1,.92-.17,1.37-.3,.09-.03,.19-.05,.28-.06,.69-.1,1.39-.21,2.05-.45,.58-.22,1.16-.44,1.73-.68,.39-.16,.78-.33,1.15-.55,.59-.34,1.15-.74,1.75-1.08,1.36-.78,2.55-1.76,3.71-2.81,.19-.17,.4-.32,.59-.49,.49-.4,.98-.8,1.46-1.21,.36-.3,.64-.69,1.01-.99,.43-.35,.77-.79,1.15-1.18,.26-.27,.45-.59,.67-.89,.07-.09,.07-.17-.06-.23-.73-.37-1.46-.75-2.17-1.15-.05-.03-.11-.04-.17-.04-.25,0-.44-.14-.64-.27-.39-.25-.8-.48-1.22-.69-.15-.08-.34-.13-.51-.13-.64,0-1.23-.22-1.81-.45-.8-.32-1.97-.47-2.85-.41-.77,.05-1.53,.01-2.27-.27-.28-.11-.63-.23-.9-.15-.63,.17-1.27,.18-1.9,.31-.34,.08-.69,.11-1.04,.18-.57,.13-1.13,.29-1.7,.43-.28,.07-.59,.08-.85,.2-.68,.29-1.34,.62-2.01,.93-.05,.02-.13,.03-.16,.08-.26,.39-.65,.58-1.05,.79-.36,.19-.64,.52-1,.71-.38,.21-.55,.65-.99,.77-.44,.53-1.05,.9-1.47,1.45-.12,.16-.19,.36-.4,.49-.16,.1-.24,.39-.29,.61-.06,.29-.16,.56-.27,.83-.07,.16-.18,.32-.2,.48-.02,.16,.06,.33,.07,.5,0,.13-.1,.28-.06,.38,.17,.35,.16,.72,.18,1.09,0,.11,.07,.22,.11,.33,.05,.15,.09,.3,.13,.45,.09,.34,.13,.7,.29,1,.23,.43,.48,.84,.7,1.28,.07,.14,.26,.23,.41,.31,.47,.24,1.02,.29,1.49,.5,1.07,.49,2.22,.42,3.4,.6Zm38.01,5.24c.21,0,.35,0,.49,0,.62,.03,.68,.36,.43,.83-.05,.09-.1,.17-.17,.24-.4,.4-.75,.87-1.21,1.2-.26,.18-.52,.35-.65,.66-.02,.05-.08,.09-.13,.13-.62,.46-1.21,.95-1.74,1.51-.83,.89-1.82,1.64-2.4,2.74-.11,.21-.26,.4-.43,.56-.6,.6-.89,1.39-1.25,2.12-.21,.43,0,.84,.43,.9,.27,.04,.56,.02,.82-.04,.6-.13,1.16-.4,1.73-.63,.36-.15,.72-.29,1.02-.55,.09-.08,.2-.12,.3-.18,.37-.22,.79-.38,1.1-.66,.53-.49,1.11-.9,1.71-1.25,1.04-.6,2.01-1.3,2.97-2,.34-.25,.74-.43,1.05-.74,.21-.22,.47-.4,.7-.6,.25-.22,.55-.4,.75-.66,.41-.54,.75-1.14,1.16-1.69,.52-.7,.91-1.51,1.63-2.07,.24-.18,.4-.46,.59-.71,.04-.05,.04-.15,.02-.22,0-.03-.09-.05-.15-.06-.06-.01-.12-.02-.18,0-.68,.21-1.37,.16-2.04-.02-.33-.08-.66-.09-.99-.13-.38-.05-.76-.13-1.14-.23-.16-.04-.35-.13-.45-.25-.16-.2-.36,.04-.53-.1-.32-.25-.59-.09-.83,.16-.07,.07-.1,.17-.16,.24-.27,.28-.47,.23-.58-.14-.04-.14-.19-.27-.04-.44,.03-.03-.02-.21-.08-.24-.15-.09-.32-.14-.49-.19-.61-.16-1.19-.36-1.72-.72-.06-.04-.13-.08-.2-.12-.46-.25-.93-.48-1.39-.75-.61-.35-1.17-.78-1.83-1.06-.29-.12-.37-.15-.49,.08-.16,.29-.4,.47-.66,.65-.18,.12-.36,.25-.51,.4-.94,.89-1.87,1.78-2.81,2.68-.39,.37-.75,.78-1.16,1.13-.32,.28-.65,.53-.9,.88-.12,.17-.27,.33-.44,.46-.8,.62-1.46,1.36-2.12,2.12-.8,.92-1.51,1.91-2.19,2.92-.42,.63-.9,1.21-1.24,1.91-.39,.8-.55,1.62-.54,2.48,0,.26,.53,.74,.79,.69,.4-.08,.81-.16,1.17-.34,.58-.28,1.12-.64,1.68-.96,.4-.23,.73-.59,1.2-.73,.5-.14,.67-.71,1.15-.91,.17-.07,.28-.3,.45-.39,.62-.29,1.12-.74,1.6-1.19,.66-.62,1.49-1,2.1-1.68,.29-.32,.8-.39,1.03-.81,.02-.03,.07-.04,.1-.06,.76-.44,1.44-.96,2.03-1.61,.41-.45,.84-.89,1.29-1.29,.36-.33,.75-.65,1.17-.9,.38-.22,.75-.56,1.19-.4Zm27.89-10.55c0-.24,0-.46,0-.68-.02-.32-.16-.59-.35-.85-.16-.21-.37-.27-.61-.26-.03,0-.07-.04-.11-.05-.76-.15-1.47-.03-2.15,.34-.22,.12-.46,.21-.69,.31-.19,.08-.42,.13-.58,.25-.56,.46-1.29,.68-1.76,1.27-1.09,.58-1.93,1.51-2.98,2.15-.48,.57-1.12,.94-1.67,1.42-.11,.09-.2,.2-.31,.28-.32,.22-.66,.41-.87,.76-.06,.09-.18,.15-.27,.22-.32,.25-.66,.48-.9,.83-.41,.61-.92,1.12-1.53,1.55-.17,.12-.34,.3-.43,.49-.2,.42-.47,.76-.78,1.1-.4,.45-.75,.94-1.21,1.34-.22,.18-.35,.47-.5,.72-.08,.14,.07,.33,.23,.31,.23-.04,.48-.06,.68-.16,.58-.3,1.23-.36,1.83-.61,.07-.03,.15-.04,.23-.05,.53-.05,1.02-.22,1.51-.4,.79-.29,1.57-.59,2.33-.94,.41-.18,.84-.29,1.23-.53,.63-.39,1.3-.7,2-.96,.51-.19,1.02-.38,1.46-.73,.32-.25,.64-.56,1.01-.71,.48-.2,.82-.52,1.18-.86,.13-.12,.27-.23,.43-.31,.96-.55,1.64-1.4,2.39-2.17,.3-.3,.56-.67,.73-1.06,.28-.64,.58-1.29,.48-2.01Zm-26.42,21.44c-.14-.02-.24-.07-.29-.04-.41,.21-.91,.28-1.21,.69-.04,.05-.14,.07-.21,.09-.31,.11-.62,.21-.92,.34-.25,.11-.48,.26-.72,.39-.84,.46-1.68,.92-2.51,1.39-.32,.18-.64,.38-.94,.6-.29,.22-.52,.49-.82,.71-.51,.37-.96,.83-1.42,1.27-.52,.51-1.04,1.02-1.55,1.54-.41,.42-.64,.99-1.1,1.37-.08,.07-.1,.21-.15,.31-.12,.24-.25,.48-.36,.73-.05,.12-.08,.26-.08,.39,0,.04,.15,.13,.2,.11,.35-.13,.7-.26,1.02-.44,.65-.35,1.22-.87,1.99-.94,.05,0,.1-.06,.15-.09,.52-.35,1.02-.73,1.54-1.08,.6-.41,1.11-.94,1.72-1.34,.21-.14,.41-.3,.6-.48,.8-.75,1.59-1.5,2.38-2.25,.19-.17,.42-.3,.59-.49,.55-.64,1.09-1.29,1.62-1.96,.18-.22,.29-.5,.47-.82Zm-57.7-8.23c.41,.08,.79-.15,1.16-.44,.4-.32,.79-.66,1.2-.95,.82-.59,1.55-1.25,2.17-2.05,.31-.4,.33-.78,.3-1.22-.01-.17-.16-.25-.33-.2-.57,.17-1.11,.38-1.54,.8-.15,.15-.34,.27-.51,.4-.34,.24-.79,.33-.99,.75-.48,.13-.75,.57-1.14,.83-.49,.32-.81,.81-.97,1.37-.2,.69-.16,.73,.66,.72Z"/>
        <path d="M12.8,34.17c.18,0,.36-.01,.54,0,.76,.05,1.49-.09,2.22-.28,.38-.1,.76-.18,1.15-.22,.5-.05,1.01-.11,1.5-.25,.25-.07,.49-.21,.75-.29,.5-.15,.99-.36,1.48-.52,.22-.08,.45-.13,.67-.18,.32-.06,.63-.17,.93-.3,.55-.25,1.1-.49,1.62-.78,.49-.27,1.05-.43,1.56-.66,.31-.15,.61-.34,.9-.53,.23-.14,.45-.32,.69-.45,.74-.41,1.45-.85,2.12-1.37,.18-.14,.41-.23,.59-.37,.44-.34,.87-.68,1.29-1.04,.59-.5,1.18-.99,1.73-1.53,.47-.47,.89-1,1.33-1.51,.08-.09,.17-.17,.25-.26,.45-.52,.9-1.05,1.35-1.57,.08-.09,.16-.18,.25-.26,.39-.37,.74-.77,1.01-1.23,.04-.07,.09-.14,.16-.18,.39-.25,.54-.71,.87-1.01,.53-.48,.73-1.2,1.29-1.65,.2-.16,.4-.32,.59-.49,.1-.09,.27-.2,.27-.3,0-.33,.37-.42,.42-.7,.59-.33,.83-1,1.36-1.39,.27-.2,.52-.42,.77-.65,.17-.16,.29-.37,.47-.52,.33-.27,.72-.49,1.04-.77,.51-.45,1.06-.86,1.63-1.22,.42-.27,.82-.58,1.29-.8,.36-.17,.78-.27,1.07-.59,.05-.05,.13-.08,.21-.09,.42-.07,.73-.36,1.1-.53,.21-.09,.41-.22,.62-.31,.17-.07,.27-.17,.25-.35-.02-.17-.05-.35-.08-.52,0-.06-.04-.11-.05-.17-.13-.61-.44-1.12-.93-1.52-.16-.13-.29-.3-.44-.46-.61-.66-1.45-1-2.17-1.52-.21-.15-.41-.3-.63-.42-.26-.14-.37-.12-.5,.11-.18,.32-.38,.64-.48,.98-.2,.66-.61,1.18-1.03,1.69-.26,.32-.47,.67-.69,1.02-.26,.42-.59,.78-.9,1.17-.21,.26-.44,.51-.64,.78-.16,.22-.28,.48-.57,.58-.03,.01-.07,.05-.09,.08-.39,.61-1.05,.95-1.51,1.49-.4,.47-.8,.93-1.25,1.36-.41,.4-.88,.73-1.31,1.11-.15,.13-.25,.3-.38,.44-.12,.13-.23,.32-.37,.34-.2,.03-.31,.16-.46,.26-.13,.09-.28,.16-.37,.28-.23,.3-.45,.57-.82,.72-.34,.14-.54,.52-.94,.58-.02,0-.04,.02-.05,.03-.51,.57-1.25,.8-1.88,1.21-.64,.42-1.26,.93-2.06,1.05-.13,.02-.24,.14-.36,.19-.28,.13-.57,.24-.89,.28-.26,.04-.47,.33-.79,.34-.14,0-.28,.13-.43,.18-.31,.1-.63,.24-.95,.27-.75,.07-1.46,.24-2.15,.55-.09,.04-.19,.07-.28,.06-.38-.05-.76,.17-1.15,.03-.08-.03-.19,.04-.28,.06-.12,.02-.26,.08-.34,.03-.29-.18-.62-.21-.94-.29-.17-.04-.33-.13-.49-.18-.39-.12-.71-.33-.94-.68-.06-.09-.1-.14-.21-.16-.3-.07-.54-.36-.9-.26-.05,.01-.17-.1-.22-.18-.27-.41-.53-.82-.78-1.24-.04-.06-.07-.15-.07-.22,0-.29-.11-.53-.21-.79-.21-.51-.25-1.08-.11-1.57,.13-.49,.2-1.03,.55-1.46,.15-.19,.2-.46,.3-.68,.27-.6,.57-1.19,1.08-1.65,.07-.06,.15-.14,.18-.23,.12-.3,.35-.5,.6-.71,.37-.31,.69-.68,1.06-1,.55-.47,1.14-.9,1.7-1.36,.26-.21,.49-.48,.78-.63,.56-.28,.97-.77,1.56-1.03,1.05-.46,2.05-1.06,3.08-1.58,.79-.4,1.57-.8,2.39-1.13,1.17-.47,2.33-1,3.58-1.22,.15-.03,.3-.09,.45-.14,.37-.13,.75-.2,1.15-.22,.45-.02,.89-.12,1.33-.18,.14-.02,.27-.04,.41-.04,.57,0,1.13-.1,1.69-.22,.42-.09,.89-.1,1.31,0,.48,.11,.95,.09,1.42,.08,.54,0,1.05,.09,1.56,.24,.3,.09,.6,.17,.9,.24,.16,.04,.31,.02,.43-.13,.11-.14,.24-.27,.38-.38,.18-.16,.41-.11,.49,.1,.07,.18,.14,.38,.13,.56-.02,.34,.12,.51,.43,.59,.11,.03,.24,.09,.3,.17,.38,.48,.96,.68,1.43,1.04,.37,.29,.85,.48,1.13,.83,.58,.72,1.45,1.25,1.66,2.26,.05,.24,.2,.46,.3,.69,.24-.07,.48-.17,.72-.21,.77-.12,1.52-.38,2.31-.38,.7,0,1.37,.13,2.03,.3,.45,.12,.89,.28,1.33,.43,.03,.01,.05,.07,.07,.1-.06,.02-.14,.09-.18,.07-.49-.21-1.01-.31-1.52-.38-.5-.06-1.02-.09-1.54,.04-.43,.1-.89,.11-1.31,.28-.4,.16-.81,.25-1.21,.4-.25,.09-.29,.28-.24,.58,.05,.27,.06,.55,.07,.82,.02,.41,0,.82,.08,1.24,.07,.37-.04,.78-.1,1.17-.05,.31-.16,.6-.22,.9-.06,.34-.21,.62-.42,.89-.28,.36-.5,.75-.81,1.09-.19,.2-.33,.43-.58,.56-.08,.05-.16,.13-.22,.21-.46,.66-1.2,1-1.77,1.52-.07,.06-.17,.08-.26,.11-.28,.1-.52,.23-.76,.42-.39,.31-.82,.58-1.34,.67-.29,.05-.56,.24-.87,.27-.14,.01-.16,.17-.04,.25,.16,.1,.35,.16,.51,.27,.64,.46,1.23,.97,1.55,1.73,.07,.18,.23,.31,.35,.47,.28,.39,.34,.87,.47,1.31,.2,.68,.3,1.38,.25,2.1-.08,1.11-.23,2.2-.62,3.26-.27,.73-.74,1.36-.96,2.1-.32,.31-.48,.7-.64,1.11-.06,.15-.24,.26-.36,.4-.24,.26-.44,.57-.71,.79-.41,.35-.72,.82-1.24,1.05-.28,.12-.61,.2-.71,.56,0,.02-.03,.04-.04,.04-.45,.08-.72,.45-1.09,.66-.35,.2-.75,.32-1.12,.49-.25,.11-.49,.24-.73,.36-.36,.19-.71,.4-1.08,.57-.13,.06-.32,0-.47,.05-.3,.09-.58,.21-.87,.32-.18,.07-.37,.13-.54,.22-.17,.09-.32-.22-.49,0-.58,.09-1.16,.27-1.73,.25-.72-.02-1.45-.05-2.16-.19-.37-.07-.75-.06-1.03-.36-.01-.01-.04-.02-.05-.02-.62,.1-.87-.37-1.17-.75-.34-.43-.67-.87-.9-1.37-.19-.41-.42-.8-.34-1.28,.02-.11,.03-.21,.16-.2,.08,.01,.17,.08,.21,.15,.09,.19,.23,.4,.22,.59-.03,.32,.16,.52,.28,.75,.27,.53,.7,.94,.98,1.46,.2,.38,.65,.43,1.02,.5,.47,.09,.93,.26,1.42,.14,.85,.3,1.66-.06,2.49-.16,.25-.03,.52-.03,.74-.14,.68-.33,1.43-.49,2.07-.93,.35-.24,.72-.53,1.2-.59,.12-.01,.23-.15,.32-.24,.31-.3,.65-.57,1.08-.7,.05-.02,.13-.04,.15-.08,.17-.42,.59-.57,.89-.85,.52-.49,.9-1.1,1.28-1.69,.39-.6,.75-1.23,1.09-1.86,.2-.36,.36-.74,.51-1.12,.25-.63,.55-1.24,.72-1.91,.15-.6,.42-1.18,.52-1.79,.06-.36,.16-.74,.07-1.14-.06-.27-.1-.59,.05-.88,.04-.08,.06-.21,.02-.29-.16-.34-.06-.71-.12-1.05-.06-.34,.01-.76-.44-.95-.12-.05-.17-.26-.29-.36-.38-.34-.86-.42-1.34-.52-.53,.24-1.16-.07-1.66,.3-.02,.01-.04,.04-.05,.03-.53-.3-.78,.29-1.18,.39-.09,.02-.15,.11-.24,0-.1-.13,.02-.17,.08-.23,.43-.46,.96-.73,1.57-.86,.42-.09,.81-.23,1.2-.42,.56-.27,1.13-.51,1.63-.89,.26-.2,.57-.33,.86-.49,.03-.02,.09-.03,.1-.06,.3-.53,.89-.77,1.25-1.25,.3-.38,.66-.71,.96-1.09,.38-.47,.75-.96,1.1-1.46,.27-.38,.5-.79,.74-1.2,.16-.27,.32-.53,.45-.82,.12-.27,.2-.55,.2-.85,0-.21,.07-.42,.08-.64,0-.15,0-.31-.05-.46-.09-.35-.09-.34-.42-.15-.59,.34-1.17,.72-1.79,1-.54,.25-.92,.67-1.38,1-.4,.28-.77,.6-1.15,.91-.17,.13-.17,.37-.35,.52-.41,.33-.77,.72-1.15,1.1-.43,.43-.86,.87-1.12,1.44-.02,.04-.04,.07-.07,.09-.21,.18-.51,.33-.59,.55-.1,.27-.27,.43-.45,.6-.57,.58-1.31,1.54-1.63,2.15-.03,.05-.05,.12-.09,.14-.44,.15-.63,.58-.93,.87-.3,.3-.54,.67-.81,1.01-.1,.12-.21,.24-.33,.35-.49,.49-1,.98-1.48,1.48-.22,.23-.37,.53-.62,.71-.65,.49-1.1,1.2-1.82,1.61-.34,.58-1.02,.79-1.43,1.3-.07,.09-.17,.16-.27,.22-.58,.36-1.17,.71-1.75,1.07-.32,.19-.63,.4-.94,.6-.21,.14-.43,.27-.64,.41-.33,.21-.7,.34-1,.61-.21,.18-.53,.23-.79,.36-.59,.3-1.18,.61-1.77,.93-.38,.21-.78,.36-1.19,.49-.55,.18-1.08,.44-1.64,.62-.42,.14-.82,.31-1.25,.42-.41,.1-.81,.28-1.23,.36-.69,.13-1.33,.45-2.04,.5-.48,.04-.94,.29-1.42,.3-.6,.02-1.14,.27-1.73,.3-.33,.02-.65,.11-.98,.17-.05,0-.12,.04-.16,.02-.56-.19-1.15-.1-1.72-.08-.66,.02-1.28-.2-1.92-.25-.43-.43-1.03-.1-1.52-.33-.49-.23-1.07-.21-1.56-.47-.45,.04-.76-.26-1.12-.44-.36-.18-.73-.37-1.07-.6-.31-.21-.56-.51-.87-.7-.22-.13-.42-.27-.64-.39-.5-.29-.67-.8-.97-1.22-.29-.42-.61-.82-.87-1.26-.26-.43-.63-.81-.65-1.36,0-.06-.02-.12-.05-.17-.33-.53-.32-1.18-.57-1.71-.3-.65-.28-1.33-.43-1.99-.05-.19-.01-.4-.01-.6,0-.02,0-.05,0-.06,.05-.06,.1-.15,.16-.16,.04,0,.15,.08,.16,.14,.06,.3,.14,.61,.14,.92,0,.48,.04,.93,.24,1.38,.36,.82,.47,1.72,.84,2.54,.05,.12,.11,.25,.18,.36,.5,.75,.99,1.5,1.5,2.25,.11,.15,.25,.29,.4,.4,.29,.22,.63,.35,.87,.67,.18,.23,.53,.32,.79,.49,.38,.24,.75,.5,1.13,.74,.6,.37,1.28,.55,1.95,.74,.86,.24,1.77,.25,2.62,.57,.23,.09,.51,.02,.77,.02,.34,0,.68,0,1.02,0,0,0,0,0,0,0Zm9.31-13.03c.33-.05,.66-.08,.98-.16,.43-.1,.86-.23,1.29-.36,.57-.18,1.21-.12,1.74-.47,.77-.06,1.37-.53,2.06-.8,.81-.31,1.47-.88,2.2-1.35,.53-.34,1-.77,1.54-1.08,.52-.3,.98-.67,1.42-1.05,.71-.6,1.39-1.25,2.05-1.91,.64-.63,1.3-1.24,1.91-1.9,.61-.66,1.24-1.29,1.83-1.96,.75-.84,1.47-1.7,2.19-2.57,.43-.51,.89-.99,1.24-1.57,.12-.2,.29-.37,.42-.57,.33-.48,.66-.97,.98-1.46,.11-.16,.06-.26-.14-.33-.22-.08-.45-.14-.66-.24-.38-.2-.79-.28-1.2-.21-.26,.04-.51,.04-.73-.03-.27-.09-.52,.02-.78-.02-.27-.04-.55-.06-.82-.08-.12,0-.24,0-.36,.02-.52,.12-1.04,.25-1.57,.21-.35-.02-.66,.15-1.02,.07-.24-.05-.53-.03-.75,.07-.6,.27-1.27,.2-1.87,.44-.23,.09-.5,.07-.74,.14-.46,.14-.97,.14-1.38,.44-.18,.13-.41,.2-.63,.3-.09,.04-.18,.06-.28,.07-.1,.02-.22,0-.29,.04-.38,.28-.75,.57-1.24,.62-.75,.5-1.59,.82-2.43,1.16-.34,.14-.63,.38-.97,.52-.38,.16-.68,.45-1.09,.56-.23,.06-.46,.17-.59,.42-.05,.1-.16,.21-.26,.24-.44,.12-.7,.48-1.06,.72-.32,.21-.6,.48-.91,.7-.18,.12-.37,.23-.51,.39-.44,.48-1.06,.77-1.4,1.35-.51,.31-.8,.81-1.12,1.27-.29,.41-.55,.86-.79,1.31-.16,.3-.52,.51-.41,.94,.02,.08-.09,.21-.16,.3-.27,.35-.22,.82-.42,1.2-.04,.08,0,.2,0,.29,.03,.15,.08,.3,.11,.45,.1,.7,.31,1.36,.72,1.94,.07,.1,.14,.2,.24,.26,.71,.52,1.47,.96,2.27,1.31,.43,.18,.85,.42,1.36,.35Z"/>
        <path d="M163.59,24.17c0-.24,0-.48,0-.72,0-.1,0-.2,.05-.28,.03-.06,.11-.13,.18-.13,.06,0,.15,.05,.19,.11,.04,.06,.06,.14,.06,.22,.02,.39-.1,.79,.1,1.17-.19,.48-.03,1.04-.4,1.51-.19,.24-.24,.61-.29,.93-.03,.21-.08,.38-.24,.52-.06,.05-.1,.12-.13,.19-.34,.66-.93,1.16-1.22,1.86-.02,.05-.08,.12-.12,.13-.38,0-.41,.34-.57,.57-.24,.32-.52,.61-.82,.88-.43,.39-.99,.66-1.29,1.21-.07,.13-.29,.18-.44,.27-.08,.05-.22,.06-.25,.12-.23,.55-.74,.77-1.19,1.06-.29,.18-.58,.37-.83,.61-.37,.35-.8,.63-1.22,.93-.11,.08-.25,.1-.38,.16-.09,.04-.18,.08-.25,.14-.26,.25-.59,.44-.9,.59-.38,.19-.77,.36-1.1,.65-.23,.21-.55,.35-.87,.43-.24,.06-.5,.12-.71,.25-.27,.16-.54,.22-.84,.22-.35,0-.72-.07-1.05,.12-.02,0-.04,0-.06,0-.29-.01-1.35-.15-1.7-.41-.28-.21-.62-.35-.89-.57-.36-.3-.73-.6-.98-1.03-.26-.46-.54-.91-.69-1.42-.04-.13-.1-.26-.11-.39-.02-.45-.12-.89-.22-1.32-.05-.22-.01-.47,.02-.71,.03-.19,.15-.37,.15-.56,0-.69,.18-1.35,.28-2.03,.09-.7,.17-1.39,.49-2.04,.23-.47,.37-.98,.59-1.46,.35-.78,.72-1.56,1.1-2.33,.19-.38,.44-.74,.66-1.11,.05-.08,.1-.17,.13-.26,.01-.03-.04-.1-.08-.13-.02-.02-.06-.02-.1-.02-.02,0-.03,.02-.05,.04-.4,.41-.83,.78-1.32,1.09-.09,.06-.15,.17-.22,.26-.26,.35-.69,.5-1,.8-.22,.21-.43,.44-.69,.63-.25,.19-.61,.3-.74,.65-.04,.1-.23,.14-.35,.2-.34,.17-.63,.39-.83,.73-.05,.09-.16,.16-.25,.23-.49,.33-.99,.65-1.39,1.1-.17,.18-.4,.31-.62,.45-.28,.18-.55,.38-.84,.53-.52,.27-1.06,.5-1.59,.75-.03,.02-.08,.04-.11,.03-.37-.11-.74-.23-1.11-.36-.08-.03-.14-.13-.2-.21-.41-.56-.7-1.14-.75-1.87-.03-.44,.01-.84,.08-1.26,.1-.64,.49-1.08,.86-1.56,.06-.08,.13-.15,.16-.24,.02-.06-.02-.15-.06-.21,0-.01-.12,0-.16,.04-.36,.31-.7,.65-1.07,.94-.51,.4-1.04,.77-1.56,1.16-.56,.42-1.13,.82-1.73,1.18-.67,.4-1.3,.87-1.99,1.24-.46,.25-.94,.47-1.49,.48-.38,0-.71-.1-1-.29-.17-.11-.32-.19-.53-.2-.35-.02-.44-.19-.26-.52,.12-.22,.1-.45,0-.59-.2-.28,.03-.57-.08-.83-.01-.03,.05-.11,.09-.14,.44-.25,.63-.66,.77-1.12,.19-.59,.6-1.05,1-1.5,.29-.32,.64-.6,.92-.94,.32-.38,.69-.72,1.02-1.11,.38-.46,.87-.79,1.45-.98,.58-.19,1.13-.06,1.65,.2,.12,.06,.17,.16,.11,.34-.1,.27-.22,.52-.46,.66-.6,.36-1.02,.87-1.43,1.42-.2,.26-.49,.46-.74,.67-.29,.25-.61,.47-.86,.79-.49,.63-1.06,1.22-1.71,1.69-.17,.12-.21,.24-.26,.42-.1,.41-.25,.81-.38,1.22-.09,.29-.06,.31,.2,.41,.57,.22,1.06-.02,1.56-.22,.61-.24,1.13-.63,1.65-1,.36-.25,.7-.55,1.08-.75,.99-.54,1.85-1.24,2.73-1.93,.48-.38,.94-.78,1.42-1.16,.17-.13,.35-.25,.55-.34,.23-.11,.25-.42,.55-.49,.21-.05,.39-.25,.58-.38,.37-.26,.63-.64,.95-.96,.53-.54,1.2-.82,1.9-.99,.23-.06,.53,.08,.77,.18,.07,.03,.12,.25,.1,.37-.03,.15-.11,.3-.21,.41-.41,.47-.73,.99-1.24,1.41-.76,.63-1.48,1.32-2.03,2.17-.1,.16-.34,.23-.42,.39-.28,.58-.86,.95-1.02,1.6-.02,.09-.09,.17-.15,.25-.29,.39-.36,.82-.33,1.29,.03,.43,.3,.76,.8,.76,.36,0,.72,.01,.99-.29,.91-.35,1.58-1.06,2.39-1.57,.35-.22,.62-.54,.95-.8,.74-.59,1.38-1.32,2.23-1.78,.1-.06,.18-.15,.27-.24,.58-.59,1.19-1.15,1.92-1.57,.1-.06,.17-.17,.26-.24,.3-.26,.6-.52,.89-.79,.17-.16,.31-.36,.48-.52,.12-.12,.27-.21,.4-.33,.76-.71,1.5-1.45,2.08-2.32,.26-.38,.59-.72,.85-1.09,.46-.66,.99-1.28,1.53-1.88,.1-.12,.2-.25,.29-.37,.62-.79,1.23-1.6,1.93-2.32,.54-.55,1.14-1.05,1.69-1.6,.34-.35,.63-.76,.94-1.13,.14-.17,.29-.33,.45-.48,.39-.39,.8-.76,1.18-1.16,.18-.18,.41-.31,.59-.49,.52-.53,1.17-.92,1.59-1.55,.08-.12,.25-.19,.37-.29,.77-.61,1.54-1.22,2.32-1.82,.39-.3,.78-.6,1.18-.88,.7-.47,1.46-.83,2.28-1.01,.67-.14,1.37-.18,2.05,.04,.07,.02,.16,.03,.21,.08,.48,.47,.84,1.02,.7,1.73-.09,.48-.22,.95-.39,1.4-.3,.81-.69,1.57-1.32,2.2-.32,.31-.53,.74-.85,1.05-.35,.33-.53,.85-1.06,.99-.11,.3-.45,.37-.63,.6-.34,.42-.76,.76-1.25,.98-.42,.2-.73,.53-1.1,.78-.27,.19-.5,.44-.84,.51-.07,.01-.13,.09-.19,.14-.46,.47-1,.8-1.61,1.06-.39,.17-.72,.46-1.1,.68-.46,.26-.92,.54-1.41,.72-.2,.07-.39,.16-.58,.25-.21,.1-.43,.16-.65,.24-.07,.03-.15,.04-.21,.09-.75,.58-1.57,1-2.48,1.28-.33,.1-.66,.21-.99,.33-.49,.18-.91,.46-1.15,.96-.07,.14-.17,.26-.27,.38-.2,.25-.39,.5-.61,.72-.17,.18-.49,.3-.55,.5-.1,.33-.34,.52-.51,.78-.39,.61-.79,1.2-1.1,1.86-.13,.28-.3,.55-.5,.79-.3,.39-.46,.87-.75,1.25-.76,1-1.13,2.19-1.69,3.28-.23,.44-.29,.96-.42,1.45-.05,.17-.08,.34-.14,.5-.13,.33-.21,.67-.23,1.02-.02,.45-.05,.91-.14,1.35-.15,.78-.12,1.53,.08,2.32,.16,.62,.44,1.13,.84,1.58,.37,.42,.85,.76,1.47,.77,.15,0,.3,.07,.45,.09,.14,.02,.3,.06,.41,0,.25-.13,.5-.09,.76-.09,.72,0,1.38-.15,2.01-.53,.46-.28,.97-.5,1.42-.79,.7-.46,1.38-.94,2.08-1.4,.23-.15,.51-.23,.72-.4,.62-.49,1.29-.9,1.85-1.46,.11-.11,.26-.17,.38-.27,.22-.17,.48-.31,.63-.53,.21-.32,.49-.5,.8-.66,.18-.09,.31-.2,.42-.38,.28-.45,.62-.85,1.03-1.19,.24-.2,.4-.48,.6-.73,.14-.17,.27-.34,.42-.49,.2-.2,.44-.37,.45-.7,0-.1,.1-.21,.16-.3,.33-.43,.43-.95,.54-1.46,.02-.1,0-.23,.05-.28,.4-.38,.31-.87,.32-1.34,0-.06,0-.12,0-.18h0Zm6.38-19.96c-.03-.21,0-.5-.11-.71-.3-.55-.73-.64-1.33-.38-.05,.02-.11,.04-.16,.07-.46,.3-.92,.59-1.37,.9-.19,.13-.38,.28-.56,.43-.45,.37-.89,.74-1.35,1.11-.26,.21-.59,.36-.77,.61-.33,.45-.88,.67-1.14,1.17-.03,.06-.12,.1-.19,.14-.9,.49-1.57,1.26-2.32,1.92-.41,.36-.71,.84-1.07,1.26-.2,.24-.36,.54-.61,.72-1.01,.74-1.75,1.74-2.55,2.69-.34,.41-.65,.84-1,1.24-.42,.48-.86,.93-1.29,1.4-.05,.06-.13,.11-.15,.18-.02,.08-.01,.19,.03,.27,.02,.04,.16,.05,.21,.02,.45-.29,.95-.43,1.45-.6,.24-.08,.49-.2,.65-.38,.33-.37,.84-.44,1.18-.77,.59-.05,1.03-.45,1.56-.65,.16-.06,.33-.12,.47-.21,.6-.4,1.15-.88,1.86-1.09,.07-.02,.15-.07,.19-.13,.27-.34,.64-.51,1-.72,.37-.21,.75-.42,1.07-.73,.31-.3,.65-.62,1.04-.76,.39-.14,.6-.39,.86-.65,.39-.39,.84-.72,1.25-1.08,.16-.14,.35-.28,.45-.46,.24-.42,.57-.75,.91-1.09,.26-.27,.53-.52,.68-.88,.15-.36,.36-.7,.61-1,.16-.19,.25-.41,.3-.62,.1-.38,.12-.77,.18-1.21Z"/>
      </g>
    </g>
  </g>
</svg>