<?xml version="1.0" encoding="UTF-8"?>
<svg id="Layer_2" data-name="Layer 2" xmlns="http://www.w3.org/2000/svg" viewBox="0 0 268.13 45.57">
  <g id="Layer_1-2" data-name="Layer 1">
    <path d="M140.3,9.08c.11,.74-.12,1.44-.46,2.12-.35,.73-.44,.84-1.02,1.36-.13,.11-.21,.28-.32,.41-.18,.23-.35,.48-.56,.68-.35,.33-.83,.53-1.08,.97-.69,.3-1.11,.98-1.82,1.27-.34,.14-.63,.39-.94,.6-.48,.33-.99,.6-1.55,.77-.48,.15-.95,.38-1.37,.65-.7,.44-1.46,.74-2.22,1.06-.49,.2-.95,.46-1.45,.61-.56,.17-1.09,.46-1.65,.54-1,.14-1.88,.65-2.86,.83-.24,.05-.43,.1-.67,0-.15-.06-.32-.04-.42,.19-.17,.4-.44,.75-.76,1.05-.19,.18-.35,.37-.38,.65-.01,.11-.07,.22-.13,.32-.1,.17-.2,.35-.34,.48-.27,.23-.26,.62-.48,.86-.23,.25-.37,.53-.51,.85-.14,.33-.31,.66-.53,.96-.5,.67-.93,1.39-1.31,2.14-.1,.19-.07,.23,.14,.21,.19-.02,.38-.07,.57-.13,.33-.11,.67-.2,1-.3,.44-.13,.7-.43,.91-.76,.4-.62,.96-1.05,1.53-1.47,.41-.3,.93-.33,1.43-.27,.29,.03,.39,.3,.19,.51-.11,.12-.23,.28-.36,.3-.22,.04-.33,.21-.49,.31-.48,.3-.79,.77-1.13,1.2-.35,.44-.59,.97-.85,1.47-.11,.21,.02,.39,.26,.42,.16,.01,.32,0,.48,0,.07,0,.17,.06,.18,.11,.01,.09-.02,.18-.06,.27-.02,.04-.09,.08-.15,.09-.73,.17-1.44-.23-1.58-1-.04-.19-.1-.38-.12-.57-.03-.25-.16-.23-.33-.16-.54,.22-1.08,.44-1.62,.65-.13,.05-.25,.21-.42,.07-.02-.02-.15,.05-.19,.1-.22,.25-.44,.51-.64,.77-.19,.25-.35,.52-.54,.77-.38,.5-.76,.98-1.14,1.47-.15,.19-.29,.38-.47,.54-.48,.44-.9,.93-1.36,1.39-.27,.27-.53,.53-.89,.68-.11,.05-.21,.14-.3,.25-.52,.62-1.14,1.15-1.79,1.64-.35,.26-.65,.57-.99,.85-.1,.09-.22,.17-.33,.24-.38,.24-.83,.42-1.13,.73-.6,.63-1.46,.79-2.11,1.31-.58,.08-.96,.6-1.55,.65-.71,.4-1.45,.73-2.23,.96-.12,.03-.28,.16-.15,.32,.24,.31,.1,.64,.03,.94-.05,.23-.06,.4,.04,.61,.16,.33,.27,.69,.38,1.04,.07,.23,.21,.36,.43,.43,.28,.09,.54,.21,.81,.32,.03,.01,.05,.06,.07,.09-.03,.02-.07,.06-.1,.05-.17-.03-.34-.07-.51-.12-.71-.21-1.17-.62-1.34-1.39-.09-.44-.09-.86-.11-1.29,0-.18,0-.36-.01-.54-.02-.17-.16-.2-.34-.18-.55,.05-1.01,.37-1.54,.5-.08,.02-.15,.08-.22,.07-.57-.08-1.05,.22-1.57,.37-.39,.11-.8,.19-1.2,.26-.4,.07-.8,.19-1.23,.15-.14-.01-.29,.09-.45,.12-.31,.05-.62,.12-.93,.12-.28,0-.56,.11-.85,.02-.17-.05-.37,.03-.55,.03-.18,0-.36-.04-.53-.03-.4,.03-.8-.08-1.21,0-.12,.03-.28-.02-.4-.07-.46-.19-.94-.2-1.4-.12-.21,.03-.4,.02-.55-.04-.39-.15-.84,0-1.18-.28-.02-.02-.1,.02-.15,.04-.18,.08-.34,0-.4-.15-.08-.22-.27-.36-.43-.36-.33,.02-.51-.3-.81-.31-.08,0-.19-.1-.22-.18-.21-.65-.81-.92-1.28-1.32-.21-.18-.47-.32-.63-.53-.51-.69-1.04-1.36-1.41-2.16-.31-.67-.13-1.29,.03-1.93,.01-.05,.07-.12,.11-.13,.1-.02,.21,0,.32,0-.01,.09,0,.25-.03,.26-.21,.07-.18,.23-.19,.39-.01,.25-.07,.51-.05,.76,.04,.37,.11,.77,.38,1.01,.4,.38,.55,.91,.91,1.3,.21,.23,.38,.55,.64,.69,.59,.31,1,.83,1.52,1.22,.21,.16,.42,.34,.66,.46,.64,.33,1.29,.65,2.01,.8,.08,.02,.15,.05,.23,.05,.56,0,1.11,.08,1.67,.1,.53,.02,1.06,.09,1.58,.17,.03,0,.07,.04,.1,.03,.44-.18,.91-.1,1.36-.08,.5,.02,.98-.09,1.47-.17,.69-.1,1.36-.31,2.03-.5,.73-.21,1.47-.35,2.22-.49,.17-.03,.34-.09,.49-.18,.48-.27,1.01-.39,1.53-.56,.15-.05,.33-.2,.38-.34,.17-.55,.38-1.07,.79-1.48,.23-.79,.86-1.31,1.33-1.92,.25-.32,.61-.54,.89-.83,.75-.77,1.55-1.48,2.36-2.18,.43-.38,.83-.79,1.33-1.08,.75-.43,1.47-.9,2.24-1.3,.74-.39,1.52-.69,2.27-1.05,.33-.16,.64-.36,.98-.5,.24-.1,.46-.21,.72-.22,.22-.01,.38-.14,.49-.36,.23-.47,.44-.96,.75-1.38,.41-.56,.68-1.19,1-1.79,.39-.72,.78-1.44,1.1-2.19,.02-.04,0-.13-.04-.15-.03-.02-.12,0-.16,.02-.27,.23-.56,.44-.8,.69-.68,.69-1.5,1.2-2.33,1.69-.34,.2-.64,.45-.96,.68-.24,.17-.47,.34-.73,.48-.58,.32-1.1,.73-1.6,1.16-.19,.16-.42,.29-.64,.42-.38,.23-.76,.46-1.15,.68-.05,.03-.1,.09-.15,.09-.57,.03-1.01,.37-1.5,.59-.58,.26-1.2,.26-1.78,.02-.26-.11-.47-.37-.65-.61-.43-.59-.5-1.27-.36-1.95,.13-.63,.45-1.2,.75-1.77,.23-.44,.54-.81,.82-1.2,.02-.03,0-.13-.02-.15-.03-.03-.12-.03-.15,0-.96,.89-2.1,1.56-3.06,2.47-.34,.32-.74,.59-1.12,.87-.88,.65-1.8,1.23-2.7,1.84-.06,.04-.13,.12-.19,.13-.32,.03-.51,.26-.74,.45-.16,.13-.37,.2-.57,.28-.18,.07-.39,.08-.55,.18-.21,.13-.46,.14-.63,.06-.62-.28-1.26-.56-1.36-1.38-.03-.28-.18-.55-.26-.83-.08-.29-.26-.57-.11-.88-.2-.59,.16-1.07,.3-1.6,.25-.95,.85-1.71,1.25-2.57,.07-.16,.16-.31,.24-.47,.06-.12,.28-.2,.17-.34-.14-.18-.31,.04-.4,.11-.43,.32-.88,.61-1.27,1-.21,.21-.49,.35-.72,.55-.27,.23-.53,.47-.82,.68-.33,.24-.7,.44-.99,.75-.15,.16-.33,.27-.5,.41-.64,.53-1.27,1.05-1.91,1.58-.23,.19-.45,.38-.67,.58-.13,.12-.24,.29-.4,.35-.63,.23-1.13,.7-1.74,.96-.44,.19-.89,.3-1.37,.27-.11,0-.25-.04-.32-.11-.24-.28-.47-.58-.69-.88-.41-.58-.34-1.23-.08-1.8,.26-.56,.4-1.19,.84-1.67,.22-.24,.34-.57,.5-.86,.04-.08,.03-.2,.02-.29,0-.04-.06-.08-.11-.1-.02,0-.09,.03-.09,.04,0,.32-.26,.4-.47,.54-.29,.2-.57,.42-.84,.64-.32,.27-.61,.56-.93,.82-.26,.21-.52,.45-.83,.56-.45,.16-.77,.49-1.07,.8-.43,.43-.93,.74-1.44,1.02-.33,.18-.59,.43-.9,.62-.13,.08-.25,.21-.4,.25-.46,.14-.93,.27-1.41,.35-.19,.03-.44-.04-.59-.16-.26-.21-.49-.46-.69-.73-.19-.25-.28-.55-.27-.89,0-.21,.05-.43-.08-.64-.04-.07,.03-.22,.08-.32,.36-.63,.74-1.25,1.11-1.87,.01-.02,.03-.03,.03-.05,0-.17,0-.35,0-.52-.13,.07-.28,.12-.39,.21-.41,.38-.83,.74-1.19,1.18-.18,.22-.47,.34-.71,.5-.06,.04-.16,.05-.2,.1-.16,.18-.29,.38-.45,.55-.15,.16-.45,.15-.53,.42-.02,.05-.08,.1-.13,.12-.77,.32-1.38,.87-1.99,1.43-.19,.18-.48,.25-.71,.38-.44,.25-.91,.38-1.42,.35-.32-.01-.62-.04-.9-.28-.31-.27-.67-.48-.86-.87-.11-.22-.18-.43-.17-.68,.02-.61,.07-1.21,.52-1.69,.04-.04,.02-.14,.03-.21-.07,0-.15,0-.21,.03-.11,.05-.22,.11-.3,.19-.43,.44-.96,.75-1.44,1.12-.26,.2-.46,.47-.7,.7-.42,.39-.93,.65-1.4,.97-.18,.12-.37,.23-.52,.38-.46,.43-1.02,.35-1.57,.35-.04,0-.08-.01-.11-.04-.22-.27-.43-.56-.66-.83-.51-.59-.41-1.23-.18-1.88,.18-.51,.37-1.02,.56-1.53,.03-.07,.06-.15,.07-.22,0-.05-.02-.13-.06-.15-.04-.02-.13,0-.16,.03-.39,.53-1.08,.64-1.49,1.13-.49,.07-.74,.56-1.21,.68-.12,.03-.21,.18-.31,.27-.41,.39-.98,.54-1.35,.99-.45,.12-.74,.59-1.26,.55-.08,0-.15,.12-.24,.15-.18,.07-.36,.13-.55,.19-.11,.04-.23,.04-.33,.1-.33,.19-.7,.15-1.06,.2-.04,0-.09-.04-.11-.02-.45,.34-.84,.01-1.23-.12-.42-.14-.69-.51-.93-.88-.28-.45-.43-.97-.84-1.35-.08-.07-.12-.21-.13-.32-.03-.67-.06-1.34,.15-2,.21-.65,.49-1.26,.88-1.83,.55-.8,1.13-1.57,1.82-2.24,.18-.18,.4-.32,.6-.48,.19-.16,.39-.3,.56-.48,.54-.53,1.19-.91,1.71-1.46,.26-.27,.64-.45,.98-.63,.47-.24,.96-.44,1.44-.66,.05-.02,.1-.07,.16-.08,.39-.05,.78-.13,1.17-.13,.39,0,.78,.05,1.17,.1,.3,.04,.59,.5,.52,.83-.11,.52-.29,.99-.69,1.4-.68,.69-1.37,1.36-2.19,1.89-.29,.19-.52,.47-.79,.7-.63,.53-1.32,.9-2.19,.63-.35-.11-.64-.22-.57-.67,0-.05-.06-.15-.11-.16-.06-.02-.2,0-.21,.05-.19,.48-.74,.62-.98,1.07-.2,.38-.57,.68-.85,1.02-.4,.48-.77,.98-.98,1.58-.09,.28-.26,.53-.39,.79-.32,.62-.38,1.23,0,1.85,.06,.1,.09,.22,.13,.33,.28,.76,.92,1.06,1.73,.91,.5-.1,.99-.2,1.49-.29,.51-.09,.94-.36,1.37-.62,.54-.32,1.02-.73,1.55-1.07,.31-.2,.67-.32,.97-.52,.29-.2,.53-.48,.82-.68,.35-.25,.8-.39,1.08-.69,.39-.41,.94-.58,1.29-.97,.29-.31,.72-.53,.84-1,.04-.16,.18-.3,.29-.44,.33-.39,.68-.78,1.01-1.17,.17-.19,.3-.42,.48-.59,.64-.59,1.26-1.2,1.95-1.73,.39-.31,.88-.48,1.33-.72,.14-.07,.29-.13,.41-.23,.75-.64,1.71-.71,2.61-.94,.65,.18,1.34-.08,1.98,.15,.11,.04,.24,0,.36,.02,.13,.03,.26,.08,.37,.15,.15,.09,.3,.2,.41,.33,.1,.11,.18,.26,.22,.4,.09,.36,.16,.72,.23,1.08,.01,.06,.03,.13,.01,.17-.19,.47-.23,.99-.5,1.43-.02,.03-.05,.07-.08,.09-.05,.02-.11,.04-.16,.03-.02,0-.07-.06-.06-.09,.01-.13,.02-.27,.06-.4,.11-.43,.31-.84,.3-1.31,0-.13,.02-.22-.06-.35-.08-.12-.08-.3-.09-.45-.03-.4-.17-.58-.55-.74-.66-.27-1.23-.09-1.75,.34-.45,.38-.92,.7-1.47,.95-.6,.27-1.12,.72-1.64,1.13-.51,.4-.99,.84-1.48,1.27-.32,.29-.57,.64-.89,.93-.5,.44-.86,1.03-1.31,1.52-.5,.54-.98,1.08-1.32,1.74-.74,.68-1.04,1.63-1.51,2.48-.12,.22-.09,.42-.08,.64,.02,.45,.22,.59,.65,.48,.55-.14,1.01-.41,1.66-.95,.24-.2,.49-.4,.73-.59,.17-.14,.35-.26,.5-.41,.22-.22,.42-.48,.74-.58,.05-.02,.12-.05,.15-.09,.48-.59,1.2-.88,1.75-1.4,.25-.24,.58-.39,.87-.58,.38-.24,.69-.53,.96-.9,.14-.19,.39-.32,.61-.44,.27-.15,.56-.26,.85-.38,.23-.09,.7,.05,.83,.25,.04,.06,.07,.16,.06,.22-.1,.33-.2,.66-.5,.89-.17,.13-.31,.31-.43,.48-.39,.54-.85,1.02-1.29,1.52-.55,.62-1.1,1.28-1.34,2.12-.06,.19-.18,.39-.04,.55,.14,.15,.34,.32,.53,.34,.28,.04,.59,.1,.85-.14,.12-.11,.31-.15,.48-.2,.38-.12,.72-.3,1-.6,.15-.16,.36-.26,.55-.39,.19-.12,.3-.36,.57-.37,.05,0,.12-.04,.15-.08,.42-.53,1.05-.81,1.51-1.28,.12-.12,.28-.22,.42-.32,.24-.16,.46-.33,.63-.6,.15-.24,.43-.39,.66-.58,.39-.33,.8-.64,1.19-.98,.59-.5,1.18-1,1.74-1.52,.39-.36,.72-.78,1.09-1.15,.43-.43,.88-.83,1.34-1.24,.28-.25,.55-.52,.87-.71,.66-.4,1.34-.74,2.16-.63,.06,0,.13-.02,.18,.01,.11,.07,.23,.15,.31,.26,.04,.05-.02,.17-.04,.26-.06,.32-.27,.55-.45,.81-.52,.76-1.23,1.31-1.89,1.92-.44,.4-.78,.9-1.3,1.23-.15,.09-.2,.32-.32,.46-.27,.32-.55,.62-.83,.93-.07,.07-.15,.14-.2,.22-.27,.5-.71,.85-1.11,1.24-.39,.38-.71,.84-1.04,1.28-.19,.25-.25,.57-.51,.79-.18,.16-.22,.95-.08,1.19,.06,.11,.11,.14,.23,.09,.24-.1,.48-.25,.76-.1,.05,.03,.16-.02,.21-.06,.12-.12,.25-.19,.42-.18,.04,0,.09,0,.11-.02,.26-.34,.67-.45,1.01-.68,.14-.1,.28-.19,.42-.28,.48-.33,1.02-.58,1.35-1.1,.05-.08,.14-.18,.22-.19,.49-.07,.75-.5,1.14-.7,.39-.2,.68-.5,1-.79,.19-.17,.4-.32,.61-.46,.36-.23,.7-.47,1-.78,.3-.32,.7-.56,1.08-.81,.27-.18,.44-.51,.81-.57,.11-.02,.19-.23,.28-.36,.41-.65,.85-1.26,1.45-1.76,.27-.22,.48-.52,.69-.81,.5-.66,1.24-.87,1.98-1.08,.35-.1,.7,.05,1.04,.14,.17,.04,.2,.21,.15,.39-.13,.49-.44,.87-.75,1.25-.43,.5-.87,1-1.34,1.47-.44,.45-.93,.86-1.38,1.31-.28,.28-.51,.6-.76,.91-.04,.04-.04,.14-.08,.15-.52,.22-.6,.81-.98,1.15-.25,.23-.4,.57-.72,.73-.05,.03-.11,.08-.12,.13-.12,.45-.49,.71-.79,1.02-.14,.14-.16,.3-.22,.47-.15,.42-.31,.84-.3,1.3,0,.36,.12,.43,.49,.34,.61-.15,1.19-.36,1.7-.75,.1-.08,.25-.1,.37-.17,.31-.16,.65-.28,.8-.65,.03-.09,.11-.18,.19-.22,.33-.18,.6-.49,.91-.63,.42-.19,.6-.59,.96-.8,.19-.11,.3-.32,.57-.39,.24-.06,.43-.32,.64-.5,.4-.35,.75-.75,1.19-1.04,.56-.36,.97-.88,1.54-1.21,.27-.16,.53-.3,.69-.58,.04-.07,.16-.11,.24-.16,.65-.38,1.25-.8,1.81-1.31,.37-.33,.7-.68,1.03-1.05,.54-.62,1.15-1.17,1.72-1.75,.15-.15,.29-.31,.43-.47,.23-.27,.46-.54,.69-.81,.28-.32,.55-.65,.84-.96,.23-.24,.49-.45,.74-.68,.07-.07,.12-.15,.19-.22,.25-.25,.5-.49,.75-.74,.06-.06,.12-.1,.18-.16,.57-.51,1.15-1.03,1.72-1.54,.15-.13,.19-.36,.06-.51-.17-.19-.34-.41-.56-.53-.5-.26-.92-.61-1.31-1-.42-.41-.76-.9-1.17-1.33-.24-.25-.55-.44-.82-.66-.09-.07-.19-.14-.28-.22-.55-.5-1.11-1-1.66-1.5-.09-.08-.2-.12-.3-.19-.31-.21-.61-.43-.92-.64-.15-.1-.29-.23-.45-.27-.31-.06-.53-.24-.75-.44-.14-.13-.31-.23-.47-.35-.2-.15-.4-.3-.61-.44-.73-.45-1.39-1.01-2.16-1.4-.22-.11-.38-.06-.54,.04-.16,.11-.32,.26-.4,.43-.16,.34-.43,.59-.66,.87-.28,.33-.56,.67-.87,.98-.36,.36-.75,.7-1.14,1.04-.41,.36-.85,.7-1.26,1.07-.5,.45-.97,.94-1.48,1.37-.36,.3-.76,.54-1.15,.81-.66,.46-1.29,.95-1.97,1.38-1,.64-2.01,1.27-3.18,1.6-.15,.04-.27,.16-.42,.22-.55,.24-1.11,.46-1.72,.53-.67,.08-1.34,.25-2,.39-.72,.16-1.43,.45-2.2,.35-.17-.02-.34,.06-.51,.09-.08,.01-.17,.05-.23,.02-.48-.24-1.03,.06-1.51-.2-.03-.02-.09-.02-.12,0-.59,.28-1.14-.18-1.72-.12-.61-.43-1.36-.43-2.03-.7-.43-.17-.76-.42-.98-.86-.34-.68-.73-1.34-.85-2.11-.36-.52-.25-1.13-.36-1.7-.16-.84,.12-1.63,.33-2.43,.15-.53,.48-.95,.83-1.33,.57-.65,1.18-1.26,1.86-1.81,.66-.54,1.33-1.04,2.1-1.41,.62-.66,1.5-.92,2.25-1.38,.4-.25,.91-.31,1.38-.44,.68-.2,1.38-.33,2.06-.46,.57-.11,1.13-.34,1.74-.31,.19,.01,.38-.09,.57-.11,.58-.06,1.14,0,1.68,.22,.24,.09,.49,.12,.75,.11,.6-.02,1.2-.05,1.8,0,.83,.07,1.66,.22,2.46,.5,.46,.16,.94,.24,1.43,.31,.32,.05,.63,.19,.93,.33,.44,.21,.87,.44,1.29,.68,.32,.18,.68,.27,1.01,.47,.51,.31,1.1,.51,1.65,.76,.34,.15,.34,.15,.61-.11,.3-.28,.62-.55,.92-.84,.14-.14,.24-.31,.33-.48,.15-.29,.4-.48,.68-.62,.03-.01,.1,0,.11,.02,.02,.05,.05,.13,.03,.15-.49,.61-.8,1.36-1.37,1.91-.22,.21-.19,.37,.06,.53,.63,.4,1.27,.78,1.9,1.17,.08,.05,.19,.08,.25,.14,.45,.51,1.13,.72,1.6,1.2,.63,.2,1.06,.72,1.64,1.01,.17,.09,.33,.22,.47,.35,.59,.54,1.15,1.12,1.83,1.56,.07,.04,.13,.1,.17,.16,.32,.48,.82,.79,1.22,1.2,.2,.21,.39,.44,.58,.67,.42,.51,1.06,.74,1.53,1.19,.07,.07,.16,.12,.23,.19,.33,.3,.34,.3,.7,.04,.24-.17,.49-.33,.69-.55,.54-.58,1.17-1.03,1.76-1.54,.33-.28,.65-.58,.99-.86,.24-.2,.51-.37,.77-.53,.28-.18,.56-.35,.86-.5,.82-.42,1.69-.62,2.62-.52,.09,0,.18,.07,.27,.1,.16,.04,.17,.11,.11,.26-.23,.55-.64,.96-1.1,1.31-.37,.29-.69,.63-1.03,.95-.11,.11-.23,.21-.37,.29-.44,.27-.85,.57-1.2,.96-.61,.68-1.34,1.22-2.08,1.76-.14,.1-.31,.15-.46,.24-.15,.08-.17,.21-.05,.34,.04,.04,.08,.11,.13,.12,.45,.12,.74,.51,1.15,.68,.09,.04,.19,.08,.26,.14,.64,.57,1.46,.82,2.2,1.19,.26,.13,.51,.31,.79,.38,.32,.08,.65,.1,.96,.23,.06,.03,.19-.03,.25-.09,.38-.44,.85-.8,1.22-1.24,.4-.48,.94-.79,1.42-1.15,.36-.27,.81-.41,1.28-.18,.02,0,.04,.02,.05,.02,.19,.01,.47-.04,.48,.22,0,.16-.15,.43-.29,.47-.51,.17-.71,.66-1.11,.94-.4,.29-.76,.62-1.15,.92-.1,.08-.26,.09-.37,.16-.07,.05-.13,.15-.14,.24,0,.05,.1,.16,.15,.16,.33,.02,.6,.15,.86,.36,.05,.04,.15,.03,.23,.03,.74,.08,1.48,.12,2.2,.32,.34,.09,.7-.06,1.06,.08,.17,.07,.45,0,.62-.11,.26-.16,.57-.15,.81-.28,.24-.13,.39-.43,.58-.65,.29-.34,.64-.63,.94-.96,.58-.63,1.18-1.25,1.81-1.84,.84-.78,1.65-1.58,2.61-2.22,.29-.2,.55-.45,.81-.69,.33-.31,.65-.63,1.1-.76,.23-.37,.63-.5,.96-.73,.75-.54,1.5-1.08,2.23-1.64,.9-.68,1.99-1,2.96-1.54,.28-.16,.62-.25,.94-.29,.31-.04,.64,.03,.96,.03,.54,0,1.06,.07,1.59,.15,.42,.06,.69,.29,.94,.56,.24,.26,.43,.56,.37,.96-.03,.18,0,.36,0,.57Zm-66.21,6c.23-.04,.52-.12,.81-.14,.49-.04,.98-.02,1.47-.13,.45-.11,.92-.18,1.36-.31,.09-.03,.19-.05,.28-.07,.69-.11,1.38-.22,2.04-.47,.58-.22,1.16-.45,1.72-.69,.39-.17,.78-.34,1.15-.56,.59-.35,1.15-.75,1.74-1.09,1.35-.79,2.54-1.79,3.68-2.84,.19-.17,.39-.33,.59-.49,.48-.41,.97-.81,1.45-1.22,.36-.31,.64-.7,1-1,.43-.35,.76-.79,1.14-1.19,.25-.27,.45-.6,.66-.9,.07-.09,.07-.17-.06-.23-.74-.36-1.46-.73-2.18-1.12-.05-.03-.11-.04-.17-.04-.25,0-.44-.13-.64-.26-.4-.25-.81-.47-1.22-.68-.15-.08-.34-.12-.51-.12-.64,0-1.23-.21-1.81-.43-.8-.31-1.98-.45-2.86-.38-.77,.06-1.53,.03-2.27-.25-.28-.11-.64-.22-.9-.14-.63,.18-1.27,.19-1.9,.33-.34,.08-.69,.11-1.03,.19-.57,.14-1.13,.3-1.69,.44-.28,.07-.58,.09-.85,.2-.68,.3-1.34,.63-2,.95-.05,.03-.13,.04-.16,.08-.25,.39-.65,.59-1.04,.8-.36,.2-.64,.53-1,.72-.38,.21-.55,.66-.98,.78-.44,.53-1.04,.91-1.46,1.46-.12,.16-.19,.36-.4,.5-.16,.1-.24,.39-.28,.62-.06,.29-.15,.56-.26,.83-.07,.16-.18,.32-.2,.48-.02,.16,.07,.33,.07,.5,0,.13-.1,.28-.05,.38,.18,.35,.17,.72,.2,1.09,0,.11,.08,.22,.11,.33,.05,.15,.09,.3,.14,.45,.1,.33,.14,.7,.3,1,.24,.42,.49,.84,.71,1.28,.07,.14,.26,.23,.41,.31,.47,.24,1.02,.28,1.49,.49,1.08,.48,2.23,.39,3.41,.57Zm38.06,4.88c.21,0,.35,0,.49,0,.62,.03,.69,.36,.44,.82-.05,.09-.1,.17-.16,.24-.4,.41-.74,.87-1.2,1.21-.26,.19-.52,.36-.65,.66-.02,.05-.08,.09-.13,.13-.62,.46-1.21,.96-1.73,1.53-.82,.89-1.8,1.66-2.38,2.77-.11,.21-.26,.4-.42,.56-.6,.6-.87,1.39-1.23,2.13-.21,.43,0,.84,.43,.9,.27,.03,.56,.01,.82-.05,.6-.13,1.16-.41,1.73-.64,.36-.15,.72-.29,1.02-.56,.09-.08,.2-.12,.3-.18,.37-.22,.79-.39,1.09-.67,.52-.49,1.1-.91,1.7-1.26,1.03-.61,2-1.32,2.95-2.03,.34-.26,.74-.44,1.04-.75,.21-.22,.46-.4,.69-.6,.25-.22,.55-.41,.74-.67,.41-.55,.74-1.15,1.14-1.7,.52-.71,.9-1.52,1.61-2.08,.24-.18,.4-.46,.58-.71,.04-.05,.04-.15,.02-.22,0-.03-.1-.05-.15-.06-.06-.01-.12-.01-.18,0-.68,.22-1.37,.17-2.04,0-.33-.08-.66-.08-.99-.12-.38-.04-.77-.12-1.14-.22-.17-.04-.35-.12-.46-.25-.17-.2-.36,.04-.53-.09-.32-.25-.59-.09-.83,.17-.07,.07-.1,.17-.16,.24-.26,.28-.47,.24-.58-.14-.04-.14-.2-.26-.05-.44,.03-.04-.03-.21-.08-.24-.15-.08-.32-.14-.49-.18-.61-.15-1.2-.35-1.73-.7-.06-.04-.13-.08-.2-.11-.47-.24-.94-.48-1.4-.73-.61-.35-1.18-.77-1.84-1.04-.29-.12-.37-.14-.49,.09-.16,.3-.4,.48-.66,.66-.18,.12-.36,.25-.51,.4-.93,.9-1.86,1.8-2.78,2.71-.38,.38-.74,.78-1.15,1.14-.32,.28-.65,.54-.89,.89-.12,.17-.27,.33-.43,.46-.79,.62-1.45,1.38-2.1,2.14-.79,.93-1.49,1.92-2.16,2.94-.42,.63-.89,1.22-1.22,1.92-.38,.81-.53,1.62-.52,2.49,0,.26,.54,.73,.79,.68,.4-.08,.81-.17,1.17-.35,.58-.29,1.12-.65,1.67-.97,.4-.24,.72-.6,1.19-.74,.5-.15,.67-.72,1.14-.92,.17-.07,.27-.31,.44-.39,.61-.29,1.12-.75,1.59-1.2,.65-.63,1.48-1.02,2.09-1.7,.29-.32,.8-.4,1.02-.82,.02-.03,.07-.04,.1-.06,.75-.44,1.43-.98,2.02-1.63,.41-.45,.83-.89,1.28-1.31,.36-.33,.74-.65,1.16-.91,.37-.23,.74-.56,1.18-.41Zm27.79-10.82c0-.24,0-.46,0-.68-.02-.32-.17-.59-.36-.85-.16-.21-.37-.26-.62-.25-.03,0-.07-.04-.11-.04-.76-.14-1.47-.01-2.14,.36-.22,.12-.46,.21-.69,.32-.19,.09-.42,.13-.58,.26-.56,.46-1.29,.69-1.75,1.29-1.09,.59-1.92,1.53-2.96,2.18-.47,.57-1.11,.95-1.65,1.43-.1,.09-.19,.21-.31,.28-.32,.22-.66,.41-.86,.77-.05,.1-.18,.15-.27,.23-.32,.25-.65,.49-.89,.84-.41,.61-.91,1.13-1.51,1.57-.17,.12-.34,.3-.43,.49-.2,.42-.47,.77-.77,1.11-.4,.45-.74,.95-1.2,1.35-.21,.18-.34,.47-.49,.72-.08,.14,.08,.33,.23,.3,.23-.04,.48-.07,.68-.17,.58-.3,1.23-.37,1.82-.62,.07-.03,.15-.05,.23-.05,.53-.06,1.02-.23,1.51-.41,.78-.29,1.56-.61,2.32-.96,.4-.19,.84-.3,1.22-.54,.63-.39,1.3-.71,1.99-.98,.51-.2,1.02-.39,1.46-.74,.32-.26,.63-.56,1-.72,.48-.2,.82-.53,1.18-.87,.13-.12,.27-.23,.42-.32,.95-.56,1.63-1.42,2.37-2.2,.29-.31,.55-.68,.72-1.07,.28-.64,.57-1.3,.46-2.02Zm-26.21,21.69c-.14-.02-.24-.06-.29-.03-.41,.22-.91,.29-1.21,.7-.04,.05-.14,.07-.21,.09-.31,.12-.62,.21-.92,.35-.25,.11-.48,.26-.72,.4-.83,.47-1.67,.93-2.49,1.41-.32,.19-.64,.39-.93,.61-.28,.22-.52,.5-.81,.72-.51,.38-.95,.84-1.4,1.28-.52,.51-1.03,1.03-1.54,1.56-.41,.43-.63,1-1.08,1.38-.08,.07-.1,.21-.15,.31-.12,.24-.24,.48-.35,.73-.05,.12-.08,.26-.08,.39,0,.04,.15,.13,.2,.11,.35-.13,.69-.27,1.02-.45,.64-.36,1.21-.88,1.98-.96,.05,0,.1-.06,.15-.09,.52-.35,1.01-.74,1.53-1.1,.59-.41,1.1-.96,1.71-1.36,.21-.14,.41-.31,.59-.48,.79-.75,1.57-1.52,2.36-2.28,.18-.18,.42-.31,.58-.5,.55-.65,1.08-1.3,1.6-1.97,.17-.23,.28-.51,.46-.83Zm-57.78-7.68c.41,.07,.79-.16,1.15-.45,.4-.32,.78-.66,1.19-.97,.81-.59,1.54-1.26,2.15-2.07,.3-.4,.32-.79,.29-1.22-.01-.17-.16-.25-.34-.2-.57,.17-1.1,.39-1.54,.82-.15,.15-.33,.28-.51,.4-.34,.24-.79,.33-.99,.76-.48,.14-.74,.57-1.13,.84-.48,.33-.8,.82-.96,1.38-.2,.69-.15,.73,.67,.71Z"/>
    <path d="M12.91,34.82c.18,0,.36-.01,.54,0,.76,.05,1.49-.1,2.21-.31,.38-.1,.75-.19,1.15-.23,.5-.05,1.01-.12,1.5-.26,.25-.07,.49-.22,.75-.3,.5-.16,.98-.36,1.48-.54,.22-.08,.45-.14,.67-.18,.32-.06,.63-.17,.93-.31,.55-.25,1.09-.5,1.62-.8,.49-.28,1.04-.44,1.55-.68,.31-.15,.6-.35,.9-.53,.23-.15,.45-.32,.68-.45,.73-.41,1.45-.86,2.1-1.39,.18-.15,.41-.24,.59-.38,.43-.34,.86-.69,1.28-1.05,.58-.51,1.17-1,1.71-1.55,.47-.47,.88-1.01,1.31-1.52,.08-.09,.17-.17,.25-.26,.44-.53,.89-1.06,1.33-1.59,.08-.09,.16-.18,.25-.26,.38-.37,.73-.78,1-1.24,.04-.07,.09-.14,.16-.18,.39-.25,.54-.71,.86-1.02,.52-.48,.72-1.2,1.28-1.66,.2-.16,.4-.32,.59-.49,.1-.09,.27-.2,.27-.31,0-.33,.36-.42,.41-.7,.59-.33,.83-1.01,1.35-1.4,.27-.2,.52-.42,.76-.66,.17-.16,.29-.38,.46-.52,.33-.28,.71-.49,1.03-.78,.51-.45,1.05-.87,1.62-1.24,.42-.28,.82-.59,1.28-.82,.35-.18,.78-.27,1.06-.6,.05-.05,.13-.08,.21-.1,.42-.08,.73-.37,1.1-.54,.21-.1,.41-.23,.62-.32,.17-.07,.27-.17,.25-.35-.02-.17-.05-.34-.08-.52-.01-.06-.04-.11-.05-.17-.14-.61-.45-1.12-.94-1.51-.16-.13-.3-.3-.44-.45-.62-.65-1.46-.99-2.18-1.5-.21-.14-.41-.3-.63-.42-.26-.14-.37-.12-.49,.11-.18,.32-.37,.64-.47,.99-.19,.66-.6,1.19-1.02,1.7-.26,.32-.46,.68-.68,1.03-.25,.42-.58,.79-.89,1.18-.21,.26-.44,.51-.63,.78-.16,.22-.28,.48-.56,.58-.03,.01-.07,.05-.09,.08-.39,.61-1.04,.96-1.5,1.51-.39,.47-.8,.94-1.23,1.37-.41,.4-.87,.74-1.29,1.12-.14,.13-.25,.3-.38,.45-.11,.13-.23,.32-.36,.35-.2,.03-.31,.16-.46,.26-.13,.09-.28,.16-.37,.28-.22,.3-.45,.57-.82,.73-.33,.14-.53,.53-.93,.59-.02,0-.04,.02-.05,.03-.51,.58-1.25,.81-1.86,1.23-.63,.42-1.25,.94-2.05,1.07-.13,.02-.24,.14-.36,.2-.28,.13-.56,.24-.89,.29-.26,.04-.47,.33-.79,.35-.14,0-.28,.14-.42,.19-.31,.11-.62,.25-.95,.28-.75,.08-1.46,.26-2.14,.57-.09,.04-.19,.08-.28,.06-.38-.05-.76,.18-1.15,.04-.08-.03-.19,.04-.28,.06-.12,.02-.26,.08-.34,.03-.3-.18-.62-.2-.95-.28-.17-.04-.33-.12-.5-.17-.39-.11-.72-.33-.94-.67-.06-.09-.1-.14-.21-.16-.3-.06-.54-.35-.9-.25-.05,.02-.17-.1-.22-.18-.27-.41-.53-.82-.79-1.23-.04-.06-.07-.15-.07-.22,0-.29-.12-.53-.22-.78-.21-.51-.26-1.08-.13-1.57,.13-.49,.19-1.03,.53-1.47,.15-.19,.2-.46,.3-.68,.26-.6,.56-1.2,1.07-1.66,.07-.06,.15-.14,.18-.23,.12-.3,.35-.5,.59-.71,.37-.31,.68-.69,1.05-1.01,.55-.47,1.13-.91,1.69-1.37,.26-.21,.48-.49,.77-.64,.56-.29,.96-.78,1.55-1.04,1.05-.47,2.04-1.08,3.06-1.6,.78-.4,1.56-.81,2.38-1.15,1.16-.49,2.32-1.02,3.57-1.25,.15-.03,.3-.09,.44-.14,.37-.13,.75-.21,1.14-.23,.45-.03,.89-.13,1.33-.2,.14-.02,.27-.04,.41-.04,.57,0,1.13-.11,1.69-.23,.42-.09,.89-.11,1.31-.01,.48,.1,.95,.08,1.42,.07,.54-.01,1.05,.08,1.57,.23,.3,.09,.6,.16,.9,.23,.16,.03,.31,.02,.43-.13,.11-.14,.24-.27,.37-.39,.18-.16,.41-.11,.49,.1,.07,.18,.14,.38,.13,.56-.02,.34,.12,.51,.43,.59,.11,.03,.24,.09,.31,.17,.39,.47,.97,.67,1.44,1.02,.37,.28,.85,.47,1.14,.82,.59,.72,1.46,1.24,1.68,2.24,.05,.24,.2,.46,.31,.69,.24-.07,.47-.17,.72-.21,.77-.12,1.51-.39,2.31-.4,.7-.01,1.37,.12,2.03,.28,.45,.11,.89,.27,1.33,.41,.03,.01,.05,.07,.08,.1-.06,.03-.14,.09-.18,.07-.49-.21-1.01-.3-1.53-.36-.5-.06-1.02-.08-1.54,.05-.43,.11-.88,.12-1.31,.29-.39,.16-.81,.26-1.21,.41-.25,.09-.29,.29-.23,.58,.05,.27,.06,.55,.08,.82,.03,.41,0,.82,.09,1.23,.08,.37-.03,.78-.09,1.17-.05,.31-.16,.6-.21,.91-.06,.34-.21,.62-.41,.89-.27,.36-.49,.75-.8,1.09-.18,.2-.33,.43-.58,.57-.08,.05-.16,.13-.21,.21-.45,.66-1.19,1.01-1.76,1.53-.07,.06-.17,.08-.26,.11-.28,.1-.52,.23-.76,.43-.39,.31-.81,.59-1.33,.69-.29,.05-.55,.25-.87,.28-.14,.01-.16,.17-.03,.25,.16,.1,.36,.16,.51,.27,.65,.46,1.24,.96,1.56,1.72,.08,.17,.23,.31,.35,.47,.28,.39,.34,.87,.48,1.31,.2,.68,.32,1.38,.27,2.1-.07,1.11-.21,2.2-.59,3.27-.26,.73-.72,1.36-.94,2.11-.32,.31-.47,.71-.63,1.12-.06,.16-.24,.26-.36,.4-.23,.27-.43,.57-.7,.8-.41,.35-.71,.82-1.23,1.06-.28,.12-.61,.21-.71,.57,0,.02-.02,.04-.04,.04-.45,.08-.72,.46-1.09,.67-.35,.2-.75,.33-1.12,.5-.25,.11-.49,.24-.73,.37-.36,.19-.71,.41-1.08,.58-.13,.06-.32,.01-.47,.06-.3,.09-.58,.22-.87,.33-.18,.07-.37,.13-.54,.22-.17,.09-.33-.22-.49,0-.58,.1-1.15,.28-1.73,.27-.72-.02-1.45-.03-2.17-.17-.37-.07-.75-.05-1.03-.35-.01-.01-.04-.02-.05-.02-.62,.11-.87-.37-1.17-.74-.34-.43-.68-.86-.92-1.36-.19-.41-.42-.8-.36-1.28,.02-.11,.03-.21,.16-.2,.08,.01,.17,.08,.21,.15,.1,.19,.24,.4,.22,.59-.02,.32,.17,.51,.29,.75,.27,.52,.71,.93,1,1.45,.21,.37,.65,.42,1.03,.49,.47,.08,.94,.25,1.42,.12,.85,.29,1.66-.08,2.49-.18,.25-.03,.52-.04,.74-.15,.68-.33,1.42-.5,2.06-.95,.35-.25,.72-.54,1.19-.6,.12-.02,.22-.15,.32-.25,.31-.31,.65-.57,1.07-.71,.05-.02,.13-.04,.15-.08,.17-.42,.58-.58,.88-.86,.52-.5,.89-1.11,1.27-1.7,.39-.61,.73-1.24,1.08-1.87,.19-.36,.35-.74,.5-1.12,.24-.63,.54-1.25,.7-1.92,.15-.6,.41-1.18,.5-1.79,.06-.36,.16-.74,.06-1.14-.06-.27-.11-.59,.05-.88,.04-.08,.06-.21,.02-.29-.16-.34-.07-.71-.13-1.05-.06-.34,0-.76-.45-.95-.12-.05-.18-.26-.29-.36-.38-.34-.87-.41-1.35-.51-.52,.25-1.16-.06-1.66,.32-.02,.01-.04,.04-.05,.03-.53-.29-.77,.3-1.18,.4-.09,.02-.15,.11-.24,0-.1-.12,.02-.17,.08-.23,.42-.47,.95-.74,1.56-.88,.41-.1,.8-.24,1.19-.43,.56-.27,1.12-.52,1.62-.9,.26-.2,.57-.34,.86-.5,.03-.02,.09-.03,.1-.06,.29-.53,.88-.78,1.24-1.26,.29-.39,.65-.72,.95-1.1,.38-.48,.74-.97,1.08-1.47,.26-.39,.49-.8,.73-1.2,.16-.27,.31-.54,.44-.82,.12-.27,.19-.55,.19-.85,0-.21,.06-.43,.07-.64,0-.15,0-.31-.05-.46-.09-.35-.1-.34-.42-.15-.59,.35-1.16,.73-1.78,1.02-.53,.25-.91,.68-1.37,1.01-.4,.29-.77,.61-1.15,.92-.16,.14-.16,.37-.35,.52-.41,.34-.76,.73-1.13,1.11-.43,.44-.85,.88-1.11,1.45-.02,.04-.04,.07-.07,.09-.2,.18-.51,.33-.59,.56-.09,.27-.27,.43-.44,.61-.57,.58-1.3,1.55-1.61,2.16-.03,.05-.05,.13-.09,.14-.44,.16-.63,.58-.93,.88-.3,.3-.53,.68-.8,1.02-.1,.12-.21,.24-.32,.35-.49,.5-.99,.99-1.47,1.5-.22,.23-.37,.53-.61,.72-.65,.49-1.09,1.21-1.81,1.63-.34,.58-1.01,.8-1.42,1.31-.07,.09-.17,.16-.27,.23-.58,.36-1.16,.72-1.74,1.09-.31,.2-.62,.4-.94,.61-.21,.14-.43,.27-.64,.41-.33,.21-.7,.34-1,.62-.2,.19-.53,.23-.79,.37-.59,.31-1.18,.62-1.76,.94-.38,.21-.77,.36-1.18,.5-.55,.19-1.08,.45-1.63,.64-.42,.14-.82,.32-1.25,.43-.41,.11-.81,.29-1.22,.37-.69,.14-1.32,.46-2.03,.52-.48,.04-.94,.3-1.41,.32-.6,.03-1.14,.28-1.73,.31-.33,.02-.65,.12-.97,.18-.05,.01-.12,.04-.16,.03-.57-.18-1.15-.09-1.72-.07-.66,.02-1.28-.19-1.93-.24-.44-.43-1.03-.09-1.52-.32-.49-.22-1.07-.2-1.56-.46-.45,.05-.77-.25-1.13-.43-.37-.18-.73-.36-1.07-.59-.31-.21-.56-.51-.88-.69-.22-.13-.43-.26-.64-.39-.5-.29-.68-.79-.98-1.21-.3-.42-.61-.82-.88-1.25-.26-.43-.64-.8-.66-1.35,0-.06-.02-.12-.05-.16-.34-.52-.33-1.17-.58-1.7-.31-.65-.29-1.33-.45-1.98-.05-.19-.01-.4-.02-.6,0-.02,0-.05,0-.06,.05-.06,.1-.15,.16-.16,.04,0,.15,.08,.16,.14,.06,.3,.14,.61,.15,.92,0,.48,.05,.93,.26,1.38,.37,.81,.49,1.72,.86,2.53,.06,.12,.11,.25,.19,.36,.5,.75,1.01,1.49,1.53,2.23,.11,.15,.25,.29,.4,.4,.29,.22,.63,.35,.87,.66,.18,.23,.53,.32,.8,.48,.38,.24,.76,.49,1.14,.72,.6,.37,1.28,.54,1.96,.72,.87,.23,1.77,.24,2.62,.54,.23,.08,.52,.02,.77,.02,.34,0,.68,0,1.02,0,0,0,0,0,0,0Zm9.19-13.12c.33-.05,.66-.09,.98-.17,.43-.11,.86-.24,1.28-.37,.57-.18,1.21-.13,1.73-.48,.77-.07,1.37-.55,2.05-.82,.8-.32,1.46-.9,2.18-1.37,.52-.34,.99-.78,1.53-1.09,.52-.3,.97-.68,1.41-1.06,.7-.61,1.37-1.26,2.03-1.93,.63-.64,1.29-1.25,1.89-1.92,.6-.66,1.23-1.3,1.81-1.97,.74-.85,1.46-1.72,2.17-2.59,.42-.52,.88-1,1.23-1.58,.12-.2,.29-.37,.42-.57,.33-.49,.65-.98,.97-1.47,.11-.17,.06-.26-.15-.33-.22-.08-.45-.13-.66-.24-.38-.19-.79-.28-1.2-.2-.26,.05-.51,.04-.73-.02-.27-.08-.52,.02-.78-.01-.27-.04-.55-.05-.82-.07-.12,0-.24,0-.36,.02-.52,.12-1.03,.26-1.57,.23-.35-.02-.66,.16-1.02,.08-.24-.05-.53-.02-.75,.08-.6,.28-1.27,.21-1.86,.46-.23,.1-.5,.08-.74,.15-.46,.14-.96,.15-1.38,.46-.18,.14-.41,.21-.62,.3-.09,.04-.18,.06-.28,.08-.1,.02-.22,0-.29,.05-.38,.28-.74,.57-1.24,.63-.75,.51-1.59,.83-2.41,1.18-.34,.14-.63,.39-.96,.53-.38,.16-.68,.46-1.08,.57-.23,.06-.46,.17-.59,.42-.05,.1-.16,.21-.26,.24-.44,.13-.7,.49-1.05,.73-.32,.22-.59,.49-.9,.71-.18,.12-.37,.24-.51,.39-.43,.49-1.05,.78-1.39,1.36-.5,.31-.79,.82-1.11,1.28-.29,.42-.54,.86-.77,1.31-.16,.3-.52,.51-.4,.94,.02,.08-.09,.21-.16,.31-.26,.36-.21,.82-.41,1.2-.04,.08,0,.2,.01,.29,.03,.15,.09,.3,.11,.45,.11,.7,.33,1.35,.74,1.93,.07,.1,.15,.19,.24,.26,.71,.51,1.48,.95,2.29,1.29,.43,.18,.86,.42,1.36,.34Z"/>
    <path d="M162.01,26.04c0-.24,0-.48,0-.72,0-.1,0-.2,.04-.29,.03-.06,.11-.13,.18-.13,.06,0,.15,.05,.19,.11,.04,.06,.06,.14,.07,.22,.02,.39-.09,.8,.11,1.17-.19,.48-.02,1.05-.38,1.51-.19,.24-.24,.61-.28,.94-.03,.21-.07,.38-.23,.52-.06,.05-.1,.12-.13,.19-.33,.67-.92,1.17-1.21,1.87-.02,.05-.08,.12-.12,.13-.38,.01-.4,.35-.57,.57-.23,.32-.51,.61-.81,.89-.43,.4-.99,.67-1.28,1.22-.07,.13-.29,.19-.44,.27-.08,.05-.22,.06-.25,.12-.22,.55-.73,.77-1.18,1.07-.29,.19-.57,.37-.83,.62-.36,.35-.8,.64-1.21,.94-.11,.08-.25,.1-.37,.16-.09,.04-.18,.08-.24,.15-.26,.25-.59,.45-.89,.6-.38,.19-.77,.36-1.09,.66-.23,.21-.54,.35-.87,.44-.24,.06-.5,.13-.71,.26-.27,.16-.54,.22-.84,.22-.35,0-.72-.06-1.05,.13-.02,0-.04,0-.06,0-.29,0-1.35-.14-1.7-.39-.29-.2-.62-.34-.89-.56-.37-.3-.74-.59-.99-1.02-.27-.46-.54-.9-.71-1.41-.04-.13-.1-.26-.11-.39-.02-.45-.13-.88-.23-1.32-.05-.22-.02-.47,.01-.71,.02-.19,.15-.37,.15-.56,0-.69,.17-1.36,.26-2.03,.09-.7,.15-1.39,.47-2.04,.23-.47,.36-.98,.57-1.46,.34-.79,.7-1.57,1.08-2.34,.19-.38,.43-.74,.65-1.11,.05-.08,.1-.17,.13-.26,.01-.03-.04-.1-.08-.13-.02-.02-.06-.02-.1-.02-.02,0-.03,.02-.05,.04-.4,.41-.82,.79-1.31,1.1-.09,.06-.15,.17-.22,.26-.26,.35-.68,.51-.99,.81-.22,.22-.43,.44-.68,.64-.25,.19-.6,.31-.74,.66-.04,.1-.22,.14-.35,.2-.34,.17-.63,.4-.82,.74-.05,.09-.16,.16-.25,.23-.49,.33-.98,.66-1.38,1.11-.17,.19-.4,.32-.61,.46-.27,.19-.55,.38-.84,.54-.52,.27-1.05,.51-1.58,.76-.03,.02-.08,.04-.11,.03-.37-.11-.75-.22-1.11-.35-.08-.03-.14-.13-.2-.21-.41-.56-.71-1.14-.77-1.86-.03-.44,0-.84,.06-1.27,.09-.64,.48-1.09,.84-1.57,.06-.08,.13-.15,.16-.24,.02-.06-.03-.15-.06-.21,0-.01-.12,0-.16,.04-.36,.32-.69,.65-1.06,.95-.5,.41-1.03,.78-1.55,1.17-.55,.43-1.12,.83-1.72,1.19-.67,.41-1.29,.88-1.98,1.26-.45,.25-.93,.48-1.49,.49-.38,0-.71-.09-1.01-.28-.17-.11-.32-.19-.54-.19-.35-.01-.44-.18-.27-.51,.12-.22,.1-.45,0-.59-.2-.28,.03-.57-.09-.83-.01-.03,.05-.11,.09-.14,.44-.25,.62-.67,.76-1.12,.18-.6,.59-1.06,.99-1.51,.29-.33,.64-.61,.92-.95,.32-.39,.69-.73,1.01-1.12,.38-.46,.86-.8,1.44-.99,.58-.19,1.13-.07,1.65,.19,.12,.06,.17,.16,.11,.34-.1,.27-.21,.52-.45,.67-.59,.36-1.01,.88-1.42,1.43-.2,.26-.48,.46-.74,.68-.29,.26-.6,.47-.85,.8-.49,.64-1.05,1.23-1.7,1.71-.16,.12-.21,.24-.26,.42-.1,.41-.25,.82-.37,1.22-.09,.29-.06,.31,.21,.41,.57,.22,1.06-.03,1.56-.23,.61-.24,1.12-.65,1.64-1.02,.36-.25,.7-.55,1.07-.76,.99-.54,1.84-1.26,2.71-1.96,.48-.38,.93-.79,1.41-1.18,.17-.13,.35-.25,.54-.34,.23-.11,.25-.43,.55-.49,.21-.05,.39-.25,.58-.39,.37-.27,.62-.65,.94-.97,.53-.54,1.19-.83,1.89-1.01,.23-.06,.53,.08,.78,.18,.07,.03,.12,.25,.1,.36-.02,.15-.11,.3-.2,.42-.4,.47-.72,1-1.22,1.42-.76,.63-1.47,1.34-2.01,2.19-.1,.16-.34,.24-.42,.4-.27,.58-.86,.96-1,1.61-.02,.09-.09,.17-.14,.25-.28,.39-.35,.82-.32,1.29,.03,.43,.31,.76,.81,.76,.36,0,.72,0,.99-.3,.91-.36,1.57-1.08,2.38-1.59,.34-.22,.62-.55,.94-.81,.74-.6,1.37-1.33,2.21-1.81,.1-.06,.18-.15,.26-.24,.58-.6,1.18-1.16,1.9-1.59,.1-.06,.17-.17,.26-.25,.29-.27,.6-.52,.88-.79,.17-.16,.31-.36,.47-.53,.12-.12,.27-.22,.4-.34,.76-.72,1.48-1.47,2.06-2.34,.25-.38,.58-.72,.84-1.1,.46-.67,.98-1.29,1.51-1.89,.1-.12,.19-.25,.29-.37,.61-.8,1.21-1.61,1.91-2.33,.54-.56,1.13-1.06,1.67-1.61,.34-.35,.62-.76,.93-1.14,.14-.17,.29-.33,.44-.49,.38-.4,.79-.77,1.17-1.17,.17-.19,.41-.31,.58-.5,.51-.53,1.17-.93,1.57-1.57,.08-.12,.25-.19,.37-.29,.77-.61,1.53-1.23,2.3-1.84,.38-.3,.77-.61,1.17-.89,.69-.48,1.46-.85,2.27-1.03,.67-.15,1.37-.19,2.05,.02,.07,.02,.16,.03,.21,.08,.48,.47,.85,1.01,.72,1.72-.09,.48-.21,.95-.38,1.41-.3,.81-.68,1.58-1.3,2.21-.32,.32-.52,.75-.84,1.06-.35,.34-.52,.86-1.05,1-.11,.31-.44,.38-.62,.61-.34,.42-.76,.76-1.24,1-.42,.2-.73,.53-1.1,.79-.27,.19-.49,.44-.84,.51-.07,.01-.13,.09-.18,.14-.45,.48-1,.81-1.6,1.08-.39,.17-.72,.47-1.09,.69-.46,.26-.91,.55-1.4,.73-.2,.08-.38,.16-.57,.26-.21,.1-.43,.17-.65,.25-.07,.03-.15,.04-.21,.09-.74,.59-1.56,1.02-2.46,1.3-.33,.1-.66,.22-.99,.34-.49,.19-.91,.47-1.14,.97-.07,.14-.17,.26-.27,.39-.2,.25-.39,.5-.6,.73-.17,.18-.49,.3-.55,.51-.1,.33-.34,.53-.5,.79-.38,.61-.78,1.21-1.08,1.87-.13,.28-.3,.55-.49,.8-.3,.39-.45,.87-.74,1.26-.75,1.01-1.11,2.2-1.66,3.3-.22,.44-.28,.97-.41,1.45-.05,.17-.08,.34-.14,.5-.13,.33-.2,.67-.22,1.03-.02,.45-.04,.91-.12,1.35-.14,.79-.11,1.53,.1,2.32,.16,.62,.45,1.13,.85,1.57,.38,.42,.86,.75,1.48,.75,.15,0,.3,.07,.45,.08,.14,.02,.3,.06,.41,0,.25-.13,.5-.1,.75-.1,.72,0,1.38-.16,2.01-.55,.46-.28,.96-.5,1.41-.81,.69-.47,1.38-.95,2.07-1.42,.23-.15,.5-.23,.71-.4,.61-.49,1.28-.92,1.84-1.48,.11-.11,.26-.17,.38-.27,.22-.17,.48-.32,.62-.54,.2-.32,.49-.5,.79-.67,.18-.1,.31-.2,.42-.39,.27-.45,.61-.85,1.01-1.2,.23-.2,.4-.49,.59-.73,.13-.17,.26-.34,.41-.49,.2-.2,.44-.37,.44-.71,0-.1,.09-.21,.16-.3,.33-.44,.42-.95,.52-1.47,.02-.1,0-.23,.05-.28,.4-.39,.3-.88,.31-1.35,0-.06,0-.12,0-.18h0Zm6.19-20.02c-.03-.21,0-.5-.12-.71-.31-.54-.73-.64-1.33-.37-.05,.02-.11,.04-.16,.07-.46,.3-.91,.6-1.36,.91-.19,.13-.37,.29-.55,.44-.45,.37-.89,.75-1.34,1.12-.25,.21-.58,.36-.77,.62-.32,.46-.87,.68-1.13,1.18-.03,.06-.12,.1-.18,.14-.9,.49-1.55,1.27-2.3,1.94-.41,.36-.71,.84-1.05,1.27-.2,.24-.36,.54-.6,.72-1.01,.75-1.74,1.76-2.52,2.71-.34,.41-.64,.85-.98,1.25-.41,.48-.85,.94-1.27,1.41-.05,.06-.13,.11-.15,.18-.02,.08-.01,.19,.03,.27,.02,.04,.16,.05,.21,.02,.44-.3,.94-.44,1.44-.62,.24-.08,.49-.21,.65-.39,.33-.38,.83-.45,1.17-.79,.59-.05,1.03-.46,1.56-.66,.16-.06,.33-.12,.47-.22,.59-.41,1.14-.89,1.85-1.1,.07-.02,.15-.07,.19-.13,.26-.34,.63-.52,.99-.73,.37-.22,.74-.43,1.06-.74,.3-.3,.64-.63,1.03-.77,.39-.14,.59-.4,.85-.66,.39-.39,.83-.73,1.24-1.09,.16-.14,.34-.29,.45-.47,.24-.42,.57-.76,.9-1.1,.26-.27,.52-.52,.68-.89,.15-.36,.35-.7,.6-1,.16-.19,.24-.41,.3-.62,.1-.38,.11-.77,.16-1.21Z"/>
    <path d="M238.25,20.57c-.06,0-.14,0-.17,.02-.46,.5-1.03,.91-1.34,1.56-.17,.35-.46,.64-.68,.96-.67,.94-1.37,1.86-2,2.84-.39,.6-.72,1.21-.96,1.87-.08,.22-.22,.41-.32,.62-.28,.56-.19,1.15-.19,1.74,0,.33,.1,.62,.27,.89,.06,.09,.15,.2,.25,.22,.37,.09,.76,.27,1.1-.09,.45-.01,.74-.38,1.17-.49,.43-.11,.81-.46,1.19-.73,.38-.27,.74-.58,1.12-.86,1.19-.89,2.42-1.74,3.56-2.68,.5-.41,1-.83,1.48-1.26,.17-.15,.39-.26,.58-.4,.97-.74,1.93-1.48,2.9-2.22,.4-.31,.86-.52,1.32-.74,.38-.18,.53-.56,.8-.84-.03-.29,.22-.41,.35-.59,.61-.84,1.51-1.35,2.32-1.96,.2-.15,.51-.2,.77-.23,.4-.04,.8-.04,1.2-.04,.09,0,.19,.05,.26,.1,.12,.09,.09,.28-.04,.34-.24,.12-.49,.24-.73,.34-.45,.19-.82,.48-1.21,.77-.4,.29-.82,.53-1.16,.9-.2,.22-.38,.39-.46,.7-.07,.3-.31,.55-.4,.84-.15,.46-.22,.94-.21,1.44,.03,1.11,.04,2.22,0,3.33-.02,.58-.16,1.15-.46,1.67-.06,.1-.13,.21-.15,.32-.15,.69-.59,1.16-1.07,1.64-.33,.33-.72,.55-1.06,.85-.28,.26-.29,.37,.02,.54,.44,.24,.81,.55,1.19,.87,.23,.19,.54,.3,.83,.42,.3,.14,.61,.28,.92,.36,.24,.06,.43,.17,.64,.28,.55,.29,1.1,.57,1.71,.74,.24,.06,.46,.2,.68,.33,.49,.28,1.09,.14,1.58,.41,.03,.02,.08,.01,.12,0,.4-.18,.81,.05,1.2-.04,.49-.11,1.02-.06,1.47-.34,.03-.02,.07-.05,.1-.05,.62,.02,1.16-.31,1.74-.45,.51-.13,.98-.44,1.46-.67,.49-.24,.9-.61,1.4-.84,.23-.11,.45-.24,.61-.45,.17-.23,.46-.25,.67-.44,.34-.31,.68-.65,1.12-.85,.15-.07,.26-.21,.39-.32,.21-.18,.37-.41,.62-.57,.22-.14,.32-.48,.49-.72,.07-.1,.15-.19,.25-.25,.37-.25,.49-.4,.63-.76,.06-.16,.15-.32,.25-.46,.27-.43,.59-.84,.82-1.29,.13-.25,.11-.57,.15-.86,.02-.14-.03-.3,.03-.4,.21-.33,.16-.68,.15-1.04,0-.29-.02-.58,.06-.88,.07-.31,.09-.67-.11-.98,.06-.49-.25-.86-.43-1.26-.05-.11-.11-.23-.2-.29-.3-.2-.59-.35-.78-.72-.14-.29-.51-.49-.82-.66-.43-.24-.86-.56-1.42-.36-.1,.04-.27-.02-.37-.08-.18-.1-.31-.08-.49,.01-.33,.16-.7,.26-.84,.67-.03,.08-.18,.18-.25,.17-.16-.04-.35-.1-.39-.31-.07-.29,.02-.49,.27-.7,.32-.26,.7-.32,1.06-.25,.22,.04,.43,.06,.64,.05,.58-.01,1.13,.12,1.65,.34,.43,.18,.82,.47,1.2,.74,.17,.12,.28,.32,.42,.49,.16,.19,.34,.36,.54,.52,.29,.21,.63,1,.67,1.45,.03,.35,.02,.7,.14,1.05,.12,.33-.08,.65-.1,.98,0,.08-.07,.15-.06,.22,.05,.54-.15,1.05-.18,1.57-.04,.69-.42,1.21-.77,1.75-.14,.22-.3,.41-.4,.67-.11,.29-.37,.53-.57,.79-.29,.37-.7,.65-.9,1.1-.49,.32-.82,.85-1.37,1.1-.07,.03-.18,.05-.21,.1-.29,.6-.95,.77-1.4,1.2-.29,.28-.68,.48-1.05,.64-.45,.19-.84,.48-1.28,.67-.37,.16-.71,.4-1.06,.6-.05,.03-.11,.05-.17,.04-.43-.02-.79,.19-1.19,.29-.34,.08-.68,.18-1.01,.28-.19,.05-.39,.09-.55,.19-.26,.18-.48,.17-.75,.02-.12-.07-.31-.03-.46-.04-.59-.02-1.18,0-1.77-.08-.31-.04-.61-.24-.91-.37-.09-.04-.16-.12-.24-.16-.45-.19-.9-.37-1.34-.55-.05-.02-.13,0-.17-.03-.56-.49-1.33-.54-1.94-.94-.68-.01-1.02-.6-1.55-.88-.29-.16-.57-.34-.83-.55-.37-.29-.71-.26-1.07,0-.05,.03-.1,.08-.15,.08-.66,.11-1.31,.22-1.97,.32-.23,.03-.47,0-.69-.1-.23-.1-.48-.17-.73-.2-.4-.04-.33-.39-.45-.61-.1-.2,.03-.38,.2-.51,.23-.18,.45-.42,.72-.5,.45-.13,.91-.42,1.4-.09,.22,.15,.46,.21,.73,.17,.25-.04,.47,.06,.67,.19,.25,.17,.47,.12,.68-.06,.25-.21,.53-.38,.69-.71,.19-.38,.48-.71,.68-1.09,.18-.34,.28-.72,.44-1.08,.28-.63,.34-1.3,.43-1.98,.06-.4,.04-.78,.06-1.17,.02-.29,.07-.58,.08-.87,.01-.24,.04-.49-.03-.71-.07-.24,.02-.45,0-.67-.01-.07-.03-.2-.07-.21-.08-.02-.2-.01-.27,.03-.37,.26-.73,.53-1.09,.79-.24,.17-.49,.33-.71,.52-.32,.27-.63,.57-.94,.85-.07,.06-.16,.11-.23,.18-.2,.2-.64,.02-.7,.44-.26,.15-.5,.3-.71,.52-.2,.22-.43,.4-.66,.58-.4,.32-.81,.62-1.22,.92-.08,.06-.18,.09-.24,.16-.45,.51-.91,.99-1.49,1.35-.07,.04-.11,.12-.18,.15-.65,.26-1.1,.74-1.58,1.22-.25,.25-.63,.37-.94,.57-.16,.1-.31,.23-.47,.35-.16,.12-.3,.27-.47,.35-.38,.19-.77,.41-1.18,.5-.46,.1-.95,.13-1.42,.08-.24-.03-.55-.25-.65-.46-.31-.65-.78-1.19-1.01-1.89-.24-.76-.36-1.47-.06-2.23,.13-.34,.11-.74,.33-1.05,.01-.02,0-.09-.03-.1-.05-.02-.14-.04-.15-.02-.27,.33-.69,.51-.91,.92-.15,.27-.48,.45-.74,.67-.04,.04-.13,.04-.15,.09-.31,.55-.83,.89-1.24,1.34-.02,.03-.01,.09-.04,.11-.43,.23-.75,.58-1.1,.92-.32,.31-.81,.45-1.25,.63-.37,.15-.7,.07-1.05-.16-.85-.56-1.32-1.81-1.32-2.56,0-.13,.02-.27,.07-.4,.15-.43,.24-.86,.23-1.32,0-.16,0-.31,.13-.44,.05-.05,.03-.16,.04-.24-.07,.02-.15,.03-.21,.07-.09,.07-.15,.16-.23,.23-.27,.26-.54,.52-.82,.77-.04,.04-.08,.1-.13,.12-.67,.15-1.1,.66-1.56,1.09-.18,.17-.47,.23-.53,.53,0,.03-.1,.05-.16,.06-.49,.12-.9,.36-1.25,.73-.23,.24-.49,.46-.74,.68-.07,.06-.18,.11-.26,.1-.29-.04-.44,.09-.53,.35-.02,.07-.09,.14-.16,.17-.5,.24-.88,.71-1.49,.75-.06,0-.15,.05-.18,.11-.11,.19-.28,.25-.48,.28-.08,0-.2,.02-.22,.06-.15,.36-.49-.05-.67,.18-.4-.22-.89-.33-1.13-.79-.15-.29-.35-.56-.52-.85-.06-.1-.13-.21-.15-.32-.07-.45-.16-.89-.17-1.34,0-.28,.08-.59,.21-.84,.28-.54,.42-1.15,.86-1.6,.49-1.05,1.29-1.87,1.99-2.76,.25-.32,.62-.51,.85-.85,.15-.22,.38-.39,.54-.61,.47-.69,1.07-1.26,1.63-1.86,.16-.17,.33-.35,.54-.45,.53-.27,.59-.79,.69-1.28,.04-.21,.04-.45-.02-.65-.08-.3-.27-.56-.53-.75-.04-.03-.12-.03-.16,0-.15,.1-.32,.18-.42,.32-.41,.55-.98,.95-1.36,1.54-.25,.39-.68,.69-1.04,1.01-.11,.1-.29,.11-.42,.2-.17,.12-.3,.28-.47,.39-.17,.12-.38,.2-.54,.34-.17,.15-.33,.29-.56,.29-.16,0-.28,.05-.35,.18-.28,.46-.78,.58-1.22,.79-.33,.16-.68,.27-1.03,.38-.23,.07-.45,.2-.71,.11-.06-.02-.16,0-.22,.04-.12,.06-.22,.2-.34,.2-.45,.02-.91,.02-1.36,0-.33-.02-.66-.08-.98-.15-.38-.09-.75-.2-1.11-.33-.32-.11-.57-.01-.67,.32-.07,.24-.14,.48-.19,.73-.13,.59-.53,1.04-.85,1.52-.27,.41-.57,.8-.87,1.19-.28,.35-.59,.69-.89,1.03-.36,.01-.45,.32-.62,.56-.14,.19-.31,.38-.5,.52-.23,.16-.41,.35-.58,.57-.16,.22-.44,.36-.69,.49-.24,.12-.5,.19-.53,.51,0,.03-.05,.07-.08,.08-.43,.17-.78,.45-1.09,.8-.05,.05-.13,.11-.2,.11-.26,0-.44,.15-.63,.29-.45,.33-.98,.25-1.49,.25-.12,0-.23-.22-.37-.27-.65-.23-1.12-1.05-1.14-1.68-.03-.83,.08-1.68,.73-2.31,.3-.3,.49-.66,.71-1.01,.2-.31,.44-.61,.71-.87,.41-.41,.87-.77,1.3-1.16,.05-.05,.07-.14,.11-.2,.32-.52,.26-.68-.36-.66-.79,.02-1.48-.3-2.21-.52-.92-.28-1.45-.99-2.09-1.6-.07-.07-.11-.16-.18-.23-.11-.1-.28-.02-.3,.13-.06,.45-.17,.89-.17,1.34,0,.46-.1,.89-.21,1.33-.25,.92-.43,1.87-1.13,2.6-.06,.06-.07,.18-.1,.27-.04,.11-.06,.24-.13,.32-.37,.44-.56,.99-.9,1.45-.28,.38-.61,.72-.92,1.07-.2,.24-.41,.48-.6,.72-.18,.22-.32,.5-.53,.67-.35,.28-.6,.65-.91,.94-.34,.31-.6,.74-1.08,.9-.08,.03-.15,.13-.2,.2-.25,.35-.45,.75-.95,.81-.05,0-.09,.11-.13,.17-.17,.26-.38,.48-.67,.63-.41,.21-.76,.53-1.2,.7-.7,.29-1.4,.58-2.18,.56-.3-.01-.59-.05-.85-.19-.17-.09-.37-.21-.43-.37-.15-.36-.4-.64-.67-.85-.28-.22-.38-.51-.45-.78-.12-.51-.15-1.05-.19-1.57-.01-.19,.03-.39,.09-.57,.15-.52,.28-1.06,.62-1.51,.08-.11,.11-.25,.16-.38,.51-1.1,1.01-2.21,1.76-3.18,.03-.03,.02-.12,0-.16-.02-.03-.12-.04-.15-.02-.33,.25-.69,.48-.95,.79-.31,.36-.78,.55-.99,1-.02,.04-.1,.06-.15,.08-.42,.12-.68,.46-.96,.76-.2,.21-.41,.39-.68,.54-.42,.24-.77,.6-1.14,.93-.19,.17-.37,.32-.64,.41-.29,.09-.59,.18-.83,.41-.25,.23-.9,.11-1.11-.16-.25-.32-.55-.63-.72-1-.18-.39-.46-.8-.21-1.27-.06-.79,.41-1.41,.69-2.08,.27-.67,.64-1.3,1.14-1.84,.08-.09,.13-.19,.2-.29,.61-.87,1.33-1.64,2.19-2.27,.33-.24,.69-.45,1.06-.64,.33-.17,.69-.14,1.02,.02,.12,.06,.27,.17,.29,.28,.02,.09-.12,.22-.17,.34-.44,.92-1.21,1.53-1.91,2.22-.3,.3-.52,.69-.78,1.03-.12,.16-.27,.29-.4,.45-.35,.42-.74,.82-.95,1.34-.02,.05-.05,.11-.09,.15-.5,.41-.69,1.05-1.07,1.55-.19,.26-.3,.62-.32,.99-.02,.37,.21,.58,.38,.83,.12,.18,.34,.13,.48,.02,.24-.19,.48-.34,.8-.34,.05,0,.12-.02,.16-.06,.43-.47,1.03-.71,1.49-1.16,.4-.39,.9-.69,1.33-1.07,.52-.46,1.03-.95,1.6-1.35,.59-.42,1.06-.96,1.64-1.38,.15-.11,.34-.18,.49-.3,.57-.43,1.04-.95,1.51-1.48,.38-.43,.79-.81,1.36-1,.34-.11,.67-.1,1-.09,.13,0,.26,.14,.38,.23,.14,.11,0,.24,.02,.36,.03,.49-.31,.77-.61,1.04-.29,.26-.57,.52-.8,.86-.18,.27-.47,.45-.7,.69-.12,.12-.22,.27-.32,.41-.34,.46-.7,.9-1.02,1.38-.26,.39-.47,.81-.7,1.21-.05,.09-.07,.19-.13,.26-.6,.66-.9,1.52-1.43,2.23-.35,.47-.48,1.08-.57,1.68-.1,.69,.01,1.31,.32,1.93,.15,.31,.44,.37,.69,.5,.22,.12,.4,.05,.61-.03,.27-.1,.58-.1,.86-.18,.26-.08,.5-.21,.74-.33,.16-.07,.31-.23,.46-.23,.38,.01,.56-.27,.81-.45,.14-.1,.24-.25,.38-.35,.33-.24,.64-.48,.91-.81,.24-.29,.57-.51,.84-.79,.63-.66,1.32-1.25,1.96-1.9,.35-.35,.65-.74,.95-1.14,.38-.5,.74-1.02,1.09-1.54,.13-.19,.22-.4,.34-.6,.24-.42,.48-.85,.73-1.27,.45-.76,.71-1.6,.93-2.44,.09-.37,.06-.78,.1-1.17,.02-.25,.03-.51,.11-.75,.09-.26,.07-.5,.07-.76,0-.24,0-.47-.24-.63-.1-.07-.21-.22-.22-.34-.03-.5-.3-.92-.37-1.42-.04-.31-.12-.6,0-.91,.06-.14,.2-.21,.32-.12,.11,.08,.21,.18,.28,.3,.25,.43,.43,.87,.43,1.39,0,.35,.1,.69,.16,1.04,0,.04,.04,.07,.07,.1,.66,.53,.96,1.41,1.77,1.79,.03,.02,.06,.05,.09,.08,.51,.6,1.24,.67,1.93,.89,.55,.18,1.12,.14,1.67,.26,.41,.09,.83-.08,1.16-.34,.59-.46,1.25-.66,1.99-.58,.31,.03,.61,.12,.91,.21,.25,.08,.29,.31,.12,.52-.29,.37-.7,.57-1.08,.82-.19,.13-.41,.21-.51,.47-.05,.13-.22,.21-.35,.3-.31,.23-.66,.39-.87,.76-.17,.28-.48,.46-.73,.69-.25,.23-.54,.42-.73,.69-.62,.87-1.48,1.54-2.03,2.47-.13,.23-.22,.46-.3,.69-.06,.18-.09,.38-.15,.56-.13,.36,.04,.63,.42,.63,.67,0,1.27-.27,1.79-.65,.36-.26,.71-.53,1.09-.77,.54-.35,1.03-.78,1.54-1.18,.12-.49,.58-.65,.9-.95,.32-.31,.59-.67,.88-1.01,.05-.06,.09-.16,.15-.17,.3-.09,.39-.37,.53-.6,.12-.18,.17-.41,.42-.47,.5-.73,.89-1.51,1.16-2.35,.06-.2,.1-.41,.14-.62,.03-.13,.08-.28,.05-.4-.02-.07-.2-.07-.28-.14-.37-.3-.62-.72-.93-1.08,.05-.45-.4-.64-.51-1.02-.08-.27-.17-.51-.17-.8,0-.41,.1-.59,.48-.56,.28,.02,.58,.02,.88,.2,.42,.25,.56,.6,.58,1.01,.02,.35,.08,.66,.28,.95,.11,.15,.14,.32,.14,.5,0,.14,.01,.28,.01,.42,.02,.69,.15,.82,.84,.96,.24,.05,.48,.15,.72,.23,.11,.03,.22,.08,.33,.09,.33,.04,.67,.04,.98,.13,.23,.07,.4,.04,.62-.03,.5-.16,1-.34,1.54-.33,.08,0,.2,0,.23-.04,.27-.42,.86-.29,1.14-.67,.55-.06,.9-.51,1.38-.72,.51-.23,.95-.61,1.42-.93,.07-.04,.11-.13,.17-.16,1-.52,1.64-1.4,2.32-2.25,.15-.18,.32-.36,.51-.5,.26-.18,.36-.41,.35-.7-.03-.72,.36-1.22,.9-1.62,.2-.15,.43-.22,.66-.1,.12,.06,.07,.51-.04,.72-.19,.36-.37,.73-.54,1.11-.13,.27-.11,.56,.02,.83,.11,.25,.23,.5,.36,.73,.21,.37,.32,.75,.3,1.18,0,.27,.12,.54,.11,.81-.01,.27-.12,.53-.18,.79-.04,.15-.05,.32-.13,.45-.27,.41-.56,.81-.86,1.2-.48,.61-.93,1.24-1.47,1.78-.37,.37-.7,.77-1.04,1.16-.7,.83-1.28,1.75-2.03,2.54-.15,.16-.26,.35-.37,.53-.38,.61-.7,1.25-.89,1.95-.04,.14-.04,.31,0,.45,.05,.19,.13,.37,.22,.54,.15,.3,.29,.37,.61,.28,.15-.05,.26-.14,.43-.02,.12,.09,.26-.01,.35-.14,.19-.3,.43-.48,.81-.49,.1,0,.22-.09,.29-.17,.19-.2,.42-.34,.67-.48,.67-.38,1.26-.87,1.85-1.36,.29-.23,.6-.4,.96-.52,.25-.09,.47-.28,.66-.48,.6-.64,1.26-1.18,2.06-1.56,.07-.03,.17-.06,.2-.12,.2-.49,.71-.59,1.08-.87,.35-.27,.68-.58,1.11-.75,.2-.08,.37-.31,.5-.5,.33-.46,.7-.88,1.09-1.29,.4-.41,.73-.89,1.12-1.31,.39-.41,.88-.71,1.39-.97,.12-.06,.25-.1,.36-.17,.2-.13,.4-.24,.65-.23,.11,0,.23-.05,.34-.07,.09-.02,.2-.07,.28-.04,.52,.18,1.07,.19,1.6,.3,.64,.13,1.21,.47,1.4,1.19,.05,.19,.09,.38,.15,.56,.04,.11,.11,.21,.17,.31,.06-.1,.13-.19,.19-.29,.25-.39,.5-.78,.76-1.16,.51-.75,1.08-1.45,1.66-2.15,.41-.5,.92-.91,1.35-1.38,.47-.51,.91-1.05,1.37-1.57,.2-.23,.45-.41,.67-.62,.28-.27,.57-.53,.83-.82,.4-.46,.84-.87,1.28-1.28,.27-.26,.57-.49,.85-.73,.13-.12,.28-.23,.39-.37,.19-.25,.39-.48,.67-.63,.07-.04,.14-.09,.17-.16,.3-.58,.9-.87,1.32-1.33,.69-.75,1.59-1.23,2.28-1.98,.29-.32,.66-.55,.99-.83,.51-.43,1.01-.88,1.55-1.27,.52-.37,1.08-.67,1.62-1.01,.75-.47,1.49-.94,2.23-1.41,.08-.05,.16-.13,.25-.15,.51-.08,.86-.53,1.4-.55,.67-.02,1.27,.2,1.86,.47,.38,.17,.53,.58,.58,.98,.04,.35,.04,.7-.07,1.06-.09,.29-.08,.62-.11,.93-.04,.5-.34,.9-.53,1.34-.16,.37-.41,.7-.61,1.05-.01,.02-.03,.03-.03,.05-.06,.44-.31,.78-.62,1.08-.39,.38-.62,.9-1.01,1.27-.2,.19-.42,.36-.62,.55-.17,.15-.37,.27-.45,.52-.03,.11-.12,.21-.2,.28-.25,.23-.63,.23-.83,.6-.16,.29-.53,.45-.8,.68-.31,.27-.61,.57-.92,.84-.48,.41-.98,.77-1.57,1.01-.05,.02-.13,.05-.14,.1-.08,.28-.35,.33-.54,.47-.27,.21-.54,.36-.87,.45-.28,.08-.46,.36-.76,.42-.25,.05-.54,.09-.64,.4-.57,.27-1.02,.79-1.7,.84-.07,0-.14,.05-.21,.1-.29,.2-.54,.46-.94,.43-.06,0-.14,.07-.21,.11-.61,.34-1.22,.68-1.84,1.01-.25,.13-.51,.24-.81,.19-.06-.01-.15,.03-.2,.07-.36,.33-.77,.54-1.24,.67-.43,.12-.85,.25-1.27,.42-.31,.12-.3,.15-.45-.24,.3,.06,.51-.15,.75-.26,.42-.19,.86-.35,1.29-.53,.3-.13,.61-.25,.9-.4,.52-.27,1.08-.43,1.57-.76,.34-.23,.68-.52,1.06-.61,.8-.21,1.45-.75,2.25-.95,.08-.02,.15-.13,.22-.19,.08-.06,.15-.12,.24-.17,.99-.54,2.09-.89,2.91-1.71,.03-.03,.07-.07,.1-.07,.37,.08,.52-.25,.75-.41,.61-.42,1.2-.88,1.78-1.34,.16-.13,.27-.33,.43-.46,.65-.5,1.23-1.07,1.81-1.66,.5-.51,.99-1.03,1.49-1.54,.3-.31,.54-.66,.68-1.08,.04-.13,.14-.24,.21-.35,.38-.62,.76-1.23,.96-1.94,.1-.35,.14-.72,.21-1.09,.03-.19,.06-.38,.1-.57,.03-.13,.04-.27,.1-.39,.11-.21,.05-.39-.1-.51-.24-.19-.49-.37-.85-.34-.3,.03-.58,.06-.82,.28-.11,.1-.26,.17-.4,.25-.38,.23-.81,.39-1.13,.74-.15,.17-.37,.28-.56,.42-.45,.31-.9,.61-1.34,.92-.13,.09-.27,.17-.37,.28-.43,.46-.88,.9-1.4,1.27-.25,.18-.48,.41-.68,.65-.24,.29-.48,.56-.77,.8-.55,.45-1.12,.87-1.59,1.41-.17,.19-.39,.33-.57,.51-.33,.32-.66,.63-.95,.99-.36,.44-.73,.9-1.18,1.23-.43,.3-.79,.63-1.07,1.07-.1,.15-.22,.3-.37,.39-.39,.23-.63,.6-.93,.91-.12,.12-.19,.3-.32,.42-.53,.5-1.08,.98-1.6,1.5-.71,.7-1.42,1.4-2.09,2.13-.31,.34-.66,.68-.71,1.19Zm-12.47,9.67c.43-.02,.42-.03,.79-.31,.18-.14,.38-.27,.58-.39,.17-.1,.29-.24,.41-.4,.32-.43,.72-.81,1.15-1.14,.28-.22,.57-.41,.72-.76,.07-.15,.23-.28,.36-.4,.45-.41,.9-.8,1.35-1.2,.48-.43,1-.84,1.43-1.31,.37-.4,.67-.87,.95-1.34,.14-.24,.24-.57,.19-.83-.08-.39-.31-.75-.48-1.12-.02-.05-.05-.11-.09-.15-.4-.32-1.26-.31-1.66,.03-.63,.53-1.36,.95-1.87,1.62-.04,.05-.08,.09-.13,.12-.38,.3-.78,.58-.98,1.05-.05,.1-.13,.22-.23,.27-.37,.2-.55,.55-.8,.85-.07,.09-.15,.2-.25,.26-.44,.22-.6,.66-.84,1.04-.33,.51-.64,1.03-.96,1.54-.34,.54-.57,1.11-.54,1.76,.03,.61,.29,.84,.89,.81Zm16.37,1.7c.67-.02,1.3-.22,1.93-.42,.07-.02,.13-.07,.19-.1-.05-.07-.1-.2-.16-.22-.43-.09-.87-.18-1.31-.24-.25-.03-.51,0-.74,.15-.11,.07-.25,.09-.38,.13-.23,.07-.31,.2-.27,.45,.03,.19,.14,.27,.33,.26,.14,0,.28,0,.42-.01Zm-36.31-11.61s0,0,0,0c-.01-.16,.02-.34-.05-.47-.16-.3-.22-.62-.26-.95-.02-.15-.1-.3-.19-.42-.06-.07-.22-.13-.31-.1-.09,.02-.21,.15-.21,.24-.01,.25-.04,.51,.1,.75,.21,.35,.38,.72,.57,1.07,.05,.08,.13,.15,.2,.22,.03,.03,.07,.04,.1,.06,.02-.03,.04-.07,.04-.1,0-.1,0-.2,0-.3Z"/>
  </g>
</svg>
