<?xml version="1.0" encoding="UTF-8"?>
<svg id="Layer_2" data-name="Layer 2" xmlns="http://www.w3.org/2000/svg" viewBox="0 0 125.69 64.23">
  <g id="Layer_1-2" data-name="Layer 1">
    <g id="wKa5gR.tif">
      <g>
        <path d="M23.1,7.91c.9-.09,1.77,.03,2.59,.43,.28,.13,.59,.19,.88,.29,.62,.22,1.1,.59,1.37,1.22,.08,.2,.21,.38,.29,.58,.08,.19,.19,.38,.07,.6-.03,.05-.03,.13,0,.18,.19,.39,.02,.75-.11,1.11-.06,.18-.06,.38-.12,.57-.17,.58-.56,1.02-.97,1.45-.23,.24-.43,.51-.66,.76-.09,.1-.2,.21-.32,.25-.3,.09-.53-.07-.59-.39-.02-.11,0-.2,.14-.2,.12,0,.24,0,.36,0,.06,0,.13-.01,.16-.05,.63-.69,1.33-1.33,1.67-2.23,.11-.29,.29-.61,.25-.88-.06-.34,.07-.72-.08-.98-.23-.41-.32-.93-.8-1.19-.22-.12-.39-.34-.62-.46-.55-.29-1.15-.41-1.76-.29-.38,.08-.76,.17-1.15,.22-.42,.04-.85,.14-1.19,.43-.07,.06-.17,.14-.25,.14-.46,0-.82,.27-1.2,.45-.38,.19-.75,.42-1.12,.64-.05,.03-.09,.09-.14,.11-.47,.11-.84,.43-1.21,.69-.54,.37-1.16,.65-1.59,1.17-.06,.07-.16,.1-.25,.15-.28,.17-.61,.27-.76,.62-.03,.07-.16,.1-.24,.16-.47,.39-.92,.81-1.42,1.15-.71,.48-1.27,1.12-1.96,1.62-.19,.14-.35,.33-.52,.5-.53,.53-1.05,1.08-1.67,1.51-.19,.13-.31,.35-.47,.52-.64,.68-1.31,1.34-1.92,2.04-.7,.8-1.48,1.54-2.09,2.42-.24,.34-.52,.65-.81,.94-.46,.45-.79,.97-1.08,1.54-.22,.44-.52,.83-.74,1.27-.22,.43-.37,.9-.56,1.35-.13,.3-.26,.6-.39,.9-.04,.09-.07,.18-.09,.27-.05,.21-.05,.44-.14,.62-.17,.35-.2,.71-.24,1.08-.04,.41-.13,.81-.19,1.21-.02,.12-.04,.24-.03,.35,.07,.48,.12,.97,.26,1.44,.14,.49,.44,.9,.76,1.31,.48,.62,1.05,1.12,1.69,1.55,.37,.24,.78,.35,1.19,.45,.17,.04,.34,.07,.51,.12,.72,.2,1.44,.14,2.15-.05,.47-.12,.94-.25,1.39-.41,.4-.14,.74-.42,1.19-.46,.14-.01,.28-.12,.42-.19,.12-.06,.24-.18,.36-.19,.46-.04,.76-.36,1.13-.58,.22-.13,.44-.26,.66-.39,.24-.14,.51-.23,.71-.41,.42-.36,.93-.59,1.39-.88,.57-.37,1.18-.67,1.72-1.1,.2-.16,.42-.29,.64-.41,.26-.14,.53-.27,.73-.49,.07-.08,.19-.13,.3-.18,.44-.2,.85-.43,1.18-.79,.12-.13,.27-.22,.42-.32,.65-.43,1.31-.86,1.96-1.29,.86-.57,1.74-1.12,2.58-1.72,.34-.24,.66-.53,.85-.95,.26-.59,.73-1.02,1.24-1.41,.33-.25,.64-.53,.96-.79,.14-.11,.28-.22,.43-.32,.75-.5,1.51-.97,2.32-1.36,.61-.29,1.18-.21,1.75,.09,.21,.11,.23,.31,.06,.5-.46,.48-.88,1-1.46,1.36-.23,.14-.4,.35-.61,.53-.5,.42-1.09,.72-1.52,1.22-.26,.3-.52,.6-.77,.89-.25,.28-.48,.57-.74,.85-.29,.31-.61,.61-.91,.92-.09,.1-.22,.21-.23,.33-.05,.52-.07,.76,.61,.68,.48-.06,.9-.29,1.28-.55,.47-.32,.93-.65,1.45-.89,.1-.04,.17-.15,.24-.24,.05-.06,.08-.15,.15-.18,.69-.31,1.12-.91,1.64-1.41,.16-.15,.32-.29,.48-.44,.03-.03,.09-.04,.09-.06,.05-.59,.62-.84,.88-1.3,.18-.32,.4-.62,.48-.99,.03-.15,.12-.29,.2-.42,.25-.41,.35-.85,.42-1.32,.06-.37,.07-.74,.09-1.11,.02-.3-.11-.58-.03-.91,.08-.28-.13-.45-.44-.45-.39,0-.74-.16-1.06-.32-.23-.11-.4-.43-.52-.69-.18-.38-.29-.79-.14-1.23,.1-.29,.34-.44,.54-.61,.04-.03,.17,.06,.26,.06,.52,0,.77,.29,.95,.73,.14,.36,.32,.71,.47,1.07,.03,.07,.04,.14,.04,.22,0,.09-.07,.22-.03,.26,.07,.07,.2,.1,.3,.14,.04,.01,.08,0,.12,0,.45-.05,.92,.11,1.35-.1,.39-.19,.73-.48,1.13-.61,.51-.17,.89-.54,1.37-.76,.52-.24,1.02-.57,1.53-.86,.54-.31,1.06-.67,1.69-.78,.09-.02,.15-.12,.24-.16,.18-.07,.36-.13,.54-.19,.11-.04,.23-.04,.33-.1,.46-.24,.92-.15,1.37,.02,.42,.15,.75,.44,1.03,.78,.15,.18,.29,.37,.43,.56,.33,.48,.44,1.04,.48,1.6,.05,.63,.08,1.26-.18,1.87-.1,.22-.04,.51-.09,.76-.15,.69-.42,1.34-.74,1.96-.12,.23-.23,.45-.33,.69-.04,.1-.07,.26-.02,.32,.09,.09,.24,.12,.36,.14,.06,.01,.14-.08,.21-.08,.23-.02,.46-.06,.67,.14,.17,.16,.35,.25,.42,.52,.13,.49,.36,.94,.32,1.48-.04,.51,0,1.02-.1,1.53-.15,.78-.19,1.59,.09,2.37,.05,.15,.11,.3,.19,.43,.07,.11,.16,.15,.3,.05,.55-.37,1.12-.72,1.67-1.09,.24-.16,.46-.37,.69-.55,.12-.1,.25-.19,.38-.27,.23-.14,.54-.17,.64-.48,0-.03,.06-.05,.1-.05,.38-.08,.58-.42,.9-.6,.32-.18,.6-.44,.89-.67,.29-.23,.56-.49,.86-.72,.28-.22,.58-.41,.86-.62,.17-.13,.36-.25,.51-.4,.28-.29,.52-.62,.81-.9,.46-.45,.92-.9,1.43-1.29,.22-.18,.36-.35,.5-.6,.31-.56,.71-1.08,1.09-1.61,.21-.3,.44-.6,.68-.89,.15-.18,.32-.33,.48-.5,.34-.38,.69-.76,1.02-1.16,.3-.36,.58-.75,.86-1.12,.11-.14,.2-.29,.32-.42,.64-.65,1.25-1.32,1.81-2.05,.02-.03,.05-.06,.08-.08,.76-.63,1.3-1.47,1.97-2.18,.68-.72,1.39-1.41,2.09-2.12,.28-.28,.57-.56,.84-.85,.13-.14,.1-.35-.08-.37-.49-.03-.78-.42-1.18-.62-.6-.29-1.13-.7-1.66-1.1-.16-.12-.3-.26-.43-.41-.04-.05-.02-.15-.02-.22,.06,.01,.13,.01,.18,.05,.23,.16,.47,.3,.67,.49,.47,.45,1.03,.74,1.59,1.05,.38,.21,.75,.42,1.11,.66,.12,.08,.2,.11,.31,0,.61-.58,1.27-1.12,1.83-1.76,.49-.56,1.02-1.06,1.63-1.49,.28-.2,.54-.3,.88-.28,.24,.02,.48,0,.72,0,.23,.01,.31,.11,.33,.33,.04,.62-.17,1.16-.51,1.65-.4,.59-.85,1.14-1.37,1.63-.27,.25-.44,.59-.78,.79-.17,.1-.16,.34,.03,.44,.6,.32,1.13,.74,1.82,.92,.47,.12,.98,.25,1.37,.61,.31,.28,.75,.18,1.11,.31,.22,.08,.47,.08,.67,.18,.23,.12,.47,.19,.72,.24,.31,.06,.36,.03,.4-.29,.03-.25,.05-.51,.12-.75,.13-.45,.23-.9,.46-1.32,.19-.36,.21-.79,.49-1.12,.42-.49,.74-1.07,1.32-1.42,.23-.14,.42-.37,.63-.53,.78-.6,1.66-1.04,2.55-1.45,.43-.2,.87-.35,1.35-.36,.21,0,.43-.04,.63-.12,.55-.23,1.13-.2,1.7-.22,.58-.02,1.16,0,1.74,0,.27,0,.54,.07,.81,.1,.25,.03,.5-.03,.76,.1,.14,.07,.37-.03,.55,0,.31,.05,.62,.1,.91,.21,.22,.09,.32,0,.37-.15,.15-.47,.43-.86,.63-1.3,.05-.1,.08-.22,.09-.33,.01-.16-.01-.32,0-.48,.11-.81-.24-1.45-.72-2.05-.07-.09-.12-.17,0-.23,.07-.03,.22-.04,.25,0,.35,.47,.75,.91,.73,1.56,0,.25,.1,.5,.1,.75,0,.47-.06,.93-.4,1.32-.12,.14-.2,.34-.27,.52-.22,.54-.21,.58,.37,.54,.72-.04,1.3,.25,1.84,.66,.32,.24,.66,.41,1.02,.56,.55,.23,1.05,.56,1.52,.94,.38,.31,.8,.57,1.2,.85,.02,.01,.05,0,.06,.02,.36,.68,1.13,.9,1.62,1.45,.32,.36,.75,.63,1.14,.94,.03,.02,.07,.04,.09,.07,.48,.55,1.01,1.06,1.42,1.67,.04,.06,.06,.15,.11,.21,.37,.48,.39,.46,.83,.05,.87-.81,1.76-1.6,2.64-2.4,.23-.2,.49-.37,.72-.57,.7-.63,1.42-1.24,2.08-1.9,.41-.4,.81-.77,1.31-1.07,.5-.3,1.01-.29,1.54-.26,.23,.02,.37,.31,.26,.53-.39,.82-.75,1.63-1.43,2.28-.8,.76-1.52,1.61-2.3,2.38-.47,.46-.93,.95-1.49,1.3-.16,.1-.25,.29-.38,.44-.34,.36-.68,.7-1.03,1.06-.12,.12-.13,.25-.03,.37,.43,.53,.75,1.16,1.37,1.53,.32,.19,.57,.48,.86,.72,.31,.25,.66,.38,1.08,.42,.68,.07,1.35,.19,2.01,.38,.43,.13,.86,.23,1.3,.29,.18,.03,.38-.09,.57-.08,.59,.02,1.18,.07,1.77,.11,.58,.04,1.13-.12,1.68-.25,.13-.03,.26-.09,.39-.11,.27-.04,.53-.11,.76-.27,.08-.06,.17-.11,.26-.14,1.06-.36,1.9-1.05,2.73-1.77,.33-.28,.69-.52,1.03-.78,.07-.06,.15-.11,.2-.19,.25-.4,.53-.77,.89-1.08,.13-.11,.2-.29,.3-.43,.21-.28,.44-.56,.64-.85,.15-.2,.27-.42,.4-.64,.35-.57,.58-1.19,.83-1.8,.04-.09,.03-.19,.04-.29,0-.1-.04-.24,.01-.29,.38-.44,.11-1.01,.32-1.48-.19-.32,.04-.64,0-.96-.04-.3-.16-.6-.26-.89-.1-.29-.25-.58-.29-.88-.06-.44-.31-.73-.62-1.02-.24-.23-.5-.48-.64-.77-.17-.37-.45-.62-.72-.9-.28-.29-.62-.48-.96-.66-.22-.12-.44-.28-.6-.47-.37-.46-.92-.6-1.41-.81-.46-.2-.96-.3-1.45-.44-.38,.18-.7-.07-1.05-.14-.36-.08-.72-.19-1.1-.16-.23,.02-.46-.11-.69-.1-.62,.03-1.25,.04-1.84,.31-.1,.05-.23,.04-.35,.05-.38,0-.73,.11-1.08,.25-.2,.08-.4,.16-.6,.23-.42,.14-.8,.31-1.18,.57-.42,.29-.82,.6-1.26,.86-.09,.06-.15,.16-.23,.23-.14,.11-.27,.24-.43,.3-.08,.03-.21-.04-.3-.1-.02-.02,.01-.19,.07-.24,.47-.38,.87-.84,1.47-1.06,.3-.11,.57-.35,.83-.55,.27-.22,.6-.28,.91-.37,.37-.11,.76-.17,1.09-.4,.07-.05,.18-.07,.27-.07,.42,0,.81-.08,1.22-.19,.78-.22,1.57-.18,2.38-.02,.63,.12,1.24,.34,1.9,.33,.55,0,1.04,.29,1.56,.47,.22,.08,.45,.15,.65,.26,.29,.16,.59,.3,.84,.54,.34,.33,.74,.58,1.12,.87,.54,.41,1.04,.85,1.37,1.46,.11,.2,.3,.37,.47,.53,.41,.4,.64,.87,.74,1.44,.07,.36,.23,.7,.35,1.05,.04,.11,.11,.22,.11,.33,0,.64,.08,1.29-.02,1.91-.11,.7-.27,1.41-.54,2.08-.33,.8-.8,1.52-1.25,2.24-.32,.51-.75,.96-1.13,1.44-.19,.23-.35,.49-.57,.68-.4,.35-.83,.66-1.25,.99-.12,.1-.29,.17-.35,.3-.09,.17-.23,.25-.37,.35-.27,.22-.66,.27-.86,.59-.03,.05-.16,.1-.21,.07-.2-.11-.3-.05-.36,.15-.04,.15-.13,.24-.3,.21-.19-.03-.33,.05-.48,.19-.25,.23-.58,.31-.9,.4-.33,.1-.68,.18-1.02,.24-.24,.04-.44,.13-.73,.04-.37-.11-.8-.08-1.19,0-.19,.04-.32,.02-.49-.03-.24-.07-.46-.15-.73-.03-.22,.1-.49-.01-.75-.08-.43-.12-.88-.17-1.31-.26-.15-.03-.3-.08-.45-.13-.11-.03-.22-.1-.33-.11-.39-.05-.78-.06-1.17-.12-.43-.06-.84-.2-1.13-.56-.11-.13-.21-.28-.34-.39-.42-.35-.86-.68-1.29-1.02-.07-.06-.12-.16-.14-.25-.04-.22-.21-.31-.38-.42-.22-.14-.37-.11-.58,.05-.91,.74-1.74,1.57-2.48,2.48-.06,.08-.13,.16-.21,.21-.36,.2-.54,.57-.81,.84-.27,.26-.48,.57-.73,.85-.21,.23-.42,.46-.58,.75-.14,.27-.39,.49-.59,.74-.26,.34-.54,.68-.77,1.04-.43,.66-1.09,1.13-1.49,1.83-.3,.52-.7,.99-1.07,1.47-.58,.76-.98,1.65-1.59,2.39-.05,.06-.1,.13-.16,.18-.29,.21-.42,.51-.53,.82-.14,.39-.33,.74-.54,1.1-.34,.57-.56,1.2-.79,1.82-.18,.48-.35,.94-.35,1.46,0,.02,0,.04,0,.06-.35,.56-.08,1.12-.01,1.68,.04,.33,.11,.65,.2,.97,.21,.78,.68,1.39,1.3,1.86,.43,.33,.92,.59,1.42,.81,.31,.14,.68,.14,1.03,.18,.25,.04,.51,.05,.76,.07,.05,0,.1-.03,.15-.03,.35-.03,.64-.28,1.05-.2,.33,.07,.72-.11,1.08-.2,.81-.2,1.6-.43,2.37-.76,.72-.3,1.39-.69,2.09-1.01,.34-.16,.39-.26,.26-.59-.11-.3-.12-.66-.51-.81-.12-.05-.18-.25-.27-.38-.23-.34-.46-.68-.7-1.02-.25-.35-.7-.43-1.01-.7-.5-.45-1.1-.34-1.69-.35-.09,0-.18,.07-.26,.11-.14,.06-.28,.12-.43,.18-.19,.07-.23-.11-.3-.2-.03-.05,0-.19,.05-.25,.07-.09,.17-.17,.28-.2,.87-.23,1.71-.18,2.46,.38,.06,.05,.14,.07,.21,.1,.63,.29,1.09,.77,1.48,1.33,.25,.37,.53,.71,.82,1.05,.16,.19,.3,.35,.3,.62,0,.2,.21,.25,.39,.11,.33-.25,.73-.35,1.05-.61,.46-.39,.99-.7,1.46-1.08,.53-.44,1.08-.87,1.56-1.37,.18-.19,.48-.25,.67-.47,.35-.41,.75-.79,1.02-1.27,.17-.3,.44-.56,.62-.86,.35-.58,.86-1.07,.99-1.77,.02-.11,.07-.23,.14-.31,.31-.4,.47-.84,.48-1.35,0-.47-.08-.95,.09-1.41,.03-.09-.04-.22-.08-.33-.08-.28-.16-.56-.25-.84-.05-.15,.05-.24,.16-.28,.06-.02,.2,.04,.24,.1,.08,.13,.15,.28,.17,.43,.09,.55,.19,1.09,.13,1.65-.04,.36-.04,.72-.12,1.06-.08,.35-.15,.71-.38,1.03-.24,.34-.39,.76-.56,1.16-.1,.24-.23,.46-.42,.63-.06,.05-.14,.12-.15,.18-.07,.47-.44,.73-.72,1.06-.28,.32-.5,.7-.76,1.04-.1,.14-.22,.29-.37,.36-.3,.14-.52,.36-.74,.59-.75,.79-1.6,1.48-2.5,2.09-.51,.34-.95,.83-1.6,.96-.12,.02-.21,.18-.32,.27-.1,.08-.05,.15,0,.24,.23,.5,.28,1.05,.4,1.58,.11,.48-.05,.93-.02,1.39,.03,.48,.06,.97-.03,1.43-.1,.55-.02,1.15-.33,1.66-.04,.06-.03,.16-.08,.22-.39,.5-.53,1.12-.75,1.69-.07,.19-.14,.4-.21,.6-.13,.42-.44,.7-.7,1.01-.44,.53-.76,1.16-1.32,1.59-.23,.18-.47,.36-.68,.57-.38,.39-.74,.8-1.09,1.21-.13,.15-.24,.33-.42,.38-.31,.08-.51,.3-.72,.5-.22,.2-.44,.41-.69,.56-.87,.51-1.65,1.13-2.44,1.74-.18,.14-.4,.22-.61,.34-.08,.05-.17,.1-.24,.16-.26,.2-.51,.39-.86,.47-.35,.08-.67,.32-.97,.53-.61,.43-1.32,.57-2.01,.75-.21,.05-.42,.07-.62,.14-.58,.2-1.15,.37-1.77,.36-.09,0-.19,.04-.28,.07-.15,.05-.29,.11-.44,.16-.07,.02-.17,.04-.24,0-.4-.18-.8,.09-1.2-.04-.15-.05-.31-.07-.46-.07-.58,0-1.14-.09-1.58-.52-.03-.03-.06-.07-.09-.07-.58-.08-.84-.54-1.12-.96-.09-.13-.2-.24-.29-.37-.46-.61-.88-1.25-.92-2.06,0-.17-.08-.34-.12-.51-.04-.15-.09-.3-.11-.45-.03-.3,.07-.55,.22-.83,.49-.9,1.16-1.65,1.93-2.31,.4-.34,.75-.76,1.26-.97,.19-.08,.33-.28,.5-.43,.45-.38,1.01-.59,1.52-.86,.12-.06,.23-.14,.36-.19,.57-.24,1.15-.49,1.8-.34,.07,.02,.15,0,.22-.01,.78-.18,1.47,0,2.11,.45,.08,.06,.16,.19,.17,.29,.02,.31,.05,.63-.13,.93-.04,.07-.1,.14-.1,.21-.04,.57-.44,.91-.83,1.22-.47,.38-1,.68-1.51,1.02-.06,.04-.15,.06-.2,.11-.45,.47-1.02,.63-1.65,.65-.09,0-.19,.05-.28,.06-.11,0-.23,.01-.33-.01-.19-.05-.37-.13-.55-.18-.21-.06-.31-.21-.43-.38-.16-.23-.32-.22-.5,0-.47,.58-.96,1.15-1.39,1.76-.22,.31-.34,.69-.48,1.06-.08,.22-.1,.46-.13,.69-.09,.68,.28,1.2,.61,1.74,.01,.02,.03,.03,.04,.04,.5,.3,.98,.66,1.58,.71,.57,.05,1.14,.05,1.71,.12,.71,.08,1.4-.14,2.09-.25,.36-.06,.74-.1,1.07-.25,.58-.26,1.2-.32,1.78-.56,.18-.08,.35-.16,.52-.26,.31-.17,.6-.38,.91-.53,1.02-.49,2.03-1.05,2.88-1.77,.78-.66,1.65-1.17,2.45-1.8,.08-.06,.15-.14,.22-.21,1.05-1.04,2.11-2.07,3.12-3.14,.41-.44,.77-.94,1.05-1.48,.11-.21,.18-.42,.21-.66,.04-.26,.11-.58,.28-.76,.24-.25,.27-.55,.4-.83,.05-.1,.05-.24,.11-.33,.28-.42,.3-.88,.29-1.36,0-.37,.09-.74,.11-1.11,.02-.38,.01-.76,0-1.14-.03-.67-.12-1.32-.35-1.95-.06-.16-.14-.18-.26-.16-.08,0-.15,.04-.22,.07-.5,.26-.99,.55-1.5,.78-.67,.3-1.34,.6-2.04,.82-.59,.18-1.22,.26-1.83,.37-.25,.05-.52,.04-.75,.12-.43,.17-.83,.13-1.27,.02-.32-.08-.67-.05-1.01-.11-.41-.07-.73-.26-1.06-.46-.13-.08-.24-.21-.42-.18-.05,0-.13-.02-.16-.05-.32-.34-.62-.7-.95-1.02-.38-.35-.63-.78-.88-1.22-.15-.25-.33-.49-.44-.76-.16-.39-.31-.8-.39-1.22-.12-.57-.09-1.17-.24-1.74,.16-.38,.06-.78,.12-1.17,.14-.81,.33-1.6,.63-2.36,.27-.69,.67-1.32,1-1.99,.24-.49,.55-.93,.77-1.43,.23-.51,.57-.98,.9-1.44,.16-.22,.21-.45,.28-.69,0-.03-.02-.09-.04-.1-.05-.01-.14-.02-.15,0-.36,.56-1,.81-1.45,1.28-.23,.24-.54,.39-.8,.59-.46,.34-.98,.61-1.36,1.03-.41,.46-1.09,.6-1.38,1.19-.04,.09-.19,.14-.3,.18-.18,.08-.35,.15-.45,.34-.04,.07-.15,.12-.24,.16-.42,.2-.85,.39-1.26,.59-.1,.05-.19,.14-.28,.21-.17,.13-.34,.3-.53,.36-.47,.15-.88,.42-1.3,.66-.51,.3-1.03,.3-1.58,.15-.07-.02-.15-.05-.22-.06-.2-.02-.41,.01-.59-.06-.15-.06-.24-.23-.37-.35-.37-.33-.67-.71-.84-1.18-.06-.16-.14-.33-.24-.47-.21-.28-.29-.59-.28-.94,0-.3,.02-.6,0-.9-.01-.18,.12-.44-.1-.52-.09-.03-.29,.17-.4,.3-.11,.13-.25,.21-.38,.3-.52,.38-1.1,.69-1.56,1.16-.42,.42-.95,.7-1.48,.93-.31,.14-.59,.29-.87,.47-.22,.14-.42,.25-.69,.31-.26,.06-.53,.2-.71,.39-.28,.3-.61,.35-.95,.29-.32-.06-.61-.22-.79-.54-.17-.29-.34-.56-.46-.88-.04-.12-.09-.25-.17-.36-.15-.19-.16-.37-.04-.58,.17-.3,.08-.62,.07-.93,0-.13-.16-.17-.26-.08-.35,.32-.7,.64-1.06,.95-.19,.16-.32,.41-.63,.41-.07,0-.15,.12-.22,.19-.09,.08-.18,.16-.26,.25-.2,.21-.56,.04-.75,.37-.12,.22-.45,.3-.64,.49-.33,.33-.75,.47-1.17,.64-.08,.03-.21,.05-.26,0-.35-.29-.71-.57-1.02-.9-.13-.14-.18-.4-.18-.6,0-.37-.1-.75,.08-1.12,.03-.05-.06-.16-.1-.25-.06,.03-.13,.04-.18,.08-.47,.39-.94,.78-1.41,1.17-.06,.05-.13,.1-.2,.13-.94,.38-1.67,1.09-2.51,1.62-.89,.56-1.81,1.1-2.84,1.35-.42,.1-.88,.04-1.31,.02-.12,0-.24-.13-.35-.21-.38-.28-.79-.52-.92-1.03,0-.03-.1-.04-.15-.04-.01,0-.04,.06-.05,.1,0,.02,0,.04,0,.06,.08,.13,.22,.31,.01,.4-.19,.08-.22-.2-.29-.31-.15-.22-.28-.48-.33-.74-.05-.29-.36-.46-.27-.82,.06-.27-.06-.57-.04-.86,.02-.29,.12-.57,.18-.85,.04-.19,.07-.38,.12-.57,.03-.11,.06-.23,.1-.33,.25-.55,.42-1.13,.74-1.65,.04-.07,.07-.14,.1-.21,0-.03-.02-.08-.05-.1-.03-.02-.1-.02-.11,0-.15,.35-.48,.51-.74,.74-.24,.23-.43,.51-.66,.75-.23,.23-.48,.43-.79,.6-.44,.24-.82,.63-1.17,1-.4,.43-.93,.65-1.4,.97-.13,.09-.27,.14-.4,.23-.08,.05-.14,.16-.22,.2-.51,.18-.86,.59-1.28,.89-.13,.09-.24,.21-.35,.31-.07,.06-.12,.15-.2,.18-.53,.21-.89,.67-1.39,.93-.36,.19-.35,.49-.09,.82,.26,.32,.5,.65,.75,.99,.52,.71,1.14,1.31,1.87,1.8,.31,.21,.61,.42,.92,.64,.48,.34,.99,.6,1.58,.7,.25,.04,.48,.16,.71,.25,.69,.25,1.44,.15,2.11,.43,.09,.04,.2,.04,.29,.03,.35-.04,.75,0,1.03-.16,.52-.3,1.15-.38,1.6-.81,.07-.07,.16-.11,.25-.15,.22-.11,.49-.09,.47,.01-.03,.12-.12,.25-.22,.33-.31,.24-.66,.42-.95,.68-.45,.41-1.08,.32-1.58,.58-.09,.05-.24,.03-.35,.01-.38-.07-.76-.15-1.14-.23-.04,0-.08-.02-.12-.01-.96,.12-1.78-.37-2.66-.58-.74-.18-1.29-.64-1.86-1.08-.14-.11-.28-.21-.43-.3-.08-.05-.18-.08-.26-.14-.42-.37-.84-.73-1.24-1.11-.15-.15-.26-.34-.39-.52-.34-.46-.68-.91-1.01-1.37-.11-.15-.21-.12-.34-.05-.45,.27-.91,.54-1.36,.81-.37,.21-.74,.42-1.11,.61-.4,.21-.79,.43-1.17,.68-.66,.44-1.31,.91-2.14,1.05-.45,.08-.87,.34-1.28,.57-.68,.39-1.43,.6-2.11,.97-.42,.23-.88,.15-1.28,.33-.06,.03-.15-.01-.22-.04-.08-.04-.2-.12-.2-.15,.05-.14,.14-.09,.27-.07,.2,.02,.43-.03,.63-.1,.51-.19,1.02-.39,1.52-.61,.41-.18,.82-.37,1.17-.66,.42-.34,.94-.5,1.44-.61,.36-.08,.67-.25,.97-.41,.28-.15,.65-.19,.82-.52,.49-.2,.8-.71,1.36-.77,.31-.28,.8-.28,1.04-.68,.05-.08,.19-.14,.3-.16,.47-.07,.73-.51,1.17-.63,0-.19,.08-.46-.02-.55-.56-.54-.48-1.3-.74-1.94-.15-.36,0-.78,.1-1.16,.17-.66,.36-1.31,.54-1.96,.1-.37-.11-.93-.45-1.12-.08-.04-.21-.07-.28-.03-.77,.42-1.65,.68-2.24,1.38-.29,.34-.54,.73-.81,1.08-.12,.16-.24,.31-.39,.45-.32,.3-.64,.59-.98,.86-.19,.15-.42,.28-.65,.37-.33,.13-.55,.37-.8,.6-.13,.12-.27,.25-.43,.3-.52,.14-.95,.44-1.41,.69-.27,.15-.58,.22-.86,.34-.34,.15-.65,.36-1,.47-.57,.19-1.16,.32-1.74,.47-.32-.15-.77-.02-.99-.42-.03-.05-.09-.12-.07-.14,.04-.06,.11-.11,.17-.15,.01,0,.04,0,.06,0,.5,.19,.85-.13,1.21-.36,.21-.14,.41-.28,.65-.38,.32-.13,.58-.4,.88-.58,.62-.36,1.21-.78,1.83-1.14,.4-.23,.7-.65,1.04-.98,.65-.65,1.12-1.47,1.83-2.06,.45-.37,.74-.87,1.07-1.33,.43-.6,.85-1.22,1.26-1.84,.31-.48,.6-.96,.88-1.46,.1-.17,.16-.36,.22-.54,.13-.37,.3-.72,.52-1.04,.22-.32,.43-.66,.62-1,.19-.34,.04-1.23-.22-1.52-.08-.09-.18-.16-.25-.26-.5-.67-1.17-.71-1.92-.53-.72,.17-1.4,.47-2.1,.7-.22,.07-.46,.19-.6,.36-.34,.41-.8,.54-1.27,.67-.09,.03-.19,.07-.25,.13-.4,.38-.86,.65-1.36,.91-.44,.22-.94,.33-1.32,.67-.09,.08-.26,.08-.39,.09-.36,0-.72,0-1.08,0-.15,0-.22,.06-.2,.21,.02,.19,.05,.39,.07,.57,.06,.59,.09,1.2,0,1.78-.06,.37-.04,.77-.29,1.13-.21,.29-.29,.68-.47,1-.18,.34-.4,.67-.62,1-.1,.15-.22,.28-.32,.42-.12,.16-.23,.32-.35,.47-.12,.16-.23,.32-.36,.47-.24,.29-.48,.58-.74,.85-.1,.11-.24,.2-.37,.28-.47,.31-.8,.83-1.4,.94-.48,.56-1.17,.82-1.75,1.25-.33,.25-.75,.19-1.08,.41-.27-.1-.59-.14-.82-.3-.37-.26-.62-.62-.77-1.08-.11-.33-.27-.63-.24-1,.02-.19-.14-.25-.3-.15-.44,.29-.86,.62-1.33,.87-.36,.2-.73,.38-1,.68-.27,.29-.61,.48-.92,.71-1.02,.75-2.08,1.47-3.17,2.12-.69,.41-1.33,.9-2.02,1.3-.89,.52-1.73,1.12-2.65,1.6-.42,.22-.82,.47-1.21,.72-.63,.41-1.32,.65-2.03,.87-.04,.01-.09,0-.12,.01-.71,.46-1.53,.55-2.33,.74-.69,.17-1.38,.06-2.08,.07-.42-.22-.89-.26-1.34-.38-.34-.09-.66-.36-.92-.62-.27-.28-.58-.51-.86-.79-.47-.48-.86-1.01-1.23-1.55-.32-.46-.56-.97-.73-1.53-.11-.36-.32-.7-.38-1.09-.05-.29-.14-.57-.18-.85-.06-.45-.1-.9-.13-1.35-.02-.36,.02-.7,.15-1.04,.09-.23,.09-.5,.15-.74,.19-.82,.44-1.61,.81-2.37,.07-.14,.08-.3,.12-.45,.15-.56,.46-1.04,.78-1.5,.41-.58,.74-1.2,1.11-1.8,.2-.34,.42-.67,.68-.96,.72-.82,1.46-1.61,2.18-2.43,.45-.51,.84-1.08,1.44-1.45,.06-.04,.08-.13,.14-.19,.16-.18,.29-.39,.49-.51,.61-.37,1.07-.91,1.6-1.37,.56-.5,1.14-.97,1.72-1.45,.3-.25,.62-.48,.93-.72,.47-.39,.91-.82,1.42-1.16,.49-.32,.94-.71,1.51-.89,.05-.02,.11-.04,.16-.08,.65-.55,1.41-.91,2.16-1.29,.74-.37,1.51-.7,2.3-.97,.36-.12,.75-.21,1.12-.3,.02,0,.04,0,.06,0,.67-.36,1.39-.2,2.09-.23Zm56.86,5.66s0-.02,0-.03c-.4,0-.8,0-1.2,0-.2,0-.25,.1-.21,.26,.05,.23,.09,.44,0,.67-.04,.1,0,.23,.02,.35,.05,.51,.23,.99,.36,1.47,.14,.53,.39,1.11,1.13,1.1,.04,0,.09,0,.11,.03,.05,.05,.12,.13,.11,.17-.03,.06-.13,.14-.17,.13-.28-.08-.56-.16-.82-.28-.1-.04-.2-.15-.25-.25-.2-.42-.53-.78-.58-1.27-.03-.29-.13-.57-.16-.86-.02-.24-.11-.46-.04-.73,.06-.22-.02-.52-.14-.73-.1-.18-.37-.19-.6-.18-.07,0-.15-.05-.22-.07-.53-.12-1.01-.39-1.55-.48-.25-.04-.53-.05-.73-.19-.46-.32-.97-.48-1.5-.62-.18-.05-.35-.16-.52-.25-.39-.19-.78-.38-1.15-.58-.28-.15-.48-.07-.69,.14-.45,.46-.91,.89-1.34,1.37-.36,.39-.79,.7-1.13,1.11-.59,.71-1.22,1.38-1.84,2.07-.1,.11-.22,.21-.32,.32-.59,.64-1.05,1.39-1.71,1.97-.09,.08-.18,.23-.18,.35,0,.27-.16,.39-.36,.5-.17,.1-.37,.17-.5,.31-.55,.57-1.09,1.15-1.62,1.75-.45,.5-.88,1.01-1.31,1.53-.19,.23-.36,.47-.54,.7-.27,.34-.52,.68-.66,1.09-.03,.09-.14,.14-.2,.22-.23,.31-.51,.59-.66,.94-.13,.29-.28,.55-.48,.8-.08,.11-.16,.22-.23,.34-.24,.4-.5,.8-.72,1.21-.14,.25-.31,.5-.31,.82,0,.24-.09,.47-.31,.6-.1,.06-.14,.1-.16,.21-.02,.15-.07,.3-.13,.45-.14,.34-.02,.91,.27,1.1,.15,.1,.27,.19,.38,.34,.1,.14,.32,.2,.49,.3,.25-.18,.54-.08,.81-.1,.59-.03,1.16-.11,1.64-.52,.15-.12,.35-.18,.51-.29,.33-.2,.67-.41,.99-.63,.54-.36,1.07-.73,1.6-1.09,.44-.3,.89-.58,1.31-.88,.48-.34,.94-.71,1.41-1.06,.15-.11,.19-.24,.17-.41-.02-.23,0-.43,.26-.54,.09-.04,.14-.18,.2-.27,.13-.2,.24-.4,.37-.6,.45-.64,1-1.19,1.57-1.71,.25-.22,.42-.52,.66-.75,.44-.44,.86-.91,1.42-1.21,.09-.05,.16-.12,.23-.19,.65-.58,1.4-.99,2.19-1.33,.35-.15,.75-.21,1.13-.26,.64-.09,1.25,.11,1.83,.36,.57,.24,1.03,.64,1.3,1.22,.15,.32,.1,.7,.35,.98,.02,.02,0,.1-.01,.11-.04,.02-.09,.01-.13,0-.35-.07-.41-.4-.43-.63-.02-.36-.23-.56-.42-.79-.26-.33-1-.55-1.35-.37-.57,.28-1.09,.62-1.49,1.14-.18,.23-.37,.47-.62,.61-.26,.15-.48,.33-.69,.54-.17,.17-.36,.3-.55,.45-.24,.2-.52,.37-.72,.61-.45,.5-1.12,.77-1.45,1.39-.66,.43-1.11,1.06-1.61,1.65-.23,.27-.45,.57-.64,.88-.23,.36-.4,.76-.58,1.16-.06,.14-.08,.3-.09,.45,0,.19,.11,.3,.29,.3,.21,0,.42,0,.63-.1,.42-.2,.81-.43,1.15-.74,.19-.17,.39-.34,.62-.45,.21-.1,.35-.36,.64-.27,.17-.18,.34-.36,.52-.54,.05-.05,.14-.06,.21-.11,.14-.1,.29-.21,.42-.32,.4-.32,.8-.64,1.19-.97,.15-.13,.32-.26,.41-.43,.42-.78,1.05-1.34,1.81-1.74,.49-.26,1.04-.44,1.62-.2,.44,.19,.62,.48,.27,.91-.54,.67-1.12,1.3-1.7,1.94-.3,.34-.66,.63-.79,1.09-.02,.06-.11,.09-.16,.14-.36,.35-.52,.82-.66,1.28-.05,.17-.04,.4,.17,.46,.41,.12,.82,.17,1.22-.1,.39-.26,.79-.55,1.23-.67,.49-.14,.9-.35,1.3-.65,.44-.33,.89-.64,1.33-.97,.47-.35,.93-.73,1.42-1.05,.47-.31,.81-.81,1.4-.97,.09-.02,.14-.17,.21-.27,.18-.26,.36-.51,.52-.78,.21-.36,.51-.63,.77-.94,.49-.57,1.01-1.1,1.55-1.61,.16-.15,.36-.25,.5-.41,.52-.57,1.14-1.01,1.84-1.32,.28-.13,.59-.2,.89-.3,.66-.22,1.3-.3,2.01-.15,.54,.11,.76,.38,.93,.84,.14,.39,.11,.78,.11,1.17,0,.37,.08,.77-.31,1.03-.03,.02-.04,.07-.05,.1-.1,.4-.4,.67-.65,.96-.06,.07-.14,.14-.24,.02-.08-.09-.09-.16-.02-.26,.14-.21,.25-.45,.41-.64,.41-.48,.57-1.03,.49-1.65-.04-.29-.07-.58-.14-.86-.03-.12-.13-.23-.32-.16-.36,.14-.74,.24-1.1,.38-.14,.05-.25,.17-.35,.29-.34,.39-.69,.76-.99,1.18-.3,.43-.64,.82-.99,1.21-.54,.59-1.08,1.16-1.62,1.75-.42,.46-.86,.91-1.27,1.38-.6,.69-1.17,1.56-1.37,2.73-.07,.42,.3,1.1,.7,1.2,.28,.07,.58,.11,.87,.11,.25,0,.53-.01,.74-.12,.55-.28,1.19-.38,1.69-.78,.26-.2,.56-.37,.87-.5,.34-.14,.66-.28,.96-.51,.34-.26,.68-.56,1.04-.77,.68-.39,1.19-.96,1.82-1.4,.71-.5,1.35-1.08,2.03-1.63,.24-.2,.46-.45,.74-.59,.57-.3,1-.76,1.48-1.17,.09-.07,.2-.12,.29-.19,.25-.2,.54-.38,.75-.63,.4-.48,.75-1.01,1.13-1.51,.38-.5,.79-.98,1.18-1.47,.51-.19,.67-.74,1.08-1.05,.41-.32,.67-.83,1.05-1.2,.61-.6,1.14-1.28,1.86-1.76,.08-.05,.16-.13,.2-.22,.13-.26,.31-.44,.57-.57,.17-.08,.2-.22,.07-.39-.37-.51-.71-1.03-1.09-1.53-.29-.39-.61-.77-1.08-.97-.08-.04-.14-.14-.21-.21-.43-.39-.84-.79-1.28-1.15-.29-.24-.63-.41-.81-.76-.02-.03-.04-.08-.08-.08-.53-.16-.83-.63-1.3-.89-.51-.28-.94-.69-1.51-.89-.35-.12-.68-.31-.96-.57-.4-.38-.85-.62-1.44-.55-.24,.03-.48,.01-.72,0-.25-.02-.38,.1-.51,.32-.26,.44-.53,.88-.87,1.25-.5,.53-1.05,1.02-1.62,1.49-.15,.12-.31,.2-.4,.39-.06,.12-.24,.19-.36,.29-.19,.14-.37,.29-.56,.43-.17,.13-.33,.28-.51,.4-.38,.27-.76,.55-1.17,.77-.55,.3-1.06,.68-1.67,.84-.24,.07-.46,.21-.7,.29-.52,.17-1.03,.4-1.56,.46-.96,.11-1.94,.12-2.91,.17Zm.38-.23c.28-.05,.54-.11,.81-.15,.29-.04,.58-.03,.86-.08,.53-.09,1.07-.04,1.6-.24,.95-.35,1.91-.67,2.77-1.22,.58-.36,1.18-.69,1.71-1.13,.11-.09,.19-.22,.3-.29,.83-.52,1.44-1.29,2.21-1.87,.61-.46,.95-1.14,1.38-1.74,.19-.27,.12-.45-.2-.5-.29-.05-.58-.09-.87-.12-.31-.03-.63,.03-.93-.12-.28,.21-.56-.02-.84,0-.78,.03-1.56,.03-2.33,0-.39,0-.74,.08-1.08,.23-.09,.04-.22,.13-.26,.1-.34-.25-.64,.16-.97,.04-.06-.02-.15,.02-.22,.06-.57,.3-1.13,.61-1.71,.89-.93,.45-1.71,1.1-2.45,1.82-.86,.83-1.17,1.92-1.57,2.98-.09,.23,.02,.53-.06,.77-.06,.18-.06,.29,.07,.41,.13,.12,.26,.14,.43,.09,.16-.05,.35-.07,.52-.06,.27,.02,.54,.09,.81,.14Zm6.81,37.23c.34,.03,.71-.05,1.03-.24,.3-.18,.56-.43,.87-.61,.38-.22,.66-.54,1.05-.76,.39-.22,.82-.48,.96-.99,.08-.3,.22-.58,.37-.86,.07-.14,.04-.22-.04-.31-.2-.21-.42-.27-.75-.1-.65,.33-1.39,.49-1.97,.98-.23,.2-.52,.35-.79,.5-.77,.41-1.41,.96-1.94,1.65-.1,.13-.07,.2,.02,.3,.31,.36,.72,.45,1.2,.44ZM32.48,18.61c.02,.14,0,.3,.06,.4,.26,.37,.63,.59,1.08,.64,.21,.02,.3-.12,.25-.34-.09-.5-.32-.95-.53-1.4-.09-.19-.36-.27-.47-.12-.18,.24-.45,.46-.4,.82Z"/>
        <path d="M63.55,43.13c.05,.7-.02,1.38-.24,2.04-.12,.35-.24,.7-.34,1.05-.02,.07,0,.17,.04,.22,.04,.04,.15,.06,.22,.04,.11-.03,.24-.08,.31-.17,.33-.42,.82-.66,1.16-1.09,.3-.38,.71-.69,1.1-.99,.44-.34,.85-.7,1.16-1.17,.1-.15,.23-.27,.37-.39,.49-.39,1-.76,1.49-1.15,.17-.14,.33-.29,.47-.46,.82-.94,1.79-1.7,2.84-2.35,.31-.19,.6-.43,.97-.52,.14-.04,.28-.15,.4-.25,.35-.29,.75-.48,1.16-.66,.12-.05,.25-.11,.37-.15,.13-.04,.26-.1,.39-.1,.3-.02,.6,0,.9,0,.22,0,.37,.06,.45,.29,.06,.15,.17,.28,.32,.39,.34,.24,.55,.56,.64,1.02,.1,.5,.23,.99,.21,1.51-.01,.27-.06,.54-.12,.81-.13,.65-.2,1.32-.41,1.94-.25,.73-.48,1.48-.97,2.12-.24,.32-.34,.74-.56,1.08-.28,.44-.63,.84-.93,1.28-.29,.43-.57,.88-.83,1.33-.07,.11,.06,.26,.18,.22,.24-.08,.48-.16,.71-.26,.25-.11,.47-.12,.73,0,.3,.14,.42,.32,.41,.64-.02,.61,.09,1.2,.23,1.8,.07,.32,.03,.66,.11,.99,.11,.45,.1,.94,.14,1.41,0,.06-.02,.13,0,.18,.21,.5,.29,1.05,.52,1.54,.34,.76,.77,1.49,1.16,2.23,.08,.16,.2,.31,.23,.47,.05,.29,.24,.48,.41,.7,.43,.56,.94,1.07,1.52,1.45,.42,.28,.75,.71,1.26,.85,.02,0,.04,.02,.05,.04,.39,.57,1.05,.77,1.61,1.08,.55,.31,1.15,.57,1.79,.67,.3,.05,.59,.18,.89,.27,.63,.18,1.26,.37,1.9,.54,.17,.04,.36,.03,.53,.03,.48,0,.96-.04,1.44,0,1.22,.11,2.32-.2,3.34-.76,.15-.08,.31-.16,.47-.22,.42-.17,.64-.56,.96-.84,.1-.09,.22-.17,.34-.21,.08-.03,.18,.03,.27,.06-.04,.08-.05,.19-.11,.25-.2,.23-.48,.38-.62,.68-.06,.13-.32,.15-.44,.27-.72,.7-1.68,.85-2.58,1.15-.41,.14-.82,.09-1.23,.11-.33,.02-.68-.08-.99,.1-.03,.02-.08,.01-.12,0-.56-.08-1.17-.04-1.67-.26-.53-.23-1.1-.23-1.62-.44-.74-.29-1.56-.36-2.24-.8-.15-.09-.31-.17-.48-.23-.27-.1-.63-.1-.81-.28-.21-.2-.42-.41-.65-.58-.4-.29-.83-.54-1.15-.92-.72-.27-1.13-.92-1.65-1.42-.86-.85-.84-.87-1.39-2.05-.07-.16-.17-.32-.29-.44-.18-.2-.26-.43-.34-.67-.08-.27-.17-.57-.34-.79-.42-.54-.52-1.21-.82-1.8-.16-.31-.24-.66-.24-1.02,.01-.63-.1-1.27,.2-1.87,.02-.03,.04-.08,.03-.11-.14-.38-.09-.78-.12-1.17-.02-.23-.27-.32-.45-.17-.4,.35-.94,.55-1.22,1.04,0,.02-.02,.04-.03,.05-.64,.32-1.13,.84-1.69,1.27-.32,.25-.66,.46-.95,.76-.36,.37-.83,.62-1.24,.94-.24,.19-.56,.3-.68,.63-.03,.08-.19,.14-.3,.14-.4,.02-.8,.02-1.2,.01-.31,0-.36-.09-.29-.39,0-.04,.03-.08,.03-.11-.11-.47,.22-.72,.51-1,.22-.22,.45-.43,.65-.67,.53-.63,1.05-1.28,1.57-1.91,.42-.51,.8-1.06,1.16-1.62,.23-.36,.57-.66,.84-1,.48-.62,.95-1.25,1.41-1.89,.24-.33,.45-.69,.69-1.02,.37-.53,.74-1.06,1.12-1.58,.46-.62,.71-1.33,.98-2.04,.21-.56,.37-1.14,.62-1.69,.14-.32,.19-.79-.21-1.08-.1-.07-.21-.15-.25-.26-.19-.48-.55-.37-.94-.32-.91,.11-1.61,.65-2.37,1.07-.27,.15-.55,.29-.83,.43-.08,.05-.18,.09-.24,.15-.21,.21-.45,.35-.73,.47-.28,.12-.49,.42-.72,.65-.09,.09-.17,.2-.27,.28-.21,.17-.47,.31-.64,.51-.45,.53-1.04,.89-1.51,1.38-.16,.17-.46,.12-.52,.47-.03,.19-.3,.35-.48,.51-.18,.16-.37,.29-.56,.43-.06,.05-.19,.08-.19,.12-.01,.4-.38,.47-.6,.68-.42,.4-.83,.81-1.24,1.22-.25,.25-.55,.45-.8,.7-.5,.51-.94,1.1-1.49,1.53-.54,.42-.89,.96-1.3,1.48-.43,.54-.98,.97-1.45,1.47-.42,.44-.92,.79-1.42,1.14-.44,.3-.98,.36-1.39,.71-.4,.35-.94,.45-1.44,.61-.31,.1-.63,.21-.94,.31-.07,.02-.18,.03-.23,0-.18-.14-.39-.08-.58-.08-.22,0-.39-.08-.5-.26-.05-.07-.07-.19-.05-.27,0-.04,.13-.08,.2-.08,.51,.01,.89-.31,1.29-.53,.73-.4,1.45-.85,2.11-1.36,.37-.28,.75-.55,1.05-.92,.13-.16,.36-.25,.5-.41,.46-.52,.91-1.05,1.34-1.58,.12-.15,.18-.34,.28-.5,.16-.27,.4-.47,.62-.68,.77-.73,1.31-1.63,1.8-2.56,.3-.56,.55-1.16,.5-1.85-.02-.37,.07-.74,.1-1.11,.05-.51-.2-.91-.5-1.27-.21-.26-.56-.25-.84-.4-.15-.08-.35-.07-.5-.15-.24-.13-.44-.15-.65,.05-.03,.03-.07,.07-.09,.07-.45-.13-.84,.24-1.3,.16-.14-.03-.33,0-.45,.07-.42,.25-.89,.36-1.35,.53-.23,.09-.44,.26-.66,.39-.52,.31-.97,.71-1.56,.92-.31,.11-.57,.33-.84,.53-.13,.09-.24,.19-.42,.2-.2,0-.37,.09-.47,.29-.04,.08-.15,.12-.23,.17-.22,.12-.44,.24-.67,.35-.31,.15-.53,.43-.9,.53-.3,.08-.47,.47-.82,.56-.31,.48-.89,.6-1.29,.98-.38,.36-.85,.63-1.27,.94-.53,.4-1.06,.81-1.59,1.22-.14,.11-.25,.26-.37,.39-.04,.04-.04,.13-.08,.15-.88,.42-1.38,1.24-2.07,1.87-.56,.51-1.05,1.11-1.57,1.67-.09,.1-.14,.24-.22,.35-.07,.09-.14,.2-.24,.23-.27,.09-.41,.3-.51,.53-.26,.58-.67,1.05-.99,1.59-.27,.46-.59,.92-.58,1.5,0,.15-.06,.22-.21,.21-.13,0-.17-.08-.16-.2,.02-.25,0-.5,.11-.75,.38-.89,.94-1.67,1.4-2.51,.17-.32,.46-.59,.72-.86,.58-.61,1.16-1.22,1.67-1.89,.19-.25,.47-.45,.73-.64,.2-.15,.33-.37,.53-.53,.51-.41,.97-.88,1.46-1.31,.13-.12,.28-.21,.42-.32,.54-.42,1.1-.83,1.63-1.27,.59-.49,1.19-.97,1.85-1.36,.3-.18,.56-.43,.86-.62,.36-.24,.77-.41,1.09-.69,.41-.35,.92-.51,1.36-.79,.45-.28,.91-.53,1.37-.8,.62-.37,1.24-.75,1.87-1.11,.19-.11,.38-.22,.58-.29,.82-.3,1.62-.68,2.52-.73,.27-.01,.53-.11,.81-.13,.78-.06,1.8,.32,2.29,.9,.07,.09,.14,.19,.18,.3,.23,.64,.52,1.27,.44,1.99-.02,.18,0,.36,0,.54Z"/>
        <path d="M34.81,9.42c-.05-.33-.13-.65-.16-.98-.05-.72,.16-1.4,.47-2.03,.26-.54,.55-1.07,.92-1.56,.67-.89,1.48-1.61,2.41-2.21,.85-.54,1.8-.86,2.71-1.26,.71-.31,1.47-.48,2.22-.71,.26-.08,.53-.13,.8-.18,.5-.09,1.01-.14,1.5-.27,.22-.06,.42-.07,.64-.09,.37-.03,.74-.04,1.12-.1,.63-.1,1.24,.09,1.84,.28,.34,.11,.68,.15,1.04,.17,.72,.05,1.44,.11,2.11,.43,.4,.19,.88,.2,1.23,.51,.01,.01,.04,.02,.05,.01,.62-.13,1.12,.31,1.71,.39,.71,.1,1.39,.36,2.03,.71,.53,.29,1.05,.6,1.58,.9,.12,.07,.25,.1,.38,.15,.76,.3,1.47,.71,2.19,1.08,.7,.35,1.38,.73,2.01,1.2,.31,.24,.62,.48,.93,.72,.22,.17,.43,.34,.64,.52,.03,.03,.02,.1,.03,.16-.05,0-.1-.02-.14-.03-.51-.06-.74-.52-1.12-.77-.39-.27-.74-.59-1.12-.86-.22-.15-.48-.25-.72-.38-.78-.41-1.54-.86-2.34-1.21-.61-.26-1.2-.57-1.78-.88-.46-.25-.94-.46-1.42-.68-.32-.14-.65-.24-1-.3-.37-.07-.77-.12-1.12-.32-.19-.11-.45-.1-.67-.17-.63-.2-1.24-.43-1.87-.63-.2-.07-.42-.1-.63-.13-.41-.06-.82-.12-1.23-.14-.26-.01-.49-.07-.74-.16-.33-.11-.68-.18-1.02-.2-.48-.03-.96,0-1.44,0-.08,0-.16-.01-.24,0-.22,.06-.37,.27-.65,.19-.21-.05-.45,0-.67,.04-.19,.02-.38,.09-.57,.12-.97,.14-1.87,.51-2.81,.75-.37,.1-.72,.29-1.06,.46-.23,.12-.45,.25-.72,.23-.07,0-.15,.05-.21,.08-.43,.26-.88,.48-1.33,.71-.07,.04-.15,.06-.2,.11-.55,.63-1.29,1.05-1.81,1.72-.47,.61-.88,1.26-1.19,2.08-.07,.2-.17,.39-.23,.59-.06,.19-.1,.38-.11,.57-.02,.33-.02,.66,.09,.99,.16,.53,.16,1.09,.14,1.65-.01,.27,.06,.5,.18,.73,.07,.13,.15,.21,.27,.28,.17,.09,.36,.2,.47,.35,.4,.53,.97,.67,1.56,.8,.08,.02,.17,0,.23,.04,.71,.41,1.51,.34,2.28,.45,.77,.11,1.54,.08,2.31,.11,.37,.01,.7-.1,1.01-.26,.21-.11,.42-.18,.66-.23,.53-.1,1.02-.36,1.52-.55,.73-.27,1.37-.73,2.14-.91,.27-.07,.51-.3,.76-.43,.62-.33,1.09-.88,1.77-1.14,.43-.17,.74-.63,1.15-.89,.35-.22,.55-.57,.84-.83,.29-.26,.5-.61,.8-.87,.36-.3,.55-.7,.8-1.06,.03-.04,.14-.08,.18-.05,.06,.04,.12,.14,.1,.19-.08,.2-.16,.4-.29,.58-.47,.65-1.05,1.19-1.63,1.73-.1,.09-.19,.18-.27,.28-.4,.48-.93,.79-1.44,1.12-.29,.19-.58,.41-.87,.6-.18,.12-.37,.22-.55,.33-.13,.08-.28,.14-.39,.24-.3,.27-.62,.45-1.04,.5-.24,.03-.48,.16-.7,.28-.77,.42-1.54,.83-2.41,1.03-.34,.08-.68,.19-.98,.36-.47,.25-.98,.38-1.47,.32-.52-.07-1.06,0-1.57-.19-.12-.05-.28-.02-.41-.01-.9,.06-1.76-.04-2.59-.45-.39-.19-.86-.22-1.22-.51-.12-.1-.24-.2-.36-.29-.22-.16-.34-.45-.67-.46-.05,0-.12-.06-.14-.11-.15-.37-.44-.69-.43-1.14,0-.39-.08-.78-.12-1.17,.02,0,.04,0,.06,0Z"/>
      </g>
    </g>
  </g>
</svg>