<?xml version="1.0" encoding="UTF-8"?>
<svg id="Layer_2" data-name="Layer 2" xmlns="http://www.w3.org/2000/svg" viewBox="0 0 131.1 65.8">
  <g id="Layer_1-2" data-name="Layer 1">
    <g id="wWIgPW.tif">
      <g>
        <path d="M68.84,57.15c-.04-1.32,.21-2.4,.59-3.46,.16-.44,.35-.89,.64-1.24,.29-.34,.4-.76,.66-1.11,.27-.38,.52-.79,.72-1.21,.17-.35,.26-.73,.36-1.11,.04-.16-.18-.35-.36-.37-.44-.05-.8,.17-1.14,.38-.88,.55-1.79,1.08-2.49,1.89-.05,.06-.13,.09-.2,.12-.27,.12-.46,.33-.66,.56-.36,.44-.8,.83-1.23,1.22-.16,.14-.36,.23-.39,.48,0,.05-.04,.13-.09,.15-.53,.25-.72,.83-1.16,1.17-.32,.25-.61,.53-.91,.8-.09,.08-.16,.18-.23,.27-.07,.09-.14,.19-.21,.28-.22,.24-.54,.33-.75,.61-.19,.26-.5,.44-.76,.65-.15,.12-.3,.25-.47,.36-.24,.17-.49,.31-.72,.48-.56,.43-1.11,.87-1.67,1.31-.27,.21-.56,.35-.89,.44-.22,.06-.43,.18-.65,.26-.11,.04-.24,.09-.34,.06-.11-.04-.23-.16-.26-.27-.02-.07,.07-.26,.15-.28,.51-.15,.82-.6,1.27-.83,.03-.02,.06-.05,.09-.08,.46-.54,.93-1.07,1.39-1.61,.22-.25,.44-.51,.64-.77,.54-.7,1.08-1.4,1.62-2.1,.13-.54,.72-.78,.86-1.31,.02-.07,.1-.12,.16-.18,.17-.17,.35-.31,.31-.61-.01-.1,.08-.21,.14-.32,.57-.98,1.05-2.02,1.71-2.94,.03-.05,.03-.13,.07-.16,.41-.31,.53-.81,.82-1.2,.18-.24,.29-.55,.43-.82,.31-.64,.82-1.14,1.11-1.78,.46-.33,.43-.96,.83-1.33,.02-.02,.02-.09,0-.11-.04-.03-.1-.06-.16-.06-.16-.02-.32,.21-.49,.02-.32,.18-.66,.06-1,.09-.45,.05-.9,.1-1.35,.1-.42,0-.83-.02-1.24-.11-.42-.09-.83-.2-1.25-.29-.53-.11-1.07-.21-1.61-.32-.36-.07-.72-.13-1.08-.21-.29-.06-.55-.05-.75,.21-.3,.39-.61,.77-.92,1.16-.3,.39-.64,.76-.9,1.17-.57,.89-1.34,1.63-1.8,2.61-.28,.6-.7,1.13-1.15,1.63-.17,.2-.27,.42-.4,.63-.32,.49-.7,.95-1.04,1.43-.41,.57-1,1.01-1.18,1.74-.46,.43-.59,1.06-.93,1.56-.15,.22-.24,.48-.36,.72-.08,.18-.13,.38-.25,.53-.61,.74-.75,1.71-1.23,2.52-.15,.25-.24,.56-.37,.84-.12,.26-.14,.57-.3,.82-.41,.63-.57,1.36-.78,2.06-.13,.44-.15,.93,.04,1.39,.12,.29,.17,.6,.26,.9,.1,.31,.25,.41,.52,.3,.3-.12,.59-.08,.88-.08,.09,0,.19,.03,.28,.07,.13,.06,.14,.22,.02,.27-.16,.06-.34,.1-.51,.13-.21,.04-.43,.07-.64,.08-.29,.02-.53-.14-.73-.31-.3-.27-.63-.54-.69-1-.02-.14-.15-.27-.24-.4-.3-.41-.43-.88-.45-1.37-.03-.67,0-1.32,.3-1.96,.3-.67,.44-1.41,.65-2.11,.04-.15,.08-.32,.17-.43,.14-.16,.19-.34,.25-.52,.15-.42,.2-.88,.5-1.23,.05-.59,.41-1.05,.63-1.57,.35-.83,.85-1.58,1.42-2.29,.26-.33,.45-.73,.65-1.1,.46-.87,.98-1.69,1.54-2.5,.25-.37,.47-.77,.72-1.14,.44-.67,.9-1.33,1.35-1.99,.19-.28,.38-.55,.58-.82,.58-.82,1.35-1.51,1.84-2.41,.07-.14,.22-.23,.32-.36,.05-.07,.1-.19,.07-.25-.03-.07-.15-.13-.23-.14-.29-.05-.58-.12-.87-.11-.32,0-.55-.26-.84-.24-.42,.02-.79-.13-1.13-.29-.36-.16-.72-.27-1.1-.35-.12-.02-.2,0-.31,0-.25,.02-.51-.03-.76-.05-.1,0-.19-.04-.29-.05-.32,0-.64,.04-.89-.24-.55-.12-1.1-.25-1.65-.36-.24-.05-.52-.13-.73-.06-.27,.09-.46-.08-.68-.06-.52,.05-1.05,.12-1.56,.26-.24,.07-.47,.3-.64,.51-.43,.53-.79,1.13-1.24,1.64-.54,.6-1.17,1.1-1.72,1.69-.59,.64-1.3,1.14-1.91,1.75-.19,.19-.43,.34-.66,.49-.43,.27-.89,.5-1.3,.79-.72,.52-1.53,.87-2.34,1.21-.16,.07-.32,.11-.47,.23-.1,.08-.25,.16-.37,.15-.32-.02-.59,.12-.83,.28-.5,.32-1.06,.52-1.6,.7-.64,.21-1.27,.48-1.94,.63-.58,.13-1.19,.18-1.75,.43-.21,.09-.46,.1-.69,.13-.33,.05-.5,.23-.46,.56,.06,.56,.12,1.13,.23,1.68,.09,.45,.31,.88,.4,1.33,.18,.96,.92,1.58,1.34,2.39,.11,.22,.3,.42,.47,.6,.2,.21,.29,.46,.36,.73,.2,.7,.68,1.12,1.36,1.33,.32,.1,.61,.26,.96,.25,.09,0,.19,.06,.27,.12,.05,.04,.06,.12,.1,.18-.05,.02-.12,.07-.16,.05-.22-.11-.47-.07-.69-.14-.46-.15-.92-.33-1.34-.56-.4-.21-.71-.48-.83-1-.13-.56-.52-1.04-.86-1.52-.3-.42-.59-.83-.88-1.25-.13-.19-.24-.4-.36-.6-.05-.09-.14-.18-.13-.26,.06-.6-.38-1.07-.4-1.64,0-.19-.1-.38-.09-.57,0-.18-.17-.32-.05-.56,.09-.18-.04-.49-.09-.74-.01-.06-.09-.11-.15-.14-.15-.09-.66-.13-.8-.04-.25,.16-.52,.16-.8,.17-.15,0-.3,.06-.45,.09-.1,.02-.22,.06-.29,.02-.3-.19-.62-.07-.93-.11-.45-.06-.89-.12-1.34-.18-.12-.02-.25-.09-.34-.05-.37,.15-.73-.04-1.09-.02-.09,0-.22-.01-.27-.07-.15-.18-.34-.17-.54-.17-.16,0-.32,0-.48,0-.21,.02-.4,0-.53-.19-.13-.19-.46-.18-.5-.47,0-.02-.03-.04-.04-.04-.48,.08-.7-.38-1.09-.51-.37-.12-.64-.44-1.02-.56-.26-.08-.39-.43-.73-.41-.03,0-.08-.05-.08-.07-.06-.39-.42-.42-.68-.53-.5-.23-.96-.51-1.36-.89-.21-.21-.51-.24-.74-.46-.23-.22-.48-.49-.84-.57-.1-.02-.21-.13-.27-.22-.27-.49-.73-.74-1.2-.98-.14-.07-.37-.1-.33-.36,0-.05-.1-.17-.14-.17-.39,.02-.43-.37-.64-.55-.21-.18-.33-.42-.42-.69-.06-.19-.25-.39-.43-.46-.53-.21-.71-.7-.99-1.11-.19-.28-.11-.61-.11-.93,0-.04,.05-.1,.1-.13,.13-.08,.27-.17,.42-.21,.07-.02,.18,.03,.25,.09,.04,.03,.02,.13,.03,.2,0,.01-.03,.03-.03,.05-.09,.19-.27,.4-.24,.57,.04,.25,.2,.5,.37,.7,.26,.3,.57,.56,.84,.85,.19,.2,.34,.43,.51,.65,.07,.09,.15,.16,.23,.24,.06,.05,.14,.1,.18,.16,.42,.64,1.07,1.03,1.68,1.45,.05,.03,.09,.08,.13,.12,.36,.38,.77,.71,1.22,.99,.71,.45,1.41,.93,2.11,1.39,.23,.15,.48,.25,.7,.41,.71,.51,1.55,.8,2.25,1.31,.32,.23,.66,.4,1.02,.56,.36,.16,.74,.23,1.12,.31,.73,.16,1.49,.03,2.2,.32,.15,.06,.36,0,.54,.02,.39,.01,.79-.07,1.17,.11,.07,.03,.16,.02,.24,0,.48-.08,.96-.16,1.44-.24,.27-.04,.54-.1,.81-.11,.21-.01,.36-.07,.37-.29,0-.3,.16-.52,.35-.73,.1-.11,.18-.26,.25-.39,.24-.47,.44-.96,.69-1.42,.19-.34,.27-.73,.42-1.08,.1-.23,.24-.42,.49-.56,.25-.15,.46-.38,.59-.71,.12-.31,.44-.62,.75-.78,.45-.22,.75-.57,1.1-.89,.11-.11,.2-.21,.38-.25,.22-.05,.45-.13,.53-.41,.04-.14,.18-.18,.34-.18,.11,0,.23-.04,.33-.11,.55-.37,1.11-.71,1.72-.96,.42-.56,1.1-.6,1.68-.82,.47-.18,.96-.27,1.43-.47,.38-.17,.83-.18,1.25-.26,.08-.01,.18,.02,.23-.02,.39-.29,.83-.19,1.26-.22,.31-.02,.62-.09,.93-.11,.29-.02,.59,.03,.88-.1,.13-.06,.32-.04,.47-.02,.35,.05,.55-.09,.69-.41,.31-.7,.63-1.39,.97-2.07,.24-.47,.33-1.01,.7-1.41,.11-.78,.57-1.44,.78-2.2,.22-.8,.43-1.61,.72-2.4,.28-.77,.52-1.54,.91-2.27,.2-.38,.28-.81,.47-1.2,.15-.31,.29-.63,.48-.93,.44-.72,.85-1.45,1.26-2.19,.04-.07,.02-.17,.02-.25-.07,.03-.16,.04-.21,.09-.48,.48-.96,.96-1.45,1.43-.2,.19-.43,.34-.65,.51-.12,.1-.28,.17-.35,.3-.13,.24-.29,.39-.57,.46-.18,.04-.34,.2-.48,.33-.74,.68-1.46,1.38-2.21,2.06-.38,.34-.79,.65-1.19,.97-.06,.05-.14,.06-.21,.09-.32,.15-.65,.25-.95,.44-.34,.21-.74,.26-1.16,.17-.44-.09-.77-.27-.96-.68-.04-.09-.12-.16-.2-.22-.21-.16-.29-.37-.26-.63,0-.09-.02-.19-.05-.29-.1-.39-.11-.77,.08-1.15,.16-.33,.18-.72,.42-1.02,.22-.28,.41-.58,.62-.86,.18-.24,.37-.46,.56-.69,.08-.09,.2-.16,.24-.26,.22-.51,.65-.84,1.01-1.23,.17-.19,.31-.41,.49-.59,.44-.46,.91-.9,1.34-1.38,.5-.56,1.02-1.14,1.24-1.9,.02-.07,.05-.16,.1-.21,.35-.33,.2-.75,.18-1.13-.03-.41-.79-.86-1.19-.7-.54,.22-1.13,.32-1.59,.71-.08,.06-.15,.13-.22,.2-.5,.51-.96,1.07-1.56,1.47-.07,.3-.38,.43-.52,.65-.45,.72-1.13,1.26-1.5,2.03-.02,.03-.05,.07-.08,.09-.21,.2-.43,.39-.63,.6-.2,.22-.35,.48-.55,.69-.65,.7-1.34,1.36-1.95,2.1-.42,.51-.86,1-1.35,1.43-.36,.31-.62,.75-1.1,.93-.1,.04-.18,.14-.24,.23-.23,.37-.61,.52-.97,.72-.91,.51-1.91,.76-2.9,1.06-.5,.16-.93,.06-1.42-.05-.46-.1-.81-.35-1.2-.53-.27-.12-.45-.41-.59-.69-.2-.38-.43-.75-.62-1.13-.09-.17-.17-.37-.16-.55,0-.78-.34-1.55-.03-2.34,.01-.04,.01-.08,0-.12-.09-.72,.33-1.23,.75-1.73,.42-.51,.89-.98,1.34-1.48,.28-.31,.56-.62,.82-.94,.41-.5,.95-.84,1.47-1.18,.38-.24,.8-.48,1.27-.54,.09-.01,.19-.04,.28-.09,.47-.27,1.01-.27,1.53-.37,.44-.09,.83,.08,1.19,.38,.35,.3,.44,.55,.27,1-.31,.81-.67,1.58-1.3,2.2-.04,.04-.09,.08-.12,.13-.48,.92-1.39,1.28-2.23,1.71-.29,.15-.66,.2-1,.3-.35,.1-.63-.15-.92-.31-.08-.05-.14-.14-.22-.21-.12-.11-.24-.1-.38,0-.34,.25-.56,.58-.7,.97-.09,.24-.16,.48-.24,.72-.28,.8-.52,1.59-.5,2.45,.01,.49,.18,.92,.39,1.34,.11,.21,.33,.29,.76,.35,.13,.02,.27,.06,.38,.14,.25,.18,.49,.13,.77,.07,.98-.21,1.9-.56,2.8-.98,.3-.14,.6-.3,.83-.56,.15-.16,.34-.26,.58-.26,.22,0,.33-.11,.33-.33,0-.27,.11-.4,.4-.39,.29,.01,.36-.28,.41-.44,.14-.42,.44-.65,.78-.83,.45-.25,.81-.6,1.01-1.05,.17-.37,.52-.57,.7-.91,.43-.15,.55-.6,.86-.87,.15-.13,.2-.39,.47-.36,.03,0,.07-.04,.09-.08,.34-.73,1.15-1.12,1.43-1.89,.39-.3,.52-.85,1.02-1.04,.06-.02,.12-.11,.15-.18,.08-.2,.2-.33,.41-.39,.05-.01,.09-.08,.14-.11,.23-.15,.1-.64,.54-.61,.2-.21,.4-.43,.61-.63,.08-.08,.2-.12,.3-.19,.08-.05,.21-.08,.24-.16,.11-.25,.23-.42,.52-.23,.02,.01,.08-.01,.11-.03,.45-.33,.96-.16,1.45-.19,.25-.01,.45,.13,.62,.3,.42,.42,.62,.95,.7,1.51,.06,.41-.02,.82,.11,1.23,.05,.18-.05,.42-.1,.63-.15,.68-.37,1.31-.89,1.82-.19,.19-.35,.43-.52,.64-.08,.11-.14,.25-.25,.31-.68,.38-1.07,1.03-1.55,1.59-.47,.55-.98,1.07-1.46,1.61-.14,.16-.25,.35-.36,.53-.11,.16-.19,.35-.31,.49-.16,.19-.26,.38-.29,.63-.03,.21-.14,.4-.2,.61-.11,.39,.1,.66,.51,.67,.08,0,.17,.02,.24-.01,.39-.22,.85-.23,1.24-.49,.64-.42,1.25-.88,1.81-1.39,.23-.21,.38-.49,.73-.53,.05,0,.11-.1,.14-.16,.19-.39,.46-.68,.9-.78,.07-.02,.17-.05,.2-.11,.16-.39,.59-.51,.85-.81,.19-.22,.53-.29,.67-.58,.51-.06,.72-.44,.97-.82,.15-.23,.41-.39,.53-.67,.06-.15,.22-.14,.37-.13,.2,.02,.34-.04,.43-.24,.04-.1,.16-.16,.24-.24,.16-.17,.33-.33,.48-.51,.14-.17,.26-.35,.53-.33,.08,0,.19-.06,.25-.13,.53-.6,.87-.86,1.5-1.19,.19-.1,.35-.24,.53-.36,.13-.08,.26-.16,.4-.24,.03-.02,.08-.02,.11-.04,.21-.16,.23-.54,.57-.55,.3,0,.5-.2,.73-.35,.88-.57,1.81-1.07,2.78-1.48,.37-.16,.78-.23,1.17-.34,.11-.03,.23-.06,.34-.08,.37-.1,.74-.3,1.13-.05,.05,.03,.16,0,.23-.03,.37-.15,.74-.1,1.1-.02,.32,.07,.65,.11,.95,.28,.19,.11,.46,.08,.68,.15,.11,.04,.21,.15,.29,.25,.03,.03,0,.11-.02,.17-.05-.01-.1-.02-.14-.04-.03-.02-.06-.08-.09-.08-.6,.03-1.13-.52-1.76-.2-.08,.04-.2,.02-.3,.01-.66-.03-1.28,.1-1.84,.47-.08,.05-.19,.04-.28,.07-.75,.24-1.37,.74-2.07,1.06-.49,.23-.88,.57-1.33,.83-.44,.25-.79,.65-1.18,.99-.45,.4-.89,.82-1.34,1.23-.26,.24-.49,.51-.69,.81-.27,.43-.59,.83-.9,1.24-.78,1.04-1.5,2.11-2,3.31-.15,.36-.24,.74-.38,1.1-.22,.56-.47,1.11-.67,1.67-.26,.69-.49,1.39-.72,2.09-.34,1.06-.73,2.1-1.21,3.1-.02,.04-.04,.07-.05,.11-.15,.91-.76,1.56-1.21,2.31-.1,.17-.2,.34-.27,.52-.1,.24,.07,.49,.31,.41,.51-.17,1.05,.19,1.54-.1,.33,.05,.65,.1,.98,.16,.33,.06,.65,.12,.97,.19,.15,.03,.3,.09,.44,.14,.49,.2,1,.37,1.53,.33,.5-.04,.98,.08,1.46,.15,.38,.05,.73,.25,1.1,.38,.24,.08,.47,.2,.72,.23,.68,.1,1.33,.35,2.03,.33,.15,0,.22-.06,.31-.2,.3-.48,.63-.94,1.1-1.28,.08-.05,.11-.15,.17-.23,.38-.48,.78-.94,1.14-1.43,.62-.84,1.46-1.48,2.04-2.36,.12-.19,.35-.31,.53-.46,.49-.44,.82-1.04,1.41-1.39,.5-.29,1.02-.38,1.58-.33,.18,.01,.31,.15,.26,.33-.05,.2-.13,.41-.25,.58-.23,.31-.5,.58-.76,.87-.37,.41-.72,.85-1.12,1.23-.4,.39-.72,.84-.99,1.32-.47,.82-1.03,1.56-1.69,2.24-.36,.36-.63,.8-.94,1.21-.13,.17-.29,.33-.41,.5-.05,.07-.06,.18-.05,.27,0,.03,.13,.07,.2,.07,.54,0,1.01,.28,1.52,.41,.71,.18,1.41,.43,2.14,.54,.27,.04,.61-.08,.83,.04,.41,.22,.82-.21,1.19,.08,.5-.22,1.02-.04,1.53-.12,.35-.05,.69-.12,1.05-.12,.11,0,.25-.12,.33-.22,.47-.6,.97-1.18,1.37-1.84,.25-.42,.59-.78,.92-1.15,.53-.59,1.08-1.17,1.64-1.73,.13-.13,.34-.19,.49-.31,.32-.26,.64-.53,.94-.82,.48-.47,1.03-.85,1.58-1.24,.49-.35,.98-.72,1.48-1.07,.08-.06,.17-.09,.26-.12,.11-.05,.24-.06,.33-.13,.76-.57,1.69-.8,2.54-1.18,.29-.13,.6-.23,.85-.42,.34-.26,.74-.24,1.11-.29,.29-.04,.58-.04,.87-.12,.49-.13,1.01-.29,1.49-.23,.76,.1,1.52,.07,2.28,.24,.78,.17,1.52,.46,2.28,.69,.16,.05,.3,.17,.45,.26,.01,0,.01,.07,0,.09-.04,.04-.11,.1-.13,.09-.57-.37-1.23-.46-1.85-.69-.21-.08-.41-.11-.63-.11-.26,0-.5-.01-.76-.08-.24-.06-.54,.04-.8,.09-.88,.16-1.75,.38-2.6,.66-.26,.08-.51,.19-.75,.31-.36,.18-.71,.39-1.07,.59-.45,.24-.92,.41-1.37,.67-.2,.12-.4,.23-.58,.38-.64,.49-1.33,.91-1.92,1.46-.46,.43-.97,.81-1.45,1.21-.03,.03-.07,.05-.08,.08-.32,.6-.96,.88-1.38,1.37-.58,.67-1.24,1.29-1.73,2.03-.36,.53-.83,.99-1.08,1.6-.1,.24-.32,.45-.51,.64-.36,.35-.61,.76-.79,1.22-.02,.05-.05,.11-.09,.15-.51,.62-.96,1.29-1.39,1.97-.3,.48-.66,.92-1,1.38-.34,.46-.66,.93-1.01,1.37-.6,.76-1.03,1.61-1.54,2.42-.27,.43-.61,.82-.91,1.23-.12,.16-.24,.31-.36,.47-.2,.27-.48,.46-.69,.71-.04,.04-.02,.14-.03,.2,.07,0,.16,0,.2-.03,.37-.29,.77-.55,1.01-.98,.06-.12,.25-.17,.38-.26,.09-.06,.26-.13,.26-.2,.02-.34,.27-.45,.51-.59,.21-.12,.51-.25,.56-.43,.08-.3,.35-.3,.48-.48,.1-.14,.18-.3,.26-.45,.11-.21,.24-.36,.5-.36,.06,0,.12,0,.17-.03,.21-.11,.2-.42,.49-.48,.21-.05,.33-.22,.47-.41,.24-.34,.57-.61,.87-.9,.05-.05,.14-.08,.21-.08,.45-.05,.63-.13,.9-.41,.59-.62,1.63-.59,2.24-.03,.12,.11,.23,.3,.25,.45,.07,.77,.05,1.54-.3,2.26-.22,.46-.5,.89-.73,1.34-.25,.48-.48,.98-.72,1.47-.02,.03-.02,.08-.02,.11,.01,.53-.06,1.06-.12,1.59-.05,.43-.13,.85-.2,1.27-.06,.31-.04,.63-.05,.95-.03,.83,.04,1.64,.43,2.41,.18,.36,.23,.78,.41,1.15,.27,.55,.55,1.07,.98,1.52,.63,.67,1.38,1.16,2.19,1.57,.21,.11,.43,.19,.68,.16,.15-.01,.31,.03,.47,.04,.13,0,.26,0,.39,0,.1,0,.2-.06,.29-.04,1.05,.25,1.84-.3,2.62-.85,.26-.18,.49-.39,.73-.61,.14-.13,.25-.14,.42-.06,.29,.15,.3,.17,.08,.41-.5,.57-1.07,1.06-1.76,1.38-.49,.23-.99,.45-1.53,.54-.06,0-.14,.03-.18,0-.23-.18-.5-.09-.75-.09-.23,0-.47,.08-.67,.02-.23-.06-.49-.08-.67-.17-.48-.25-1.09-.31-1.42-.82-.01-.02-.03-.03-.04-.04-.84-.28-1.21-1.1-1.84-1.61-.14-.11-.27-.24-.39-.38-.08-.09-.16-.19-.18-.29-.03-.16-.1-.24-.23-.31-.44-.25-.63-.67-.74-1.15-.08-.36-.16-.73-.36-1.04-.16-.26-.23-.53-.23-.84,0-.25-.04-.51-.13-.74-.17-.45-.08-.9-.1-1.16Zm-25.37-17.5c-.23,.05-.44,.12-.65,.13-.67,.03-1.35-.02-2.01,.13-.17,.04-.34,.08-.51,.11-.21,.04-.42,.07-.63,.12-.32,.08-.67,.11-.95,.26-.52,.28-1.14,.29-1.61,.67-.01,.01-.04,.02-.05,.02-.57,0-.96,.38-1.41,.64-.52,.3-1.11,.48-1.56,.91-.28,0-.44,.24-.66,.35-.24,.12-.44,.36-.7,.43-.3,.08-.34,.31-.49,.49-.02,.03-.07,.04-.1,.07-.34,.27-.69,.52-1,.82-.3,.29-.56,.61-.82,.93-.19,.24-.37,.5-.53,.77-.18,.28-.23,.61-.48,.87-.17,.18-.21,.48-.31,.72-.14,.36-.21,.75-.47,1.06-.1,.13-.14,.32-.19,.49-.01,.05,.04,.16,.09,.17,.11,.03,.29,.08,.34,.03,.24-.28,.58-.22,.87-.29,.62-.16,1.23-.35,1.83-.57,.26-.09,.5-.3,.75-.3,.3,0,.44-.28,.7-.26,.33,.02,.39-.35,.65-.43,.06-.02,.11-.04,.16-.06,.55-.19,1.1-.37,1.62-.61,.32-.15,.65-.24,.95-.45,.72-.5,1.48-.93,2.18-1.46,.8-.6,1.63-1.19,2.32-1.92,.73-.78,1.44-1.58,2.14-2.38,.26-.3,.49-.62,.71-.94,.07-.1,.1-.26,.07-.38-.01-.06-.18-.09-.28-.13Zm-13.38-15.44c.42-.05,.93-.39,1.45-.67,.19-.1,.33-.28,.52-.39,.31-.19,.62-.36,.7-.77,.02-.12,.17-.21,.27-.31,.09-.1,.23-.19,.28-.31,.12-.28,.32-.49,.5-.72,.19-.24,.26-.56,.53-.76,.05-.03,.08-.15,.05-.2-.09-.22-.48-.48-.66-.4-.35,.15-.75,.16-1.05,.46-.35,.36-.79,.65-1.17,.98-.23,.2-.45,.43-.66,.65-.17,.19-.31,.42-.5,.58-.34,.27-.48,.7-.81,.97-.07,.06-.1,.17-.13,.26-.12,.44,.02,.63,.69,.64Z"/>
        <path d="M107.29,63.17c.57-.05,.99,.06,1.39-.12,.08-.04,.21-.04,.29,0,.22,.1,.36,0,.56-.1,.37-.19,.75-.42,1.2-.39,.23,.02,.43-.02,.58-.22,.14-.17,.33-.22,.55-.3,.66-.23,1.36-.39,1.87-.92,.08-.08,.2-.12,.29-.19,.19-.16,.47-.09,.64-.35,.13-.2,.38-.34,.58-.49,.11-.08,.23-.12,.35-.19,.05-.03,.12-.04,.15-.09,.29-.5,.88-.72,1.17-1.23,.03-.06,.12-.09,.18-.13,.11-.07,.28-.12,.33-.22,.13-.29,.38-.43,.61-.61,.35-.27,.67-.58,.99-.89,.05-.04,.02-.16,.06-.22,.09-.13,.1-.33,.34-.36,.11-.02,.22-.2,.3-.33,.37-.51,.87-.92,1.13-1.5,.15-.33,.33-.62,.61-.85,.1-.09,.21-.23,.21-.35,.01-.6,.32-1.12,.38-1.7,.02-.21-.03-.43-.06-.64,0-.08-.04-.15-.05-.23-.03-.16,.04-.28,.18-.34,.12-.04,.42,.19,.42,.3,.05,1.34-.27,2.56-1.12,3.61-.07,.09-.16,.18-.2,.29-.18,.52-.57,.88-.91,1.29-.36,.44-.71,.9-1.09,1.32-.42,.46-.91,.87-1.33,1.33-.3,.33-.69,.57-.99,.9-.27,.29-.55,.56-.84,.81-.18,.15-.37,.29-.55,.45-.14,.12-.35,.15-.43,.38-.04,.12-.23,.24-.37,.27-.53,.1-.85,.55-1.32,.75-.29,.12-.56,.26-.84,.39-.27,.14-.6,.13-.83,.4-.18,.21-.5,.08-.75,.1-.11,.3-.35,.39-.63,.45-.48,.1-.94,.23-1.41,.34-.06,.01-.12,.03-.18,.01-.54-.15-1.08,.04-1.62,.02-.56-.02-1.12,0-1.68-.03-.19,0-.38-.07-.57-.11-.37-.07-.73-.13-1.11-.11-.11,0-.24-.04-.32-.11-.13-.12-.25-.17-.43-.09-.05,.02-.16,.01-.19-.02-.34-.33-.79-.37-1.21-.5-.09-.03-.2-.07-.24-.14-.32-.53-.81-.9-1.23-1.33-.35-.36-.69-.74-1-1.13-.14-.18-.17-.43-.3-.63-.21-.33-.31-.7-.59-1.01-.17-.19-.18-.55-.18-.84,0-.57-.06-1.14,.1-1.71,.08-.3,.02-.63,0-.95,0-.05-.04-.12-.08-.13-.04-.01-.12,.01-.16,.05-.37,.36-.72,.73-1.2,.96-.18,.35-.51,.52-.83,.71-.12,.07-.16,.27-.27,.37-.54,.54-1.11,1.05-1.82,1.38-.17,.08-.32,.23-.48,.34-.23,.18-.55,.13-.8,.33-.21,.17-.54,.18-.82,.25-.09,.02-.22,.04-.29,0-.28-.18-.58-.2-.89-.26-.27-.06-.48-.18-.62-.47-.2-.42-.5-.8-.7-1.22-.18-.39-.32-.8-.38-1.22-.04-.3,0-.64,.12-.92,.24-.57,.34-1.2,.69-1.74,.02-.03,.02-.08,.04-.11,.52-.48,.66-1.18,1.04-1.74,.2-.29,.39-.58,.61-.86,.63-.83,1.27-1.65,1.82-2.54,.14-.23,.33-.45,.52-.64,.46-.48,.69-1.09,1.01-1.66,.2-.35,.12-.74,.12-1.11,0-.06-.06-.15-.12-.19-.35-.26-.46-.68-.71-1.01-.08-.1-.09-.25-.14-.38-.03-.08-.07-.19-.13-.21-.12-.03-.25-.06-.34,.12-.16,.31-.42,.58-.56,.9-.33,.74-.78,1.4-1.31,2.01-.32,.36-.56,.81-.76,1.25-.15,.32-.39,.58-.62,.81-.22,.22-.28,.59-.63,.68-.03,0-.05,.06-.05,.1-.13,.64-.66,.95-1.11,1.32-.09,.07-.22,.14-.25,.24-.09,.26-.29,.38-.51,.46-.17,.07-.23,.18-.31,.33-.2,.38-.41,.74-.82,.97-.24,.14-.38,.45-.58,.66-.4,.44-.81,.87-1.22,1.3-.04,.04-.09,.07-.13,.1-.66,.45-1.18,1.04-1.71,1.63-.36,.4-.86,.68-1.32,.97-.23,.15-.47,.28-.68,.46-.19,.16-.42,.32-.65,.39-.46,.14-.87,.34-1.23,.66-.3,.27-.66,.22-1.02,.19-.17-.02-.34-.08-.51-.09-.7-.06-1.27-.3-1.62-.97-.11-.2-.28-.4-.47-.53-.37-.24-.41-.64-.42-.98-.02-.44,.08-.89,.19-1.32,.13-.51,.28-1.01,.69-1.4,.25-.24,.42-.57,.61-.86,.24-.38,.45-.78,.7-1.15,.22-.33,.46-.64,.71-.94,.26-.31,.52-.63,.8-.92,.33-.34,.63-.71,1.09-.9,.23-.09,.43-.28,.61-.46,.23-.23,.52-.36,.81-.47,.52-.19,1.03-.44,1.62-.26,.24,.07,.52-.01,.78,0,.51,.04,.73,.39,.61,.89-.26,1.09-.73,2.06-1.55,2.84-.2,.19-.4,.4-.53,.63-.3,.54-.79,.8-1.32,1.03-.2,.09-.38,.19-.58,.27-.32,.13-.65,.26-.98,.38-.07,.02-.17-.03-.26-.04-.37-.06-.66,.1-.88,.37-.1,.12-.19,.25-.27,.38-.42,.67-.96,1.28-1.15,2.09-.06,.25-.13,.49-.18,.73-.07,.34,.4,.93,.76,.97,.02,0,.04,0,.06,0,.28,.06,.56,.19,.83,.17,.26-.02,.52-.17,.75-.31,.38-.23,.88-.24,1.18-.62,.04-.05,.15-.1,.21-.08,.3,.07,.5-.14,.69-.27,.52-.35,1.01-.75,1.5-1.13,.03-.02,.07-.05,.08-.08,.2-.44,.66-.61,.96-.94,.27-.29,.52-.6,.93-.72,.07-.02,.13-.09,.18-.15,.34-.38,.68-.77,1.02-1.16,.49-.56,.94-1.16,1.42-1.73,.31-.37,.71-.69,1.11-.98,.29-.21,.59-.39,.66-.78,0-.03,.04-.07,.07-.1,.42-.36,.72-.83,1.04-1.28,.27-.38,.63-.72,.85-1.13,.28-.53,.69-.95,1.01-1.44,.24-.37,.56-.7,.63-1.17,.01-.08,.11-.15,.16-.24,.14-.23,.28-.46,.42-.69,.06-.1,.11-.21,.2-.28,.14-.11,.18-.25,.18-.42-.01-.26-.01-.52-.02-.78,0-.22,.11-.44,0-.67-.03-.06,0-.18,.03-.23,.2-.22,.41-.44,.63-.64,.11-.09,.3,0,.3,.15,0,.44,0,.88,0,1.32,0,.04,0,.09-.01,.12-.37,.48-.09,.94,.07,1.37,.17,.45,.44,.87,.74,1.26,.25,.32,.42,.71,.6,1.08,.15,.32,.31,.64,.36,.98,.06,.37,.1,.74-.1,1.15-.23,.46-.47,.93-.68,1.41-.26,.61-.68,1.11-1.08,1.61-.48,.59-.93,1.2-1.34,1.83-.52,.8-1.09,1.56-1.62,2.35-.28,.42-.55,.86-.76,1.32-.29,.62-.36,1.28-.12,1.94,.24,.66,.9,.94,1.59,.73,.78-.24,1.47-.62,2.1-1.14,.24-.19,.53-.33,.81-.46,.32-.15,.6-.31,.84-.59,.29-.34,.66-.6,.99-.9,.09-.08,.17-.16,.26-.25,.47-.49,1-.89,1.53-1.3,.42-.32,.63-.81,.85-1.26,.1-.21,.19-.42,.31-.62,.34-.53,.65-1.07,1.07-1.54,.03-.03,.06-.06,.07-.1,.18-.6,.67-.96,1.07-1.4,.47-.51,.97-.99,1.48-1.45,.3-.27,.67-.47,1.04-.65,.53-.26,1.01-.6,1.49-.93,.63-.43,1.33-.75,2.09-.88,.23-.04,.46-.1,.69-.12,.56-.06,1.08,.17,1.61,.31,.52,.13,.71,.65,.55,1.18-.09,.29-.19,.56-.42,.76-.04,.04-.08,.09-.1,.14-.2,.5-.56,.89-.88,1.31-.55,.72-1.21,1.32-1.96,1.81-.45,.3-.92,.58-1.43,.76-.07,.03-.19,.09-.21,.06-.23-.22-.45,.1-.72-.04-.48-.24-.66-.38-.68-.9,0-.08,0-.16,0-.24,0-.03-.03-.09-.05-.09-.05,0-.13,0-.16,.03-.1,.1-.18,.21-.27,.31-.31,.36-.56,.79-.93,1.07-.49,.36-.68,.9-1.04,1.33-.05,.05-.06,.14-.07,.22-.03,.24-.15,.44-.3,.62-.17,.21-.31,.45-.46,.68-.1,.15-.2,.29-.3,.44-.09,.15-.2,.3-.25,.46-.14,.44-.23,.9-.38,1.34-.08,.25-.12,.49-.13,.75,0,.23-.11,.46-.1,.69,.03,.58,.09,1.17,.34,1.71,.15,.33,.29,.67,.45,1.01,.05,.11,.1,.22,.19,.3,.45,.42,.86,.9,1.38,1.21,.63,.38,1.32,.68,2.1,.64,.1,0,.22-.02,.29,.03,.35,.26,.76,.18,1.15,.21,.55,.04,1.1,.09,1.49,.12Zm-1.93-12.31c.29-.02,.51-.12,.73-.28,.25-.18,.5-.38,.84-.38,.08,0,.17-.09,.25-.13,.5-.23,.86-.63,1.24-1,.16-.16,.34-.31,.49-.48,.17-.19,.32-.4,.47-.6,.15-.2,.32-.4,.45-.62,.17-.28,.28-.6,.52-.85,.18-.19,.12-.56-.07-.82-.13-.17-.52-.35-.69-.25-.38,.21-.74,.43-1.09,.68-.39,.27-.72,.66-1.14,.83-.47,.18-.84,.47-1.2,.78-.13,.11-.31,.19-.42,.32-.4,.53-.71,1.12-.89,1.76-.07,.22-.04,.47-.03,.71,0,.07,.1,.15,.17,.19,.11,.07,.25,.1,.37,.15Zm-21.6-2.92c-.06-.14-.08-.31-.14-.33-.12-.03-.26,.03-.39,.05-.02,0-.03,.03-.04,.04-.56,.48-1.13,.96-1.69,1.44-.38,.33-.72,.71-1.03,1.1-.39,.49-.75,1-1.1,1.51-.13,.19-.3,.36-.43,.56-.06,.09-.13,.22-.11,.31,.04,.19,.23,.12,.35,.1,.15-.02,.3-.09,.45-.11,.74-.12,1.33-.48,1.81-1.05,.23-.28,.5-.53,.76-.77,.39-.35,.55-.89,1.02-1.16,.18-.57,.36-1.15,.54-1.71Z"/>
        <path d="M19.94,22.96c-.05,.75-.11,1.5-.14,2.25-.02,.5-.04,1,0,1.5,.06,.74,.17,1.47,.4,2.18,.09,.29,.12,.61,.18,.91,.01,.08,0,.17,.04,.23,.34,.51,.45,1.12,.75,1.65,.22,.38,.34,.83,.57,1.21,.2,.33,.5,.61,.75,.91,.2,.24,.38,.51,.61,.72,.36,.34,.73,.67,1.13,.95,.36,.25,.79,.4,1.14,.7,.29,.24,.68,.26,1.04,.34,.44,.1,.87,.27,1.31,.26,.3,0,.62-.05,.93-.09,.8-.1,1.57-.31,2.21-.83,.05-.04,.09-.08,.14-.12,.21-.2,.56-.03,.75-.28,.15-.2,.32-.36,.56-.49,.17-.09,.39-.17,.48-.41,.03-.08,.18-.12,.29-.17,.24-.11,.45-.26,.49-.53,.03-.17,.12-.2,.24-.17,.18,.03,.32,.2,.25,.34-.14,.27-.29,.55-.49,.79-.17,.21-.42,.35-.62,.54-.2,.18-.45,.28-.66,.45-.26,.21-.61,.32-.92,.49-.23,.12-.46,.23-.63,.42-.21,.23-.47,.34-.79,.34-.13,0-.26,.07-.39,.1-.41,.09-.79,.33-1.23,.14-.03-.01-.09-.02-.12,0-.47,.26-.91,.01-1.36-.09-.21-.05-.43-.06-.64-.08-.38-.03-.67-.27-1-.41-.14-.06-.25-.19-.42-.16-.02,0-.04,0-.06,0-.29-.11-.31-.57-.79-.5-.32,.05-.47-.38-.71-.58-.04-.03-.05-.1-.08-.15-.09-.17-.16-.34-.41-.35-.11,0-.25-.13-.3-.24-.19-.42-.59-.67-.84-1.05-.24-.35-.53-.64-.89-.89-.18-.12-.29-.37-.37-.59-.31-.87-.9-1.6-1.23-2.45-.21-.56-.54-1.06-.66-1.65-.13-.67-.34-1.32-.36-2.02-.02-.53-.09-1.06-.09-1.59,0-.57,.15-1.12,.21-1.69,.07-.61,.2-1.19,.46-1.75,.14-.3,.05-.65-.14-.82-.14-.12-.27-.15-.43-.03-.17,.13-.35,.25-.51,.4-.2,.19-.4,.36-.68,.45-.35,.12-.6,.39-.87,.62-.55,.45-1.06,.94-1.7,1.26-.22,.11-.39,.34-.57,.53-.72,.74-1.51,1.39-2.34,2-.32,.23-.59,.52-.9,.77-.41,.33-.84,.65-1.26,.98-.7,.54-1.39,1.09-2.09,1.64-.19,.14-.37,.29-.58,.4-.64,.33-1.29,.64-1.92,.98-.17,.09-.3,.26-.47,.34-.55,.25-1.08,.52-1.62,.79-.39,.19-.88,.15-1.29,.32-.32,.13-.62,.1-.93,.08-.27-.02-.38-.16-.35-.38,0-.07,.09-.18,.15-.2,.58-.11,1.1-.37,1.64-.6,.3-.13,.61-.29,.93-.34,.64-.12,1.14-.5,1.63-.86,.27-.2,.59-.28,.86-.48,.11-.08,.25-.12,.34-.21,.29-.27,.56-.54,.97-.65,.18-.05,.35-.19,.48-.33,.35-.35,.76-.62,1.15-.92,.44-.33,.83-.73,1.24-1.11,.21-.19,.4-.39,.6-.58,.09-.09,.18-.19,.26-.29,.1-.12,.16-.32,.28-.37,.27-.11,.37-.35,.51-.55,.16-.22,.37-.39,.56-.59,.35-.36,.79-.64,1.05-1.1,.18-.32,.56-.51,.67-.89,0-.02,.02-.05,.03-.05,.51-.03,.49-.51,.62-.81,.18-.42,.47-.76,.71-1.13,.13-.19,.26-.36,.36-.59,.18-.45,.45-.87,.68-1.3,.31-.58,.62-1.17,.95-1.74,.34-.61,.7-1.22,1.05-1.83,.21-.35,.41-.71,.63-1.06,.14-.22,.3-.41,.45-.62,.13-.19,.23-.4,.35-.59,.43-.63,.86-1.26,1.3-1.88,.09-.12,.2-.22,.29-.35,.32-.44,.59-.95,.98-1.32,.54-.51,.82-1.25,1.51-1.61,.2-.33,.63-.46,.74-.87,.01-.06,.04-.12,.08-.16,.54-.47,1.04-.98,1.63-1.37,.52-.35,.97-.8,1.48-1.15,.4-.28,.78-.62,1.22-.82,.43-.19,.8-.47,1.22-.66,.34-.15,.68-.27,1.02-.41,.8-.31,1.59-.64,2.43-.79,.53-.1,1.05-.33,1.61-.15,.29-.12,.56,.03,.84,.04,.54,.03,1.04,.16,1.53,.36,.16,.06,.34,.13,.51,.12,.63-.04,1.18,.26,1.77,.39,.09,.02,.23,.16,.21,.2-.07,.22-.22,.05-.33,.02-.55-.11-1.07-.39-1.65-.34-.47,.04-.86-.23-1.31-.3-.11-.02-.24-.09-.34-.06-.63,.17-1.29,.1-1.92,.24-.32,.07-.62,.22-.93,.33-.27,.09-.55,.17-.83,.26-.07,.02-.15,.05-.22,.08-.92,.47-1.86,.91-2.67,1.58-.16,.14-.37,.21-.55,.34-.5,.37-.96,.78-1.41,1.23-.55,.54-.99,1.17-1.54,1.7-.04,.04-.09,.08-.12,.14-.28,.64-.78,1.13-1.15,1.7-.08,.13-.21,.24-.32,.35-.07,.07-.17,.13-.21,.21-.34,.89-1.1,1.47-1.58,2.26-.61,1-1.3,1.96-1.95,2.93-.02,.03-.07,.06-.07,.09,.04,.43-.34,.65-.52,.96-.17,.31-.41,.58-.6,.87-.12,.18-.23,.36-.33,.55-.46,.89-1.15,1.63-1.61,2.52-.31,.6-.78,1.11-1.29,1.58-.07,.06-.16,.13-.03,.23,.09,.08,.17,.09,.26,0,.12-.11,.23-.22,.35-.33,.36-.33,.85-.47,1.25-.75,.11-.08,.33-.09,.46-.03,.4,.2,.8,.4,1.03,.83,.4,.73,.56,1.5,.51,2.32,0,.08,0,.16,0,.24,.01,0,.02,0,.03,0Z"/>
        <path d="M130.49,30.06c.16,.06,.43,.08,.54,.22,.16,.21,0,.48-.16,.64-.47,.45-.79,1.03-1.35,1.41-.38,.26-.65,.69-.98,1.03-.28,.3-.55,.61-.87,.87-.87,.68-1.6,1.5-2.34,2.3-.37,.39-.76,.76-1.14,1.13-.07,.07-.15,.14-.19,.22-.24,.44-.59,.79-.95,1.13-.37,.35-.69,.75-.98,1.18-.1,.15-.23,.27-.36,.4-.54,.53-1.03,1.09-1.48,1.7-.05,.06-.1,.13-.17,.17-.41,.24-.59,.67-.86,1.02-.26,.34-.55,.66-.83,.99-.04,.04-.12,.06-.12,.11-.08,.43-.4,.73-.65,1.03-.29,.34-.49,.73-.77,1.06-.22,.26-.43,.54-.68,.78-.29,.28-.5,.61-.66,.97-.14,.33-.31,.64-.57,.89-.11,.11-.21,.25-.25,.39-.14,.5-.54,.81-.79,1.23-.08,.14-.22,.16-.37,.14-.12-.01-.21-.07-.16-.19,.18-.45,.06-.94,.22-1.39,.09-.23,.1-.49,.27-.7,.1-.12,.14-.27,.14-.46,0-.22,.14-.44,.26-.64,.37-.62,.74-1.26,1.27-1.77,.17-.16,.33-.32,.38-.58,.04-.2,.18-.39,.3-.57,.37-.57,.7-1.18,1.14-1.7,.62-.74,1.13-1.57,1.83-2.25,.45-.43,.82-.96,1.21-1.45,.39-.49,.77-.99,1.16-1.49,.53-.69,1.08-1.37,1.71-1.97,.34-.32,.63-.71,.96-1.05,.19-.2,.44-.33,.63-.53,.32-.33,.62-.67,.91-1.02,.39-.46,.84-.86,1.27-1.27,.38-.35,.84-.62,1.12-1.08,.1-.16,.34-.26,.54-.34,.49-.18,.99-.34,1.48-.5,.09-.03,.19-.03,.34-.06Z"/>
        <path d="M111.83,55.84c-.12,.26-.2,.5-.34,.7-.11,.16-.26,.31-.42,.42-.23,.16-.25,.44-.37,.65-.11,.2-.28,.24-.4,.07-.08-.11-.13-.27-.14-.4,0-.29,.03-.59,.05-.88,.01-.17-.04-.35,.12-.5,.19-.18,.37-.37,.64-.4,.21-.02,.44-.08,.62,.1,.07,.07,.14,.14,.24,.24Z"/>
      </g>
    </g>
  </g>
</svg>