<?xml version="1.0" encoding="UTF-8"?>
<svg id="Layer_2" data-name="Layer 2" xmlns="http://www.w3.org/2000/svg" viewBox="0 0 165.55 45.31">
  <g id="Layer_1-2" data-name="Layer 1">
    <g id="_3zSgnX.tif" data-name="3zSgnX.tif">
      <g>
        <path d="M123.23,24.64c0,.16,0,.32,0,.48,0,.11-.07,.27,.1,.29,.07,0,.18-.08,.23-.16,.37-.65,.91-1.15,1.43-1.67,.53-.53,1.05-1.06,1.53-1.63,.33-.39,.61-.82,1.08-1.07,.44-.67,1.16-1.06,1.62-1.72,.2-.28,.53-.47,.79-.7,.31-.26,.61-.53,.92-.79,.33-.29,.65-.58,.98-.86,.58-.51,1.17-1.01,1.75-1.52,.39-.34,.76-.7,1.16-1.02,.75-.61,1.49-1.22,2.28-1.78,.58-.41,1.13-.86,1.67-1.31,.54-.45,1.15-.81,1.76-1.16,.85-.49,1.72-.93,2.57-1.42,.38-.22,.81-.33,1.21-.39,.3-.05,.65-.1,.97-.03,.34,.08,.7,.16,.99,.33,.41,.25,.54,.71,.57,1.17,.03,.41,0,.83-.12,1.23-.12,.39-.22,.79-.39,1.16-.19,.38-.44,.74-.69,1.09-.29,.39-.58,.79-.89,1.18-.19,.24-.44,.39-.64,.59-.42,.43-.84,.85-1.28,1.26-.26,.24-.54,.46-.82,.68-.28,.22-.56,.42-.85,.63-.09,.07-.2,.13-.3,.19-.32,.19-.64,.38-.95,.58-.75,.46-1.5,.91-2.34,1.18-.15,.05-.27,.15-.4,.24-.12,.07-.24,.21-.35,.2-.34,0-.58,.22-.87,.3-.64,.17-1.18,.57-1.84,.7-.93,.19-1.81,.57-2.7,.92-.38,.15-.8,.16-1.2,.26-.45,.11-.91,.21-1.35,.38-.25,.09-.48,.28-.66,.48-.48,.55-1.12,.96-1.54,1.55-.38,.53-.97,.89-1.21,1.52-.03,.09-.12,.16-.2,.22-.59,.48-1.02,1.11-1.46,1.71-.23,.31-.37,.69-.56,1.03-.29,.51-.61,1-.9,1.51-.16,.29-.29,.59-.44,.88-.18,.34-.21,.71-.24,1.08-.04,.48,.32,.7,.72,.77,.19,.03,.39-.03,.58,.1,.06,.04,.22-.02,.32-.07,.35-.16,.71-.31,1.09-.42,.36-.1,.66-.29,.96-.54,.46-.38,1.04-.62,1.51-1,.53-.42,1.12-.72,1.68-1.07,.43-.27,.82-.61,1.22-.92,.23-.18,.48-.32,.75-.44,.23-.09,.41-.32,.63-.48,.46-.34,.91-.69,1.39-.99,.41-.26,.76-.61,1.22-.81,.24-.11,.41-.42,.57-.66,.14-.22,.28-.42,.53-.53,.12-.06,.2-.19,.3-.29,.55-.57,1.2-1.02,1.83-1.49,.5-.37,1.02-.34,1.58-.28,.17,.02,.35,.05,.52,.09,.19,.04,.31,.23,.22,.41-.08,.16-.18,.31-.3,.44-.39,.41-.78,.81-1.25,1.15-.38,.28-.68,.67-1.03,1-.29,.27-.59,.52-.89,.78-.1,.09-.24,.17-.3,.29-.32,.67-.9,1.1-1.39,1.62-.41,.43-.88,.8-1.08,1.4-.03,.09-.11,.18-.18,.23-.35,.24-.34,.7-.61,.99,.05,.26,.08,.53,.15,.79,.01,.05,.12,.1,.19,.12,.33,.06,.68-.07,1,.09,.01,0,.04,0,.05-.02,.51-.36,1.16-.42,1.69-.79,.53-.37,1.06-.8,1.73-.96,.22-.05,.41-.21,.6-.35,.38-.28,.72-.63,1.13-.85,1.05-.56,1.93-1.39,3.02-1.91,.82-.39,1.51-.99,2.17-1.61,.23-.22,.48-.4,.73-.6,.31-.24,.65-.45,.93-.72,.32-.29,.69-.46,1.09-.53,.65-.11,1.3,0,1.9,.27,.16,.07,.2,.21,.07,.33-.37,.33-.67,.71-1.12,.96-.46,.26-.85,.63-1.28,.95-.33,.24-.67,.47-1.01,.71-.06,.05-.14,.08-.19,.14-.88,.84-1.77,1.66-2.63,2.52-.35,.35-.63,.76-.92,1.15-.09,.12-.17,.27-.2,.42-.13,.64,.48,1.13,1.13,.89,.55-.21,1.08-.44,1.64-.59,.23-.06,.41-.29,.62-.44,.58-.43,1.17-.85,1.79-1.23,.32-.2,.55-.51,.83-.77,.23-.21,.52-.38,.7-.63,.18-.24,.41-.41,.62-.61,.34-.32,.61-.72,.93-1.07,.38-.42,.44-.98,.71-1.46,.14-.25,.22-.54,.3-.82,.05-.19,.09-.39,.06-.58-.01-.1-.15-.21-.26-.27-.52-.28-1.02-.59-1.49-.94-.52-.38-.85-.9-1.1-1.46-.15-.33-.06-.71,.09-1.06,.1-.23,.27-.31,.47-.26,.34,.08,.68,.15,.96,.39,.63,.54,1.08,1.19,1.35,1.98,.15,.42,.33,.83,.35,1.29,0,.16,.1,.25,.25,.28,.7,.16,1.36,.49,2.1,.48,.54,.25,1.14,0,1.69,.22,.13,.05,.34-.1,.51-.09,.46,.02,.89-.12,1.34-.19,.14-.02,.29,.02,.44,.02,.13,0,.27-.05,.4-.07,.21-.04,.43-.05,.63-.12,.81-.28,1.66-.41,2.43-.82,.65-.35,1.34-.62,1.91-1.11,.15-.13,.31-.24,.47-.35,.52-.35,.79-.89,1.13-1.39,.31-.45,.41-1,.66-1.48,.04-.07,.07-.15,.07-.22,0-.34,.04-.66,.1-.99,.1-.54-.03-1.07-.24-1.55-.15-.33-.45-.54-.78-.7-.06-.03-.14-.1-.14-.15,0-.06,.07-.14,.13-.18,.04-.03,.12-.04,.16-.02,.67,.37,1.05,.93,1.14,1.69,.02,.17,.08,.34,.09,.52,.01,.16,.01,.32,0,.47-.04,.33-.06,.66-.15,.98-.08,.3-.27,.55-.33,.87-.07,.42-.32,.79-.58,1.14-.21,.28-.41,.57-.64,.85-.38,.47-.85,.82-1.35,1.14-.39,.25-.81,.48-1.21,.72-.08,.05-.18,.07-.27,.11-.19,.08-.39,.18-.58,.26-.31,.13-.54,.45-.96,.28-.15-.06-.4,.1-.6,.18-.35,.13-.71,.21-1.08,.25-.43,.04-.85,.13-1.27,.2-.22,.04-.41,.03-.63-.04-.16-.05-.38,.07-.57,.08-.95,.06-1.88-.08-2.8-.33-.39-.11-.81-.1-1.2-.26-.17-.07-.32,.02-.39,.19-.1,.25-.18,.51-.24,.78-.17,.74-.54,1.39-1,1.97-.5,.62-1.06,1.19-1.62,1.74-.69,.69-1.43,1.33-2.31,1.78-.09,.04-.16,.11-.23,.18-.61,.57-1.32,.96-2.09,1.25-.22,.08-.44,.15-.65,.25-.28,.14-.58,.14-.87,.1-.26-.04-.56-.07-.73-.32-.21-.31-.42-.62-.59-.94-.07-.13-.03-.32-.08-.46-.05-.14-.21-.25-.24-.39-.03-.14,.01-.32,.09-.44,.38-.61,.58-1.34,1.13-1.85,.04-.04,.03-.14,.05-.2-.07-.01-.17-.06-.22-.03-.46,.3-.91,.62-1.36,.93-.24,.17-.48,.34-.72,.51-.45,.32-.9,.63-1.34,.96-.19,.15-.38,.25-.6,.35-.57,.26-1.13,.52-1.62,.91-.11,.08-.22,.16-.35,.22-.63,.31-1.26,.61-1.96,.75-.08,.01-.16,.04-.23,.02-.31-.11-.62-.22-.93-.34-.19-.08-.3-.22-.36-.44-.07-.26-.14-.55-.31-.75-.19-.24-.24-.49-.15-.72,.15-.39,.21-.78,.27-1.19,.08-.56,.43-1,.72-1.46,.04-.05,.03-.14,.04-.21-.07,0-.17-.05-.22-.02-.17,.09-.33,.21-.49,.32-.51,.36-1.01,.73-1.52,1.1-.25,.18-.5,.38-.76,.56-.22,.16-.45,.31-.68,.45-.1,.06-.22,.1-.3,.18-.19,.21-.41,.35-.68,.44-.2,.07-.44,.16-.53,.32-.12,.2-.29,.31-.46,.43-.49,.35-1,.67-1.55,.94-.58,.28-1.15,.58-1.73,.86-.47,.23-1,.26-1.41,.14-.46-.13-.65-.53-.91-.86-.1-.12-.15-.28-.25-.4-.24-.28-.37-.52-.26-.94,.17-.64,.16-1.32,.28-1.97,.06-.31,.23-.61,.36-.91,.17-.35,.36-.7,.52-1.05,.03-.07,0-.18-.03-.25-.08-.14-.16,0-.24,.03-.06,.02-.12,.04-.16,.08-.47,.51-1.02,.93-1.58,1.34-.16,.11-.32,.23-.48,.35-.14,.1-.31,.18-.42,.32-.28,.36-.75,.52-.96,.94-.53,.2-.91,.6-1.33,.94-.54,.43-1.15,.75-1.71,1.13-.18,.12-.37,.22-.61,.19-.12-.02-.27-.05-.35,0-.39,.24-.62,.01-.87-.24-.53-.52-.83-1.13-.79-1.89,0-.13,.03-.28,.11-.39,.24-.35,.22-.78,.37-1.16,.01-.03,0-.08-.02-.11,0-.02-.07-.02-.08,0-.37,.46-.93,.66-1.38,1-.78,.59-1.58,1.16-2.39,1.7-.55,.36-1.16,.64-1.74,.96-.29,.16-.57,.32-.92,.35-.63,.07-1.01-.27-1.39-.72-.4-.48-.36-1.02-.34-1.57,0-.13,.06-.27,.12-.39,.18-.33,.37-.64,.56-.97,.06-.1,.11-.21,.13-.32,0-.04-.04-.11-.08-.14-.03-.02-.11-.03-.14,0-.46,.37-.93,.73-1.36,1.13-.5,.46-1.04,.88-1.58,1.3-.74,.57-1.57,1.04-2.27,1.67-.25,.22-.59,.38-.92,.48-.41,.13-.8-.05-1.08-.33-.42-.42-.65-.92-.35-1.54,.1-.2,.1-.45,.16-.68,.15-.6,.51-1.09,.84-1.59,.32-.49,.65-.97,.98-1.46,.07-.1,.11-.21,.19-.3,.96-1.01,1.89-2.05,2.91-3,.51-.48,1-1,1.65-1.32,.47-.23,.93-.43,1.45-.18,.2,.1,.24,.18,.14,.41-.11,.25-.23,.46-.49,.63-.24,.15-.37,.45-.58,.66-.98,.95-1.97,1.89-2.94,2.84-.79,.77-1.55,1.58-2.18,2.5-.14,.21-.37,.37-.53,.57-.42,.54-.74,1.14-1.05,1.75-.12,.24-.09,.41,.11,.57,.12,.1,.28,.24,.4,.22,.28-.04,.58-.12,.82-.27,.29-.17,.53-.41,.78-.63,.19-.17,.33-.4,.63-.41,.27-.32,.64-.52,1-.72,.52-.29,.81-.87,1.4-1.07,.05-.02,.11-.07,.13-.12,.14-.33,.45-.48,.7-.7,.6-.55,1.31-.93,1.92-1.45,.31-.27,.61-.55,.91-.83,.08-.08,.17-.15,.25-.24,.32-.32,.63-.65,.95-.98,.14-.14,.27-.29,.41-.43,.15-.15,.29-.3,.45-.44,.23-.21,.49-.4,.71-.63,.44-.47,1-.75,1.55-1.06,.58-.33,1.14-.18,1.69,.06,.15,.07,.16,.2,.1,.29-.38,.56-.81,1.08-1.44,1.37-.18,.08-.29,.15-.37,.33-.11,.26-.29,.45-.55,.59-.18,.1-.32,.27-.47,.42-.45,.47-.95,.89-1.45,1.31-.5,.41-1.07,.74-1.36,1.37-.09,.19-.29,.32-.45,.48-.63,.66-1.18,1.37-1.57,2.2-.23,.5,.04,.96,.59,.98,.33,.01,.62-.03,.95-.21,.53-.28,1.03-.6,1.56-.87,.38-.19,.71-.48,1.05-.75,.23-.18,.46-.35,.74-.46,.16-.06,.29-.2,.41-.33,.26-.27,.57-.48,.9-.66,.32-.18,.62-.4,.87-.68,.09-.1,.3-.07,.4-.16,.11-.09,.13-.36,.22-.37,.41-.07,.61-.43,.91-.63,.3-.2,.51-.55,.72-.86,.39-.58,.84-1.08,1.41-1.5,.3-.22,.54-.53,.82-.78,.13-.12,.27-.25,.43-.3,.38-.12,.7-.35,1.02-.56,.56-.38,1.23-.5,1.82-.8,.09-.05,.24-.03,.36,0,.55,.11,1.11,.22,1.66,.34,.64,.14,.98,.54,1.01,1.19,0,.18,0,.36,0,.54,0,0,0,0,0,0Zm23.26-14.63c.03-.52-.09-.83-.25-1.12-.13-.24-.42-.01-.59-.16-.04-.04-.11-.06-.16-.06-.1,0-.21,0-.29,.05-.35,.21-.7,.43-1.04,.66-.5,.35-.95,.77-1.48,1.06-.7,.38-1.28,.89-1.85,1.42-.13,.12-.28,.22-.43,.31-.33,.18-.64,.37-.91,.66-.26,.27-.56,.5-.86,.72-.84,.59-1.65,1.21-2.38,1.94-.08,.08-.17,.18-.27,.24-.45,.25-.82,.61-1.19,.97-.7,.68-1.42,1.34-2.13,2-.04,.04-.08,.09-.13,.12-.41,.29-.8,.6-1.14,1-.6,.69-1.26,1.33-1.97,1.9-.04,.03-.07,.14-.06,.15,.05,.04,.13,.1,.19,.09,.57-.11,1.11-.36,1.71-.36,.05,0,.1-.05,.16-.07,.89-.34,1.76-.74,2.7-.92,.27-.05,.53-.12,.75-.3,.1-.08,.25-.12,.38-.12,.17,0,.3-.02,.43-.15,.09-.09,.23-.15,.36-.2,.55-.19,1.12-.33,1.6-.68,.11-.08,.25-.11,.37-.17,.26-.13,.54-.23,.78-.4,.71-.49,1.52-.82,2.18-1.39,.41-.35,.89-.63,1.34-.94,.49-.33,.82-.82,1.28-1.19,.79-.64,1.36-1.48,1.94-2.3,.2-.29,.38-.58,.51-.91,.24-.64,.36-1.31,.44-1.82Zm-23.62,14.55s0,0,0,0c0-.18-.01-.36,0-.54,.02-.32-.11-.51-.4-.65-.28-.13-.5-.15-.76,.03-.34,.23-.71,.41-1.07,.61-.41,.23-.83,.44-1.17,.79-.08,.08-.19,.14-.29,.19-.32,.15-.53,.4-.75,.66-.23,.27-.5,.5-.74,.75-.19,.2-.39,.39-.57,.59-.07,.07-.1,.19-.18,.23-.44,.23-.71,.67-1.1,.96-.33,.24-.53,.56-.76,.87-.07,.09-.14,.2-.22,.28-.69,.64-1.03,1.52-1.48,2.31-.21,.36-.07,.61,.32,.71,.13,.03,.27,.01,.4-.01,.37-.07,.7-.22,1.01-.44,.26-.17,.58-.25,.81-.44,.38-.33,.77-.64,1.18-.92,.5-.35,.96-.75,1.41-1.16,.72-.66,1.56-1.16,2.29-1.8,.34-.3,.64-.7,1.04-.87,.5-.21,.53-.69,.82-1,.03-.03,.06-.06,.07-.09,.05-.17,.11-.33,.14-.5,.02-.18,0-.36,0-.54Zm25.29-3.06c.12,.43,.14,.92,.63,1.17,.07,.03,.13,.09,.18,.15,.4,.5,1,.73,1.49,1.11,.03,.02,.08,.05,.1,.04,.05-.02,.12-.05,.12-.09,.01-.1,.03-.21,0-.29-.23-.53-.46-1.06-.71-1.59-.26-.55-.78-.81-1.29-1.06-.25-.13-.34-.08-.44,.19-.04,.11-.04,.23-.07,.37Z"/>
        <path d="M83.98,1.12c.56,0,1.12,.03,1.68,0,.39-.03,.76,.02,1.11,.14,.56,.2,1.15,.22,1.71,.36,.52,.13,1.05,.25,1.57,.45,1.16,.45,2.24,1.11,3.44,1.47,.59,.17,1.09,.53,1.45,1.06,.11,.17,.32,.28,.48,.43,.67,.62,1.34,1.24,1.99,1.88,.32,.32,.57,.73,.93,.99,.39,.28,.61,.66,.87,1.02,.09,.13,.22,.23,.33,.35,.74,.74,1.47,1.49,2.05,2.38,.26,.39,.55,.77,.87,1.11,.3,.32,.64,.58,.97,.87,.15,.13,.29,.09,.42-.04,.59-.59,1.19-1.18,1.78-1.78,.41-.42,.78-.87,1.33-1.13,.23-.11,.41-.3,.61-.46,.52-.43,1.03-.86,1.55-1.28,.3-.25,.63-.47,.93-.72,.39-.34,.84-.31,1.28-.2,.27,.07,.34,.32,.19,.55-.02,.03-.05,.06-.08,.09-.4,.44-.79,.89-1.21,1.31-.43,.43-.89,.82-1.33,1.23-.24,.22-.4,.54-.74,.64-.23,.53-.75,.79-1.12,1.19-.31,.35-.69,.63-1,.99-.3,.35-.68,.63-1.03,.94-.2,.18-.19,.31,.05,.4,.33,.13,.61,.33,.79,.61,.29,.45,.78,.57,1.18,.84,.27,.18,.6,.27,.91,.4,1.05,.47,2.06,1.03,3.14,1.44,.54,.2,1.12,.31,1.69,.46,.3,.08,.61,.13,.91,.2,.04,0,.09,.04,.11,.02,.35-.21,.69-.05,1.02,.02,.52,.1,1.06,.05,1.57,.22,.25,.09,.54,0,.79-.03,.23-.03,.47-.03,.7-.07,.77-.14,1.55-.15,2.32-.32,.75-.18,1.42-.51,2.11-.82,.04-.02,.07-.05,.11-.05,.8-.11,1.37-.62,1.99-1.07,.23-.17,.51-.29,.76-.44,.15-.09,.3-.19,.44-.3,.4-.32,.81-.63,1.19-.97,.46-.4,.98-.77,1.35-1.25,.38-.5,.76-.99,1.2-1.43,.05-.05,.1-.14,.1-.21,.02-.27,.18-.41,.4-.53,.11-.06,.19-.2,.25-.32,.24-.49,.52-.97,.69-1.49,.19-.57,.26-1.17,.39-1.76,.03-.15,.07-.3,.11-.45,.17-.71,.36-1.44,.22-2.16-.14-.69-.34-1.43-.85-1.96-.38-.4-.61-.9-.98-1.3-.29-.31-.59-.54-.97-.7-.21-.09-.42-.21-.61-.33-.42-.28-.97-.33-1.32-.73-.05-.05-.14-.09-.21-.09-.73,0-1.42-.27-2.15-.25-.72,.02-1.44-.01-2.16,0-.23,0-.48,.07-.67,.19-.52,.33-1.13,.41-1.68,.65-.09,.04-.21,.03-.27,.09-.44,.4-1.07,.45-1.51,.86-.17,.16-.39,.26-.6,.36-.51,.27-1.01,.53-1.23,1.12-.04,.11-.15,.11-.22,0-.19-.33-.02-.9,.35-1.11,.36-.21,.69-.44,1.02-.7,.31-.25,.69-.44,1.05-.62,.82-.41,1.68-.72,2.54-1.05,.44-.17,.9-.29,1.37-.26,.33,.02,.64-.1,.97-.03,.31,.07,.62,.1,.93,.12,.35,.03,.71,.09,1.05,.1,.75,.03,1.42,.28,2.08,.57,.61,.27,1.22,.56,1.76,.94,.43,.3,.78,.74,1.13,1.14,.25,.29,.44,.64,.67,.96,.44,.61,.76,1.62,.79,2.34,.03,.99-.2,1.94-.42,2.9-.08,.34-.04,.69-.24,1.02-.27,.42-.46,.9-.65,1.37-.15,.36-.23,.76-.67,.91-.03,.01-.05,.06-.07,.09-.29,.67-.81,1.19-1.25,1.74-.37,.47-.77,.94-1.29,1.28-.39,.26-.73,.61-1.09,.91-.21,.18-.42,.39-.66,.49-.55,.24-1,.62-1.48,.95-.46,.31-.94,.55-1.45,.74-.43,.17-.85,.38-1.28,.53-.66,.23-1.33,.43-1.99,.65-.56-.21-1.12,.1-1.68,.03-.55-.07-1.1,0-1.66-.08-.37-.05-.78-.03-1.14-.1-.38-.07-.76,0-1.11-.1-.6-.15-1.24-.12-1.82-.42-.23-.12-.53-.13-.78-.21-.6-.19-1.16-.46-1.72-.74-.8-.4-1.61-.77-2.4-1.19-.24-.12-.54-.11-.76-.29-.09-.07-.24-.11-.28-.2-.22-.48-.76-.63-1.05-1.02-.09-.12-.17-.06-.23,.02-.33,.38-.76,.66-1.07,1.06-.19,.24-.47,.41-.71,.62-.09,.08-.18,.16-.26,.25-.18,.21-.35,.43-.53,.63-.47,.53-1.09,.93-1.39,1.61-.01,.03-.05,.06-.08,.09-.48,.52-.97,1.05-1.45,1.57-.33,.36-.73,.66-.94,1.14-.05,.11-.22,.16-.31,.26-.73,.81-1.32,1.73-2.12,2.47-.24,.22-.43,.49-.63,.75-.19,.25-.33,.53-.51,.78-.19,.25-.41,.48-.6,.73-.33,.46-.61,.95-.96,1.4-.73,.95-1.26,2.03-1.93,3.01-.76,1.13-1.24,2.39-1.78,3.62-.25,.59-.42,1.21-.62,1.82-.16,.46-.23,.93-.44,1.39-.16,.34-.1,.77-.15,1.16-.03,.23-.06,.46-.09,.7,0,.09,0,.19,0,.28,.02,.11,.08,.23,.07,.34-.03,.79,.26,1.5,.6,2.18,.34,.69,.91,1.16,1.6,1.47,.1,.05,.81,.08,.92,.05,.26-.06,.53-.13,.79-.18,.04,0,.12,.04,.14,.08,.02,.04,0,.12-.04,.16-.05,.05-.13,.1-.2,.11-.16,.02-.32,.03-.48,.02-.14-.01-.28,.17-.43,0-.03-.03-.13-.02-.17,0-.4,.27-.72-.02-1.03-.18-.8-.43-1.37-1.08-1.74-1.92-.2-.46-.47-.9-.57-1.41-.07-.32-.18-.64-.22-.96-.07-.63-.13-1.26-.11-1.89,.01-.46,.17-.92,.24-1.38,.09-.6,.26-1.18,.47-1.73,.25-.67,.32-1.4,.7-2.02,.1-.16,.15-.36,.22-.54,.17-.46,.38-.9,.63-1.32,.18-.3,.31-.63,.45-.95,.25-.58,.5-1.16,.89-1.64,.41-.5,.77-1.01,1.07-1.58,.13-.24,.33-.44,.49-.66,.05-.08,.09-.18,.09-.27,0-.04-.1-.08-.16-.11-.02,0-.07,.04-.09,.07-.27,.36-.7,.5-1.05,.75-.19,.14-.38,.28-.58,.39-.22,.12-.39,.33-.66,.36-.12,.01-.24,.13-.35,.2-.2,.12-.39,.25-.59,.38-.1,.06-.2,.13-.31,.17-.22,.09-.21,.41-.51,.45-.2,.03-.37,.21-.55,.32-.2,.12-.39,.28-.61,.35-.5,.18-.93,.49-1.41,.72-.45,.22-.88,.49-1.33,.71-.44,.22-.88,.42-1.33,.61-.39,.17-.78,.35-1.18,.46-.75,.2-1.47,.5-2.24,.64-.42,.07-.82,.25-1.25,.27-.19,0-.38,.07-.57,.09-.64,.08-1.27,.17-1.84,.5-.08,.05-.18,.07-.27,.09-.17,.04-.34,.08-.51,.13-.15,.04-.3,.08-.45,.11-.1,.02-.21,0-.29,.04-.76,.39-1.54,.25-2.31,.08-.62-.14-1.03-.57-1.21-1.17-.06-.22-.05-.45,.08-.69,.15-.28,.36-.46,.63-.59,.25-.12,.49-.28,.77-.07,.57-.12,1.05,.29,1.61,.29,.44,0,.86,.24,1.21,.53,.48,.39,.97,.41,1.47,.07,.28-.18,.56-.37,.81-.58,.56-.49,1.05-1.07,1.59-1.59,.18-.17,.26-.43,.42-.63,.58-.71,.91-1.55,1.27-2.37,.21-.49,.33-1.03,.44-1.56,.16-.78,.22-1.58,.46-2.34,.01-.04,.01-.08,.01-.12-.01-.15,.09-.34-.09-.44-.16-.1-.29,.04-.4,.13-.19,.16-.41,.21-.63,.28-.63,.19-1.25,.42-1.87,.64-.44,.16-.88,.32-1.32,.47-.13,.04-.27,.06-.4,.07-.36,0-.7,.1-1.02,.24-.56,.24-1.15,.34-1.74,.48-.15,.04-.3,.07-.45,.12-.09,.03-.18,.11-.27,.11-.47-.03-.86,.23-1.29,.35-.73,.2-1.44,.48-2.15,.74-.8,.29-1.62,.54-2.41,.86-.52,.21-.99,.54-1.49,.8-.52,.26-1.07,.47-1.58,.75-.38,.2-.73,.46-1.06,.73-.33,.28-.68,.53-1.07,.73-.34,.18-.68,.36-.89,.72-.1,.18-.31,.3-.48,.44-.04,.04-.11,.05-.15,.09-.47,.51-1.06,.89-1.46,1.46-.56,.78-1,1.6-1.19,2.57-.1,.53-.03,1.02,.06,1.51,.07,.36,.35,.64,.64,.88,.11,.09,.19,.19,.28,.3,.01,.02,0,.08-.03,.1-.02,.02-.09,.04-.1,.03-.35-.28-.74-.55-.93-.98-.33-.73-.35-1.48-.13-2.24,.06-.22,.06-.47,.14-.69,.08-.23,.13-.48,.33-.68,.19-.19,.3-.46,.47-.67,.31-.4,.63-.8,.96-1.19,.07-.09,.17-.16,.27-.23,.52-.38,1.02-.78,1.46-1.26,.22-.24,.54-.39,.81-.58,.47-.32,.95-.63,1.41-.96,.42-.3,.9-.48,1.33-.74,.6-.37,1.28-.57,1.9-.9,1.03-.55,2.12-.98,3.24-1.32,1.11-.34,2.22-.74,3.34-1.02,.56-.14,1.15-.24,1.7-.43,.48-.17,.96-.29,1.47-.37,.38-.06,.73-.27,1.1-.39,.61-.2,1.21-.46,1.81-.63,.65-.18,1.24-.45,1.84-.72,.32-.15,.49-.37,.58-.75,.18-.75,.42-1.5,.95-2.12,.16-.19,.23-.43,.39-.64,.58-.78,1.34-1.29,2.21-1.65,.36-.15,.73-.33,1.12-.31,.37,.02,.78-.06,1.1,.25,.22,.22,.32,.73,.16,.98-.12,.19-.31,.33-.38,.59-.04,.15-.27,.25-.41,.39-.31,.31-.59,.66-1.02,.83-.31,.13-.48,.42-.78,.57-.56,.28-1.07,.66-1.61,.96-.19,.11-.25,.24-.33,.43-.37,.84-.44,1.73-.58,2.61-.02,.15-.05,.31-.11,.45-.26,.62-.2,1.3-.46,1.93-.29,.69-.54,1.4-.9,2.08-.23,.44-.51,.83-.78,1.23-.11,.16-.26,.28-.39,.42-.05,.05-.14,.08-.19,.14-.34,.44-.8,.75-1.17,1.16-.16,.17-.29,.39-.57,.39-.03,0-.08,.12-.09,.19,0,.14,.11,.16,.21,.14,.32-.08,.64-.18,.95-.26,.11-.03,.23-.08,.34-.08,.53,.02,.99-.18,1.47-.36,.36-.13,.74-.23,1.11-.37,.32-.12,.64-.28,.95-.42,.87-.4,1.68-.9,2.56-1.27,.11-.05,.18-.15,.28-.22,.45-.31,.95-.53,1.44-.76,.22-.11,.49-.16,.58-.44,.01-.03,.05-.07,.09-.08,.65-.25,1.19-.7,1.81-1.01,.31-.16,.56-.44,.88-.59,.79-.39,1.43-.98,2.05-1.58,.07-.07,.14-.15,.23-.19,.65-.28,1.03-.84,1.44-1.37,.57-.74,1.12-1.51,1.8-2.16,.11-.11,.17-.26,.28-.38,.38-.43,.77-.85,1.15-1.28,.17-.19,.4-.32,.43-.62,.01-.11,.16-.22,.27-.31,.47-.37,.72-.95,1.23-1.27,.48-.86,1.19-1.52,1.88-2.2,.27-.27,.58-.51,.86-.77,.28-.26,.54-.53,.81-.8,.09-.08,.08-.17,0-.26-.1-.1-.18-.22-.3-.29-.57-.35-.88-.94-1.27-1.44-.59-.76-1.16-1.53-1.87-2.19-.26-.24-.49-.52-.69-.81-.31-.44-.66-.85-1.08-1.2-.07-.06-.11-.16-.15-.25-.15-.31-.38-.54-.69-.7-.09-.05-.16-.14-.25-.22-.3-.28-.57-.59-.91-.85-.46-.33-.83-.78-1.24-1.18-.26-.25-.5-.52-.75-.77-.07-.06-.16-.12-.24-.14-.59-.13-1.14-.37-1.69-.62-.86-.38-1.7-.78-2.58-1.11-.45-.17-.95-.21-1.42-.31-.39-.09-.8-.07-1.17-.32-.2-.14-.52-.14-.79-.15-.25-.01-.52-.1-.75,.09-.22-.16-.44-.1-.67,0-.08,.04-.2,.02-.3,0-.41-.05-.82-.11-1.24-.11-.44,0-.88,0-1.32,0-.15,0-.3,.06-.45,.09-.31,.06-.6,.15-.92,.16-.32,.01-.64,.14-.96,.22-1.08,.3-2.09,.84-3.19,1.08-.32,.31-.8,.29-1.15,.56-.25,.2-.61,.25-.9,.4-.59,.3-1.2,.56-1.76,.89-.49,.29-.9,.7-1.34,1.06-.15,.12-.24,.31-.48,.32-.08,0-.16,.1-.22,.18-.17,.19-.3,.44-.5,.57-.54,.33-.88,.85-1.27,1.31-.32,.39-.6,.82-.9,1.23-.07,.09-.13,.2-.18,.3-.38,.81-.78,1.62-1.14,2.44-.19,.44-.31,.92-.45,1.38-.02,.05-.01,.12,0,.18,.11,.85,.12,1.72,.37,2.55,.06,.2,.23,.36,.33,.55,.1,.19,.19,.38,.25,.58,.13,.47,.35,.87,.82,1.1,.3,.15,.57,.33,.87,.48,.08,.04,.18,.06,.28,.06,.41,.03,.82,.02,1.24,.1,.31,.06,.66-.06,.98-.14,.79-.21,1.57-.44,2.38-.56,.19-.03,.35-.16,.54-.22,.33-.12,.64-.29,1.01-.28,.39-.35,.96-.26,1.38-.61,.38-.32,.87-.52,1.3-.8,.42-.28,.82-.61,1.23-.91,.09-.07,.2-.12,.29-.19,.17-.12,.37-.23,.52-.38,.79-.81,1.62-1.57,2.4-2.39,.28-.3,.54-.61,.8-.92,.23-.26,.44-.54,.68-.78,.67-.68,1.3-1.4,2.08-1.96,.07-.05,.18-.1,.25-.07,.12,.05,.1,.14,.07,.28-.11,.47-.43,1.08-.88,1.55-.57,.61-1.15,1.21-1.71,1.82-.55,.6-1.12,1.19-1.78,1.67-.2,.15-.33,.37-.52,.54-.35,.32-.72,.6-1.14,.83-.43,.23-.79,.57-1.19,.86-.24,.17-.47,.37-.73,.49-.35,.17-.61,.5-1.01,.57-.05,0-.09,.07-.14,.11-.13,.09-.11,.24-.17,.36-.08,.19-.2-.1-.34-.02-.12,.06-.26,.08-.39,.13-.55,.18-1.11,.36-1.66,.53-.54,.17-1.07,.36-1.63,.43-.23,.03-.49,.03-.68,.14-.41,.23-.89,.15-1.3,.33-.05,.02-.12,.02-.18,0-.44-.15-.91-.04-1.35-.13-.59-.12-1.12-.38-1.66-.67-.57-.31-.73-.83-.98-1.32,.07-.32-.17-.52-.32-.73-.27-.39-.37-.8-.43-1.26-.06-.43-.09-.86-.11-1.29-.04-1.03,.26-1.97,.69-2.88,.22-.46,.43-.92,.67-1.37,.17-.31,.35-.62,.58-.89,.58-.69,1.01-1.5,1.69-2.11,.25-.22,.51-.43,.77-.65,.23-.19,.43-.42,.74-.53,.15-.05,.26-.24,.39-.36,.22-.19,.43-.42,.69-.56,.6-.33,1.15-.75,1.81-.96,.22-.07,.4-.25,.61-.34,.66-.29,1.31-.61,1.99-.85,.66-.23,1.31-.47,1.97-.7,.66-.23,1.33-.45,2.01-.59,.96-.2,1.94-.35,2.94-.27,.22,.02,.44,0,.66,0,0,0,0,0,0,.01Zm-11.12,33.1c.33-.06,.66-.1,.98-.18,.36-.09,.7-.22,1.05-.35,.13-.05,.25-.1,.37-.18,.17-.11,.16-.32-.03-.36-.28-.06-.43-.27-.63-.41-.15-.11-.34-.17-.52-.24-.55-.18-1.14-.17-1.7-.34-.45-.13-.91,0-1.19,.5-.23,.42-.25,.55,.08,.92,.43,.48,.98,.63,1.6,.63Zm14.89-16.08c-.03-.16-.03-.26-.07-.35-.02-.05-.13-.1-.17-.09-.37,.11-.74,.22-1.1,.37-.44,.18-.76,.52-1.09,.85-.17,.17-.32,.35-.46,.53-.29,.39-.47,.85-.8,1.21-.1,.11-.18,.25-.26,.39-.02,.03-.02,.1,0,.11,.04,.04,.1,.07,.15,.07,.07,0,.15-.04,.21-.08,.3-.18,.61-.34,.9-.55,.52-.38,1.14-.62,1.57-1.16,.28-.36,.62-.7,.97-1.01,.09-.08,.13-.22,.17-.3Z"/>
        <path d="M55.78,44.79c.25,.05,.49,.11,.74,.16,.04,0,.08,.02,.12,0,.58-.23,1.23,.02,1.81-.22,.77,.05,1.46-.24,2.16-.48,1.09-.37,2.14-.81,3.08-1.51,.46-.34,.96-.62,1.35-1.04,.34-.36,.67-.73,.99-1.1,.06-.07,.09-.17,.12-.26,.09-.22,.15-.44,.26-.65,.03-.06,.17-.12,.23-.1,.06,.02,.14,.17,.11,.22-.17,.37-.29,.77-.55,1.09-.63,.76-1.27,1.52-2.14,2.03-.44,.26-.78,.65-1.27,.85-.78,.34-1.59,.61-2.38,.94-.02,0-.04,0-.06,0-.55,.3-1.14,.42-1.76,.36-.48,.23-1.01,.04-1.51,.2-.27,.09-.62-.1-.93-.08-.56,.04-1.1-.1-1.65-.14-.2-.01-.4-.14-.6-.22-.72-.28-1.42-.61-2.13-.93-.7-.31-1.2-.87-1.86-1.22-.97-.52-1.59-1.4-2.26-2.22-.28-.34-.49-.7-.69-1.08-.2-.4-.48-.76-.77-1.1-.16-.19-.27-.42-.28-.63-.02-.33-.21-.56-.39-.77-.17-.19-.23-.4-.33-.61-.03-.07,0-.17-.05-.23-.33-.44-.52-.92-.5-1.47,0-.13-.06-.26-.08-.4-.06-.43-.04-.88-.18-1.27-.07-.21,.14-.33,.02-.49-.11-.15-.05-.28,0-.44,.05-.16,.05-.36,0-.52-.12-.34-.08-.66,0-.99,.03-.13,.06-.27,.05-.41-.06-.7,.21-1.34,.35-2.01,.13-.63,.53-1.13,.72-1.71,.09-.26,.2-.51,.31-.76,.21-.5,.04-.79-.5-.87-.31-.05-.61-.16-.93-.1-.13,.02-.28,.04-.38,.12-.51,.38-1.12,.59-1.61,.97-.39,.31-.85,.49-1.26,.75-.41,.25-.8,.55-1.13,.89-.42,.43-.91,.76-1.39,1.09-.45,.31-.93,.58-1.39,.86-.03,.02-.07,.04-.09,.07-.3,.39-.77,.5-1.19,.7-.35,.17-.68,.37-1.04,.52-.8,.34-1.61,.66-2.43,.98-.44,.17-.89,.24-1.33,.36-.11,.03-.23,.05-.33,.11-.22,.13-.45,.13-.69,.13-.23,0-.47,.07-.7,.07-.14,0-.3-.06-.43-.13-.21-.13-.02-.27,.03-.4,.04-.11,.14-.17,.27-.05,.08,.07,.24,.16,.3,.12,.34-.18,.71-.2,1.07-.29,.45-.12,.88-.27,1.29-.52,.36-.22,.78-.33,1.18-.49,.8-.31,1.45-.85,2.14-1.33,.27-.19,.55-.37,.83-.56,.11-.08,.24-.14,.34-.23,.49-.5,1.04-.9,1.62-1.28,.7-.44,1.21-1.09,1.79-1.66,.23-.23,.46-.45,.6-.79,.13-.31,.43-.56,.67-.82,.49-.5,.73-1.15,1.05-1.75,.27-.5,.5-1,.63-1.57,.09-.41,.28-.8,.37-1.22,.06-.29,0-.52-.01-.79-.03-.71-.42-1.25-.76-1.82-.05-.08-.13-.2-.2-.2-.34,0-.58-.22-.88-.32-.43-.15-.84-.13-1.28,.04-.43,.16-.84,.38-1.28,.54-.5,.18-.94,.49-1.34,.84-.45,.39-.87,.8-1.41,1.07-.08,.04-.12,.15-.19,.22-.32,.37-.65,.74-1.07,1.02-.5,.33-.9,.75-1.28,1.22-.26,.33-.43,.78-.88,.93-.38,.61-1.03,.95-1.51,1.46-.31,.32-.68,.59-.94,.96-.05,.07-.16,.11-.24,.15-.07,.04-.17,.04-.21,.1-.34,.47-.84,.76-1.22,1.19-.45,.5-.96,.94-1.53,1.3-.18,.12-.33,.28-.5,.41-.49,.4-.98,.8-1.48,1.18-.33,.25-.66,.5-1.01,.71-.43,.26-.88,.53-1.34,.72-.82,.35-1.66,.67-2.54,.84-.4,.08-.69-.14-.99-.29-.31-.15-.62-.35-.75-.72-.03-.09-.09-.18-.15-.25-.48-.55-.56-1.19-.4-1.87,.11-.45,.24-.9,.42-1.33,.21-.51,.55-.95,.93-1.35,.06-.06,.07-.16,.11-.25-.11,0-.27-.05-.32,0-.4,.4-.99,.47-1.39,.87-.07,.07-.17,.12-.26,.13-.46,.09-.8,.4-1.19,.62-.4,.24-.78,.53-1.17,.78-.21,.13-.44,.26-.68,.33-.3,.08-.51,.29-.74,.45-.25,.17-.51,.27-.77,.4-.24,.12-.44,.31-.69,.44-.64,.34-1.26,.71-1.86,1.12-.53,.35-1.11,.57-1.7,.78-.18,.06-.4,.11-.52,.25-.25,.26-.59,.36-.88,.44-.61,.17-1.16,.45-1.75,.65-.77,.26-1.53,.58-2.31,.8-.62,.18-1.26,.25-1.89,.37-.4,.07-.73-.11-1.05-.31-.03-.02-.04-.09-.06-.14,.06-.01,.13-.05,.17-.03,.3,.16,.61,.13,.93,.12,.42,0,.81-.09,1.2-.23,.81-.27,1.64-.49,2.45-.75,.26-.08,.5-.22,.75-.32,.54-.21,1.11-.37,1.61-.65,.67-.38,1.4-.59,2.08-.91,.92-.43,1.77-1.01,2.63-1.54,.37-.23,.74-.43,1.11-.66,.45-.27,.88-.59,1.35-.83,.73-.37,1.39-.87,2.11-1.26,.66-.37,1.36-.69,2.01-1.07,.37-.22,.78-.37,1.08-.7,.05-.05,.14-.07,.2-.11,.46-.3,.94-.57,1.38-.9,.65-.48,1.25-1.02,1.9-1.5,.52-.38,1.07-.73,1.71-.86,.36-.07,.75-.06,1.13-.05,.24,0,.39,.26,.28,.48-.08,.17-.22,.31-.34,.47-.02,.03-.08,.03-.1,.05-.73,.85-1.72,1.39-2.54,2.13-.36,.33-.71,.66-1.12,.93-.13,.08-.21,.23-.32,.35-.13,.15-.23,.33-.39,.44-.92,.71-1.56,1.62-2.05,2.65-.06,.12-.12,.26-.22,.35-.37,.31-.38,.73-.34,1.14,.04,.57,.73,1.04,1.28,.9,.13-.03,.27-.09,.4-.08,.5,.04,.91-.17,1.31-.42,.08-.05,.17-.13,.26-.13,.4,0,.69-.23,1-.42,.3-.19,.61-.35,.91-.54,.86-.56,1.67-1.18,2.46-1.83,.42-.35,.89-.65,1.28-1.04,.19-.19,.38-.39,.57-.58,.63-.59,1.23-1.22,1.9-1.76,.47-.38,.86-.84,1.34-1.2,.58-.44,1.11-.96,1.56-1.52,.44-.54,.88-1.03,1.44-1.44,.45-.33,.79-.79,1.2-1.17,.23-.21,.39-.5,.75-.55,.1-.01,.18-.15,.27-.23,.23-.17,.35-.48,.71-.5,.11,0,.19-.24,.31-.31,.48-.29,.95-.58,1.5-.73,.36-.1,.7-.24,1.05-.36,.78-.27,1.45,.03,2.1,.43,.15,.09,.29,.2,.43,.31,.06,.05,.13,.1,.16,.17,.24,.55,.49,1.11,.71,1.67,.07,.18,.08,.38,.11,.57,.11,.62,.24,1.24,.16,1.88-.13,1.12-.46,2.17-1.12,3.1-.18,.26-.36,.52-.52,.79-.04,.07,0,.18,0,.27,.07,0,.15,0,.21-.03,.45-.24,.89-.48,1.33-.73,.19-.1,.39-.14,.61-.17,.31-.04,.59,.25,.9,.05,.35,.18,.7,.38,.95,.7,.26,.32,.37,.69,.2,1.1-.01,.04-.04,.08-.03,.11,.14,.34-.02,.63-.12,.94-.1,.31-.14,.65-.2,.97-.02,.08-.04,.15-.05,.23-.04,.51-.07,1.02-.12,1.53-.01,.15-.08,.3-.11,.45-.12,.66-.23,1.31-.25,1.98,0,.16-.04,.31-.06,.46-.02,.16-.08,.32-.04,.47,.17,.69,.07,1.38,.11,2.07,0,.15,.06,.3,.11,.45,.05,.17,.15,.32,.18,.49,.08,.45,.28,.84,.5,1.23,.22,.39,.25,.85,.5,1.24,.14,.21,.24,.45,.43,.63,.07,.07,.15,.14,.18,.23,.29,.77,.88,1.32,1.45,1.88,.05,.05,.08,.13,.13,.19,.21,.27,.45,.48,.75,.66,.39,.23,.74,.51,1.12,.76,.19,.13,.39,.26,.6,.37,.44,.24,.89,.48,1.34,.71,.03,.02,.06,.07,.09,.07,.7,.04,1.28,.44,1.94,.62,.3,.08,.61,.11,.92,.16,0-.03,.01-.06,.02-.09Z"/>
        <path d="M31.98,15.21c0,.39-.12,.58-.37,.72-.48,.26-.94,.54-1.42,.8-.17,.09-.37,.1-.54,.19-.37,.18-.72,.39-1.08,.58-.07,.04-.19,.02-.27-.02-.04-.02-.05-.15-.03-.21,.08-.19,.18-.38,.28-.57,.04-.09,.1-.17,.14-.26,.08-.21,.05-.45,.27-.63,.42-.33,.71-.79,1.21-1.03,.61-.3,1.16-.13,1.69,.19,.09,.06,.12,.23,.13,.25Z"/>
        <path d="M141.93,20.43c.05-.46,.37-.92,.79-1.33,.15-.15,.35-.26,.5-.41,.52-.5,1.12-.5,1.75-.32,.16,.05,.27,.27,.21,.45-.07,.2-.15,.39-.36,.51-.69,.41-1.37,.84-2.06,1.26-.15,.09-.31,.16-.37,.35-.02,.07-.19,.17-.21,.16-.1-.08-.18-.18-.24-.29-.03-.06,0-.16,0-.38Z"/>
        <path d="M55.96,26.89c-.13,.02-.37-.14-.65-.04-.25,.09-.55,.02-.83,.03-.08,0-.18-.02-.23,.01-.37,.26-.72-.1-1.08-.03-.02,0-.07-.06-.06-.08,.01-.05,.05-.09,.08-.14,0-.01,.04,0,.06-.01,.59-.04,1.18-.04,1.76-.12,.61-.09,1.23-.04,1.82-.13,.47-.07,.95-.03,1.4-.13,.42-.1,.82-.06,1.23-.09,.07,0,.15,.08,.22,.13-.06,.07-.12,.15-.18,.22-.02,.02-.08,.01-.11,.02-.47,.04-.94,.06-1.41,.12-.48,.05-.96,.14-1.45,.21-.14,.02-.27,.03-.55,.06Z"/>
      </g>
    </g>
  </g>
</svg>