<?xml version="1.0" encoding="UTF-8"?>
<svg id="Layer_2" data-name="Layer 2" xmlns="http://www.w3.org/2000/svg" viewBox="0 0 117.27 48.41">
  <g id="Layer_1-2" data-name="Layer 1">
    <g id="nrVgls.tif">
      <g>
        <path d="M89.58,19.4c.21-.1,.41,.2,.61,.04,.16-.12,.28-.28,.42-.42,.59-.62,1.17-1.24,1.76-1.86,.18-.18,.38-.35,.59-.49,.53-.36,1-.81,1.47-1.24,.37-.33,.73-.67,1.12-.97,.23-.18,.51-.29,.76-.43,.49-.28,.98-.57,1.48-.85,.42-.24,.84-.15,1.25,0,.06,.02,.11,.1,.12,.17,.03,.14,0,.27-.12,.38-.75,.72-1.43,1.53-2.28,2.15-.08,.06-.16,.13-.21,.21-.38,.62-1.01,.99-1.51,1.49-.63,.63-1.24,1.28-1.87,1.91-.26,.27-.49,.57-.75,.84-.11,.12-.03,.21,.05,.23,.81,.2,1.53,.68,2.41,.65,.47-.01,.94,.12,1.41,.18,.19,.02,.39,.05,.59,.05,.33,0,.67-.06,1-.06,.31,0,.63,.1,.93,.06,.57-.09,1.14-.12,1.71-.12,.07,0,.17-.02,.21-.07,.2-.24,.51-.2,.76-.25,.36-.07,.72-.16,1.07-.27,.13-.04,.37,0,.4-.05,.16-.37,.47-.29,.76-.31,.13,0,.29-.04,.38-.12,.51-.44,1.19-.59,1.69-1.03,.2-.18,.44-.34,.69-.44,.45-.18,.8-.47,1.14-.8,.08-.08,.18-.16,.28-.22,.33-.18,.65-.34,.86-.68,.12-.19,.45-.18,.48-.48,.55-.54,.86-1.25,1.33-1.86,.45-.58,.8-1.28,1-1.99,.19-.68,.54-1.36,.41-2.12,.21-.64,.06-1.3,.12-1.95,.02-.21-.01-.42-.11-.63-.09-.21-.09-.46-.15-.68-.11-.49-.37-.89-.68-1.28-.34-.43-.66-.88-.97-1.33-.25-.37-.76-.86-1.15-1.02-.04-.01-.1,0-.11-.02-.49-.62-1.28-.8-1.86-1.31-.33-.29-.77-.49-1.24-.63-.49-.14-1.03-.2-1.46-.54-.48,.01-.82-.43-1.33-.39-.13,.01-.27-.2-.4-.21-.64-.02-1.28-.33-1.92-.03-.07,.03-.16,.01-.24,0-.77-.05-1.54,.02-2.3,.13-.38,.05-.77,.09-1.12,.3-.23,.13-.46,.4-.8,.19-.03-.02-.13,.06-.2,.11-.33,.21-.64,.43-1.05,.48-.16,.02-.31,.15-.46,.24-.42,.24-.83,.49-1.25,.73-.08,.05-.18,.08-.26,.11-.65,.25-1.15,.62-1.76,1.17-.35,.31-.76,.55-1.15,.81-.15,.1-.3,.15-.37,.35-.04,.12-.19,.2-.29,.29-.13,.11-.29,.21-.41,.33-.46,.45-.89,.95-1.38,1.37-.14,.12-.26,.25-.41,.34-.15,.09-.21,.2-.25,.37-.06,.23-.18,.44-.4,.57-.04,.02-.18-.04-.18-.07,0-.13,0-.27,.06-.4,.14-.38,.33-.75,.6-1.06,.6-.66,1.19-1.35,1.85-1.96,.62-.57,1.3-1.08,1.99-1.56,.82-.57,1.67-1.09,2.58-1.52,.74-.35,1.53-.6,2.25-.98,.7-.37,1.48-.47,2.22-.67,.72-.2,1.49-.15,2.25-.16,.35,0,.72,.09,1.05-.09,.54,.18,1.15,0,1.65,.34,.31,.21,.69,.27,1.05,.36,.46,.12,.9,.26,1.32,.46,.65,.32,1.29,.65,1.98,.88,.2,.07,.38,.21,.54,.35,.48,.41,1.01,.74,1.53,1.09,.35,.24,.69,.5,.95,.87,.52,.74,1.1,1.43,1.56,2.21,.26,.45,.34,.95,.48,1.43,.21,.72,.1,1.46,.08,2.19,0,.25,.05,.51-.07,.77-.1,.22-.08,.5-.14,.74-.13,.55-.25,1.09-.53,1.59-.09,.15-.13,.33-.18,.49-.03,.07-.02,.17-.07,.22-.35,.36-.44,.87-.74,1.26-.16,.21-.26,.47-.51,.62-.12,.07-.16,.25-.24,.38-.15,.25-.24,.54-.54,.66-.07,.03-.14,.09-.18,.16-.25,.43-.72,.59-1.06,.91-.32,.31-.72,.55-1.08,.82-.08,.06-.15,.13-.24,.17-.44,.17-.79,.47-1.14,.77-.17,.14-.36,.21-.57,.28-.29,.09-.55,.28-.83,.42-.15,.08-.31,.18-.47,.22-.53,.12-1.04,.3-1.48,.62-.07,.05-.19,.05-.29,.05-.42-.02-.81,.11-1.19,.27-.09,.04-.18,.08-.28,.09-1.01,.05-2.02,.09-3.03,.14-.33,.02-.66-.04-1,.07-.2,.06-.48,0-.68-.1-.25-.12-.5-.1-.76-.09-.51,0-1.01-.11-1.5-.24-.11-.03-.22-.08-.31-.14-.2-.13-.4-.24-.66-.22-.11,0-.23-.03-.34-.06-.3-.08-.59-.17-.73,.24-.63,.4-.9,1.14-1.46,1.61-.32,.73-.92,1.26-1.4,1.87-.12,.15-.18,.35-.29,.51-.25,.35-.5,.7-.78,1.03-.44,.51-.84,1.04-1.15,1.64-.58,1.13-1.4,2.12-1.95,3.27-.3,.64-.69,1.23-.98,1.87-.41,.88-.88,1.74-1.23,2.65-.17,.43-.26,.89-.45,1.31-.18,.41-.34,.83-.44,1.26-.09,.38-.11,.78-.15,1.16-.07,.59,.1,1.19-.11,1.77,.13,.22,.09,.46,.1,.69,0,.46,.02,.92,.01,1.38-.02,.7,.14,1.37,.38,2,.3,.77,.76,1.46,1.47,1.94,.08,.06,.15,.14,.22,.2,.38,.32,.76,.56,1.32,.53,.31-.02,.59,0,.87-.14,.31-.15,.68-.16,.99-.35,.07-.05,.26-.03,.33,.04,.12,.12-.03,.21-.11,.28-.14,.14-.26,.31-.5,.28-.07,0-.15,.03-.22,.08-.5,.34-1.06,.29-1.61,.27-.39-.01-.71-.23-1-.46-.36-.28-.77-.52-1-.94-.04-.08-.17-.1-.23-.17-.16-.17-.31-.35-.46-.53-.18-.21-.36-.42-.51-.65-.15-.23-.28-.47-.37-.72-.17-.49-.43-.95-.57-1.47-.13-.51-.14-1.01-.21-1.52-.04-.25-.07-.5-.12-.75-.23-1.04-.07-2.1-.12-3.14,.19-.61,.13-1.28,.41-1.87,.13-.28,.14-.61,.23-.9,.17-.54,.33-1.08,.58-1.59,.22-.45,.4-.92,.65-1.36,.19-.33,.26-.73,.41-1.08,.19-.43,.41-.84,.63-1.26,.21-.42,.41-.84,.65-1.24,.26-.43,.51-.88,.78-1.31,.26-.43,.56-.84,.76-1.31,.06-.13-.04-.12-.1-.12-.06,0-.12,.01-.17,.04-.22,.17-.43,.35-.65,.51-.14,.1-.29,.24-.45,.27-.25,.05-.38,.18-.5,.38-.06,.09-.15,.18-.24,.24-.48,.34-.96,.68-1.44,1.02-.16,.11-.32,.23-.47,.35-.23,.18-.46,.38-.69,.56-.25,.2-.47,.45-.75,.56-.4,.16-.7,.42-1,.7-.1,.09-.22,.16-.34,.22-.59,.31-1.13,.69-1.62,1.14-.31,.29-.62,.6-1.07,.71-.06,.01-.11,.08-.16,.13-.07,.07-.12,.19-.19,.21-.48,.14-.75,.57-1.15,.81-.38,.24-.78,.47-1.08,.82-.64,.13-1.02,.63-1.5,1.01-.42,.33-.91,.62-1.42,.8-.45,.16-.98,.28-1.45,.14-.43-.13-.82-.33-1.05-.84-.28-.65-.23-1.26-.13-1.91,0-.02,.03-.04,.03-.05-.03-.54,.26-.96,.48-1.42,.14-.3,.26-.61,.38-.92,.02-.06-.02-.15-.06-.21,0-.02-.11,0-.16,.03-.33,.21-.65,.44-.99,.63-.51,.28-1.04,.52-1.56,.78-.11,.05-.26,.08-.3,.17-.22,.42-.67,.45-1.01,.65-.25,.14-.5,.23-.74,.41-.23,.18-.54,.27-.8,.47-.22,.17-.53,.22-.8,.31-.07,.02-.16,.01-.23-.02-.07-.03-.14-.09-.2,0-.29,.44-.8,.52-1.22,.75-.05,.03-.13,0-.17,.04-.37,.36-.86,.41-1.32,.55-.15,.05-.3,.11-.42,.2-.44,.33-.97,.39-1.47,.5-.51,.12-1.04,.15-1.51,.43-.09,.06-.23,.05-.34,.06-.61,.05-1.2,.13-1.74,.45-.11,.07-.25,.1-.38,.14-.31,.1-.66,.07-.92,.32-.05,.04-.15,.05-.23,.04-.34-.06-.66,.14-1.03,.01-.32-.11-.7-.08-1.04-.14-.15-.03-.29-.12-.42-.19-.09-.04-.16-.15-.24-.15-.3-.03-.5-.24-.57-.47-.1-.34-.03-.71,.13-1.03,.1-.19,.84-.44,1.05-.36,.45,.18,.94,.27,1.33,.59,.13,.1,.32,.12,.49,.18,.13,.04,.3,.03,.39,.11,.29,.25,.68,.02,.96,.23,.26-.13,.56-.23,.78-.41,.54-.43,1.11-.82,1.6-1.32,.49-.5,.8-1.12,1.23-1.66,.12-.15,.28-.36,.32-.54,.08-.41,.36-.74,.44-1.13,.16-.78,.25-1.58,.39-2.37,.02-.11,0-.21,0-.31,.02-.41,.1-.81,.15-1.22,0-.02,.03-.03,.03-.05,0-.17,.06-.4-.03-.5-.14-.18-.32,.04-.47,.1-.86,.36-1.71,.77-2.58,1.09-.49,.18-.96,.39-1.45,.56-.58,.19-1.13,.5-1.72,.69-.44,.14-.84,.39-1.29,.52-.45,.12-.88,.31-1.31,.47-.36,.13-.7,.31-1.05,.48-.48,.24-.88,.66-1.45,.72-.05,0-.11,.04-.15,.08-.82,.64-1.75,1.1-2.62,1.67-.47,.31-.97,.56-1.44,.89-.47,.34-.87,.74-1.31,1.11-.44,.36-.9,.69-1.35,1.04-.09,.07-.19,.14-.27,.23-.34,.41-.67,.83-1,1.24-.04,.05-.11,.09-.11,.14-.08,.73-.52,1.47,.03,2.2,.03,.05,.06,.1,.07,.16,0,.05-.02,.11-.03,.17-.05-.02-.11-.02-.14-.05-.47-.55-.74-1.16-.44-1.89,.04-.11,.11-.22,.11-.33-.03-.44,.26-.74,.47-1.05,.45-.67,1.29-1.44,2.1-1.92,.15-.09,.26-.24,.4-.36,.47-.39,.9-.84,1.42-1.16,1.06-.64,2.05-1.37,3.15-1.94,.74-.39,1.45-.86,2.19-1.24,.58-.3,1.19-.57,1.82-.78,1-.34,1.95-.77,2.94-1.13,.22-.08,.44-.14,.67-.21,.06-.02,.13,0,.17-.04,.36-.29,.83-.32,1.22-.54,.23-.14,.47-.29,.77-.26,.07,0,.15-.04,.22-.08,.55-.33,1.11-.64,1.74-.79,.68-.17,.9-.69,.99-1.3,.03-.19,.04-.39,.07-.58,.08-.54,.34-.98,.64-1.42,.39-.56,.79-1.11,1.4-1.47,.21-.12,.4-.24,.66-.22,.11,0,.23-.02,.34-.06,.53-.17,1.01-.04,1.43,.3,.12,.1,.25,.29,.24,.43-.03,.32-.03,.67-.3,.92-.07,.07-.17,.13-.21,.21-.3,.79-1.06,1.07-1.64,1.56-.23,.19-.47,.35-.69,.54-.13,.11-.25,.18-.42,.18-.18,0-.28,.11-.31,.29-.07,.38-.15,.76-.22,1.15-.01,.07,.03,.15,.04,.23,.02,.27,.08,.55,.05,.82-.04,.42-.16,.84-.21,1.27-.07,.59-.09,1.18-.15,1.77-.02,.25-.02,.53-.13,.74-.35,.69-.55,1.47-1.14,2.04-.32,.31-.56,.7-.84,1.06-.07,.09-.16,.18-.25,.26-.12,.12-.25,.23-.37,.34,.17,.23,.4,.05,.6,.09,.08,.02,.19-.04,.27-.08,.3-.14,.61-.24,.93-.33,.41-.12,.8-.3,1.21-.42,.67-.19,1.3-.47,1.86-.84,.45-.3,.96-.41,1.42-.63,.34-.16,.64-.38,.97-.55,.28-.14,.58-.24,.85-.38,.27-.14,.54-.31,.79-.47,.5-.33,1.01-.64,1.53-.93,.36-.2,.73-.38,1.06-.63,.58-.44,1.2-.81,1.77-1.26,.3-.23,.52-.59,.74-.91,.7-1.02,1.56-1.9,2.47-2.72,.26-.24,.64-.39,1-.46,.26-.05,.57,.07,.85,.16,.12,.04,.2,.14,.16,.36-.08,.44-.16,.83-.48,1.17-.29,.31-.42,.76-.85,.95-.03,.02-.07,.05-.09,.08-.44,.81-1.19,1.36-1.69,2.13-.23,.36-.58,.64-.86,.97-.15,.17-.27,.37-.4,.56-.4,.56-.83,1.1-1.19,1.68-.34,.56-.74,1.11-.86,1.78-.05,.29,.07,.54,.34,.53,.47-.01,.95,.11,1.42-.08,.09-.04,.2-.03,.29-.02,.16,.01,.29-.04,.34-.18,.12-.31,.39-.42,.65-.56,.21-.11,.4-.25,.58-.4,.22-.18,.39-.39,.73-.46,.33-.07,.62-.38,.92-.59,.19-.14,.38-.28,.56-.43,.16-.13,.31-.27,.48-.39,.76-.54,1.52-1.08,2.3-1.59,.74-.48,1.41-1.06,2.11-1.59,.2-.15,.43-.28,.64-.41,.69-.42,1.35-.88,1.98-1.38,.12-.1,.27-.17,.39-.26,.17-.13,.4-.23,.49-.41,.14-.26,.34-.44,.59-.56,.56-.26,.99-.7,1.53-.98,.1-.05,.18-.15,.27-.23,.31-.28,.61-.54,.96-.77,.35-.23,.71-.51,.94-.94,.25-.47,.61-.89,1.04-1.26,.34-.29,.56-.7,.84-1.06,.25-.33,.51-.65,.77-.97,.13-.16,.3-.3,.43-.46,.31-.37,.31-.39,.02-.79h0Zm-30.45,6.25c0,.32,.11,.41,.29,.32,.14-.07,.27-.16,.4-.25,.29-.21,.44-.64,.91-.59,.02,0,.04-.06,.07-.09,.11-.1,.22-.2,.34-.3,.5-.43,.91-.93,1.18-1.54,.12-.27,.05-.36-.18-.52-.22-.16-.44-.03-.66-.05-.2-.02-.34,.06-.47,.21-.06,.08-.13,.16-.22,.21-.49,.26-.82,.69-1.1,1.13-.31,.48-.48,1.02-.57,1.47Zm-7.21,11.53c-.09-.05-.18-.16-.27-.15-.44,.03-.79-.17-1.14-.4-.26-.16-.59-.2-.82-.44-.02-.02-.08-.02-.12,0-.21,.09-.44,.17-.63,.31-.11,.08-.14,.26-.19,.41-.09,.29-.08,.34,.17,.48,.4,.21,.79,.44,1.28,.36,.1-.02,.21-.02,.3,0,.48,.18,.85-.11,1.25-.28,.07-.03,.1-.16,.16-.28Z"/>
        <path d="M24.05,30.91c-.06,.59-.12,1.18-.18,1.76-.47,.97-.14,2-.23,2.99,.19,.61,.16,1.27,.43,1.87,.2,.46,.27,.97,.44,1.44,.22,.61,.61,1.13,1,1.64,.48,.61,1.09,1.11,1.56,1.71,.53,.68,1.19,1.19,1.91,1.61,.52,.3,.97,.73,1.56,.89,.36,.47,.94,.46,1.42,.65,.47,.18,.94,.35,1.46,.41,.31,.03,.61,.12,.9,.23,.44,.16,.9,.1,1.35,.13,.25,.02,.5,.01,.76,.08,.29,.07,.61,.09,.93-.05,.24-.11,.54-.08,.8-.16,.5-.15,1.01-.25,1.5-.45,.33-.13,.55-.41,.9-.51,.18-.05,.32-.28,.57-.26,.08,0,.16-.1,.24-.16,.2-.16,.38-.36,.61-.46,.43-.19,.72-.54,1.07-.83,.36-.29,.62-.66,.86-1.02,.18-.26,.23-.6,.34-.91,.03-.07,.04-.16,.09-.21,.05-.05,.13-.07,.2-.08,.02,0,.07,.09,.07,.14,0,.14-.02,.27-.04,.41-.01,.08-.07,.15-.07,.22-.04,.66-.44,1.09-.9,1.5-.06,.05-.13,.1-.17,.17-.26,.51-.67,.84-1.21,1.03-.06,.02-.09,.11-.15,.15-.32,.22-.64,.44-1.02,.57-.27,.09-.51,.27-.77,.41-.24,.13-.46,.3-.71,.4-.25,.1-.51,.15-.75,.31-.17,.11-.41,.12-.62,.15-.37,.06-.74,.11-1.1,.15-.21,.03-.41,.07-.62,.07-.21,0-.43-.04-.64-.08-.21-.03-.43-.11-.63-.1-.7,.05-1.35-.24-2.04-.26-.07,0-.14-.05-.22-.08-.49-.13-.98-.26-1.46-.4-.19-.05-.37-.14-.53-.24-.62-.38-1.23-.76-1.84-1.16-.51-.33-1-.69-1.49-1.04-.06-.05-.13-.1-.17-.17-.39-.58-.91-1.04-1.45-1.48-.23-.54-.75-.85-1.06-1.32-.09-.15-.16-.31-.24-.46-.03-.05-.05-.12-.1-.14-.45-.21-.55-.7-.86-1.02-.14-.15-.18-.42-.23-.65-.08-.36-.08-.74-.36-1.03-.06-.07-.11-.17-.12-.26-.07-.45-.26-.85-.39-1.28-.03-.11-.06-.22-.08-.34-.06-.37,.06-.75-.1-1.12-.06-.13,.09-.34,.08-.51-.05-.98,.32-1.88,.52-2.81,.04-.16,.2-.29,.28-.45,.07-.14,.15-.29,.15-.44,0-.44-.43-.68-.81-.42-.22,.15-.46,.2-.69,.29-.19,.08-.43,.11-.52,.35-.01,.04-.04,.09-.06,.09-.64,.14-.97,.71-1.48,1.05-.49,.33-.92,.74-1.38,1.12-.24,.2-.48,.4-.73,.6-.07,.06-.16,.11-.25,.13-.26,.07-.47,.18-.58,.44-.03,.06-.11,.11-.18,.15-.46,.23-.83,.6-1.22,.91-.11,.08-.22,.2-.35,.21-.4,.04-.72,.29-1.06,.45-.24,.11-.44,.32-.68,.45-.18,.11-.39,.17-.58,.26-.28,.12-.57,.23-.86,.36-.11,.05-.2,.13-.31,.17-.73,.26-1.47,.51-2.2,.75-.13,.04-.3,.07-.41,.02-.15-.07-.28-.2-.37-.34-.02-.03,.1-.19,.19-.27,.23-.22,.47-.41,.82-.26,.06,.03,.18-.04,.26-.08,.69-.33,1.37-.68,1.97-1.15,.25-.19,.51-.36,.78-.53,.67-.42,1.29-.91,1.82-1.5,.21-.23,.56-.31,.68-.64,.62-.39,.98-1.02,1.43-1.56,.23-.27,.46-.54,.68-.82,.19-.25,.37-.51,.53-.77,.5-.8,1.17-1.48,1.54-2.36,.35-.84,.74-1.67,.98-2.56,.03-.13,.03-.27,.05-.41,.02-.28-.08-.56,0-.85,.05-.14-.02-.27-.14-.36-.26-.21-.52-.43-.79-.62-.25-.18-.6-.23-.83-.39-.45-.31-.91-.19-1.37-.2-.11,0-.22,.06-.33,.1-.25,.11-.48,.28-.78,.25-.05,0-.13,.01-.17,.05-.47,.43-1.13,.52-1.63,.91-.12,.09-.28,.12-.43,.17-.2,.07-.38,.19-.57,.28-.48,.25-.92,.56-1.42,.77-.4,.16-.78,.39-1.18,.57-.05,.02-.08,.09-.13,.12-.35,.23-.47,.54-.43,.96,.09,.94-.14,1.83-.5,2.69-.2,.47-.33,.96-.71,1.34-.06,.06-.07,.17-.1,.26-.03,.09-.03,.21-.1,.27-.37,.32-.5,.79-.75,1.18-.16,.25-.32,.5-.53,.7-.35,.34-.65,.72-1.02,1.05-.5,.45-.94,.97-1.36,1.49-.12,.14-.25,.23-.38,.35-.27,.24-.53,.51-.83,.71-.46,.31-.9,.65-1.44,.85-.41,.15-.82,.12-1.23,.12-.14,0-.3-.1-.41-.2C.35,36.26,.02,35.59,0,34.74c-.01-.6,.16-1.11,.5-1.59,.65-.91,1.38-1.74,2.22-2.48,.68-.6,1.42-1.12,2.23-1.51,.58-.28,1.17-.56,1.84-.53,.17,0,.34,.07,.51,.1,.11,.02,.25-.01,.27,.16,.02,.14,.03,.28-.1,.38-.02,.01-.03,.03-.04,.04-.34,.15-.64,.38-.91,.63-.28-.04-.33,.24-.49,.36-.57,.41-1.15,.81-1.73,1.22-.11,.08-.21,.18-.31,.28-.68,.67-1.3,1.4-1.87,2.17-.39,.53-.77,1.04-1.02,1.64-.06,.14-.1,.3-.11,.45-.02,.35,.06,.45,.39,.57l.86-.08c.4-.2,.79-.4,1.19-.61,.02,0,.05,0,.06,0,.22-.19,.42-.4,.65-.56,.22-.15,.52-.17,.62-.49,.03-.1,.15-.18,.24-.26,.47-.42,.89-.89,1.33-1.34,.1-.1,.2-.2,.27-.31,.14-.22,.28-.42,.54-.53,.09-.03,.17-.12,.22-.2,.21-.31,.4-.62,.6-.93,.19-.31,.28-.69,.62-.9,.04-.39,.36-.63,.5-.97,.15-.34,.26-.69,.41-1.03,.25-.58,.42-1.18,.37-1.83-.02-.23,.08-.46,.1-.69,.01-.15,.03-.39-.05-.45-.14-.1-.35-.1-.54-.11-.62-.03-1.19-.12-1.75-.51-.48-.34-.7-.84-1.05-1.25-.08-.09-.06-.3-.02-.44,.05-.18,.17-.35,.26-.53,.27-.5,.66-.63,1.18-.36,.26,.13,.51,.28,.77,.43,.03,.02,.07,.05,.09,.08,.24,.52,.76,.85,.94,1.41,.02,.07,.06,.14,.1,.21,.07,.13,.1,.33,.21,.39,.19,.11,.4-.02,.55-.13,.48-.35,1.04-.5,1.53-.86,.6-.44,1.34-.68,2-1.04,.75-.41,1.53-.77,2.32-1.07,.5-.19,1.05-.32,1.58-.34,.34-.01,.7,.21,1.04,.35,.23,.1,.46,.23,.65,.39,.16,.13,.38,.2,.47,.43,.05,.12,.17,.24,.29,.29,.49,.23,.61,.69,.72,1.15,.16,.68,.11,1.35,.04,2.04-.06,.64-.34,1.2-.41,1.82-.02,.13-.06,.27-.13,.39-.44,.72-.6,1.58-1.13,2.25-.03,.04-.04,.11-.06,.16-.02,.11,.09,.21,.18,.15,.33-.2,.73-.26,1-.6,.15-.19,.4-.31,.61-.45,.23-.14,.48-.26,.71-.41,.48-.29,1.23-.27,1.66,.09,.19,.15,.29,.37,.28,.62,0,.3,0,.6,0,.9,.01,0,.03,0,.04,0ZM7.57,22.39c-.06,.03-.11,.05-.15,.09-.26,.26-.29,.62-.44,.94-.03,.06,0,.16,.03,.23,.34,.57,.77,1.04,1.44,1.22,.24,.06,.51,.04,.76,.08,.33,.06,.51-.08,.39-.39-.1-.25-.24-.48-.39-.7-.15-.23-.39-.41-.49-.66-.12-.29-.51-.22-.58-.53,0-.02-.02-.04-.04-.04-.17-.08-.35-.16-.53-.24Z"/>
        <path d="M117.17,20.79c.04,.7,.14,1.45,.1,2.2-.04,.81-.1,1.64-.46,2.39-.03,.05-.05,.11-.08,.16-.13,.19-.29,.37-.38,.58-.08,.19-.06,.43-.14,.62-.1,.23-.25,.44-.39,.64-.22,.32-.45,.64-.67,.96-.14,.21-.31,.41-.42,.63-.29,.56-.83,.87-1.22,1.33-.53,.63-1.17,1.15-1.62,1.84-.04,.06-.1,.13-.17,.17-.47,.22-.77,.64-1.17,.95-.34,.26-.7,.5-1.05,.75-.35,.25-.7,.5-1.05,.75-.03,.02-.05,.06-.09,.08-.31,.16-.64,.28-.93,.48-.27,.19-.5,.44-.85,.5-.09,.02-.19,.07-.26,.13-.31,.25-.67,.38-1.06,.49-.33,.09-.61,.33-.94,.45-.4,.14-.79,.31-1.18,.48-.23,.1-.5,.12-.68,.33-.06,.07-.18,.14-.26,.12-.41-.08-.71,.21-1.05,.32-.32,.1-.64,.26-.95,.43-.59,.33-1.2,.32-1.83,.11-.46-.16-.95-.19-1.41-.11-.65,.12-1.22-.07-1.81-.28-.14-.05-.3-.09-.45-.1-.45-.02-.84-.16-1.18-.45-.35-.29-.72-.54-1.06-.84-.2-.18-.37-.41-.53-.63-.16-.22-.3-.46-.44-.69-.26-.41-.51-.83-.76-1.24-.04-.06-.05-.15-.06-.22-.13-.78,.02-1.56,.03-2.34,0-.27,.18-.57,.35-.79,.36-.47,.61-1.01,.95-1.48,.37-.52,.69-1.1,1.28-1.44,.22-.13,.3-.43,.56-.58,.39-.22,.72-.54,1.09-.81,.52-.39,1.09-.66,1.76-.72,.23-.02,.44-.05,.67,0,.21,.04,.46-.04,.65,.03,.39,.13,.76,.31,1.11,.51,.11,.06,.17,.27,.18,.42,.03,.42,0,.82-.34,1.14-.14,.13-.24,.31-.35,.47-.5,.8-1.26,1.3-2.05,1.74-.45,.25-.98,.41-1.52,.14-.14-.07-.26-.17-.38-.26-.19-.15-.3-.15-.46,.02-.09,.1-.15,.23-.23,.34-.21,.28-.38,.62-.64,.83-.29,.23-.25,.67-.61,.82-.27,.5-.59,.98-.79,1.51-.18,.47-.18,.99-.04,1.48,.15,.55,.44,1.06,.79,1.49,.29,.35,.73,.59,1.13,.83,.4,.23,.84,.37,1.33,.39,.27,.01,.51,.27,.8,.28,.12,0,.29,.09,.34,.04,.27-.26,.55,.03,.83-.04,.24-.06,.52,.1,.79,.14,.4,.06,.81,.09,1.22,.16,.44,.07,.79-.18,1.15-.34,.51-.23,.99-.53,1.54-.68,.35-.1,.68-.27,1.02-.41,.48-.2,.96-.41,1.44-.61,.34-.14,.73-.16,1-.46,.56,.02,.92-.36,1.34-.65,.16-.11,.34-.18,.51-.27,.31-.16,.61-.39,.95-.46,.38-.08,.45-.46,.77-.59,.32-.13,.59-.38,.86-.6,.46-.36,.91-.75,1.38-1.11,.34-.27,.62-.6,.91-.91,.29-.32,.57-.66,.87-.97,.3-.32,.61-.63,.92-.94,.53-.51,.96-1.09,1.29-1.75,.09-.17,.21-.33,.35-.47,.27-.27,.44-.59,.56-.95,.1-.29,.26-.56,.38-.85,.1-.23,.16-.48,.25-.71,.34-.86,.39-1.75,.28-2.66-.02-.14,.06-.3,.03-.44-.13-.61-.08-1.22-.13-1.83-.04-.46-.31-.87-.49-1.29-.31-.74-.86-1.31-1.3-1.96-.06-.09-.17-.16-.27-.2-.23-.1-.47-.18-.71-.26-.1-.03-.22-.03-.18-.16,.02-.06,.15-.09,.24-.1,.42-.05,.78,.08,1.05,.42,.32,.4,.63,.81,.95,1.21,.03,.05,.04,.12,.08,.16,.47,.36,.53,.94,.77,1.42,.26,.51,.26,1.06,.24,1.62,0,.04,0,.08,0,.17Zm-18.23,6.51c.01-.44-.08-.59-.37-.71-.29-.11-.54-.1-.79,.14-.59,.56-1.3,.96-1.91,1.49-.46,.4-.71,.87-.87,1.41-.09,.32,.08,.52,.42,.54,.13,0,.28-.01,.4-.05,.56-.17,1.09-.43,1.54-.82,.19-.17,.42-.3,.59-.49,.33-.39,.51-.88,.89-1.24,.09-.08,.09-.25,.1-.27Z"/>
        <path d="M89.59,19.39c-.26,.13-.51,.05-.69-.11-.25-.23-.55-.34-.84-.46-.6-.26-1.12-.65-1.65-1.01-.32-.22-.52-.59-.8-.86-.53-.52-1.13-.95-1.81-1.28-.59-.29-1.09-.77-1.66-1.11-.81-.49-1.45-1.21-2.31-1.63-.41-.51-1.08-.64-1.53-1.1-.28-.29-.66-.5-1.03-.66-.74-.33-1.36-.84-2.07-1.22-.27-.14-.56-.26-.84-.41-.57-.31-1.08-.71-1.6-1.1-.44-.33-.94-.56-1.45-.77-.4-.17-.77-.36-1.13-.62-.56-.4-1.21-.64-1.87-.82-.66-.18-1.31-.36-1.92-.69-.6-.33-1.28-.48-1.94-.62-.89-.19-1.77-.47-2.66-.64-.46-.09-.94-.07-1.42-.1-.23-.01-.48,.08-.7-.08-.52,.12-1.04-.06-1.56-.06-.52,0-1.02,.09-1.53,.16-.17,.02-.38,.24-.47,.19-.22-.12-.37,.04-.55,.03-.83-.03-1.56,.31-2.3,.6-.32,.13-.67,.2-.94,.46-.1,.09-.29,.11-.44,.12-.67,.04-1.22,.4-1.78,.71-.53,.29-1.02,.62-1.56,.88-.36,.18-.69,.45-1,.72-.57,.5-1.13,1.03-1.67,1.56-.3,.29-.51,.68-.84,.92-.51,.37-.76,.94-1.19,1.36-.59,.57-.93,1.31-1.24,2.05-.02,.05-.02,.12-.05,.17-.22,.31-.3,.66-.4,1.02-.09,.35-.17,.68-.16,1.04,.01,.44,0,.88,0,1.32,0,.06,.02,.13,0,.18-.19,.48,.05,.9,.16,1.34,.05,.21,.08,.42,.14,.63,.12,.46,.38,.85,.67,1.23,.46,.61,.96,1.19,1.53,1.71,.16,.14,.34,.21,.52,.25,.93,.21,1.83,.27,2.76-.1,.68-.27,1.35-.59,2.1-.7,.39-.06,.75-.31,1.11-.51,.43-.23,.84-.5,1.26-.76,.18-.11,.35-.26,.52-.38,.59-.41,1.23-.78,1.77-1.25,.51-.44,1.04-.86,1.52-1.35,.54-.55,1.15-1.04,1.69-1.59,.34-.35,.62-.76,.94-1.14,.27-.32,.54-.63,.81-.95,.36-.44,.71-.89,1.09-1.32,.21-.24,.44-.46,.68-.68,.06-.06,.16-.06,.25-.09,.02,.09,.07,.2,.04,.28-.05,.16-.13,.33-.23,.47-.27,.36-.53,.72-.77,1.1-.89,1.4-2.01,2.6-3.22,3.72-.57,.52-1.14,1.04-1.75,1.51-1,.76-2,1.52-3.06,2.19-.67,.42-1.43,.68-2.15,1.02-.07,.03-.14,.1-.21,.1-.59,.02-1.08,.33-1.61,.52-.7,.25-1.39,.54-2.16,.44-.68-.08-1.34-.22-1.98-.47-.09-.03-.16-.11-.23-.18-.26-.26-.48-.56-.76-.81-.37-.33-.62-.8-.93-1.21-.25-.33-.44-.68-.51-1.1-.07-.42-.19-.83-.3-1.24-.1-.39-.02-.83-.02-1.25,0-.3,.04-.6,0-.9-.09-.74,.18-1.39,.42-2.05,.11-.29,.24-.57,.37-.86,.06-.14,.11-.3,.21-.42,.75-.99,1.41-2.05,2.36-2.88,.21-.18,.34-.44,.54-.63,.39-.37,.78-.74,1.2-1.06,.18-.13,.35-.24,.44-.45,.01-.03,.05-.08,.08-.09,.46-.06,.64-.52,1.03-.71,.69-.33,1.32-.79,2.01-1.1,.49-.22,.96-.52,1.53-.57,.21-.02,.41-.13,.6-.23,.66-.35,1.38-.54,2.08-.78,.09-.03,.19-.05,.29-.05,.8,.03,1.54-.24,2.3-.41,.55-.12,1.1-.07,1.65-.04,.17,0,.34,.07,.52,.08,.79,.04,1.59-.06,2.37,.12,.17,.04,.34,.08,.51,.12,.55,.12,1.11,.23,1.65,.37,.54,.15,1.09,.26,1.65,.38,.3,.07,.61,.19,.86,.37,.64,.44,1.39,.6,2.12,.79,.57,.15,1.1,.39,1.62,.66,.71,.37,1.41,.78,2.14,1.11,.23,.11,.45,.23,.66,.37,.43,.27,.82,.61,1.25,.88,.57,.34,1.16,.63,1.74,.96,.41,.23,.8,.48,1.22,.69,.33,.16,.59,.46,.98,.52,.05,0,.1,.07,.14,.11,.54,.52,1.23,.84,1.81,1.31,.53,.43,1.12,.79,1.68,1.2,.52,.38,1.09,.69,1.6,1.1,.32,.26,.68,.52,1.09,.66,.28,.09,.51,.28,.73,.49,.54,.53,1.1,1.03,1.66,1.54,.49,.44,1.07,.72,1.65,1.01,.31,.16,.63,.32,.92,.51,.12,.08,.21,.23,.31,.34h0Z"/>
        <path d="M80.12,19.39c-.02,.27-.13,.5-.35,.65-.56,.39-1.12,.78-1.69,1.15-.25,.16-.35,.4-.48,.64-.03,.07-.04,.15-.08,.22-.09,.14-.25,.14-.33-.02-.04-.08-.09-.2-.06-.28,.16-.49,.09-1.06,.54-1.45,.18-.16,.33-.41,.38-.65,.08-.36,.3-.58,.61-.66,.29-.08,.62-.05,.93-.05,.09,0,.18,.06,.28,.09,.18,.05,.26,.16,.25,.35Z"/>
        <path d="M37.39,32.11c-.09-.02-.2-.06-.31-.07-.13,0-.26,0-.39,.01-.13,0-.31,.06-.39,0-.18-.13-.3,.03-.44,.03-.12,0-.22-.18-.37-.04-.03,.03-.14,0-.21-.01-.41-.09-.81-.07-1.23,.01-.37,.07-.73,.21-1.13,.07-.4-.14-.84-.17-1.26-.25-.08-.01-.15-.04-.22-.07-.19-.08-.3-.23-.22-.34,.11-.15,.2,0,.3,.02,.65,.15,1.31,.36,1.97,.24,.52-.1,1.02-.07,1.53-.1,.28-.02,.56,.08,.85,.02,.29-.06,.6-.02,.9-.02,.24,0,.47,.08,.69,.09,.36,.02,.73-.11,1.09-.17,.06-.01,.11-.04,.17-.04,.05,0,.13,.03,.15,.07,.02,.04,0,.13-.04,.16-.11,.08-.22,.18-.35,.21-.34,.07-.69,.11-1.07,.17Z"/>
      </g>
    </g>
  </g>
</svg>
