<?xml version="1.0" encoding="UTF-8"?>
<svg id="Layer_2" data-name="Layer 2" xmlns="http://www.w3.org/2000/svg" viewBox="0 0 147.14 52.74">
  <g id="Layer_1-2" data-name="Layer 1">
    <g id="_54BzoE.tif" data-name="54BzoE.tif">
      <g>
        <path d="M67.22,.01c.29,0,.47,.01,.65,0,.69-.05,1.33,.04,1.92,.44,.17,.12,.4,.14,.61,.19,.7,.17,1.4,.32,2.01,.75,.75,.53,1.59,.9,2.43,1.29,.79,.36,1.59,.76,2.22,1.41,.4,.41,.87,.74,1.32,1.09,.17,.13,.3,.28,.41,.47,.13,.24,.3,.46,.48,.67,.24,.27,.49,.52,.76,.77,.62,.57,1.1,1.24,1.49,1.97,.06,.12,.14,.23,.24,.33,.33,.34,.68,.68,1.01,1.02,.32,.33,.58,.68,.7,1.14,.1,.4,.24,.44,.59,.2,.42-.29,.82-.6,1.22-.93,.44-.37,.85-.77,1.29-1.14,.38-.33,.79-.63,1.27-.82,.18-.07,.32-.22,.48-.34,.32-.23,.64-.46,.95-.69,.13-.09,.25-.19,.38-.28,.16-.11,.31-.28,.49-.32,.22-.05,.31-.18,.45-.32,.21-.22,.49-.44,.78-.51,.5-.13,.9-.45,1.37-.62,.34-.12,.65-.35,.99-.5,.15-.07,.35-.11,.51-.09,.18,.03,.44,.09,.47,.29,.02,.14-.11,.31-.2,.46-.05,.08-.14,.15-.21,.21-.47,.42-1,.78-1.33,1.33-.07,.12-.25,.18-.38,.27-.9,.66-1.81,1.31-2.71,1.97-.36,.27-.74,.49-1.08,.8-.38,.36-.83,.65-1.25,.97-.2,.15-.41,.29-.6,.44-.23,.18-.51,.34-.67,.57-.26,.39-.64,.64-.99,.91-.12,.09-.14,.17-.15,.28-.02,.16,.1,.17,.2,.25,.42,.33,.92,.52,1.36,.8,.27,.16,.55,.31,.79,.5,.16,.13,.32,.21,.51,.27,.43,.13,.85,.28,1.28,.4,.26,.08,.49,.04,.7-.18,.39-.39,.82-.74,1.22-1.13,.14-.13,.22-.33,.37-.46,.35-.32,.7-.64,1.07-.94,.57-.47,1.17-.9,1.68-1.45,.35-.37,.76-.7,1.21-.94,.37-.19,.58-.57,.98-.7,.06-.2,.26-.22,.4-.3,.18-.11,.42-.14,.47-.41,.01-.05,.07-.1,.12-.13,.48-.3,.96-.6,1.44-.9,.27-.17,.54-.33,.79-.51,.14-.11,.29-.17,.46-.24,.75-.29,1.53-.48,2.3-.64,.68-.14,1.41-.28,2.12-.15,.42,.08,.84,.19,1.22,.39,.52,.27,1.05,.54,1.48,.96,.29,.28,.41,.57,.29,.99-.1,.35,.01,.75-.15,1.11-.04,.09-.03,.2-.09,.27-.31,.43-.47,.94-.7,1.41-.12,.24-.29,.47-.46,.68-.27,.34-.55,.67-.85,.99-.54,.59-1.07,1.18-1.63,1.74-.38,.37-.81,.69-1.22,1.03-.17,.15-.34,.3-.51,.46-.78,.74-1.74,1.21-2.63,1.77-.16,.1-.36,.08-.55,.18-.59,.33-1.2,.64-1.85,.84-.22,.07-.41,.23-.63,.32-.52,.22-1.01,.55-1.61,.51-.52,.29-1.11,.33-1.67,.51-.35,.11-.72,.16-1.09,.21-.39,.05-.8,.17-1.17,.09-.58-.13-1.18,0-1.75-.19-.23-.08-.52-.04-.77,0-.21,.03-.39,.13-.52,.34-.31,.48-.61,.97-.99,1.38-.47,.52-.85,1.11-1.26,1.68-.49,.66-.95,1.35-1.48,1.98-.26,.31-.4,.71-.66,1.04-.18,.23-.4,.43-.55,.65-.21,.31-.41,.62-.66,.9-.12,.13-.22,.27-.32,.42-.06,.09-.11,.19-.16,.29,.09,.02,.18,.06,.28,.06,.46,.02,.9-.04,1.33-.21,.18-.07,.37-.13,.56-.15,.36-.03,.63-.21,.82-.49,.2-.31,.48-.52,.79-.7,.2-.12,.44-.21,.58-.38,.24-.28,.53-.23,.82-.22,.07,0,.15,.05,.19,.1,.09,.1,.18,.22,.21,.34,0,.04-.18,.12-.27,.19-.11,.09-.22,.18-.3,.29-.5,.65-1,1.31-1.49,1.97-.14,.19-.21,.4-.15,.67,.07,.33-.26,.66-.57,.61-.13-.02-.27-.05-.39-.1-.06-.02-.13-.1-.13-.15-.01-.22-.04-.41-.2-.6-.08-.1-.04-.3-.06-.46-.02-.22-.11-.31-.3-.18-.26,.17-.54,.1-.81,.17-.28,.07-.58,.09-.86,.16-.37,.1-.74,.23-1.11,.36-.06,.02-.13,.09-.15,.15-.14,.35-.48,.56-.58,.94-.04,.13-.17,.28-.32,.39-.26,.2-.44,.5-.65,.75-.09,.11-.16,.23-.25,.33-.4,.44-.8,.88-1.2,1.32-.46,.51-.97,.98-1.38,1.52-.4,.53-1.02,.79-1.44,1.29-.11,.13-.21,.28-.33,.41-.11,.11-.23,.22-.35,.31-.5,.37-1.01,.74-1.52,1.11-.21,.15-.41,.3-.62,.45-.27,.2-.52,.42-.8,.6-.42,.28-.86,.54-1.3,.81-.24,.15-.29,.27-.23,.56,.05,.23,.07,.47,.16,.68,.24,.49,.55,.92,1.17,.95,.09,0,.2,.03,.26,.09,.05,.05,.09,.19,.06,.24-.04,.07-.19,.15-.23,.12-.39-.26-.91-.25-1.27-.58-.07-.07-.21-.12-.21-.19,0-.22-.17-.28-.3-.39-.14-.11-.29-.23-.12-.44,.03-.04-.04-.21-.11-.23-.24-.1-.54-.16-.72,.03-.26,.28-.63,.31-.93,.49-.33,.2-.69,.35-1.05,.51-.23,.1-.47,.18-.72,.22-.52,.1-1.03,.21-1.47,.53-.3,.23-.66,.05-.99,.16-.25,.08-.52,.02-.77,.22-.16,.13-.45,.16-.67,.15-.47-.02-.88,.17-1.3,.32-.19,.07-.34,.1-.54,.06-.17-.03-.35,.02-.53,.04-.09,0-.18,.01-.27,0-.4-.08-.4-.08-.52,.31-.01,.04-.05,.07-.05,.11,.02,.31,.14,.65,.06,.92-.1,.3-.2,.58-.2,.91,0,.28,.08,.54,.04,.84-.04,.31,.2,.65,.3,.99,.22,.72,.62,1.35,1,1.99,.3,.51,.75,.9,1.22,1.26,.17,.13,.44,.14,.66,.23,.05,.02,.08,.11,.12,.17-.06,.01-.12,.04-.17,.03-.17-.03-.35-.05-.51-.11-.84-.34-1.38-.98-1.83-1.74-.35-.59-.61-1.21-.93-1.81-.18-.33-.24-.65-.24-1,0-.34-.02-.69,0-1.03,.02-.34,0-.68,.02-1.02,.01-.21,.09-.42,.12-.63,.02-.19-.07-.25-.27-.23-.11,0-.22,0-.34-.02-.1-.01-.2-.07-.29-.04-.68,.22-1.38,.07-2.07,.11-.34,.02-.68,0-1.02,0-.1,0-.22,0-.29-.04-.39-.27-.83-.29-1.28-.32-.51-.03-.98-.21-1.43-.43-.21-.1-.42-.22-.65-.26-.19-.04-.31-.09-.42-.26-.08-.12-.28-.2-.44-.22-.36-.04-.68-.16-.97-.37-.19-.14-.4-.24-.6-.37-.07-.04-.16-.08-.18-.14-.19-.55-.72-.67-1.14-.93-.08-.05-.18-.08-.26-.13-.12-.06-.11-.16-.02-.23,.04-.04,.16-.06,.18-.04,.18,.21,.42,.24,.68,.3,.23,.05,.48,.22,.63,.4,.37,.47,.91,.69,1.39,.99,.19,.12,.45,.11,.66,.22,.31,.16,.63,.32,.9,.54,.39,.31,.85,.38,1.3,.45,.43,.07,.86,.08,1.29,.13,.09,.01,.19,.05,.27,.1,.29,.19,.62,.18,.92,.11,.51-.12,1-.14,1.51,0,.22,.06,.49,.06,.71,0,.37-.11,.74-.08,1.12-.1,.12,0,.19-.03,.27-.16,.14-.23,.28-.43,.37-.72,.32-1.09,.84-2.1,1.54-2.99,.17-.21,.43-.35,.62-.54,.48-.5,.94-1.02,1.44-1.51,.2-.2,.44-.37,.67-.55,.8-.63,1.54-1.35,2.46-1.81,.16-.08,.27-.23,.42-.34,.45-.35,.91-.67,1.4-.95,.35-.2,.67-.45,1.09-.53,.27-.05,.39-.23,.43-.55,.08-.54,.21-1.08,.22-1.64,0-.07,.05-.15,.1-.21,.2-.22,.22-.48,.26-.76,.06-.4,.21-.79,.35-1.17,.24-.62,.5-1.22,.76-1.83,.34-.23,.38-.63,.57-.94,.19-.3,.37-.6,.55-.9,.65-1.05,1.38-2.04,1.97-3.12,.05-.09,.12-.16,.18-.23,.44-.56,.87-1.11,1.31-1.67,.03-.04,.06-.15,.04-.16-.06-.04-.15-.09-.2-.07-.16,.07-.35,.13-.45,.26-.45,.53-1.15,.77-1.52,1.38-.37,.08-.57,.45-.95,.55-.35,.09-.56,.45-.85,.68-.37,.3-.69,.67-1.08,.92-.3,.19-.56,.4-.77,.67-.48,.09-.7,.55-1.1,.76-.3,.16-.52,.45-.8,.66-.39,.29-.72,.65-1.18,.87-.31,.15-.55,.44-.83,.66-.11,.08-.22,.16-.35,.22-.27,.12-.51,.26-.67,.54-.12,.21-.34,.32-.64,.36-.35,.05-.73,.09-1.04,.36-.21,.19-.48,.13-.72-.01-.56-.33-.96-.81-1.21-1.38-.15-.33-.25-.69-.26-1.08-.02-.84,.32-1.53,.84-2.13,.31-.36,.62-.72,.79-1.17,.16-.44,.56-.69,.83-1.03,.36-.43,.78-.81,1.06-1.31,.14-.25,.4-.44,.62-.64,.39-.33,.78-.66,1.19-.97,.71-.55,1.33-1.2,1.96-1.83,.42-.42,.61-.96,.62-1.54,0-.28,.16-.57,.02-.85-.04-.09-.06-.18-.1-.27-.12-.25-.18-.24-.39-.03-.21,.2-.44,.39-.68,.55-.47,.31-.97,.59-1.45,.88-.08,.05-.18,.06-.27,.09-.07,.02-.18,.02-.22,.07-.32,.43-.87,.42-1.28,.68-.05,.03-.11,.09-.15,.08-.57-.06-.99,.31-1.47,.49-.13,.05-.26,.07-.39,.12-.2,.07-.43,.11-.59,.23-.2,.15-.43,.2-.61,.1-.18-.1-.29-.02-.44,.02-.36,.09-.72,.19-1.08,.23-.18,.02-.38-.08-.56-.14-.13-.04-.24-.14-.37-.18-.28-.09-.4,0-.45,.35-.02,.16-.02,.31-.05,.47-.06,.29,.11,.62-.11,.87-.2,.23-.15,.54-.35,.79-.24,.31-.35,.73-.52,1.09-.05,.1-.13,.2-.21,.28-.19,.2-.38,.36-.42,.69-.02,.18-.25,.36-.37,.55-.31,.48-.65,.93-.99,1.39-.15,.2-.41,.28-.52,.54-.1,.21-.31,.38-.47,.56-.05,.06-.11,.12-.18,.16-.66,.36-1.19,.87-1.73,1.37-.33,.3-.64,.63-1.1,.81-.35,.14-.63,.17-.95,.02-.18-.08-.36-.16-.53-.26-.5-.28-.76-.7-.8-1.27-.02-.25,.04-.51-.1-.75-.05-.08-.02-.27,.04-.33,.18-.18,.19-.43,.29-.63,.17-.36,.34-.72,.67-.96,.42-.31,.66-.77,.98-1.16,.5-.6,1.07-1.1,1.71-1.54,.53-.37,1.01-.82,1.55-1.16,.74-.47,1.56-.62,2.42-.32,.22,.08,.24,.17,.08,.32-.22,.21-.45,.42-.68,.62-.26,.23-.51,.47-.77,.7-.27,.23-.51,.52-.82,.67-.48,.25-.76,.66-1.07,1.05-.06,.08-.12,.17-.21,.21-.56,.27-.96,.73-1.38,1.17-.18,.19-.38,.35-.57,.52-.05,.05-.1,.11-.13,.17-.32,.68-.71,1.33-.88,2.08-.05,.23,0,.35,.21,.37,.66,.06,1.19-.2,1.63-.67,.05-.06,.07-.19,.12-.19,.39-.05,.55-.43,.87-.57,.24-.11,.43-.27,.62-.45,.32-.29,.66-.56,.98-.86,.33-.31,.59-.68,.79-1.09,.16-.33,.37-.63,.66-.87,.07-.06,.16-.16,.15-.23,0-.23,.11-.38,.24-.52,.37-.39,.45-.95,.84-1.32,.34-.83,.71-1.66,.6-2.6-.03-.25-.1-.47-.42-.45-.07,0-.17-.04-.2-.09-.15-.27-.51-.22-.68-.52-.12-.22-.41-.35-.63-.52-.49-.39-.79-.94-1.14-1.44-.28-.39-.19-.91-.15-1.39,0-.05,.11-.1,.17-.14,.38-.25,.72-.04,1.05,.13,.85,.44,1.32,1.27,1.94,1.94,.09,.37,.4,.69,.31,1.11-.02,.1-.01,.2,0,.3,.08,.48,.23,.58,.69,.74,.66,.23,1.28,.02,1.92-.05,.11-.01,.22-.03,.34-.03,.23,0,.45-.01,.66-.12,.15-.08,.31-.19,.47-.21,.41-.05,.79-.22,1.17-.36,.18-.06,.38-.06,.53-.24,.09-.1,.29-.18,.42-.17,.49,.05,.8-.29,1.17-.49,.43-.23,.84-.49,1.26-.73,.57-.32,1.12-.67,1.57-1.14,.15-.15,.27-.3,.22-.52-.05-.22,.05-.39,.15-.56,.26-.46,.42-.98,.83-1.35,.26-.23,.57-.4,.78-.71,.19-.28,.87-.11,1.07,.22,.03,.04,.04,.11,.03,.16-.02,.07-.05,.15-.1,.21-.27,.36-.52,.74-.83,1.07-.28,.3-.54,.63-.86,.87-.37,.28-.37,.64-.33,1.01,.03,.23,.14,.44,.2,.66,.16,.55,.24,1.11,.04,1.68-.03,.07-.03,.16-.02,.23,.08,.49-.16,.87-.4,1.25-.27,.43-.49,.91-.85,1.26-.24,.24-.39,.53-.61,.76-.23,.24-.5,.45-.75,.67-.03,.03-.05,.06-.09,.08-.31,.17-.31,.57-.62,.76-.28,.17-.59,.33-.72,.67-.54,.38-.76,1.05-1.3,1.43-.11,.08-.21,.17-.32,.25-.05,.04-.13,.06-.14,.1-.15,.62-.8,.86-1.05,1.4-.32,.67-.64,1.34-.6,2.12,.02,.33,.16,.51,.49,.56,.13,.02,.3,.03,.41-.02,.4-.19,.86-.25,1.22-.55,.23-.18,.51-.28,.76-.44,.3-.19,.58-.4,.86-.61,.11-.08,.19-.22,.31-.27,.48-.17,.8-.57,1.23-.8,.36-.57,1-.8,1.49-1.21,.31-.26,.63-.55,1-.76,.26-.15,.46-.41,.7-.6,.57-.45,1.07-.97,1.78-1.23,.21-.07,.4-.29,.51-.49,.11-.19,.25-.29,.43-.38,.09-.05,.21-.08,.25-.15,.22-.4,.66-.53,.99-.81,.38-.33,.88-.51,1.18-.94,.03-.05,.15-.04,.22-.07,.16-.07,.32-.13,.39-.32,.03-.09,.12-.17,.2-.21,1-.54,1.65-1.48,2.46-2.23,.45-.42,.84-.9,1.25-1.36,.14-.16,.25-.36,.4-.51,.35-.36,.64-.77,1.05-1.07,.15-.11,.22-.33,.36-.46,.36-.33,.66-.72,1.14-.94,.29-.14,.5-.45,.72-.7,.05-.06,.05-.2,.02-.27-.12-.27-.22-.54-.22-.85,0-.07-.05-.15-.1-.2-.41-.42-.71-.95-1.24-1.26-.39-.23-.49-.69-.73-1.04-.28-.4-.59-.79-.9-1.17-.26-.32-.55-.62-.83-.93-.07-.07-.13-.18-.22-.2-.25-.07-.36-.29-.39-.48-.06-.34-.31-.5-.52-.7-.47-.42-.98-.8-1.44-1.22-.41-.38-.85-.68-1.38-.88-.38-.15-.72-.39-1.09-.57-.81-.39-1.61-.78-2.37-1.28-.34-.23-.8-.28-1.21-.41-.39-.12-.8-.16-1.17-.35-.05-.03-.13-.01-.16-.05-.32-.37-.74-.34-1.16-.31-.23,.01-.48,.13-.69,.07-.23-.07-.42,.02-.61,0-.31-.03-.61,.04-.91,.04-.61-.01-1.19,.08-1.77,.32-.53,.21-1.13,.28-1.7,.39-.15,.03-.21,.1-.31,.19-.23,.2-.52,.33-.79,.47-.28,.14-.54,.3-.77,.53-.21,.2-.49,.33-.74,.48-.29,.16-.49,.33-.68,.56-.15,.18-.32,.36-.5,.52-.29,.26-.59,.54-.8,.85-.47,.71-1.03,1.39-1.26,2.22-.14,.5-.24,1.07-.14,1.57,.15,.77,.2,1.58,.54,2.32,.07,.14,.11,.28,.23,.39,.38,.38,.76,.77,1.14,1.15,.07,.07,.16,.15,.04,.24-.04,.03-.16,0-.2-.04-.43-.42-.86-.83-1.27-1.27-.29-.31-.38-.73-.5-1.11-.1-.29-.09-.62-.14-.93-.03-.17-.06-.35-.12-.51-.14-.4-.18-.79-.03-1.21,.09-.25,.07-.54,.12-.81,.1-.56,.46-.99,.75-1.45,.47-.77,1.11-1.42,1.73-2.07,.41-.44,.94-.78,1.45-1.11,.83-.54,1.68-1.07,2.64-1.36,.82-.24,1.64-.46,2.49-.6,.66-.11,1.31-.04,1.84-.1Zm3.28,33.1c.1-.03,.16-.04,.21-.07,.52-.27,1.05-.52,1.64-.59,.18-.02,.35-.16,.52-.24,.18-.08,.36-.15,.54-.21,.48-.16,.96-.32,1.43-.48,.09-.03,.18-.09,.27-.11,.63-.12,1.27-.14,1.89-.33,.52-.16,1.03-.34,1.56-.47,.25-.06,.43-.19,.58-.38,.4-.52,.78-1.05,1.17-1.58,.06-.08,.12-.16,.17-.24,.22-.32,.46-.64,.66-.97,.28-.47,.48-1,.81-1.43,.58-.77,1.07-1.59,1.64-2.36,.46-.62,.76-1.32,1.25-1.92,.25-.31,.46-.68,.71-1,.53-.71,1.09-1.39,1.63-2.09,.29-.38,.66-.69,.91-1.11,.22-.36,.59-.62,.88-.94,.15-.16,.12-.26-.07-.37-.1-.06-.21-.14-.32-.14-.31,0-.55-.2-.82-.3-.35-.12-.59-.47-1.01-.45-.06,0-.15-.09-.17-.16-.1-.28-.34-.34-.59-.43-.28-.09-.55-.22-.8-.37-.22-.12-.4-.41-.66-.33-.22,.07-.41,.3-.58,.48-.72,.79-1.43,1.59-2.15,2.37-.21,.23-.5,.39-.72,.61-.22,.22-.4,.49-.62,.72-.35,.37-.61,.83-1.07,1.09-.07,.04-.12,.11-.17,.17-.22,.25-.51,.48-.63,.77-.14,.33-.45,.47-.64,.73-.09,.13-.18,.26-.25,.4-.19,.38-.37,.77-.77,1-.11,.06-.15,.22-.23,.33-.2,.28-.35,.58-.63,.82-.35,.3-.67,.69-.88,1.1-.24,.47-.7,.8-.81,1.35-.41,.41-.71,.89-1.01,1.37-.42,.66-.95,1.25-1.26,1.98-.05,.12-.13,.25-.22,.35-.39,.42-.64,.92-.8,1.47-.06,.2-.08,.44-.21,.6-.28,.33-.3,.76-.48,1.13-.02,.04,.05,.14,.08,.21Zm20.74-12.14c.28,0,.52,.06,.71-.01,.33-.12,.67-.19,1.01-.26,.34-.06,.66-.24,1.02-.21,.03,0,.08-.02,.11-.04,.33-.27,.75-.3,1.12-.47,.34-.15,.77-.1,1.05-.43,.46-.08,.87-.3,1.28-.51,.07-.03,.14-.09,.21-.09,.33,0,.53-.21,.78-.38,.23-.16,.53-.22,.79-.34,.19-.1,.35-.27,.54-.35,.54-.2,.95-.61,1.42-.91,.35-.22,.63-.53,.95-.8,.26-.22,.49-.48,.78-.64,.52-.28,.79-.8,1.23-1.17,.42-.36,.72-.85,1.09-1.28,.45-.52,.86-1.06,1.16-1.7,.18-.39,.26-.82,.56-1.16,.09-.1,.11-.29,.14-.44,.04-.25,0-.5,.08-.76,.05-.17-.03-.46-.26-.61-.11-.07-.24-.14-.33-.24-.51-.54-1.18-.64-1.86-.74-.24-.03-.5,0-.68,.15-.24,.21-.45-.11-.72,.05-.5,.29-1.07,.46-1.6,.71-.33,.16-.64,.36-.94,.56-.34,.23-.63,.54-.99,.74-.55,.31-.96,.81-1.53,1.08-.28,.13-.52,.34-.78,.52-.72,.48-1.3,1.12-1.94,1.7-.7,.65-1.29,1.41-2.08,1.96-.16,.11-.33,.24-.27,.49,.05,.22-.1,.31-.26,.39-.57,.27-1.07,.63-1.47,1.11-.12,.15-.21,.34-.36,.46-.56,.47-.89,1.14-1.45,1.62-.49,.42-.85,.98-1.28,1.47-.06,.07-.09,.13,0,.19,.09,.07,.19,.18,.29,.19,.43,.04,.87-.04,1.29,.12,.04,.02,.11-.04,.16-.06,.08-.02,.18-.06,.23-.03,.28,.17,.58,.07,.82,.09Zm-31.67,23.37c.49-.04,.98-.08,1.47-.13,.21-.02,.44-.04,.63-.13,.69-.33,1.42-.51,2.15-.73,.29-.09,.58-.22,.88-.3,.53-.15,1.06-.27,1.47-.66,.04-.04,.1-.07,.15-.08,.5-.07,.89-.38,1.31-.62,.25-.14,.51-.32,.68-.55,.13-.18,.02-.45-.08-.68-.04-.1,0-.24-.01-.35-.02-.13-.04-.27-.11-.38-.13-.22-.14-.45-.13-.69,0-.2-.06-.43,.03-.59,.14-.27-.12-.38-.14-.58,0-.1-.01-.2,0-.3,.06-.28,.15-.56,.21-.84,.06-.27,.11-.53,.14-.8,.03-.27-.03-.55,.11-.81,.03-.05,0-.17-.06-.21-.05-.04-.18-.04-.22,0-.22,.25-.54,.31-.79,.48-.31,.22-.69,.31-.98,.58-.26,.24-.56,.43-.86,.61-.25,.15-.46,.37-.77,.4-.15,.29-.45,.42-.71,.57-.23,.13-.32,.38-.52,.54-.28,.22-.56,.44-.81,.68-.3,.28-.61,.54-.88,.86-.34,.4-.77,.72-1.06,1.17-.16,.26-.52,.39-.52,.76-.49,.16-.54,.65-.72,1.02-.16,.31-.39,.64-.33,1.04,.01,.09-.04,.19-.07,.28-.13,.43-.1,.47,.35,.47,.06,0,.12,0,.18,0Zm18.95-13.05c0-.15-.22-.29-.37-.23-.25,.1-.5,.22-.75,.33-.38,.16-.77,.33-1.19,.24-.3-.06-.56-.01-.83,.1-.47,.19-.94,.38-1.41,.57-.29,.12-.57,.26-.86,.37-.67,.24-1.39,.36-1.99,.8-.25,.19-.52,.34-.82,.43-.17,.05-.24,.15-.3,.33-.09,.31-.19,.63-.28,.94-.19,.65-.2,1.35-.54,1.96-.02,.03,0,.08,0,.12-.08,.79-.19,1.58-.12,2.38,.02,.28,.18,.56,.02,.85-.01,.02,.07,.14,.12,.15,.09,.02,.21,.01,.29-.03,.38-.24,.77-.47,1.13-.74,.5-.38,.97-.81,1.46-1.2,.21-.17,.43-.32,.58-.56,.12-.2,.32-.35,.5-.51,.25-.23,.56-.42,.77-.69,.28-.37,.62-.65,.95-.96,.4-.37,.85-.72,1.06-1.26,.04-.11,.12-.2,.18-.3,.33-.48,.74-.9,1.13-1.33,.45-.5,.77-1.09,1.19-1.61,.04-.04,.06-.1,.07-.12Zm-21.33-13.34s.02,0,.04,0c-.05-.17-.09-.34-.14-.5-.31-1.07-1.1-1.74-1.94-2.38-.22-.17-.41-.07-.47,.2-.02,.08,.02,.17-.02,.24-.22,.41,0,.72,.27,.97,.11,.1,.23,.2,.31,.33,.32,.57,.87,.9,1.36,1.3,.11,.09,.22,.17,.34,.23,.11,.06,.24-.02,.25-.15,0-.08,0-.16,0-.24Z"/>
        <path d="M35.23,3.75c.32,0,.64-.02,.96,0,.31,.02,.61,0,.91,0,.56,0,1.09,.14,1.61,.3,.69,.2,1.37,.44,2.02,.77,.42,.21,.44,.18,.68-.21,.28-.47,.59-.92,.9-1.38,.07-.1,.16-.18,.26-.25,.04-.03,.11-.06,.16-.05,.04,.01,.07,.09,.08,.14,.04,.25,.12,.5,.09,.74-.04,.34-.18,.67-.26,1.01-.04,.19-.05,.39-.08,.58-.02,.18,.07,.32,.21,.4,.8,.5,1.38,1.25,2.1,1.83,.66,.54,1.09,1.22,1.54,1.91,.11,.17,.22,.24,.44,.17,.68-.23,1.4-.33,2.1-.48,.58-.12,1.19,.04,1.75-.2,.73,.19,1.51,.22,2.17,.64,.05,.03,.08,.09,.11,.14-.07,.02-.15,.04-.22,.05-.03,0-.07-.02-.11-.04-.37-.17-.75-.2-1.15-.19-.23,0-.47-.05-.7-.08-.07,0-.15,0-.22,.02-.86,.18-1.72,.35-2.57,.54-.17,.04-.32,.13-.48,.21-.42,.22-.39,.21-.22,.64,.13,.32,.25,.67,.27,1.01,.02,.32,.07,.62,.14,.93,.15,.63,.27,1.27,.23,1.92-.03,.56-.18,1.12-.2,1.69-.02,.57-.35,1.02-.49,1.54-.14,.51-.32,1-.54,1.48-.26,.56-.56,1.07-1,1.51-.27,.27-.45,.63-.65,.96-.17,.27-.37,.48-.61,.7-.3,.28-.64,.51-.89,.83-.22,.28-.51,.46-.83,.55-.28,.07-.46,.23-.62,.42-.19,.22-.42,.38-.69,.41-.26,.03-.4,.23-.62,.32-.41,.18-.8,.39-1.2,.59-.09,.04-.18,.09-.27,.1-.44,.04-.89,.06-1.28,.33-.07,.05-.19,.03-.29,.03-.38,0-.76,0-1.14,.01-.15,0-.31,.05-.46,.06-.11,0-.22,0-.33,0-.1-.01-.19-.06-.29-.05-.4,.03-.72-.07-.95-.44-.13-.21-.42-.25-.53-.52-.05-.12-.29-.19-.45-.23-.08-.02-.23,.04-.29,.12-.63,.74-1.31,1.41-2.07,2.02-.27,.22-.47,.53-.71,.79-.11,.11-.22,.25-.35,.3-.3,.13-.53,.34-.74,.58-.32,.36-.72,.6-1.12,.86-.41,.26-.79,.58-1.2,.84-.37,.24-.74,.5-1.18,.64-.23,.07-.43,.27-.63,.43-.46,.37-.98,.62-1.52,.87-.48,.22-.93,.5-1.39,.75-.57,.3-1.15,.58-1.8,.68-.13,.02-.24,.12-.37,.17-.25,.1-.5,.24-.77,.28-.56,.08-1.07,.36-1.63,.43-.54,.07-1.07,.21-1.6,.3-.48,.08-.96,.23-1.45,.03-.08-.03-.22,.06-.33,.08-.54,.11-1.08,.18-1.62,.25-.43,.06-.86,.14-1.29,.09-.56-.06-1.14,0-1.68-.21-.07-.03-.17-.04-.23-.02-.55,.21-1.05-.15-1.58-.16-.15,0-.3-.07-.46-.1-.45-.07-.84-.32-1.21-.53-.5-.28-1.03-.41-1.54-.65-.09-.04-.19-.07-.26-.13-.39-.34-.77-.68-1.15-1.03-.14-.13-.24-.31-.37-.45-.12-.13-.23-.31-.38-.38-.62-.27-.92-.82-1.27-1.34-.13-.19-.23-.46-.41-.56-.31-.17-.29-.48-.42-.72-.14-.28-.24-.58-.39-.84-.3-.53-.32-1.01,.18-1.47,.13-.12,.24-.43,.42-.29,.2,.16-.02,.38-.17,.51-.24,.18-.13,.48-.26,.7-.04,.07,.12,.27,.19,.41,.17,.35,.34,.69,.51,1.03,.03,.05,.05,.11,.08,.16,.41,.58,.81,1.15,1.22,1.73,.04,.06,.08,.14,.14,.16,.42,.18,.68,.54,1,.83,.33,.31,.69,.59,1.01,.92,.28,.28,.63,.39,.97,.53,.49,.2,.99,.34,1.43,.65,.42,.29,.94,.38,1.43,.42,.67,.05,1.31,.21,1.96,.31,.16,.03,.33-.04,.5-.06,.61-.04,1.22-.08,1.83-.13,.21-.02,.42-.08,.63-.12,.21-.03,.43-.06,.64-.08,.14-.01,.29-.04,.42,0,.52,.18,1.02,.04,1.51-.07,.59-.13,1.15-.36,1.73-.49,.48-.1,.89-.37,1.37-.45,.47-.08,.87-.34,1.3-.53,.31-.15,.66-.22,.95-.42,.44-.3,.9-.55,1.35-.82,.27-.16,.53-.33,.82-.44,.64-.24,1.06-.82,1.7-1.03,.76-.69,1.72-1.11,2.41-1.89,.27-.31,.63-.54,.93-.82,.17-.16,.31-.35,.47-.51,.92-.91,1.83-1.83,2.53-2.93,.12-.18,.31-.32,.44-.49,.46-.6,.89-1.23,1.38-1.8,.74-.87,1.37-1.82,2.09-2.71,.43-.54,.88-1.07,1.33-1.59,.22-.26,.46-.49,.64-.78,.18-.3,.42-.56,.65-.83,.22-.25,.47-.49,.71-.73,.25-.26,.5-.51,.76-.76,.37-.35,.8-.64,1.11-1.03,.62-.76,1.44-1.26,2.22-1.81,.56-.39,1.15-.73,1.75-1.07,.34-.19,.71-.32,1.06-.49,.47-.22,.65-.23,.26-.87-.21-.33-.42-.66-.66-.97-.11-.14-.3-.22-.46-.33-.4-.28-.69-.66-1-1.02-.06-.07-.16-.1-.24-.15-.26-.14-.53-.26-.77-.41-.17-.1-.3-.1-.43,.03-.15,.15-.25,.32-.32,.54-.16,.48-.4,.93-.64,1.38-.07,.14-.2,.24-.18,.42,0,.05-.02,.12-.05,.16-.67,.92-1.19,1.93-1.78,2.9-.31,.49-.68,.91-1.08,1.31-.32,.32-.59,.68-.85,1.05-.4,.55-.79,1.11-1.3,1.58-.19,.17-.32,.4-.49,.59-.16,.18-.34,.34-.51,.5-.12,.1-.25,.19-.37,.29-.45,.39-.86,.83-1.34,1.17-.36,.25-.69,.52-1.03,.79-.5,.4-1.04,.76-1.56,1.14-.16,.38-.55,.47-.84,.68-.32,.24-.63,.55-1.1,.5-.08,0-.17,.09-.24,.14-.86,.61-1.81,1.06-2.79,1.45-.48,.19-.99,.36-1.51,.42-.22,.02-.42,.08-.62,.17-.12,.05-.26,.06-.39,.09-.31,.06-.63-.07-.94,.1-.07,.04-.22-.05-.33-.08-.21-.05-.48-.19-.62-.11-.33,.18-.39-.04-.53-.22-.15-.19-.33-.35-.61-.29-.08,.02-.2,.03-.23,0-.34-.44-1-.44-1.3-.98-.19-.34-.53-.6-.84-.85-.35-.27-.4-.66-.49-1.03-.05-.19-.09-.38-.12-.57-.04-.23-.1-.46-.11-.69-.02-.3,.01-.6-.01-.9-.09-.96,.26-1.8,.6-2.67,.22-.58,.59-1.05,.87-1.58,.17-.31,.44-.55,.67-.83,.27-.32,.54-.63,.81-.94,.04-.05,.1-.08,.12-.13,.36-.79,1.06-1.29,1.65-1.86,.53-.52,1.16-.93,1.74-1.4,.32-.26,.64-.53,.94-.82,.45-.42,.96-.75,1.49-1.05,1.15-.64,2.31-1.24,3.47-1.86,.68-.36,1.4-.62,2.14-.74,.77-.13,1.52-.34,2.28-.49,.42-.08,.88-.01,1.32-.01h0Zm-12.87,19.54c.17-.02,.36-.02,.52-.07,.62-.21,1.24-.45,1.86-.67,.7-.25,1.37-.55,2.01-.91,.75-.43,1.45-.92,2.16-1.41,.71-.49,1.36-1.01,1.95-1.63,.08-.09,.18-.15,.27-.23,.13-.11,.26-.23,.38-.35,.08-.08,.13-.21,.22-.27,.66-.44,1.17-1.05,1.71-1.61,.22-.23,.5-.42,.66-.69,.32-.55,.7-1.05,1.1-1.55,.42-.52,.82-1.05,1.23-1.58,.19-.25,.41-.48,.58-.74,.57-.89,1.14-1.78,1.69-2.67,.31-.5,.54-1.05,.89-1.51,.44-.58,.74-1.24,1.15-1.84,.08-.12,.07-.21-.03-.35-.19-.27-.49-.22-.74-.33-.44-.19-.9-.36-1.36-.52-.56-.19-1.14-.26-1.74-.24-.52,.02-1.07,.11-1.55-.03-.58-.17-1.11-.06-1.61,.09-.66,.2-1.32,.32-1.99,.43-.34,.05-.7,.11-1.02,.24-.51,.19-1,.42-1.48,.67-.73,.38-1.44,.78-2.16,1.18-.66,.37-1.4,.61-1.93,1.2-.01,.01-.03,.03-.05,.04-.7,.4-1.27,.96-1.9,1.45-.2,.15-.44,.27-.53,.52-.37,.13-.55,.47-.83,.71-.03,.03-.06,.06-.09,.08-.35,.18-.59,.46-.82,.79-.17,.26-.29,.62-.66,.72-.05,.01-.12,.09-.11,.13,.05,.34-.28,.46-.41,.69-.2,.38-.46,.75-.78,1.03-.24,.2-.36,.45-.49,.7-.14,.25-.22,.54-.35,.8-.27,.55-.45,1.21-.51,1.96,0,.04-.02,.08-.03,.11-.12,.25-.02,.48,0,.73,.01,.25-.07,.53-.07,.8,0,.05,.02,.13,.06,.16,.24,.19,.19,.46,.19,.72,0,.18,.03,.34,.11,.51,.19,.4,.49,.71,.85,.96,.08,.05,.21,.12,.21,.19,0,.37,.28,.43,.54,.52,.11,.04,.22,.09,.3,.17,.32,.29,.7,.42,1.13,.43,.17,0,.29,.05,.43,.15,.3,.22,.64,.41,1.04,.35Zm24.31-9.96c.1-.75-.22-1.44-.28-2.16,0-.04-.11-.12-.16-.11-.11,.02-.23,.06-.32,.12-.37,.22-.76,.43-1.09,.7-.34,.28-.85,.32-1.05,.78-.02,.05-.14,.04-.21,.08-.08,.04-.18,.09-.24,.16-.19,.25-.32,.57-.56,.74-.43,.3-.7,.71-.99,1.13-.3,.44-.7,.8-1.06,1.2-.06,.07-.14,.15-.17,.24-.1,.3-.33,.49-.54,.7-.14,.14-.29,.28-.41,.44-.46,.61-.91,1.23-1.37,1.83-.27,.36-.53,.74-.85,1.05-.22,.22-.26,.52-.46,.74-.3,.32-.61,.63-.9,.97-.29,.35-.49,.75-.75,1.11-.27,.38-.51,.74-.92,.98-.21,.13-.24,.35-.1,.57,.16,.25,.31,.49,.49,.73,.07,.09,.17,.18,.28,.21,.28,.06,.58,.12,.87,.13,.41,0,.82-.04,1.23-.08,.65-.06,1.2-.37,1.75-.62,.58-.27,1.26-.46,1.63-1.07,.02-.03,.07-.03,.11-.04,.48-.19,.9-.49,1.28-.82,.57-.49,1.21-.89,1.61-1.56,.19-.32,.44-.6,.64-.91,.37-.57,.81-1.1,1.07-1.74,.28-.7,.53-1.41,.84-2.09,.23-.5,.36-1.03,.46-1.56,.11-.6,.11-1.21,.16-1.82Z"/>
        <path d="M97.46,44.88c.19-.65,0-1.49,.44-2.22,.01-.02,.03-.04,.03-.05-.05-.5,.18-.96,.26-1.44,.03-.19,.06-.39,.13-.57,.15-.44,.33-.87,.48-1.31,.16-.46,.3-.93,.49-1.37,.26-.61,.56-1.2,.85-1.8,.34-.7,.72-1.39,1-2.11,.32-.8,.7-1.56,1.12-2.31,.46-.82,.88-1.66,1.44-2.42,.3-.41,.53-.87,.87-1.25,.23-.26,.47-.49,.65-.8,.21-.37,.5-.7,.76-1.04,.13-.17,.27-.34,.41-.51,.06-.08,.15-.14,.19-.23,.03-.06,0-.15-.03-.22,0-.02-.1-.02-.15,0-.3,.08-.6,.18-.89,.27-.04,.01-.08,.05-.11,.04-.54-.22-1.15,.04-1.67-.27-.11-.07-.26-.05-.4-.09-.21-.06-.41,.11-.61,.04-.18-.06-.38-.12-.54-.21-.17-.1-.26-.02-.34,.1-.03,.05-.05,.11-.06,.16-.18,.72-.61,1.35-.82,2.06-.06,.19-.21,.31-.33,.45-.25,.3-.53,.59-.77,.9-.29,.38-.5,.86-1,1.05-.08,.03-.13,.12-.19,.19-.29,.37-.58,.74-.87,1.11-.06,.08-.13,.16-.21,.21-.8,.48-1.59,.98-2.41,1.43-.2,.11-.5,.06-.76,.07-.59,0-.71-.1-.9-.7-.02-.05-.03-.13-.07-.16-.42-.32-.43-.82-.54-1.26-.09-.36,.05-.73,.24-1.03,.29-.46,.65-.88,.95-1.34,.49-.76,1.18-1.3,1.88-1.84,.19-.14,.37-.29,.54-.45,.36-.31,.71-.63,1.07-.94,.05-.05,.14-.05,.21-.08,.23-.11,.49-.18,.68-.34,.47-.41,1.01-.42,1.57-.36,.24,.02,.48,.15,.71,.25,.04,.02,.06,.15,.04,.19-.09,.15-.19,.3-.31,.43-.48,.5-1.02,.93-1.56,1.36-.73,.57-1.55,1.03-2.14,1.76-.48,.19-.6,.78-1.09,.96-.02,0-.04,.02-.04,.04-.12,.48-.64,.62-.86,.99-.28,.46-.59,.93-.56,1.51,0,.18,.06,.3,.19,.41,.1,.09,.18,.14,.31,.03,.09-.07,.19-.13,.3-.16,.72-.18,1.26-.7,1.91-1,.08-.04,.11-.15,.18-.23,.12-.13,.22-.29,.36-.39,.45-.3,.8-.68,1.12-1.12,.32-.43,.71-.8,1.06-1.2,.37-.43,.77-.84,1.01-1.37,.21-.48,.45-.96,.59-1.46,.16-.56,.05-1.11-.4-1.5-.2-.17-.34-.36-.45-.58-.08-.16-.18-.32-.31-.43-.28-.23-.25-.52-.23-.82,.01-.25,.21-.43,.45-.46,.51-.05,.87,.12,1.1,.62,.21,.46,.44,.93,.4,1.47,0,.08,.03,.19,.09,.25,.09,.09,.22,.16,.34,.23,.42,.25,.89,.37,1.27,.72,.21,.2,.61,.24,.93,.28,.35,.05,.73,.07,1.07,0,.53-.1,1.05-.28,1.56-.44,.09-.03,.21-.09,.24-.16,.14-.43,.57-.62,.79-.98,.28-.45,.61-.87,.95-1.26,.26-.3,.54-.59,.87-.85,.39-.3,.7-.72,1.03-1.1,.32-.37,.61-.77,.93-1.15,.33-.39,.68-.78,1.02-1.16,.32-.36,.67-.69,.97-1.07,.16-.2,.4-.31,.59-.49,.34-.33,.67-.66,1.01-.98,.62-.58,1.3-1.09,1.9-1.7,.39-.39,.85-.69,1.2-1.14,.31-.39,.8-.63,1.21-.93,.36-.27,.75-.5,1.09-.8,.77-.69,1.64-1.21,2.49-1.77,.51-.33,1.02-.65,1.56-.95,.56-.31,1.13-.64,1.73-.85,.34-.11,.74-.32,1.13-.07,.06,.04,.16,.02,.24,0,.33-.04,.53,.09,.72,.38,.21,.31,.21,.63,.09,.9-.3,.67-.52,1.39-1.06,1.94-.04,.04-.07,.1-.09,.15-.26,.84-.83,1.51-1.35,2.18-.54,.69-1.07,1.43-1.83,1.93-.25,.16-.37,.49-.66,.65-.29,.16-.42,.52-.71,.68-.28,.16-.45,.43-.67,.64-.38,.38-.86,.67-1.31,.99-.51,.36-1.1,.6-1.56,1.05-.13,.13-.33,.19-.5,.28-.3,.16-.57,.38-.84,.58-.26,.2-.53,.39-.8,.58-.41,.27-.88,.44-1.21,.83-.9,.42-1.72,1-2.65,1.35-.14,.05-.3,.13-.4,.24-.34,.38-.89,.41-1.23,.78-.05,.06-.19,.04-.28,.06-.54,.13-.99,.35-1.34,.83-.19,.26-.43,.47-.54,.78-.02,.07-.11,.11-.16,.18-.19,.23-.55,.29-.6,.68-.02,.12-.26,.22-.4,.33-.38,.29-.6,.72-.84,1.11-.19,.32-.36,.64-.72,.84-.17,.09-.26,.34-.37,.52-.47,.77-.95,1.54-1.55,2.21-.04,.04-.1,.08-.12,.14-.32,.81-1.01,1.39-1.34,2.2-.04,.1-.15,.18-.21,.28-.06,.1-.14,.21-.14,.31,0,.28-.12,.48-.26,.7-.33,.53-.6,1.1-.95,1.62-.43,.64-.81,1.3-1.12,1.99-.32,.69-.57,1.41-.91,2.09-.31,.63-.42,1.33-.74,1.95-.09,.19-.18,.4-.19,.6-.03,.36-.16,.68-.24,1.02-.05,.2-.19,.36-.23,.53-.11,.52-.38,1.01-.28,1.56,.01,.06,.02,.13,0,.18-.18,.37,.02,.56,.32,.74,.12,.07,.22,.22,.27,.36,.03,.08-.38,.16-.53,.04-.21-.17-.5-.24-.59-.55-.11-.35-.28-.68-.39-1.04-.06-.18-.03-.39-.04-.72Zm31.07-36.67c-.01-.54-.3-.68-.68-.51-.29,.13-.54,.31-.78,.49-.23,.18-.46,.36-.75,.45-.24,.07-.42,.23-.59,.44-.15,.18-.41,.29-.62,.42-.06,.04-.15,.05-.21,.1-.55,.46-1.11,.92-1.65,1.4-.26,.23-.47,.54-.76,.72-.61,.38-1.04,.95-1.59,1.38-.07,.06-.11,.16-.18,.24-.1,.12-.2,.25-.32,.35-.39,.33-.81,.63-1.18,.98-.37,.35-.68,.77-1.04,1.14-.45,.47-1.06,.77-1.44,1.32-.05,.08-.17,.1-.24,.17-.08,.08-.17,.16-.22,.26-.31,.56-.81,.97-1.2,1.46-.18,.23-.38,.45-.62,.61-.29,.19-.48,.45-.72,.68-.27,.27-.39,.64-.69,.86-.22,.17-.41,.37-.55,.59-.24,.37-.54,.68-.9,.93-.03,.02-.09,.04-.09,.07,0,.07-.01,.16,.01,.22,0,.03,.11,.05,.15,.03,.19-.1,.38-.2,.57-.31,.36-.2,.7-.44,1.07-.61,.63-.27,1.23-.59,1.83-.93,.61-.35,1.18-.75,1.77-1.12,.43-.26,.83-.58,1.26-.86,.77-.51,1.5-1.08,2.29-1.55,1.06-.63,1.98-1.42,2.87-2.27,.34-.33,.64-.69,1-.99,.2-.16,.44-.29,.58-.5,.52-.76,1.21-1.38,1.69-2.16,.13-.22,.31-.41,.42-.63,.22-.46,.4-.94,.81-1.28,.04-.04,.09-.1,.09-.15,.02-.28,.22-.45,.34-.67,.14-.27,.22-.58,.28-.75Zm-27.76,13.77c-.15,0-.38,.38-.28,.51,.17,.23,.38,.44,.49,.72,.01,.04,.14,.07,.21,.05,.05-.01,.12-.11,.11-.16-.05-.38-.14-.76-.43-1.05-.03-.03-.06-.05-.1-.07Z"/>
        <path d="M146.66,17.78c-.04-.55,.02-.96-.12-1.37-.06-.19-.1-.36-.25-.5-.18-.17-.16-.23,.05-.43,.16-.15,.23-.15,.39,.03,.06,.07,.14,.16,.15,.25,.05,.66,.3,1.3,.26,1.98-.03,.42-.09,.82-.19,1.21-.05,.19-.03,.4-.12,.57-.15,.29-.23,.61-.51,.83-.19,.15-.28,.41-.43,.62-.08,.11-.18,.24-.29,.29-.53,.26-.82,.76-1.19,1.18-.24,.28-.56,.5-.84,.75-.06,.05-.13,.1-.17,.16-.35,.45-.88,.65-1.33,.96-.22,.15-.49,.24-.62,.5-.03,.05-.08,.1-.13,.12-.47,.24-.94,.47-1.41,.7-.28,.14-.55,.29-.84,.39-.25,.09-.44,.3-.76,.26-.26-.03-.47,.29-.77,.23-.02,0-.04,.01-.05,.02-.3,.15-.6,.29-.9,.44-.32-.16-.59,.05-.88,.1-.06,.01-.12,.02-.17,.02-.52-.03-1.01,.09-1.51,.19-.2,.04-.43,.03-.65,.04-.23,.01-.46-.06-.69-.11-.53-.11-1.05-.28-1.59-.33-.47-.05-.85-.27-1.28-.41-.27-.09-.39-.06-.42,.18-.04,.47-.08,.94-.11,1.41-.01,.24-.03,.46-.23,.65-.15,.15-.24,.36-.38,.52-.29,.32-.47,.7-.71,1.06-.38,.58-.86,1.07-1.4,1.5-.06,.05-.11,.12-.16,.17-.68,.71-1.37,1.42-2.05,2.13-.18,.19-.4,.31-.68,.31-.11,0-.24,.03-.33,.1-.53,.41-1.1,.45-1.72,.25-.09-.03-.21-.09-.23-.16-.23-.7-.68-1.33-.65-2.11,0-.15,.06-.3,.11-.45,.16-.44,.28-.89,.56-1.28,.03-.04,.03-.14,.01-.15-.06-.03-.15-.06-.22-.04-.07,.02-.14,.08-.18,.14-.38,.56-.94,.91-1.44,1.33-.65,.54-1.41,.94-1.99,1.58-.27,.29-.69,.44-1.03,.66-.2,.12-.39,.26-.58,.39-.5,.35-1.03,.63-1.62,.8-.09,.03-.18,.06-.26,.11-.18,.12-.36,.3-.58,.23-.36-.1-.77-.03-1.07-.3-.39-.35-.68-.74-.72-1.31-.03-.56-.15-1.12-.22-1.68-.03-.27-.03-.54,.11-.81,.16-.31,.25-.65,.38-.98,.19-.47,.43-.9,.83-1.24,.17-.15,.24-.41,.4-.57,.56-.55,1.1-1.14,1.72-1.61,.5-.38,1.06-.75,1.76-.72,.53-.29,.97,.15,1.46,.17,.09,0,.21,.12,.13,.27-.08,.16-.13,.35-.24,.47-.4,.4-.82,.78-1.24,1.16-.29,.26-.58,.5-.88,.75-.31,.27-.64,.53-.93,.82-.2,.19-.36,.41-.53,.63-.28,.36-.53,.74-.83,1.07-.34,.37-.51,.83-.7,1.28-.03,.07-.03,.16-.07,.22-.3,.39-.23,.87-.34,1.3-.06,.25,.11,.45,.35,.49,.15,.03,.3,.07,.46,.08,.11,0,.23,0,.33-.04,.45-.18,.82-.55,1.34-.54,.05,0,.1-.06,.14-.1,.53-.53,1.2-.86,1.88-1.16,.23-.1,.49-.23,.62-.43,.34-.52,.91-.74,1.34-1.14,.6-.54,1.3-.96,1.87-1.54,.12-.12,.28-.22,.42-.32,.69-.49,1.39-.95,2.05-1.47,.3-.24,.5-.6,.75-.9,.07-.09,.13-.21,.23-.27,.38-.23,.63-.59,.91-.91,.5-.58,1.16-.94,1.85-1.24,.2-.09,.46-.06,.7-.08,.04,0,.07-.02,.11-.03-.02-.05-.03-.1-.06-.14-.05-.06-.11-.13-.18-.15-.73-.23-.93-.91-1.26-1.48-.19-.32-.31-.67-.25-1.06,.03-.24,.18-.48,.39-.43,.35,.1,.8-.1,1.07,.31,.08,.11,.25,.16,.39,.23,.57,.28,.9,.73,1.04,1.35,.1,.45,.23,.9,.34,1.35,.02,.07,.01,.16-.02,.23-.11,.23,.04,.41,.19,.48,.39,.18,.69,.54,1.14,.57,.58,.05,1.11,.35,1.72,.33,.38-.01,.77,.16,1.17,.1,1.04-.15,2.12-.08,3.12-.47,.45-.18,.92-.27,1.36-.47,.42-.18,.9-.25,1.3-.5,.48-.3,1.08-.4,1.47-.89,.23-.28,.66-.41,1-.59,.63-.33,1.19-.76,1.71-1.24,.41-.37,.74-.82,1.13-1.22,.26-.27,.57-.48,.84-.75,.25-.25,.47-.53,.69-.81,.05-.06,.05-.15,.09-.21,.16-.31,.14-.68,.28-1.01,.13-.31,.08-.7,.1-.92Zm-24.72,15.84c0,.15,0,.23,0,.31,.02,.26,.11,.36,.37,.35,.13,0,.27-.05,.39-.1,.36-.15,.72-.3,1.07-.46,.27-.12,.55-.22,.69-.52,.03-.06,.11-.1,.17-.14,.24-.14,.48-.26,.59-.55,.03-.09,.12-.17,.2-.21,.35-.17,.55-.49,.8-.76,.25-.28,.55-.51,.83-.77,.04-.04,.08-.09,.12-.13,.46-.61,.92-1.21,1.37-1.83,.21-.29,.37-.6,.35-.98-.01-.39-.04-.79,.09-1.17,.05-.14,.03-.32,.02-.48-.01-.17-.22-.38-.39-.4-.19-.03-.28,.09-.34,.25-.06,.14-.14,.29-.24,.4-.36,.35-.75,.67-1.12,1.01-.43,.4-.83,.84-1.25,1.25-.73,.71-1.5,1.38-2.16,2.16-.22,.26-.45,.52-.64,.81-.17,.26-.29,.55-.49,.79-.31,.36-.46,.77-.45,1.17Zm5.12-11.11c-.1,.04-.29,.07-.3,.12-.02,.23-.07,.51,.03,.7,.19,.36,.44,.7,.73,.99,.38,.37,.81,.68,1.23,1.01,.05,.04,.14,.04,.21,.06,.02-.07,.06-.16,.04-.22-.14-.34-.19-.71-.32-1.06-.22-.59-.51-1.07-1.07-1.39-.18-.1-.33-.22-.55-.21Z"/>
        <path d="M120.21,23.88c.07-.25,.14-.47,.2-.69,.07-.28,.12-.57,.22-.84,.15-.4,.34-.81,.81-.91,.3-.07,.62-.04,.93-.05,.05,0,.1,.06,.16,.08,.53,.14,.54,.15,.26,.6-.11,.18-.27,.35-.44,.47-.25,.19-.54,.32-.78,.51-.44,.34-.81,.75-.82,1.36,0,.11-.05,.2-.17,.19-.07,0-.17-.05-.19-.1-.07-.2-.12-.4-.18-.61Z"/>
      </g>
    </g>
  </g>
</svg>
