<?xml version="1.0" encoding="UTF-8"?>
<svg id="Layer_2" data-name="Layer 2" xmlns="http://www.w3.org/2000/svg" viewBox="0 0 139.84 32.84">
  <g id="Layer_1-2" data-name="Layer 1">
    <g id="Xu8eMf.tif">
      <g>
        <path d="M120.15,16.42c.02-.73-.07-1.44-.22-2.16-.1-.5-.09-1.02-.13-1.53,0-.12,0-.24-.02-.36,0-.03-.04-.08-.07-.08-.05,0-.14,0-.16,.04-.29,.53-.83,.79-1.25,1.18-.37,.35-.78,.64-1.19,.93-.24,.17-.37,.43-.62,.6-.44,.3-.85,.64-1.26,.97-.32,.26-.62,.49-.99,.66-.26,.12-.51,.29-.71,.49-.22,.22-.44,.44-.68,.64-.57,.48-1.16,.94-1.76,1.39-.15,.11-.37,.12-.54,.21-.69,.4-1.33,.9-1.99,1.35-.55,.37-1.1,.72-1.67,1.07-.13,.08-.29,.09-.44,.15-.18,.07-.38,.13-.53,.23-.4,.27-.87,.29-1.32,.39-.37,.08-.74,.12-1.11,.1-.17,0-.34-.08-.51-.12-.28-.07-.4-.38-.64-.46-.32-.1-.39-.37-.57-.57-.22-.25-.42-.5-.63-.75-.2-.25-.23-.6-.53-.81-.16-.11-.15-.38-.16-.61-.01-.41-.07-.82-.11-1.23-.01-.1-.24-.18-.28-.09-.14,.32-.49,.39-.69,.63-.14,.16-.34,.27-.51,.4-.09,.07-.21,.11-.28,.2-.25,.29-.47,.46-.9,.67-.07,.03-.13,.09-.19,.15-.45,.39-1.1,.53-1.39,1.12-.04,.07-.16,.11-.25,.15-.25,.08-.46,.22-.63,.42-.11,.12-.24,.17-.41,.21-.24,.07-.44,.25-.67,.36-.33,.17-.58,.55-1.04,.36-.25,.15-.5,.29-.73,.46-.1,.07-.17,.1-.31,.07-.23-.06-.45-.22-.72-.13-.05,.02-.13-.04-.19-.08-.73-.38-1.26-.97-1.72-1.64-.21-.31-.46-.59-.67-.89-.4-.58-.34-1.23-.23-1.88,.02-.13,.08-.29,.04-.4-.12-.32-.08-.6,.12-.88,.03-.05,.02-.19-.02-.21-.07-.04-.2-.07-.27-.03-.15,.08-.29,.19-.4,.32-.28,.33-.52,.7-.98,.8-.07,.02-.18,.06-.2,.11-.17,.5-.69,.53-1.04,.79-.19,.14-.36,.3-.54,.44-.09,.07-.18,.14-.27,.21-.13,.09-.27,.17-.38,.27-.22,.2-.4,.44-.75,.42-.09,0-.22,.1-.27,.19-.18,.27-.37,.47-.74,.51-.25,.03-.49,.22-.7,.39-.24,.2-.51,.27-.81,.31-.06,0-.12,0-.18,0-.19,.02-.41,.12-.55,.05-.2-.1-.36-.31-.51-.49-.2-.24-.37-.5-.55-.77-.12-.18-.18-.38-.18-.61,0-.15-.06-.3-.11-.45-.07-.22-.14-.44-.21-.66-.01-.04-.03-.1-.01-.11,.32-.28,.25-.73,.5-1.05,.16-.21,.23-.49,.32-.75,.02-.05-.04-.14-.08-.19,0-.01-.11,.02-.15,.06-.27,.23-.55,.45-.81,.69-.63,.56-1.31,1.06-2,1.55-.53,.37-1.03,.79-1.53,1.2-.3,.24-.55,.55-.9,.71-.58,.27-1.13,.6-1.67,.94-.18,.11-.37,.22-.57,.3-.06,.03-.16-.05-.25-.07,.03-.08,.04-.19,.1-.22,.45-.26,.9-.53,1.37-.74,.47-.22,.88-.52,1.28-.83,.41-.31,.8-.64,1.19-.97,.12-.1,.21-.26,.35-.32,.97-.43,1.64-1.26,2.51-1.84,.48-.32,.86-.8,1.29-1.21,.04-.04,.09-.09,.13-.09,.24,0,.35-.18,.48-.32,.45-.55,.87-1.11,1.32-1.65,.31-.38,.68-.73,.97-1.12,.3-.41,.68-.7,1.09-.95,.25-.15,.51-.28,.79-.37,.14-.05,.31,0,.46,.03,.21,.05,.41,.13,.61,.2,.22,.08,.42,.39,.37,.6-.03,.15-.08,.31-.16,.44-.22,.35-.45,.69-.68,1.03-.03,.05-.07,.11-.11,.13-.49,.24-.65,.78-1.02,1.11-.36,.33-.55,.81-1,1.08-.25,.15-.42,.47-.6,.72-.19,.27-.37,.55-.65,.73-.02,.01-.04,.02-.04,.04-.38,.77-1.1,1.32-1.47,2.1-.23,.49-.09,.92,.13,1.34,.08,.16,.26,.3,.48,.17,.02,0,.03-.03,.05-.03,.73,0,1.26-.43,1.85-.77,.43-.25,.82-.53,1.2-.84,.14-.12,.34-.21,.52-.27,.45-.15,.8-.47,1.18-.73,.23-.15,.43-.34,.64-.52,.44-.36,.89-.72,1.33-1.08,.24-.2,.46-.47,.74-.58,.84-.34,1.32-1.03,1.84-1.7,.33-.42,.64-.88,1.08-1.21,.12-.09,.2-.23,.3-.35,.4-.51,.99-.78,1.47-1.19,.49-.43,1.09-.68,1.65-.98,.71-.37,1.45-.44,2.23-.27,.11,.03,.23,.04,.35,.04,.58,.04,.91,.34,.95,.92,.03,.56,.05,1.12-.02,1.67-.05,.35-.26,.69-.41,1.02-.02,.05-.13,.07-.19,.1-.03-.08-.11-.2-.08-.25,.15-.26,.24-.54,.28-.82,.04-.27,.06-.55,0-.81-.03-.16-.03-.29,.02-.44,.09-.27,.07-.54-.08-.8-.15-.25-.3-.28-.53-.11-.49,.36-.99,.71-1.47,1.08-.83,.64-1.62,1.31-2.27,2.15-.28,.36-.56,.71-.84,1.06-.27,.33-.66,.57-.97,.87-.14,.14-.22,.34-.35,.5-.53,.63-.98,1.32-1.33,2.07-.25,.53-.31,1.09-.26,1.67,0,.09,.06,.18,.11,.27,.15,.27,.33,.53,.45,.82,.23,.54,.74,.68,1.2,.88,.17,.08,.44,.03,.63-.05,.48-.2,.93-.45,1.4-.67,.09-.04,.18-.07,.27-.1,.09-.03,.2-.03,.28-.08,.42-.25,.83-.5,1.23-.76,.21-.13,.45-.25,.62-.43,.1-.11,.19-.22,.33-.31,.46-.29,.91-.61,1.36-.93,.64-.46,1.31-.88,1.82-1.5,.25-.3,.66-.44,.83-.82,.21-.46,.55-.85,.75-1.31,.05-.12,.16-.23,.27-.32,.5-.39,.88-.9,1.33-1.33,.24-.23,.47-.46,.79-.61,.2-.09,.32-.32,.5-.47,.5-.43,.97-.9,1.53-1.26,.14-.09,.25-.16,.42-.19,.25-.04,.48-.15,.73-.2,.3-.06,.59-.12,.91-.03,.45,.12,.92,.17,1.37,.28,.38,.1,.53,.35,.55,.74,.02,.81-.26,1.5-.85,2.05-.3,.28-.54,.64-.93,.82-.03,.02-.08,.05-.09,.08-.17,.58-.85,.57-1.15,1.01-.27,.05-.5,.2-.75,.28-.25,.08-.51,0-.71-.26-.2-.26-.51-.42-.47-.82,0-.02-.12-.07-.19-.09-.03,0-.09,0-.11,.03-.36,.42-.9,.64-1.19,1.14-.34,.61-.8,1.15-1.09,1.8-.09,.2-.16,.39-.17,.61-.03,.35-.08,.7-.11,1.05,0,.1-.03,.23,.01,.29,.31,.45,.39,1.03,.85,1.39,.27,.21,.54,.34,.87,.24,.1-.03,.16-.04,.25,.01,.5,.31,.98,.14,1.48-.03,.52-.18,.98-.44,1.47-.68,.19-.09,.41-.11,.6-.21,.17-.09,.29-.29,.46-.37,.47-.22,.85-.56,1.27-.85,.4-.28,.85-.48,1.26-.73,.18-.11,.36-.22,.56-.29,.32-.11,.59-.3,.83-.56,.59-.62,1.28-1.09,1.99-1.56,.48-.31,1-.6,1.37-1.01,.46-.51,1.08-.76,1.56-1.23,.29-.29,.66-.51,.93-.83,.06-.08,.13-.18,.22-.2,.47-.11,.68-.52,1.01-.79,.15-.12,.31-.24,.46-.36,.25-.2,.48-.41,.61-.71,.17-.39,.34-.79,.52-1.18,.05-.1,.07-.23,.15-.31,.22-.22,.31-.5,.34-.79,.07-.61,.68-1.04,1.08-1.05,.24-.01,.48-.01,.72,0,.09,0,.19,.04,.27,.09,.45,.33,.49,.68,.12,1.13-.51,.61-1.01,1.26-1.7,1.67-.38,.23-.43,.57-.46,.87-.05,.52-.11,1.06,.07,1.59,.08,.23,.12,.52,.04,.78-.03,.08,0,.19,.03,.29,.14,.62,.29,1.25,.43,1.87,.01,.06,.01,.12,0,.18-.03,.17-.09,.34-.09,.51,0,.17,.11,.35,.1,.51-.07,.6-.15,1.19-.49,1.72-.28,.43-.52,.89-1,1.13,0,.3-.28,.34-.42,.51-.16,.18-.34,.3-.58,.38-.21,.07-.4,.25-.56,.42-.16,.17-.08,.41,.15,.51,.18,.07,.39,.09,.54,.19,.16,.12,.34,.19,.49,.29,.22,.13,.43,.15,.65,.22,.33,.1,.63,.31,.95,.45,.21,.09,.36,.34,.64,.26,.01,0,.05,0,.05,.02,.21,.41,.74,.3,1,.62,.65,.24,1.25,.64,1.98,.68,.04,0,.09,0,.12,0,.51,.32,1.08,.18,1.62,.23,.23,.02,.47-.05,.7,.09,.08,.05,.23,0,.35-.01,.17-.02,.35-.06,.52-.09,.23-.04,.46-.08,.69-.12,.23-.04,.46-.12,.69-.11,.42,.01,.8-.12,1.19-.25,.05-.02,.1-.09,.15-.09,.85-.02,1.52-.55,2.29-.78,.09-.03,.18-.06,.28-.08,.27-.06,.53-.11,.75-.31,.1-.09,.24-.14,.37-.17,.48-.11,.78-.46,1.13-.76,.26-.22,.62-.33,.8-.65,.6-.25,.9-.79,1.28-1.26,.07-.09,.19-.14,.28-.21,.15-.12,.31-.24,.31-.48,0-.1,.08-.21,.14-.31,.16-.29,.36-.56,.35-.92,0-.16,.11-.33,.2-.48,.23-.4,.23-.86,.37-1.28-.2-.68-.07-1.4-.32-2.08-.14-.39-.28-.72-.67-.9-.14-.07-.3-.15-.38-.27-.38-.56-.94-.56-1.52-.57-.53-.01-1.07,0-1.59,.14-.28,.08-.56,.19-.79,.36-.47,.35-1.03,.63-1.23,1.25-.02,.07-.1,.13-.15,.18-.11,.11-.22,.1-.27-.05-.02-.05-.04-.11-.03-.17,.07-.69,.28-1.33,.92-1.69,.49-.28,1.02-.49,1.55-.71,.16-.06,.35-.03,.53-.03,.51,0,1.03-.08,1.53,.12,.24,.09,.5,.14,.7,.27,.3,.19,.52,.53,.84,.64,.38,.14,.54,.41,.76,.69,.22,.28,.23,.62,.31,.93,.25,.96,.3,1.93-.02,2.9-.12,.35-.21,.71-.27,1.07-.05,.34-.39,.5-.45,.84-.06,.31-.18,.56-.49,.75-.24,.15-.4,.48-.54,.75-.17,.32-.45,.47-.74,.63-.09,.05-.18,.09-.26,.14-.24,.14-.18,.53-.5,.61-.25,.06-.47,.18-.64,.38-.13,.14-.3,.27-.47,.34-.29,.12-.58,.22-.75,.51-.14,.23-.41-.05-.57,.12-.15,.17-.3,.32-.56,.28-.07-.01-.19,0-.22,.05-.21,.34-.58,.29-.89,.38-.52,.16-1.03,.33-1.56,.47-.36,.09-.73,.15-1.1,.18-.28,.02-.55,0-.8,.16-.06,.04-.16,.07-.21,.04-.28-.17-.54,0-.81,0-.53,0-1.07,0-1.6-.01-.11,0-.23-.06-.34-.07-.4,0-.78-.02-1.14-.24-.14-.09-.33-.11-.51-.12-.25-.01-.45-.06-.64-.25-.13-.13-.34-.17-.52-.24-.4-.13-.79-.24-1.13-.53-.23-.2-.59-.28-.84-.51-.07-.06-.23-.02-.34-.04-.13-.03-.25-.08-.38-.12-.57-.18-1.03-.56-1.57-.8-.41-.19-.87-.31-1.33-.37-.14-.02-.34,.02-.44,.11-.44,.39-1.04,.46-1.52,.75-.05,.03-.11,.07-.16,.06-.72-.07-1.45-.13-1.97-.75-.07-.08-.15-.16-.23-.23-.17-.16-.25-.44-.13-.64,.14-.22,.31-.41,.46-.61,.11-.15,.28-.21,.42-.15,.31,.13,.6,.01,.9,0,.34-.02,.67,.04,.99,.14,.33,.11,.7,.11,1,.32,.05,.04,.2-.01,.27-.06,.28-.22,.54-.45,.81-.68,.27-.23,.55-.45,.81-.68,.77-.66,1.21-1.53,1.47-2.49,.1-.35,.02-.75,.02-1.13Zm-14.98-1.35c0,.12,0,.18,0,.24,.05,.63,.36,.78,.9,.59,.65-.23,1.16-.64,1.65-1.08,.32-.29,.48-.72,.9-.91,.07-.03,.1-.16,.15-.24,.24-.37,.4-.76,.37-1.21,.2-.23,.02-.31-.15-.37-.26-.09-.48-.15-.79,.04-.46,.28-.86,.61-1.27,.94-.46,.37-.93,.72-1.36,1.13-.28,.26-.43,.55-.4,.88Zm9.55,7.61s.17-.02,.31-.09c.33-.15,.66-.32,.98-.49,.23-.12,.24-.21,.03-.36-.09-.06-.21-.12-.31-.12-.25-.02-.5,0-.75-.12-.11-.05-.27,0-.41,.02-.15,.02-.3,.08-.45,.09-.34,.03-.51,.28-.39,.58,.15,.39,.46,.5,.98,.49Zm6.61-12.59c.06,.1,.09,.23,.15,.24,.08,.02,.18-.04,.26-.08,.03-.01,.06-.05,.09-.08,.33-.37,.66-.73,.99-1.1,.14-.15,.07-.36-.13-.4-.44-.1-.76,.06-.96,.46-.08,.17-.15,.35-.23,.53-.06,.14-.11,.28-.17,.42Z"/>
        <path d="M45.19,9.95c.51,.06,.92,.1,1.32,.16,.07,0,.15,.07,.19,.12,.29,.35,.28,.8,.4,1.2,.03,.1-.11,.24-.18,.36-.17,.28-.34,.57-.53,.84-.09,.13-.22,.23-.33,.33-.08,.08-.21,.13-.25,.23-.19,.44-.61,.65-.93,.96-.21,.2-.47,.35-.72,.5-.28,.17-.57,.36-.88,.44-.21,.06-.46-.05-.7-.08-.23-.03-.25-.23-.33-.38-.31-.57-.32-.59-.71-.11-.41,.5-.8,1.02-1.14,1.57-.34,.55-.47,1.19-.61,1.82-.05,.21-.16,.46-.09,.62,.11,.24-.05,.45,.02,.67,.06,.2,.01,.45,.09,.64,.25,.58,.68,.99,1.31,1.14,.12,.03,.26-.05,.39-.08,.3-.06,.58-.26,.91-.09,.04,.02,.14-.02,.19-.07,.2-.2,.42-.35,.72-.36,.11,0,.22-.07,.33-.12,.66-.35,1.32-.7,1.97-1.06,.22-.12,.44-.27,.63-.43,.7-.63,1.51-1.1,2.27-1.66,.08-.06,.18-.13,.2-.21,.07-.27,.31-.35,.5-.48,.36-.24,.61-.57,.88-.89,.22-.27,.5-.48,.76-.72,.31-.29,.66-.55,.94-.86,.28-.3,.49-.66,.76-.97,.19-.22,.42-.4,.62-.6,.22-.21,.44-.42,.63-.65,.71-.84,1.26-1.79,1.91-2.67,.35-.47,.63-.97,.67-1.53,.03-.5,.26-.99,.11-1.51-.04-.12,.36-.69,.48-.68,.14,.01,.3,.09,.4,.19,.19,.19,.19,.77,.04,1.01-.04,.07-.1,.12-.14,.19-.16,.27-.21,.6-.1,.86,.08,.2,.36,.35,.57,.47,.34,.18,.7,.32,1.05,.49,.14,.07,.29,.16,.37,.29,.31,.54,.66,1.06,.54,1.76-.05,.3-.01,.64-.02,.96-.01,.41-.14,.76-.35,1.1-.06,.1-.09,.21-.15,.31-.14,.25-.3,.51-.44,.76-.11,.19-.22,.37-.32,.56-.09,.15-.13,.33-.33,.39-.08,.02-.16,.12-.21,.2-.28,.45-.65,.81-1,1.21-.16,.19-.27,.42-.41,.63-.46,.66-.9,1.33-1.39,1.96-.29,.38-.32,.83-.43,1.25-.06,.22,.03,.51,.12,.74,.04,.11,.25,.2,.38,.21,.55,.05,1.05-.04,1.46-.48,.23-.24,.57-.39,.75-.66,.35-.54,.97-.77,1.34-1.29,.2-.28,.54-.46,.79-.71,.27-.28,.51-.6,.76-.9,.09-.11,.16-.23,.25-.33,.57-.61,1.14-1.21,1.71-1.82,.26-.28,.5-.59,.76-.87,.2-.21,.44-.4,.66-.6,.12-.11,.26-.2,.33-.33,.39-.72,1.01-1.21,1.62-1.71,.03-.03,.07-.04,.09-.07,.43-.67,1.19-.74,1.84-1.03,.28-.12,.55-.06,.82-.1,.15-.02,.17,.16,.25,.19,.76,.3,1,.94,1.13,1.66,.02,.1,.04,.2,.03,.29-.06,.56-.15,1.09-.42,1.62-.35,.68-.84,1.22-1.34,1.77-.36,.39-.73,.76-1.17,1.06-.16,.11-.32,.26-.4,.43-.08,.15-.17,.25-.33,.31-.07,.03-.13,.09-.18,.15-.44,.52-.91,1.01-1.31,1.56-.28,.39-.56,.8-.68,1.28-.02,.09-.05,.19-.04,.29,0,.44,.36,.72,.79,.6,.2-.06,.37-.12,.56,0,.03,.02,.09,.04,.11,.03,.46-.29,1.05-.12,1.5-.45,.12-.09,.29-.11,.44-.14,.19-.04,.32-.13,.47-.28,.22-.23,.54-.37,.82-.55,.13-.08,.27-.15,.39-.24,.16-.11,.31-.25,.48-.34,.33-.15,.64-.3,.8-.66,.03-.07,.16-.1,.24-.16,.3-.24,.7-.36,.87-.76,.52-.22,.77-.76,1.21-1.06,.21-.14,.29-.48,.63-.44,.13-.22,.23-.46,.4-.65,.18-.2,.41-.34,.63-.5,.06-.04,.16-.05,.19-.1,.21-.31,.4-.62,.61-.94,.07-.11,.15-.23,.24-.33,.23-.24,.48-.47,.61-.79,.04-.09,.12-.15,.18-.23,.06-.07,.15-.12,.18-.2,.24-.49,.47-.97,.69-1.47,.14-.32,.26-.64,.37-.97,.1-.3,.17-.6,.28-.88,.1-.26,.22-.53,.34-.79,.16-.37,.16-.74,.1-1.12-.04-.27-.08-.54-.12-.81,0-.04,.01-.1-.01-.12-.37-.34-.35-.82-.43-1.25-.07-.38-.21-.66-.59-.81-.16-.06-.23-.22-.16-.4,.08-.18,.24-.22,.45-.13,.07,.03,.17,.05,.2,.11,.22,.39,.43,.79,.65,1.18-.17,.46,.17,.8,.29,1.19,.14,.42,.21,.87,.31,1.3-.22,.39,.03,.91-.33,1.27-.06,.06-.06,.18-.07,.28-.06,.42-.34,.77-.38,1.21-.03,.28-.15,.57-.39,.77-.06,.05-.11,.12-.12,.2-.16,.82-.64,1.46-1.18,2.06-.08,.09-.08,.27-.16,.36-.42,.43-.73,.92-1.03,1.43-.6,.29-.82,.99-1.46,1.25-.17,.07-.27,.32-.4,.49-.31,.4-.75,.68-1.02,1.11-.03,.06-.13,.1-.2,.11-.21,.01-.31,.16-.42,.3-.05,.06-.07,.16-.13,.17-.46,.14-.68,.57-1.02,.85-.19,.16-.43,.19-.6,.34-.17,.15-.32,.31-.57,.4-.3,.11-.53,.39-.79,.6-.05,.04-.08,.11-.13,.12-.59,.14-1.06,.55-1.66,.69-.17,.04-.34,.09-.5,.16-.14,.06-.26,.12-.39,.02-.13-.1-.21-.03-.31,.05-.07,.06-.17,.14-.25,.13-.37-.04-.77-.03-1.09-.19-.37-.18-.75-.42-.96-.82-.05-.09-.13-.18-.13-.26,.03-.41-.26-.72-.32-1.1-.04-.24-.06-.44,.02-.68,.2-.61,.5-1.14,.92-1.62,.3-.34,.54-.73,.84-1.06,.28-.3,.61-.56,.94-.81,.21-.17,.45-.31,.67-.47,.08-.06,.17-.13,.21-.21,.21-.45,.53-.78,.99-.99,.1-.05,.18-.16,.24-.26,.32-.46,.67-.91,.94-1.4,.06-.1,.11-.22,.19-.29,.32-.25,.18-.59,.18-.89,0-.18-.47-.41-.7-.31-.21,.09-.41,.1-.63,.11-.09,0-.18,.06-.27,.1-.12,.05-.24,.12-.37,.15-.41,.07-.66,.35-.89,.66-.11,.15-.27,.27-.4,.41-.23,.24-.45,.5-.69,.73-.41,.38-.65,.94-1.2,1.18-.05,.02-.08,.08-.11,.12-.23,.43-.66,.7-.94,1.1-.12,.17-.25,.33-.43,.46-.17,.11-.29,.32-.43,.48-.16,.18-.29,.39-.49,.51-.19,.12-.28,.26-.35,.44-.18,.44-.53,.75-.88,1.02-.46,.35-.87,.73-1.2,1.21-.07,.1-.15,.2-.25,.26-.31,.18-.54,.43-.76,.71-.22,.28-.49,.51-.75,.75-.06,.06-.16,.08-.25,.11-.22,.08-.47,.11-.64,.24-.25,.19-.47,.22-.75,.12-.38-.14-.78-.22-1.1-.51-.13-.12-.23-.22-.3-.39-.16-.37-.47-.66-.58-1.07-.08-.3-.25-.57-.32-.87-.05-.24-.04-.5,.09-.75,.28-.53,.49-1.1,.77-1.63,.11-.22,.3-.41,.47-.61,.47-.56,.96-1.09,1.37-1.7,.21-.31,.55-.54,.74-.88,.23-.42,.56-.77,.77-1.21,.1-.21,.35-.38,.57-.49,.35-.17,.49-.5,.66-.8,.13-.23,.24-.5,.26-.77,.03-.26-.05-.54-.1-.8,0-.04-.12-.1-.19-.09-.35,0-.63-.14-.92-.33-.61-.39-.85-.36-1.15,.28-.42,.92-1.21,1.58-1.6,2.51-.06,.14-.21,.24-.33,.34-.29,.25-.58,.5-.87,.75-.06,.05-.14,.11-.16,.18-.07,.34-.26,.56-.57,.7-.04,.45-.52,.58-.71,.94-.18,.34-.59,.56-.9,.83-.06,.05-.16,.07-.19,.13-.29,.48-.72,.83-1.17,1.15-.03,.02-.07,.05-.08,.09-.16,.47-.63,.66-.91,1.01-.05,.06-.12,.12-.19,.14-.48,.12-.78,.51-1.16,.77-.34,.23-.63,.53-.95,.8-.06,.05-.13,.08-.2,.12-.07,.04-.14,.07-.2,.12-.31,.2-.62,.41-.92,.62-.31,.21-.72,.24-.95,.57-.65,.29-1.22,.78-1.97,.84-.1,0-.19,.04-.28,.08-.55,.25-1.06,.18-1.55-.15-.03-.02-.08-.05-.11-.04-.4,.1-.6-.25-.89-.39-.07-.03-.16-.11-.16-.17,0-.34-.3-.5-.45-.74-.48-.75-.74-1.54-.77-2.42,0-.17-.03-.36-.09-.52-.07-.18,.07-.3,.07-.45,.03-.87,.5-1.54,.98-2.22,.11-.16,.23-.31,.34-.48,.44-.69,.89-1.35,1.64-1.77,.27-.15,.49-.39,.74-.59,.75-.61,1.58-1.08,2.49-1.4,.27-.1,.57-.12,.77-.16Zm-2.5,3.87c.02,.08,.05,.25,.1,.42,.09,.32,.2,.39,.48,.26,.52-.23,1.06-.42,1.49-.8,.29-.26,.67-.47,.88-.78,.21-.31,.46-.59,.68-.88,.25-.32,.38-.71,.19-1.13-.1-.21-.31-.26-.49-.11-.14,.12-.25,.34-.39,.36-.4,.06-.67,.33-.98,.52-.38,.23-.86,.3-1.15,.68-.12,.16-.27,.29-.42,.42-.29,.25-.38,.58-.4,1.05Z"/>
        <path d="M3.6,32.4c0,.18,0,.29-.25,.37-.52,.16-.89,.08-1.23-.34-.16-.19-.38-.33-.58-.5-.63-.55-.99-1.26-1.22-2.03-.09-.31-.14-.65-.19-.97-.04-.23,.02-.47-.1-.7-.06-.12-.01-.31,0-.47,.02-.23,.09-.46,.09-.7,0-1.06,.41-1.97,1.01-2.82,.18-.25,.28-.55,.46-.81,.57-.84,1.3-1.55,2.01-2.26,.4-.39,.79-.8,1.2-1.17,.34-.3,.7-.57,1.06-.84,.8-.61,1.62-1.19,2.41-1.81,1.14-.9,2.33-1.75,3.68-2.3,.76-.31,1.45-.76,2.23-1.02,.51-.17,.96-.5,1.45-.76,.05-.03,.11-.04,.17-.05,.58-.14,1.05-.5,1.58-.76,.19-.09,.37-.2,.57-.29,.21-.1,.44-.16,.65-.26,.77-.34,1.52-.72,2.3-1.02,.66-.25,1.3-.53,1.95-.79,.76-.31,1.5-.65,2.28-.9,.57-.19,1.17-.27,1.76-.41,.32-.07,.65-.14,.96-.24,.5-.17,1-.33,1.47-.57,.46-.23,.94-.35,1.42-.51,.48-.16,.94-.38,1.43-.52,.29-.08,.53-.22,.79-.34,.37-.16,.76-.29,1.14-.45,.36-.15,.72-.31,1.06-.49,.1-.06,.21-.19,.23-.31,.13-.65,.51-1.22,.63-1.88,.04-.24,.22-.46,.34-.68,.35-.66,.71-1.3,1.27-1.82,.57-.53,1.21-.81,1.98-.95,.48-.09,.87,0,1.3,.12,.14,.04,.29,.06,.35,.19,.1,.23,.28,.48,.25,.7-.06,.41-.13,.85-.51,1.15-.4,.32-.68,.76-1.08,1.08-.14,.11-.24,.25-.45,.27-.1,0-.22,.12-.26,.22-.12,.29-.37,.37-.61,.5-.36,.2-.71,.42-1.03,.67-.13,.1-.28,.27-.3,.42-.12,.81-.49,1.55-.55,2.39-.05,.73-.14,1.47-.41,2.17-.12,.3-.1,.65-.17,.98-.06,.28-.16,.56-.23,.84-.23,1-.53,1.99-.85,2.96-.01,.04-.05,.07-.06,.1-.24,.48-.43,1-.74,1.44-.35,.51-.71,1.02-1,1.57-.49,.29-.72,.82-1.08,1.23-.13,.15-.23,.32-.34,.48-.07,.1-.12,.21-.2,.29-.5,.45-1.01,.89-1.51,1.33-.03,.03-.08,.04-.1,.07-.33,.69-1.13,.87-1.57,1.44-.05,.06-.13,.15-.18,.15-.5-.06-.66,.46-1.04,.61-.23,.09-.43,.26-.64,.4-.26,.17-.52,.35-.78,.53-.13,.09-.26,.18-.4,.26-.2,.11-.48,.15-.61,.31-.16,.19-.48,.1-.57,.38-.01,.03-.11,.07-.15,.06-.37-.1-.58,.2-.83,.36-.57,.38-1.15,.7-1.84,.85-.69,.15-1.41,.28-2.06,.62-.19,.1-.48,.1-.68,.03-.23-.08-.38-.06-.53,.1-.2,.23-.44,.22-.7,.14-.2-.07-.41-.13-.61-.19-.26,.26-.52,0-.77-.02-.16-.01-.34-.1-.47-.2-.38-.31-.74-.63-1.09-.96-.14-.13-.3-.25-.33-.48-.02-.12-.15-.23-.23-.33-.16-.2-.33-.39-.49-.59-.05-.06-.1-.14-.1-.2-.02-.55-.14-1.07-.34-1.59-.04-.12,.05-.3,.1-.43,.05-.12,.18-.11,.23-.02,.1,.16,.18,.34,.23,.52,.14,.53,.25,1.06,.38,1.59,.02,.09,.07,.19,.12,.27,.25,.33,.58,.58,.78,.99,.17,.36,.56,.61,.86,.9,.04,.04,.11,.08,.15,.07,.59-.15,1.13,.15,1.71,.14,.47,0,.86-.23,1.29-.34,.14-.04,.27-.13,.43-.16,.5-.1,1-.2,1.47-.36,.31-.1,.64-.17,.89-.42,.16-.15,.41-.21,.62-.31,.09-.04,.21-.06,.26-.14,.25-.36,.66-.49,1-.7,.43-.26,.87-.52,1.28-.8,.26-.18,.58-.29,.78-.5,.46-.5,1.1-.76,1.57-1.26,.37-.4,.85-.7,1.27-1.05,.61-.52,1.09-1.15,1.55-1.79,.06-.08,.08-.19,.16-.24,.52-.39,.79-.98,1.19-1.46,.26-.31,.37-.75,.64-1.05,.33-.36,.36-.87,.74-1.19,.13-.11,.16-.4,.15-.61,0-.3,.11-.55,.27-.77,.4-.54,.58-1.17,.67-1.79,.15-1.03,.5-2,.76-2.99,.17-.64,.42-1.25,.49-1.92,.02-.19,.15-.36,.19-.55,.02-.07-.05-.18-.11-.24-.09-.09-.16-.03-.22,.08-.04,.07-.14,.14-.23,.16-.6,.13-1.07,.54-1.66,.71-.41,.12-.81,.3-1.21,.4-.64,.16-1.23,.49-1.91,.55-.32,.03-.64,.27-.93,.46-.21,.14-.41,.23-.65,.22-.18,0-.33,.07-.49,.16-.23,.12-.52,.15-.78,.21-.1,.02-.23-.04-.29,.01-.62,.47-1.46,.25-2.11,.67-.16,.1-.4,.06-.5,.3-.02,.06-.16,.09-.26,.1-.47,.05-.89,.21-1.31,.45-.33,.19-.65,.43-1.09,.4-.19-.01-.39,.16-.58,.24-.18,.08-.36,.14-.54,.21-.07,.03-.17,.02-.22,.07-.25,.29-.61,.33-.94,.45-.51,.18-1,.39-1.47,.67-.64,.38-1.31,.68-2.03,.86-.28,.07-.57,.25-.82,.41-.35,.23-.74,.35-1.1,.53-.4,.19-.81,.38-1.19,.6-.4,.24-.9,.28-1.22,.67-.88,.17-1.45,.89-2.2,1.29-.45,.25-.9,.55-1.27,.96-.27,.3-.64,.51-.98,.75-.48,.34-.95,.7-1.37,1.12-.72,.71-1.47,1.39-2.19,2.1-.18,.18-.29,.43-.49,.58-.32,.25-.51,.61-.83,.86-.06,.04-.11,.13-.11,.2,.04,.46-.25,.78-.5,1.1-.22,.27-.35,.54-.37,.9-.01,.26-.13,.53-.25,.77-.06,.11-.06-.05-.1-.08-.04-.03-.11-.07-.14-.06-.04,.01-.07,.08-.08,.13,0,.05,0,.13,.03,.17,.4,.49,.28,.95-.04,1.41-.04,.05-.07,.15-.04,.19,.25,.36,.15,.8,.27,1.19,.06,.2,.08,.42,.19,.61,.05,.08,.13,.17,.13,.26,0,.4,.3,.63,.48,.92,.17,.26,.37,.52,.6,.72,.25,.21,.55,.38,.91,.37,.14,0,.21-.05,.25-.19,.02-.06,.11-.1,.16-.15,.05,.08,.13,.15,.16,.24,.03,.07,0,.16,0,.24ZM40.31,.48c-.17,.07-.31,.12-.44,.19-.12,.06-.23,.15-.35,.21-.38,.18-.69,.41-.83,.84-.03,.11-.1,.21-.18,.3-.49,.52-.49,1.26-.83,1.84-.02,.04,.05,.14,.09,.2,.02,.02,.1,.02,.14,0,.36-.27,.72-.54,1.07-.82,.28-.22,.56-.43,.83-.66,.21-.18,.41-.37,.59-.57,.22-.24,.28-.59,.56-.8,.12-.09,.08-.39-.06-.47-.18-.11-.38-.17-.59-.26Z"/>
        <path d="M90.48,5.45c.17,.13,.55,.01,.64,.34,.07,.27-.13,.48-.33,.65-.15,.12-.31,.25-.48,.32-.31,.13-.54,.3-.62,.64-.01,.07-.09,.13-.15,.18-.12,.12-.26,.19-.42,.09-.15-.1-.18-.24-.1-.41,.14-.3,.27-.59,.39-.89,.06-.14,.05-.31,.12-.44,.14-.26,.59-.48,.95-.48Z"/>
      </g>
    </g>
  </g>
</svg>
