<?xml version="1.0" encoding="UTF-8"?>
<svg id="Layer_2" data-name="Layer 2" xmlns="http://www.w3.org/2000/svg" viewBox="0 0 94.78 33.44">
  <g id="Layer_1-2" data-name="Layer 1">
    <path d="M64.89,18.15c-.06,0-.14,0-.17,.02-.46,.5-1.03,.91-1.34,1.56-.17,.35-.46,.64-.68,.96-.67,.94-1.37,1.86-2,2.84-.39,.6-.72,1.21-.96,1.87-.08,.22-.22,.41-.32,.62-.28,.56-.19,1.15-.19,1.74,0,.33,.1,.62,.27,.89,.06,.09,.15,.2,.25,.22,.37,.09,.76,.27,1.1-.09,.45-.01,.74-.38,1.17-.49,.43-.11,.81-.46,1.19-.73,.38-.27,.74-.58,1.12-.86,1.19-.89,2.42-1.74,3.56-2.68,.5-.41,1-.83,1.48-1.26,.17-.15,.39-.26,.58-.4,.97-.74,1.93-1.48,2.9-2.22,.4-.31,.86-.52,1.32-.74,.38-.18,.53-.56,.8-.84-.03-.29,.22-.41,.35-.59,.61-.84,1.51-1.35,2.32-1.96,.2-.15,.51-.2,.77-.23,.4-.04,.8-.04,1.2-.04,.09,0,.19,.05,.26,.1,.12,.09,.09,.28-.04,.34-.24,.12-.49,.24-.73,.34-.45,.19-.82,.48-1.21,.77-.4,.29-.82,.53-1.16,.9-.2,.22-.38,.39-.46,.7-.07,.3-.31,.55-.4,.84-.15,.46-.22,.94-.21,1.44,.03,1.11,.04,2.22,0,3.33-.02,.58-.16,1.15-.46,1.67-.06,.1-.13,.21-.15,.32-.15,.69-.59,1.16-1.07,1.64-.33,.33-.72,.55-1.06,.85-.28,.26-.29,.37,.02,.54,.44,.24,.81,.55,1.19,.87,.23,.19,.54,.3,.83,.42,.3,.14,.61,.28,.92,.36,.24,.06,.43,.17,.64,.28,.55,.29,1.1,.57,1.71,.74,.24,.06,.46,.2,.68,.33,.49,.28,1.09,.14,1.58,.41,.03,.02,.08,.01,.12,0,.4-.18,.81,.05,1.2-.04,.49-.11,1.02-.06,1.47-.34,.03-.02,.07-.05,.1-.05,.62,.02,1.16-.31,1.74-.45,.51-.13,.98-.44,1.46-.67,.49-.24,.9-.61,1.4-.84,.23-.11,.45-.24,.61-.45,.17-.23,.46-.25,.67-.44,.34-.31,.68-.65,1.12-.85,.15-.07,.26-.21,.39-.32,.21-.18,.37-.41,.62-.57,.22-.14,.32-.48,.49-.72,.07-.1,.15-.19,.25-.25,.37-.25,.49-.4,.63-.76,.06-.16,.15-.32,.25-.46,.27-.43,.59-.84,.82-1.29,.13-.25,.11-.57,.15-.86,.02-.14-.03-.3,.03-.4,.21-.33,.16-.68,.15-1.04,0-.29-.02-.58,.06-.88,.07-.31,.09-.67-.11-.98,.06-.49-.25-.86-.43-1.26-.05-.11-.11-.23-.2-.29-.3-.2-.59-.35-.78-.72-.14-.29-.51-.49-.82-.66-.43-.24-.86-.56-1.42-.36-.1,.04-.27-.02-.37-.08-.18-.1-.31-.08-.49,.01-.33,.16-.7,.26-.84,.67-.03,.08-.18,.18-.25,.17-.16-.04-.35-.1-.39-.31-.07-.29,.02-.49,.27-.7,.32-.26,.7-.32,1.06-.25,.22,.04,.43,.06,.64,.05,.58-.01,1.13,.12,1.65,.34,.43,.18,.82,.47,1.2,.74,.17,.12,.28,.32,.42,.49,.16,.19,.34,.36,.54,.52,.29,.21,.63,1,.67,1.45,.03,.35,.02,.7,.14,1.05,.12,.33-.08,.65-.1,.98,0,.08-.07,.15-.06,.22,.05,.54-.15,1.05-.18,1.57-.04,.69-.42,1.21-.77,1.75-.14,.22-.3,.41-.4,.67-.11,.29-.37,.53-.57,.79-.29,.37-.7,.65-.9,1.1-.49,.32-.82,.85-1.37,1.1-.07,.03-.18,.05-.21,.1-.29,.6-.95,.77-1.4,1.2-.29,.28-.68,.48-1.05,.64-.45,.19-.84,.48-1.28,.67-.37,.16-.71,.4-1.06,.6-.05,.03-.11,.05-.17,.04-.43-.02-.79,.19-1.19,.29-.34,.08-.68,.18-1.01,.28-.19,.05-.39,.09-.55,.19-.26,.18-.48,.17-.75,.02-.12-.07-.31-.03-.46-.04-.59-.02-1.18,0-1.77-.08-.31-.04-.61-.24-.91-.37-.09-.04-.16-.12-.24-.16-.45-.19-.9-.37-1.34-.55-.05-.02-.13,0-.17-.03-.56-.49-1.33-.54-1.94-.94-.68-.01-1.02-.6-1.55-.88-.29-.16-.57-.34-.83-.55-.37-.29-.71-.26-1.07,0-.05,.03-.1,.08-.15,.08-.66,.11-1.31,.22-1.97,.32-.23,.03-.47,0-.69-.1-.23-.1-.48-.17-.73-.2-.4-.04-.33-.39-.45-.61-.1-.2,.03-.38,.2-.51,.23-.18,.45-.42,.72-.5,.45-.13,.91-.42,1.4-.09,.22,.15,.46,.21,.73,.17,.25-.04,.47,.06,.67,.19,.25,.17,.47,.12,.68-.06,.25-.21,.53-.38,.69-.71,.19-.38,.48-.71,.68-1.09,.18-.34,.28-.72,.44-1.08,.28-.63,.34-1.3,.43-1.98,.06-.4,.04-.78,.06-1.17,.02-.29,.07-.58,.08-.87,.01-.24,.04-.49-.03-.71-.07-.24,.02-.45,0-.67-.01-.07-.03-.2-.07-.21-.08-.02-.2-.01-.27,.03-.37,.26-.73,.53-1.09,.79-.24,.17-.49,.33-.71,.52-.32,.27-.63,.57-.94,.85-.07,.06-.16,.11-.23,.18-.2,.2-.64,.02-.7,.44-.26,.15-.5,.3-.71,.52-.2,.22-.43,.4-.66,.58-.4,.32-.81,.62-1.22,.92-.08,.06-.18,.09-.24,.16-.45,.51-.91,.99-1.49,1.35-.07,.04-.11,.12-.18,.15-.65,.26-1.1,.74-1.58,1.22-.25,.25-.63,.37-.94,.57-.16,.1-.31,.23-.47,.35-.16,.12-.3,.27-.47,.35-.38,.19-.77,.41-1.18,.5-.46,.1-.95,.13-1.42,.08-.24-.03-.55-.25-.65-.46-.31-.65-.78-1.19-1.01-1.89-.24-.76-.36-1.47-.06-2.23,.13-.34,.11-.74,.33-1.05,.01-.02,0-.09-.03-.1-.05-.02-.14-.04-.15-.02-.27,.33-.69,.51-.91,.92-.15,.27-.48,.45-.74,.67-.04,.04-.13,.04-.15,.09-.31,.55-.83,.89-1.24,1.34-.02,.03-.01,.09-.04,.11-.43,.23-.75,.58-1.1,.92-.32,.31-.81,.45-1.25,.63-.37,.15-.7,.07-1.05-.16-.85-.56-1.32-1.81-1.32-2.56,0-.13,.02-.27,.07-.4,.15-.43,.24-.86,.23-1.32,0-.16,0-.31,.13-.44,.05-.05,.03-.16,.04-.24-.07,.02-.15,.03-.21,.07-.09,.07-.15,.16-.23,.23-.27,.26-.54,.52-.82,.77-.04,.04-.08,.1-.13,.12-.67,.15-1.1,.66-1.56,1.09-.18,.17-.47,.23-.53,.53,0,.03-.1,.05-.16,.06-.49,.12-.9,.36-1.25,.73-.23,.24-.49,.46-.74,.68-.07,.06-.18,.11-.26,.1-.29-.04-.44,.09-.53,.35-.02,.07-.09,.14-.16,.17-.5,.24-.88,.71-1.49,.75-.06,0-.15,.05-.18,.11-.11,.19-.28,.25-.48,.28-.08,0-.2,.02-.22,.06-.15,.36-.49-.05-.67,.18-.4-.22-.89-.33-1.13-.79-.15-.29-.35-.56-.52-.85-.06-.1-.13-.21-.15-.32-.07-.45-.16-.89-.17-1.34,0-.28,.08-.59,.21-.84,.28-.54,.42-1.15,.86-1.6,.49-1.05,1.29-1.87,1.99-2.76,.25-.32,.62-.51,.85-.85,.15-.22,.38-.39,.54-.61,.47-.69,1.07-1.26,1.63-1.86,.16-.17,.33-.35,.54-.45,.53-.27,.59-.79,.69-1.28,.04-.21,.04-.45-.02-.65-.08-.3-.27-.56-.53-.75-.04-.03-.12-.03-.16,0-.15,.1-.32,.18-.42,.32-.41,.55-.98,.95-1.36,1.54-.25,.39-.68,.69-1.04,1.01-.11,.1-.29,.11-.42,.2-.17,.12-.3,.28-.47,.39-.17,.12-.38,.2-.54,.34-.17,.15-.33,.29-.56,.29-.16,0-.28,.05-.35,.18-.28,.46-.78,.58-1.22,.79-.33,.16-.68,.27-1.03,.38-.23,.07-.45,.2-.71,.11-.06-.02-.16,0-.22,.04-.12,.06-.22,.2-.34,.2-.45,.02-.91,.02-1.36,0-.33-.02-.66-.08-.98-.15-.38-.09-.75-.2-1.11-.33-.32-.11-.57-.01-.67,.32-.07,.24-.14,.48-.19,.73-.13,.59-.53,1.04-.85,1.52-.27,.41-.57,.8-.87,1.19-.28,.35-.59,.69-.89,1.03-.36,.01-.45,.32-.62,.56-.14,.19-.31,.38-.5,.52-.23,.16-.41,.35-.58,.57-.16,.22-.44,.36-.69,.49-.24,.12-.5,.19-.53,.51,0,.03-.05,.07-.08,.08-.43,.17-.78,.45-1.09,.8-.05,.05-.13,.11-.2,.11-.26,0-.44,.15-.63,.29-.45,.33-.98,.25-1.49,.25-.12,0-.23-.22-.37-.27-.65-.23-1.12-1.05-1.14-1.68-.03-.83,.08-1.68,.73-2.31,.3-.3,.49-.66,.71-1.01,.2-.31,.44-.61,.71-.87,.41-.41,.87-.77,1.3-1.16,.05-.05,.07-.14,.11-.2,.32-.52,.26-.68-.36-.66-.79,.02-1.48-.3-2.21-.52-.92-.28-1.45-.99-2.09-1.6-.07-.07-.11-.16-.18-.23-.11-.1-.28-.02-.3,.13-.06,.45-.17,.89-.17,1.34,0,.46-.1,.89-.21,1.33-.25,.92-.43,1.87-1.13,2.6-.06,.06-.07,.18-.1,.27-.04,.11-.06,.24-.13,.32-.37,.44-.56,.99-.9,1.45-.28,.38-.61,.72-.92,1.07-.2,.24-.41,.48-.6,.72-.18,.22-.32,.5-.53,.67-.35,.28-.6,.65-.91,.94-.34,.31-.6,.74-1.08,.9-.08,.03-.15,.13-.2,.2-.25,.35-.45,.75-.95,.81-.05,0-.09,.11-.13,.17-.17,.26-.38,.48-.67,.63-.41,.21-.76,.53-1.2,.7-.7,.29-1.4,.58-2.18,.56-.3-.01-.59-.05-.85-.19-.17-.09-.37-.21-.43-.37-.15-.36-.4-.64-.67-.85-.28-.22-.38-.51-.45-.78-.12-.51-.15-1.05-.19-1.57-.01-.19,.03-.39,.09-.57,.15-.52,.28-1.06,.62-1.51,.08-.11,.11-.25,.16-.38,.51-1.1,1.01-2.21,1.76-3.18,.03-.03,.02-.12,0-.16-.02-.03-.12-.04-.15-.02-.33,.25-.69,.48-.95,.79-.31,.36-.78,.55-.99,1-.02,.04-.1,.06-.15,.08-.42,.12-.68,.46-.96,.76-.2,.21-.41,.39-.68,.54-.42,.24-.77,.6-1.14,.93-.19,.17-.37,.32-.64,.41-.29,.09-.59,.18-.83,.41-.25,.23-.9,.11-1.11-.16-.25-.32-.55-.63-.72-1-.18-.39-.46-.8-.21-1.27-.06-.79,.41-1.41,.69-2.08,.27-.67,.64-1.3,1.14-1.84,.08-.09,.13-.19,.2-.29,.61-.87,1.33-1.64,2.19-2.27,.33-.24,.69-.45,1.06-.64,.33-.17,.69-.14,1.02,.02,.12,.06,.27,.17,.29,.28,.02,.09-.12,.22-.17,.34-.44,.92-1.21,1.53-1.91,2.22-.3,.3-.52,.69-.78,1.03-.12,.16-.27,.29-.4,.45-.35,.42-.74,.82-.95,1.34-.02,.05-.05,.11-.09,.15-.5,.41-.69,1.05-1.07,1.55-.19,.26-.3,.62-.32,.99-.02,.37,.21,.58,.38,.83,.12,.18,.34,.13,.48,.02,.24-.19,.48-.34,.8-.34,.05,0,.12-.02,.16-.06,.43-.47,1.03-.71,1.49-1.16,.4-.39,.9-.69,1.33-1.07,.52-.46,1.03-.95,1.6-1.35,.59-.42,1.06-.96,1.64-1.38,.15-.11,.34-.18,.49-.3,.57-.43,1.04-.95,1.51-1.48,.38-.43,.79-.81,1.36-1,.34-.11,.67-.1,1-.09,.13,0,.26,.14,.38,.23,.14,.11,0,.24,.02,.36,.03,.49-.31,.77-.61,1.04-.29,.26-.57,.52-.8,.86-.18,.27-.47,.45-.7,.69-.12,.12-.22,.27-.32,.41-.34,.46-.7,.9-1.02,1.38-.26,.39-.47,.81-.7,1.21-.05,.09-.07,.19-.13,.26-.6,.66-.9,1.52-1.43,2.23-.35,.47-.48,1.08-.57,1.68-.1,.69,.01,1.31,.32,1.93,.15,.31,.44,.37,.69,.5,.22,.12,.4,.05,.61-.03,.27-.1,.58-.1,.86-.18,.26-.08,.5-.21,.74-.33,.16-.07,.31-.23,.46-.23,.38,.01,.56-.27,.81-.45,.14-.1,.24-.25,.38-.35,.33-.24,.64-.48,.91-.81,.24-.29,.57-.51,.84-.79,.63-.66,1.32-1.25,1.96-1.9,.35-.35,.65-.74,.95-1.14,.38-.5,.74-1.02,1.09-1.54,.13-.19,.22-.4,.34-.6,.24-.42,.48-.85,.73-1.27,.45-.76,.71-1.6,.93-2.44,.09-.37,.06-.78,.1-1.17,.02-.25,.03-.51,.11-.75,.09-.26,.07-.5,.07-.76,0-.24,0-.47-.24-.63-.1-.07-.21-.22-.22-.34-.03-.5-.3-.92-.37-1.42-.04-.31-.12-.6,0-.91,.06-.14,.2-.21,.32-.12,.11,.08,.21,.18,.28,.3,.25,.43,.43,.87,.43,1.39,0,.35,.1,.69,.16,1.04,0,.04,.04,.07,.07,.1,.66,.53,.96,1.41,1.77,1.79,.03,.02,.06,.05,.09,.08,.51,.6,1.24,.67,1.93,.89,.55,.18,1.12,.14,1.67,.26,.41,.09,.83-.08,1.16-.34,.59-.46,1.25-.66,1.99-.58,.31,.03,.61,.12,.91,.21,.25,.08,.29,.31,.12,.52-.29,.37-.7,.57-1.08,.82-.19,.13-.41,.21-.51,.47-.05,.13-.22,.21-.35,.3-.31,.23-.66,.39-.87,.76-.17,.28-.48,.46-.73,.69-.25,.23-.54,.42-.73,.69-.62,.87-1.48,1.54-2.03,2.47-.13,.23-.22,.46-.3,.69-.06,.18-.09,.38-.15,.56-.13,.36,.04,.63,.42,.63,.67,0,1.27-.27,1.79-.65,.36-.26,.71-.53,1.09-.77,.54-.35,1.03-.78,1.54-1.18,.12-.49,.58-.65,.9-.95,.32-.31,.59-.67,.88-1.01,.05-.06,.09-.16,.15-.17,.3-.09,.39-.37,.53-.6,.12-.18,.17-.41,.42-.47,.5-.73,.89-1.51,1.16-2.35,.06-.2,.1-.41,.14-.62,.03-.13,.08-.28,.05-.4-.02-.07-.2-.07-.28-.14-.37-.3-.62-.72-.93-1.08,.05-.45-.4-.64-.51-1.02-.08-.27-.17-.51-.17-.8,0-.41,.1-.59,.48-.56,.28,.02,.58,.02,.88,.2,.42,.25,.56,.6,.58,1.01,.02,.35,.08,.66,.28,.95,.11,.15,.14,.32,.14,.5,0,.14,.01,.28,.01,.42,.02,.69,.15,.82,.84,.96,.24,.05,.48,.15,.72,.23,.11,.03,.22,.08,.33,.09,.33,.04,.67,.04,.98,.13,.23,.07,.4,.04,.62-.03,.5-.16,1-.34,1.54-.33,.08,0,.2,0,.23-.04,.27-.42,.86-.29,1.14-.67,.55-.06,.9-.51,1.38-.72,.51-.23,.95-.61,1.42-.93,.07-.04,.11-.13,.17-.16,1-.52,1.64-1.4,2.32-2.25,.15-.18,.32-.36,.51-.5,.26-.18,.36-.41,.35-.7-.03-.72,.36-1.22,.9-1.62,.2-.15,.43-.22,.66-.1,.12,.06,.07,.51-.04,.72-.19,.36-.37,.73-.54,1.11-.13,.27-.11,.56,.02,.83,.11,.25,.23,.5,.36,.73,.21,.37,.32,.75,.3,1.18,0,.27,.12,.54,.11,.81-.01,.27-.12,.53-.18,.79-.04,.15-.05,.32-.13,.45-.27,.41-.56,.81-.86,1.2-.48,.61-.93,1.24-1.47,1.78-.37,.37-.7,.77-1.04,1.16-.7,.83-1.28,1.75-2.03,2.54-.15,.16-.26,.35-.37,.53-.38,.61-.7,1.25-.89,1.95-.04,.14-.04,.31,0,.45,.05,.19,.13,.37,.22,.54,.15,.3,.29,.37,.61,.28,.15-.05,.26-.14,.43-.02,.12,.09,.26-.01,.35-.14,.19-.3,.43-.48,.81-.49,.1,0,.22-.09,.29-.17,.19-.2,.42-.34,.67-.48,.67-.38,1.26-.87,1.85-1.36,.29-.23,.6-.4,.96-.52,.25-.09,.47-.28,.66-.48,.6-.64,1.26-1.18,2.06-1.56,.07-.03,.17-.06,.2-.12,.2-.49,.71-.59,1.08-.87,.35-.27,.68-.58,1.11-.75,.2-.08,.37-.31,.5-.5,.33-.46,.7-.88,1.09-1.29,.4-.41,.73-.89,1.12-1.31,.39-.41,.88-.71,1.39-.97,.12-.06,.25-.1,.36-.17,.2-.13,.4-.24,.65-.23,.11,0,.23-.05,.34-.07,.09-.02,.2-.07,.28-.04,.52,.18,1.07,.19,1.6,.3,.64,.13,1.21,.47,1.4,1.19,.05,.19,.09,.38,.15,.56,.04,.11,.11,.21,.17,.31,.06-.1,.13-.19,.19-.29,.25-.39,.5-.78,.76-1.16,.51-.75,1.08-1.45,1.66-2.15,.41-.5,.92-.91,1.35-1.38,.47-.51,.91-1.05,1.37-1.57,.2-.23,.45-.41,.67-.62,.28-.27,.57-.53,.83-.82,.4-.46,.84-.87,1.28-1.28,.27-.26,.57-.49,.85-.73,.13-.12,.28-.23,.39-.37,.19-.25,.39-.48,.67-.63,.07-.04,.14-.09,.17-.16,.3-.58,.9-.87,1.32-1.33,.69-.75,1.59-1.23,2.28-1.98,.29-.32,.66-.55,.99-.83,.51-.43,1.01-.88,1.55-1.27,.52-.37,1.08-.67,1.62-1.01,.75-.47,1.49-.94,2.23-1.41,.08-.05,.16-.13,.25-.15,.51-.08,.86-.53,1.4-.55,.67-.02,1.27,.2,1.86,.47,.38,.17,.53,.58,.58,.98,.04,.35,.04,.7-.07,1.06-.09,.29-.08,.62-.11,.93-.04,.5-.34,.9-.53,1.34-.16,.37-.41,.7-.61,1.05-.01,.02-.03,.03-.03,.05-.06,.44-.31,.78-.62,1.08-.39,.38-.62,.9-1.01,1.27-.2,.19-.42,.36-.62,.55-.17,.15-.37,.27-.45,.52-.03,.11-.12,.21-.2,.28-.25,.23-.63,.23-.83,.6-.16,.29-.53,.45-.8,.68-.31,.27-.61,.57-.92,.84-.48,.41-.98,.77-1.57,1.01-.05,.02-.13,.05-.14,.1-.08,.28-.35,.33-.54,.47-.27,.21-.54,.36-.87,.45-.28,.08-.46,.36-.76,.42-.25,.05-.54,.09-.64,.4-.57,.27-1.02,.79-1.7,.84-.07,0-.14,.05-.21,.1-.29,.2-.54,.46-.94,.43-.06,0-.14,.07-.21,.11-.61,.34-1.22,.68-1.84,1.01-.25,.13-.51,.24-.81,.19-.06-.01-.15,.03-.2,.07-.36,.33-.77,.54-1.24,.67-.43,.12-.85,.25-1.27,.42-.31,.12-.3,.15-.45-.24,.3,.06,.51-.15,.75-.26,.42-.19,.86-.35,1.29-.53,.3-.13,.61-.25,.9-.4,.52-.27,1.08-.43,1.57-.76,.34-.23,.68-.52,1.06-.61,.8-.21,1.45-.75,2.25-.95,.08-.02,.15-.13,.22-.19,.08-.06,.15-.12,.24-.17,.99-.54,2.09-.89,2.91-1.71,.03-.03,.07-.07,.1-.07,.37,.08,.52-.25,.75-.41,.61-.42,1.2-.88,1.78-1.34,.16-.13,.27-.33,.43-.46,.65-.5,1.23-1.07,1.81-1.66,.5-.51,.99-1.03,1.49-1.54,.3-.31,.54-.66,.68-1.08,.04-.13,.14-.24,.21-.35,.38-.62,.76-1.23,.96-1.94,.1-.35,.14-.72,.21-1.09,.03-.19,.06-.38,.1-.57,.03-.13,.04-.27,.1-.39,.11-.21,.05-.39-.1-.51-.24-.19-.49-.37-.85-.34-.3,.03-.58,.06-.82,.28-.11,.1-.26,.17-.4,.25-.38,.23-.81,.39-1.13,.74-.15,.17-.37,.28-.56,.42-.45,.31-.9,.61-1.34,.92-.13,.09-.27,.17-.37,.28-.43,.46-.88,.9-1.4,1.27-.25,.18-.48,.41-.68,.65-.24,.29-.48,.56-.77,.8-.55,.45-1.12,.87-1.59,1.41-.17,.19-.39,.33-.57,.51-.33,.32-.66,.63-.95,.99-.36,.44-.73,.9-1.18,1.23-.43,.3-.79,.63-1.07,1.07-.1,.15-.22,.3-.37,.39-.39,.23-.63,.6-.93,.91-.12,.12-.19,.3-.32,.42-.53,.5-1.08,.98-1.6,1.5-.71,.7-1.42,1.4-2.09,2.13-.31,.34-.66,.68-.71,1.19Zm-12.47,9.67c.43-.02,.42-.03,.79-.31,.18-.14,.38-.27,.58-.39,.17-.1,.29-.24,.41-.4,.32-.43,.72-.81,1.15-1.14,.28-.22,.57-.41,.72-.76,.07-.15,.23-.28,.36-.4,.45-.41,.9-.8,1.35-1.2,.48-.43,1-.84,1.43-1.31,.37-.4,.67-.87,.95-1.34,.14-.24,.24-.57,.19-.83-.08-.39-.31-.75-.48-1.12-.02-.05-.05-.11-.09-.15-.4-.32-1.26-.31-1.66,.03-.63,.53-1.36,.95-1.87,1.62-.04,.05-.08,.09-.13,.12-.38,.3-.78,.58-.98,1.05-.05,.1-.13,.22-.23,.27-.37,.2-.55,.55-.8,.85-.07,.09-.15,.2-.25,.26-.44,.22-.6,.66-.84,1.04-.33,.51-.64,1.03-.96,1.54-.34,.54-.57,1.11-.54,1.76,.03,.61,.29,.84,.89,.81Zm16.37,1.7c.67-.02,1.3-.22,1.93-.42,.07-.02,.13-.07,.19-.1-.05-.07-.1-.2-.16-.22-.43-.09-.87-.18-1.31-.24-.25-.03-.51,0-.74,.15-.11,.07-.25,.09-.38,.13-.23,.07-.31,.2-.27,.45,.03,.19,.14,.27,.33,.26,.14,0,.28,0,.42-.01Zm-36.31-11.61s0,0,0,0c-.01-.16,.02-.34-.05-.47-.16-.3-.22-.62-.26-.95-.02-.15-.1-.3-.19-.42-.06-.07-.22-.13-.31-.1-.09,.02-.21,.15-.21,.24-.01,.25-.04,.51,.1,.75,.21,.35,.38,.72,.57,1.07,.05,.08,.13,.15,.2,.22,.03,.03,.07,.04,.1,.06,.02-.03,.04-.07,.04-.1,0-.1,0-.2,0-.3Z"/>
  </g>
</svg>