<?xml version="1.0" encoding="UTF-8"?>
<svg id="Layer_2" data-name="Layer 2" xmlns="http://www.w3.org/2000/svg" viewBox="0 0 142.11 49.96">
  <g id="Layer_1-2" data-name="Layer 1">
    <g id="mHe2PQ.tif">
      <g>
        <path d="M130.38,31.49c.36,.08,.69-.06,1,.1,.08,.04,.22,.04,.3,0,.38-.25,.85-.2,1.25-.36,.12-.05,.28-.04,.42-.04,.61-.02,1.14-.19,1.68-.52,.57-.34,1.11-.71,1.65-1.08,.44-.3,.97-.44,1.33-.87,.17-.2,.48-.28,.7-.44,.26-.19,.52-.39,.72-.64,.44-.55,.83-1.13,1.25-1.69,.12-.17,.3-.31,.23-.56-.01-.04,.03-.11,.07-.14,.18-.16,.25-.35,.24-.59,0-.11,.07-.24,.15-.32,.35-.32,.21-.8,.38-1.17-.21-.38,.14-.82-.15-1.19,.12-.73-.3-1.24-.72-1.77-.24-.31-.51-.62-.84-.74-.41-.15-.83-.38-1.31-.28-.19,.04-.3-.04-.31-.2,0-.17,.11-.19,.24-.2,.39-.02,.73,.07,1.09,.24,.9,.41,1.47,1.17,2.08,1.87,.15,.17,.22,.49,.2,.73-.03,.25,.04,.49-.01,.73-.05,.25-.06,.5,.05,.76,.12,.29-.04,.58-.14,.85-.21,.56-.45,1.1-.64,1.66-.15,.43-.43,.84-.79,1.17-.3,.26-.55,.59-.76,.93-.3,.49-.69,.86-1.22,1.09-.18,.07-.3,.25-.46,.37-.4,.29-.78,.66-1.23,.84-.74,.3-1.27,.89-1.97,1.23-.53,.25-1.06,.46-1.66,.42-.43-.03-.82,.14-1.23,.22-.4,.08-.78,.11-1.18,.03-.25-.05-.53-.04-.78-.01-.33,.03-.68,.06-.89-.05-.54-.27-1.13-.38-1.72-.46-.69-.09-1.29-.36-1.9-.66-.09-.04-.17-.11-.26-.13-.41-.08-.8-.16-1.02-.58-.03-.06-.13-.09-.2-.12-.44-.18-.81-.44-1.14-.78-.09-.1-.19-.23-.35-.08-.02,.02-.11-.01-.14-.04-.1-.08-.18-.16-.27-.25-.34-.3-.34-.28-.79-.1-.53,.21-1.04,.49-1.58,.69-.59,.22-1.1,.12-1.61-.1-.34-.14-.42-.52-.59-.81-.18-.31-.09-.61,.09-.88,.18-.27,.42-.49,.76-.52,.4-.03,.79-.05,1.18,.14,.25,.12,.54,.29,.86,.11,.05-.03,.14,0,.2,.03,.17,.07,.33,.15,.49,.23,.16,.07,.34,.23,.47,.2,.15-.03,.27-.23,.39-.37,.42-.44,.84-.89,1.25-1.34,.34-.37,.7-.72,.74-1.28,.01-.18,.2-.34,.26-.53,.2-.62,.52-1.19,.69-1.83,.18-.68,.46-1.34,.67-2.02,.05-.16,.11-.29,0-.45-.04-.06,0-.18,.03-.27,.07-.23,.17-.45,.23-.68,.02-.07,0-.18-.05-.22-.05-.04-.19-.06-.22-.03-.36,.42-1,.38-1.35,.86-.19,.25-.55,.37-.89,.46-.2,.05-.4,.15-.58,.35-.22,.25-.51,.5-.9,.55-.17,.02-.32,.14-.48,.23-.36,.2-.66,.47-1.09,.59-.33,.08-.61,.36-.91,.55-.12,.07-.24,.14-.36,.19-.56,.24-1.1,.57-1.68,.7-.8,.18-1.45,.72-2.29,.8-.22,.02-.41,.26-.64,.31-.53,.13-.82,.55-1.17,.9-.58,.57-1.19,1.12-1.75,1.71-.39,.41-.87,.66-1.33,.97-.39,.27-.79,.52-1.2,.76-.58,.34-1.19,.53-1.87,.39-.1-.02-.23-.04-.3,0-.26,.19-.49,.06-.64-.11-.16-.18-.27-.43-.21-.71,.03-.15,.03-.31,.04-.46-.13,.11-.31,.19-.37,.32-.2,.43-.5,.79-.68,1.25-.22,.56-.65,1.04-1.01,1.54-.16,.23-.44,.38-.36,.73-.25,.36-.47,.75-.75,1.09-.29,.36-.52,.74-.72,1.16-.22,.46-.54,.87-.89,1.25-.22,.24-.5,.45-.54,.81,0,.07-.05,.15-.1,.21-.77,.94-1.57,1.85-2.43,2.71-.15,.15-.37,.23-.52,.39-.25,.27-.47,.57-.71,.86-.01,.01,0,.05-.01,.06-.66,.57-1.07,1.41-1.89,1.81-.12,.06-.23,.13-.28,.27-.04,.1-.15,.19-.25,.26-.37,.27-.73,.56-1.13,.79-.53,.3-.9,.76-1.35,1.14-.23,.19-.47,.37-.72,.54-.71,.47-1.42,.95-2.16,1.37-.62,.36-1.27,.66-1.91,.95-.56,.25-1.13,.47-1.7,.7-.05,.02-.1,.06-.15,.1-.66,.48-1.45,.6-2.21,.83-.37,.11-.8,.09-1.12,.36-.04,.03-.11,.04-.17,.04-.62,.06-1.24,.1-1.86,.2-.36,.06-.71,.06-1.07,.14-.37,.08-.78-.01-1.15,.07-.4,.1-.77,.17-1.17,.03-.07-.03-.18-.03-.24,.01-.29,.21-.6,.19-.94,.15-.34-.04-.69,.03-1.04,.02-.2,0-.4-.04-.58-.1-.2-.06-.35,.12-.56,.07-.21-.05-.44-.02-.67-.07-.27-.06-.56-.05-.84-.04-.39,.01-.73-.06-1.07-.3-.54-.37-1.15-.62-1.76-.85-.55-.21-1.14-.37-1.56-.85-.08-.09-.25-.17-.37-.15-.26,.02-.42-.1-.58-.26-.54-.54-1.09-1.08-1.63-1.63-.08-.08-.12-.21-.19-.3-.08-.1-.16-.24-.27-.29-.26-.13-.41-.33-.55-.58-.34-.56-.72-1.1-.88-1.75-.08-.3-.27-.57-.14-.9,0-.02,0-.05,0-.06-.35-.38-.26-.82-.15-1.25,.15-.64,.13-1.3,.3-1.93,.03-.11,.06-.23,.11-.34,.24-.5,.5-.99,.73-1.49,.03-.07,.01-.19-.03-.26-.07-.1-.16-.19-.27-.25-.44-.23-.89-.45-1.33-.67,0,0-.84-.52-.85-.52-.06-.05-.12-.1-.2-.13-.05-.02-.15,0-.17-.03-.29-.36-.74-.53-1.05-.86-.09-.09-.14-.15-.27-.18-.1-.02-.23-.12-.26-.21-.1-.3-.33-.42-.6-.53-.21-.08-.35-.22-.49-.41-.16-.23-.27-.56-.62-.62-.36-.46-.75-.89-1.2-1.27-.12-.1-.13-.33-.21-.48-.02-.04-.15-.07-.18-.04-.2,.13-.43,.26-.57,.44-.23,.3-.56,.4-.86,.58-.34,.2-.7,.39-1.03,.61-.23,.15-.47,.09-.71,.1-.02,0-.07-.06-.07-.08,0-.05,.05-.13,.07-.13,.53,0,.9-.38,1.35-.58,.6-.27,1.04-.72,1.54-1.11,.16-.12,.15-.24,.06-.35-.34-.43-.56-.91-.62-1.46,0-.05-.05-.1-.09-.16-.37-.62-.61-1.29-.61-2.03,0-.09-.04-.2-.09-.28-.13-.21-.18-.44-.17-.69,0-.08,.02-.19-.02-.24-.39-.47-.06-.98-.1-1.47,0-.09,0-.19-.04-.27-.06-.1-.2-.14-.24-.02-.12,.4-.53,.51-.75,.81-.39,.53-.95,.89-1.42,1.35-.56,.55-1.1,1.12-1.67,1.67-.11,.11-.24,.21-.38,.3-.46,.3-.84,.68-1.13,1.15-.03,.05-.06,.11-.1,.15-.73,.59-1.35,1.29-2.06,1.91-.25,.22-.54,.4-.83,.59-.11,.07-.25,.12-.38,.14-.16,.02-.27-.12-.21-.27,.05-.13,.11-.26,.21-.36,.21-.22,.46-.42,.67-.64,.53-.55,1.11-1.07,1.55-1.68,.32-.45,.63-.91,.94-1.37,.48-.71,.94-1.43,1.43-2.13,.37-.52,.72-1.03,.95-1.64,.19-.5,.48-.96,.72-1.44,.1-.2,.14-.4,.14-.63,0-.46,.15-.89,.45-1.27,.13-.17,.23-.37,.32-.57,.02-.04-.01-.15-.04-.16-.07-.01-.15,0-.2,.03-.08,.06-.14,.14-.21,.22-.17,.21-.29,.49-.51,.63-.34,.2-.45,.55-.68,.82-.31,.35-.48,.83-.95,1.03-.05,.02-.07,.12-.11,.19-.05,.08-.07,.22-.14,.25-.3,.09-.39,.38-.58,.57-.35,.35-.7,.7-1.04,1.06-.3,.31-.51,.72-.94,.9-.06,.03-.09,.12-.13,.19-.07,.14-.12,.3-.22,.41-.5,.51-1.01,1.01-1.52,1.51-.09,.09-.33,.1-.15,.32,.02,.02-.03,.11-.07,.15-.45,.49-.87,1.01-1.47,1.33-.23,.12-.47,.23-.45,.57,0,.09-.12,.21-.22,.27-.43,.27-.74,.65-1.07,1.02-.19,.2-.49,.34-.6,.57-.13,.26-.34,.38-.54,.54-.31,.25-.64,.47-.98,.69-.2,.13-.41,.23-.62,.34-.31,.16-.59,.38-.95,.46-.29,.07-.52,.15-.71-.18-.13-.24-.43-.32-.63-.53-.43-.46-.88-1.02-1.08-1.52-.16-.41-.21-.81-.04-1.22,.13-.31,.11-.66,.27-.97,.1-.19,.22-.38,.3-.57,.19-.46,.51-.83,.69-1.3,.08-.22,.26-.4,.41-.59,.35-.46,.71-.91,.98-1.43,.13-.24,.31-.47,.51-.67,.39-.4,.7-.85,1.16-1.2,.42-.32,.71-.82,1.09-1.21,.32-.33,.7-.6,1.03-.92,.14-.13,.23-.32,.36-.46,.38-.43,.72-.89,1.01-1.38,.03-.05,.04-.11,.08-.16,.09-.13,.28-.3,.25-.38-.11-.29,.1-.57-.06-.86-.12-.2-.13-.45-.22-.68-.11-.29-.23-.32-.49-.13-.13,.09-.23,.22-.34,.34-.09,.1-.18,.19-.28,.29-.06,.06-.16,.1-.17,.17-.03,.19-.08,.35-.22,.47-.26,.23-.52,.48-.78,.71-.44,.4-.98,.68-1.32,1.21-.17,.26-.53,.43-.84,.55-.25,.1-.45,.25-.67,.38-.37,.22-.68,.56-1.19,.36-.08-.03-.22,.06-.33,.12-.18,.09-.34,.21-.52,.29-.1,.05-.25,.1-.33,.06-.23-.1-.41-.08-.63,.03-.11,.06-.31-.02-.46-.06-.17-.05-.32-.16-.49-.21-.11-.03-.25-.05-.35,0-.06,.02-.05,.17-.09,.26-.13,.25-.27,.49-.39,.74-.23,.46-.43,.93-.63,1.4-.04,.11-.09,.23-.17,.31-.31,.27-.44,.66-.61,1.01-.06,.13-.12,.22-.23,.31-.43,.32-.77,.73-1.16,1.09-.14,.14-.31,.25-.45,.39-.08,.08-.12,.19-.18,.29-.04,.06-.06,.16-.12,.18-.44,.16-.77,.48-1.12,.78-.33,.29-.69,.48-1.14,.42-.16-.02-.36,.04-.47-.04-.35-.25-.73-.5-.99-.83-.17-.23-.22-.61-.19-.91,.06-.67,.13-1.35,.51-1.94,.03-.05,.05-.11,.08-.16,.15-.33,.56-.41,.68-.8,.09-.31,.35-.58,.55-.85,.07-.09,.19-.14,.28-.22,.27-.24,.56-.47,.79-.74,.22-.26,.53-.39,.78-.62,.23-.22,.58-.46,.99-.21,.08,.05,.23-.01,.35-.03,.4-.06,.58,.17,.48,.53-.14,.53-.43,.93-.91,1.19-.17,.09-.25,.23-.36,.38-.2,.28-.42,.58-.71,.74-.22,.13-.12,.39-.37,.49-.19,.07-.34,.29-.46,.47-.11,.17-.17,.36-.42,.38-.04,0-.09,.07-.11,.12-.19,.39-.38,.78-.57,1.18-.04,.09-.09,.17-.13,.26-.1,.2-.23,.38-.28,.59-.04,.16,.02,.35,.03,.52,.22-.01,.39,.2,.63,.11,.38-.15,.71-.33,.99-.65,.25-.29,.56-.54,.85-.81,.28-.26,.56-.51,.84-.78,.12-.11,.22-.24,.32-.37,.04-.04,.05-.14,.08-.15,.47-.06,.53-.5,.75-.79,.07-.1,.13-.21,.21-.29,.49-.49,.83-1.06,1.06-1.71,.15-.43,.38-.83,.52-1.27,.11-.33,.13-.65-.19-.96-.26-.25-.58-.52-.62-.93-.07-.63-.24-1.25-.37-1.87-.05-.25,0-.5-.13-.76-.13-.26,.16-.51,.26-.77,.07-.19,.27-.13,.43-.14,.27-.02,.37,.18,.5,.36,.3,.44,.43,.93,.53,1.44,.04,.22,.22,.41,.07,.69-.08,.14,.08,.41,.11,.63,.04,.3-.01,.6,.13,.89,.04,.09-.02,.23-.03,.35-.06,.47,.11,.68,.54,.85,.61,.24,1.2,.11,1.78-.07,.39-.12,.8-.19,1.16-.41,.56-.34,1.17-.59,1.65-1.05,.19-.17,.42-.3,.64-.44,.15-.09,.31-.16,.37-.36,.03-.11,.14-.21,.24-.27,.49-.33,.86-.78,1.19-1.27,.13-.19,.3-.37,.47-.52,.2-.17,.33-.39,.51-.57,.31-.3,.38-.62,.26-1.05-.13-.46,.01-.94,.31-1.3,.27-.33,.57-.65,.96-.85,.1-.05,.25-.12,.31-.09,.15,.09,.33,.19,.3,.41-.01,.12,0,.26-.04,.35-.28,.52-.34,1.15-.83,1.57-.38,.33-.34,.79-.15,1.22,.25,.55,.49,1.09,.46,1.72,0,.11-.03,.24,.14,.3,.16,.05,.13,.19,.09,.3-.29,.82-.54,1.65-.89,2.45-.22,.49-.53,.95-1,1.29-.22,.16-.52,.35-.5,.72,0,.06-.09,.13-.15,.19-.38,.45-.75,.9-1.13,1.34-.06,.08-.15,.13-.23,.2-.19,.18-.44,.33-.55,.55-.3,.59-.77,1.04-1.2,1.51-.13,.15-.3,.28-.25,.52,.01,.06-.04,.15-.09,.21-.37,.52-.8,1.01-1.09,1.57-.31,.59-.52,1.24-.69,1.89-.07,.28,.06,.62,.14,.92,.07,.26,.68,.61,.97,.6,.04,0,.1,0,.12-.01,.23-.33,.67-.32,.93-.58,.38-.36,.85-.58,1.3-.83,.05-.03,.11-.06,.13-.1,.18-.43,.56-.65,.89-.93,.39-.33,.75-.71,1.12-1.06,.17-.16,.08-.5,.39-.55,.34-.43,.8-.74,1.17-1.13,.22-.23,.43-.47,.61-.74,.24-.35,.61-.61,.92-.93,.38-.39,.77-.75,1.08-1.22,.31-.47,.77-.83,1.14-1.27,.48-.57,1.02-1.07,1.53-1.61,.28-.3,.59-.57,.88-.86,.07-.07,.11-.16,.16-.25,.07-.12,.11-.27,.21-.35,.48-.37,.77-.92,1.22-1.33,.24-.22,.41-.48,.58-.76,.2-.33,.49-.62,.75-.91,.14-.16,.32-.28,.48-.42,.25-.23,.44-.48,.58-.81,.26-.62,.64-1.19,.94-1.8,.18-.36,.36-.68,.72-.91,.17-.11,.27-.35,.4-.52,.15-.18,.24-.41,.46-.53,.1-.06,.2-.16,.25-.27,.3-.64,.83-1.09,1.27-1.6,.22-.26,.44-.52,.65-.78,.39-.5,.9-.89,1.28-1.39,.19-.26,.36-.57,.61-.73,.29-.18,.44-.45,.67-.66,.22-.2,.46-.39,.68-.59,.33-.31,.64-.64,.99-.94,.65-.56,1.32-1.11,1.98-1.66,.21-.51,.8-.58,1.1-.98,.57-.19,.92-.69,1.4-.99,.66-.43,1.38-.78,2.11-1.08,.38-.16,.8-.21,1.13-.5,.09-.07,.29-.09,.4-.04,.25,.12,.46,.06,.69-.06,.33-.17,.66-.39,1.06-.18,.41-.16,.81,.02,1.2,.08,.41,.06,.84,.09,1.22,.23,.54,.2,1.04,.49,1.56,.75,.03,.02,.04,.09,.06,.13-.06,.01-.12,.05-.17,.03-.17-.06-.33-.15-.49-.22-.77-.36-1.57-.53-2.44-.55-.5-.01-.97,.02-1.43,.21-.22,.09-.45,.16-.63,.3-.3,.24-.69,.3-1,.5-.59,.37-1.26,.6-1.79,1.12-.38,.37-.81,.71-1.19,1.1-.18,.18-.42,.3-.65,.42-.14,.08-.25,.15-.31,.33-.07,.2-.2,.44-.38,.51-.47,.21-.77,.61-1.15,.92-.53,.43-1.05,.88-1.44,1.46-.15,.23-.39,.4-.6,.58-.26,.21-.55,.36-.62,.76-.03,.19-.32,.31-.48,.5-.34,.4-.75,.75-1.05,1.19-.39,.57-.83,1.08-1.39,1.49-.15,.39-.58,.56-.72,.98-.07,.21-.31,.37-.47,.55-.44,.47-.79,1-1.14,1.54-.42,.63-.66,1.38-1.24,1.91-.11,.1-.28,.24-.13,.46,.03,.04-.01,.16-.06,.21-.25,.28-.28,.72-.68,.89-.1,.42-.61,.67-.52,1.18,.01,.06-.06,.14-.1,.21-.31,.55-.63,1.1-.94,1.65-.05,.08-.07,.18-.1,.27-.02,.08,0,.19-.05,.23-.39,.3-.4,.82-.71,1.17-.03,.04-.05,.12-.03,.16,.02,.04,.11,.07,.15,.06,.13-.03,.29-.06,.38-.14,.36-.33,.77-.6,1.03-1.04,.05-.09,.18-.15,.29-.21,.6-.33,1.14-.76,1.59-1.25,.57-.63,1.24-1.07,1.96-1.5,.4-.24,.88-.37,1.17-.78,.04-.05,.14-.07,.22-.07,.19,0,.28-.1,.42-.24,.21-.21,.54-.29,.83-.42,.22-.1,.45-.16,.66-.27,.36-.17,.73-.21,1.1-.03,.13,.07,.25,.1,.36-.05,.03-.05,.14-.07,.2-.06,.68,.09,.64,.11,.96,.82,.15,.34,0,.53-.13,.76-.03,.05-.18,.07-.27,.05-.04,0-.08-.13-.09-.2,0-.1,.03-.19,.06-.29,.06-.18,.04-.35-.06-.52-.07-.11-.11-.21-.26-.19-.08,.01-.17-.01-.24,.02-.31,.12-.6,.11-.9-.04-.06-.03-.15,0-.22,.01-.3,.04-.52,.37-.87,.23-.25,.37-.69,.35-1.03,.52-.35,.17-.59,.48-.93,.66-.33,.17-.61,.43-.98,.51-.07,.02-.17,.05-.2,.11-.18,.3-.59,.41-.67,.79-.01,.05-.13,.07-.19,.1-.32,.15-.65,.27-.83,.63-.12,.23-.38,.37-.6,.52-.2,.14-.38,.33-.55,.51-.04,.04-.06,.11-.05,.16,.11,.59-.07,1.16-.06,1.74,.01,.42,.12,.8,.35,1.18,.19,.31,.23,.71,.33,1.07,.17,.65,.24,1.32,.52,1.94,.12,.26,.13,.58,.2,.87,.07,.3,.21,.37,.48,.23,.57-.31,1.14-.6,1.65-1.01,.37-.3,.77-.55,1.1-.9,.6-.12,.88-.67,1.34-.98,.44-.31,.83-.71,1.31-.93,.47-.22,.63-.69,1.05-.95,.42-.26,.79-.61,1.18-.93,.14-.11,.33-.21,.4-.36,.17-.38,.51-.55,.8-.78,.42-.33,.83-.68,1.25-1.02,.03-.03,.06-.06,.08-.09,.19-.42,.54-.69,.89-.96,.42-.33,.82-.69,1.28-.98,.48-.31,.95-.68,1.16-1.25,.24-.65,.7-1.11,1.2-1.53,.17-.14,.43-.19,.66-.24,.1-.02,.29,0,.32,.07,.07,.14,.11,.36-.06,.44-.29,.12-.35,.42-.56,.6-.24,.21-.35,.44-.28,.75,0,.04,.01,.09,0,.12-.32,.62-.25,1.29-.27,1.94-.03,.69-.04,1.39,.08,2.07,.08,.46-.02,.85-.11,1.26-.09,.41-.19,.81-.33,1.2-.14,.4-.18,.84-.58,1.13-.15,.11-.18,.39-.3,.56-.15,.21-.33,.39-.5,.58-.05,.06-.15,.09-.18,.15-.04,.08-.04,.19-.02,.28,.01,.04,.14,.07,.21,.05,.11-.03,.23-.08,.32-.14,.34-.25,.66-.51,1-.76,.42-.3,.85-.58,1.27-.89,.61-.44,1.22-.89,1.81-1.36,.19-.15,.34-.35,.5-.53,.16-.17,.31-.36,.49-.51,.49-.4,1.02-.77,1.5-1.19,.6-.5,1.19-1.01,1.74-1.56,.49-.48,.93-1.01,1.48-1.43,.52-.39,1.06-.79,1.49-1.27,.36-.4,.71-.78,1.16-1.07,.19-.51,.79-.74,.91-1.31,.04-.18,.2-.34,.33-.5,.5-.63,.96-1.3,1.54-1.85,.39-.36,.66-.81,1.03-1.17,.03-.03,.07-.06,.08-.09,.24-.65,.83-1.01,1.28-1.49,.23-.25,.56-.42,.75-.69,.48-.68,1.22-1.09,1.74-1.72,.14-.17,.34-.28,.5-.42,.33-.3,.67-.61,.99-.93,.6-.58,1.32-1.02,1.95-1.57,.49-.43,1.08-.74,1.63-1.11,.07-.04,.16-.06,.2-.12,.32-.46,.83-.68,1.26-.99,.22-.16,.46-.24,.7-.33,.37-.13,.76-.23,1.14-.34,.11-.03,.27-.05,.33-.12,.32-.43,.81-.39,1.25-.49,.69-.16,1.39-.32,2.1-.42,.29-.04,.59,.04,.89,.09,.19,.04,.37,.13,.56,.19,.17,.05,.36,.13,.52,.1,.22-.04,.27,.3,.53,.17,.09-.04,.29,.18,.45,.25,.26,.12,.49,.27,.61,.54-.31,.04-.52-.14-.75-.31-.11-.08-.24-.21-.36-.2-.37,.03-.63-.27-.98-.28-.22-.01-.43-.08-.65-.09-.4,0-.79,.02-1.18,.18-.27,.12-.56,.2-.85,.23-.34,.04-.65,.15-.96,.28-.25,.11-.52,.2-.78,.27-.27,.08-.5,.17-.67,.42-.08,.12-.26,.2-.41,.22-.49,.08-.81,.4-1.13,.73-.08,.08-.15,.18-.24,.23-.97,.47-1.74,1.19-2.51,1.93-.5,.49-1.01,.97-1.59,1.36-.11,.08-.2,.2-.29,.31-.09,.1-.16,.21-.25,.3-.43,.43-.91,.83-1.32,1.28-.69,.77-1.42,1.49-2.19,2.19-.1,.09-.21,.2-.26,.32-.12,.37-.35,.65-.59,.95-.37,.47-.74,.95-1.12,1.4-.43,.52-.73,1.09-1.07,1.66-.29,.5-.57,1-.88,1.49-.04,.07-.09,.14-.1,.22-.05,.35-.23,.62-.41,.91-.13,.19-.04,.47-.22,.67-.17,.19-.31,.42-.45,.63-.14,.22-.28,.44-.4,.66-.31,.57-.61,1.15-.92,1.73-.1,.17-.2,.36-.33,.5-.27,.28-.36,.66-.56,.97-.44,.69-.89,1.37-1.33,2.05-.04,.07-.1,.13-.16,.18-.44,.41-.9,.8-1.32,1.23-.25,.25-.45,.56-.67,.84-.01,.02,.01,.08,.04,.1,.03,.02,.07,.02,.11,.03,.02,0,.04-.01,.05-.03,.21-.41,.72-.53,.91-.97,.05-.11,.21-.18,.32-.26,.5-.36,1-.69,1.35-1.25,.22-.36,.62-.64,.97-.89,.66-.47,1.25-.97,1.59-1.73,.08-.17,.26-.31,.42-.42,.47-.34,.93-.69,1.35-1.1,.36-.36,.83-.6,1.35-.71,.1-.02,.2-.03,.29-.07,.36-.19,.65-.02,.86,.22,.3,.33,.47,.74,.39,1.21-.01,.08-.08,.16-.07,.22,.16,.84-.31,1.49-.61,2.2-.12,.28-.29,.56-.18,.94,.08,.27,0,.6-.09,.88-.15,.48-.03,.96-.05,1.44,0,.13,.05,.19,.16,.28,.12,.09,.17,.3,.22,.47,.09,.34,.26,.51,.61,.64,.59,.22,1.1,.19,1.66-.08,.48-.24,.93-.53,1.4-.78,.16-.09,.26-.34,.42-.39,.22-.06,.35-.19,.49-.33,.45-.47,.87-.97,1.34-1.42,.48-.46,.94-.91,1.21-1.53,.08-.18,.25-.32,.4-.45,.36-.33,.74-.65,1.1-.99,.14-.13,.22-.33,.37-.45,.41-.34,.82-.71,1.28-.98,.53-.31,1.12-.53,1.75-.51,.19,0,.32,.25,.21,.41-.25,.38-.5,.76-.86,1.06-.09,.08-.17,.17-.25,.26-.46,.53-.91,1.06-1.36,1.58-.06,.07-.16,.13-.23,.2-.2,.2-.44,.37-.59,.6-.32,.51-.69,.98-1.04,1.46-.22,.3-.38,.65-.57,.98,.12,.3-.06,.6,.01,.9,.02,.06,.16,.16,.2,.14,.19-.08,.37-.1,.56-.02,.03,.01,.09,.01,.12,0,.45-.32,1.04-.38,1.49-.7,.2-.15,.47-.23,.56-.52,.03-.1,.2-.18,.33-.25,.29-.16,.52-.38,.63-.7,.07-.2,.2-.32,.39-.43,.19-.1,.36-.25,.51-.41,.32-.36,.72-.64,.98-1.05,.33-.52,.63-1.06,1.06-1.51,.03-.44,.49-.66,.53-1.12,.03-.41,.22-.8,.29-1.2,.02-.15-.1-.34-.19-.48-.13-.22-.29-.43-.45-.63-.1-.12-.22-.29-.35-.31-.27-.04-.37-.27-.58-.38-.22-.11-.33-.32-.34-.6,0-.23-.11-.46-.18-.69-.19-.55,.11-1.06,.68-1.14,.12-.02,.29,.03,.38,.11,.18,.16,.32,.35,.46,.55,.1,.14,.16,.33,.27,.47,.32,.41,.36,.92,.49,1.39,.06,.21,.03,.42,.21,.61,.1,.1,.06,.34,.08,.52,.02,.27,.17,.52,.41,.51,.42-.01,.74,.26,1.13,.31,.4,.05,.78,.17,1.19,.11,.21-.03,.43,0,.62-.18,.08-.08,.26-.08,.4-.09,.66-.02,1.3-.16,1.93-.38,.32-.11,.61-.23,.9-.42,.26-.17,.54-.32,.78-.53,.47-.4,.99-.74,1.52-1.06,.46-.28,.94-.5,1.3-.94,.17-.21,.49-.36,.77-.43,.54-.13,1.06-.33,1.62-.36,.21-.01,.42-.11,.62-.19,.34-.13,.68-.23,1.05-.23,.26,0,.52,.03,.77-.11,.09-.06,.27,.03,.4,.04,.21,.01,.39,.22,.62,.09,.03-.02,.11,.01,.14,.05,.08,.11,.16,.23,.21,.36,.02,.06,0,.18-.04,.22-.12,.09-.16,0-.2-.11-.06-.14-.17-.19-.34-.19-.58,0-1.14,.13-1.69,.3-.23,.07-.48,.08-.7,.16-.44,.16-.88,.35-1.31,.53-.11,.04-.22,.09-.32,.13-.15,.06-.33,.08-.44,.18-.51,.49-1.13,.82-1.65,1.28-.11,.1-.28,.33-.25,.37,.13,.17,.31,.06,.48,0,.54-.18,1.06-.1,1.57,.12,.24,.1,.33,.31,.37,.51,.08,.35,.18,.69,.26,1.03,.07,.31-.05,.66-.11,1-.04,.21-.12,.42-.17,.63-.06,.27,.05,.4,.31,.35,.41-.09,.81-.18,1.22-.28,.08-.02,.16-.05,.22-.1,.52-.45,1.22-.5,1.8-.81,.58-.3,1.22-.46,1.72-.92,.13-.12,.31-.21,.48-.24,.44-.08,.79-.34,1.18-.53,.41-.2,.83-.38,1.23-.6,.2-.11,.45-.15,.56-.41,.04-.09,.19-.14,.3-.17,.22-.05,.36-.18,.53-.33,.3-.25,.67-.42,1.02-.59,.46-.22,.83-.55,1.16-.93,.05-.06,.09-.15,.09-.22-.04-.49,.27-.87,.4-1.31,.1-.35,.29-.65,.5-.95,.16-.22,.3-.44,.49-.62,.37-.36,1.04-.35,1.4,.03,.18,.19,.21,.74,.04,.97-.23,.29-.5,.54-.64,.91-.04,.09-.22,.14-.35,.18-.32,.1-.58,.24-.71,.58-.07,.18-.09,.34-.02,.52,.19,.42,0,.81-.13,1.2-.04,.11-.1,.22-.1,.33-.01,.24-.09,.49-.07,.71,.03,.56-.17,1.06-.22,1.6,0,.04,.01,.09,0,.12-.37,.57-.34,1.26-.53,1.88-.03,.11-.1,.21-.15,.32-.13,.25-.28,.48-.41,.73-.11,.21-.16,.46-.3,.64-.41,.52-.85,1.03-1.28,1.53-.09,.1-.21,.2-.33,.24-.3,.09-.53,.24-.66,.55-.06,.14-.18,.27-.39,.25-.07,0-.18,.01-.22,.06-.09,.1-.18,.22-.21,.34,0,.05,.17,.13,.27,.19,.24,.14,.49,.26,.71,.42,.44,.31,.87,.64,1.31,.95,.06,.05,.14,.09,.22,.1,.31,.04,.54,.24,.81,.35,.68,.28,1.33,.67,2.06,.75,.64,.07,1.23,.31,1.85,.43,.29,.06,.6,0,.87-.02Zm-52.33,17.86c.52-.02,1.05,0,1.54-.19,.27-.11,.55-.1,.83-.14,.48-.06,.96-.1,1.43-.19,.1-.02,.23,0,.3-.05,.95-.5,2-.74,2.99-1.15,.11-.04,.23-.11,.28-.2,.19-.29,.45-.39,.77-.47,.48-.12,.95-.3,1.29-.71,.16-.19,.39-.25,.62-.33,.33-.1,.66-.22,.86-.59,.12-.23,.4-.39,.63-.55,.46-.31,1.01-.47,1.41-.89,.24-.25,.5-.49,.77-.71,.21-.18,.44-.34,.67-.5,.24-.16,.36-.44,.57-.62,.38-.32,.68-.71,.99-1.1,.15-.19,.32-.35,.49-.52,.24-.23,.52-.43,.71-.71,.34-.49,.77-.9,1.22-1.28,.25-.21,.47-.42,.64-.7,.19-.31,.33-.67,.6-.89,.31-.25,.5-.57,.74-.86,.23-.27,.45-.56,.63-.89,.26-.49,.58-.96,.95-1.38,.22-.25,.31-.55,.49-.81,.26-.36,.5-.72,.77-1.07,.28-.36,.51-.73,.65-1.18,.12-.38,.47-.69,.69-1.04,.26-.41,.6-.77,.76-1.27,.15-.47,.42-.9,.77-1.28,.28-.3,.45-.7,.66-1.06,.06-.1,.1-.25,.19-.3,.35-.17,.51-.52,.69-.81,.2-.31,.6-.5,.59-.95,0-.04,.07-.09,.11-.14,.43-.47,.87-.94,1.3-1.42,.12-.13,.26-.29,.28-.45,.03-.21,.38-.32,.2-.5-.1-.1-.38-.03-.58-.03-.06,0-.12,.02-.18,.03-.24,.04-.47,.08-.71,.12-.21,.04-.41,.22-.63,.09-.31-.2-.37,.29-.63,.2-.02,0-.04,0-.06,0-.52-.03-1.04-.05-1.56-.09-.1,0-.21-.04-.27-.11-.2-.21-.47-.2-.71-.27-.35-.1-.39-.06-.46,.32-.07,.35-.1,.71-.24,1.03-.15,.34-.4,.64-.61,.96-.16,.25-.3,.52-.49,.75-.2,.24-.4,.47-.57,.73-.4,.61-.86,1.16-1.46,1.6-.34,.26-.66,.57-.93,.9-.18,.22-.36,.41-.58,.58-.8,.66-1.7,1.07-2.74,1.18-.21,.02-.36,.02-.51-.11-.28-.24-.41-.62-.77-.78-.01,0-.02-.04-.02-.05,.08-.29-.16-.45-.29-.63-.18-.25-.2-.49-.12-.76,.02-.05,0-.12,0-.18-.08,.02-.17,.01-.22,.05-.07,.06-.1,.17-.16,.24-.35,.47-.67,.97-1.22,1.24-.05,.03-.09,.08-.14,.12-.33,.24-.56,.64-1.04,.66-.06,0-.16,.1-.17,.16-.03,.2-.18,.18-.31,.22-.27,.07-.54,.14-.79,.25-.58,.27-1.12,.19-1.61-.18-.27-.2-.49-.49-.78-.64-.18-.1-.28-.23-.34-.38-.13-.3-.27-.59-.51-.83-.09-.09-.14-.25-.16-.38-.05-.48-.14-.94-.29-1.4-.04-.11-.05-.26,0-.36,.12-.29,.23-.57,.08-.89-.02-.04,.02-.12,.04-.17,.2-.43,.39-.87,.61-1.3,.3-.58,.63-1.15,.94-1.73,.03-.06,.07-.15,.05-.21-.07-.2-.35-.3-.55-.19-.61,.32-1.33,.47-1.75,1.1-.02,.03-.08,.02-.11,.04-.82,.59-1.54,1.27-2.09,2.14-.22,.34-.56,.66-.91,.85-.38,.2-.62,.48-.84,.81-.11,.16-.23,.36-.4,.44-.63,.3-.96,.98-1.6,1.26-.06,.03-.09,.13-.13,.19-.25,.43-.61,.78-1.04,.98-.39,.18-.72,.41-1.04,.69-.33,.28-.69,.52-1.1,.69-.25,.1-.54,.22-.7,.42-.13,.16-.25,.21-.4,.17-.53-.13-1.05-.22-1.6-.17-.08,0-.17,0-.23-.05-.06-.04-.12-.12-.13-.18,0-.04,.1-.13,.15-.13,.76,.02,1.34-.33,1.86-.85,.18-.18,.34-.37,.53-.55,.13-.12,.29-.21,.42-.34,.13-.12,.25-.27,.37-.4,.11-.12,.21-.25,.33-.36,.13-.12,.27-.26,.43-.32,.24-.1,.03-.31,.15-.44,.32-.35,.52-.81,.98-1.05,.1-.05,.16-.18,.22-.28,.26-.43,.52-.85,.77-1.28,.25-.43,.47-.88,.77-1.28,.15-.2,.2-.42,.32-.62,.11-.19,.23-.37,.32-.57,.19-.41,.38-.82,.56-1.23,.2-.44,.49-.84,.68-1.3,.06-.14,.16-.27,.27-.39,.31-.36,.44-.79,.54-1.24,0-.03-.02-.07-.03-.11-.05,.02-.1,.03-.14,.05-.05,.03-.13,.05-.15,.09-.17,.45-.63,.6-.94,.92-.16,.17-.32,.33-.47,.51-.16,.19-.41,.31-.62,.46-.03,.02-.07,.06-.08,.09-.05,.25-.26,.33-.44,.46-.09,.06-.16,.16-.24,.24-.1,.1-.18,.24-.3,.29-.47,.19-.72,.61-1.04,.95-.25,.26-.49,.5-.8,.69-.1,.06-.22,.12-.28,.22-.29,.51-.71,.85-1.23,1.09-.07,.03-.16,.09-.17,.15-.05,.26-.28,.32-.45,.45-.31,.24-.72,.36-.87,.79-.02,.06-.13,.08-.19,.13-.19,.15-.38,.29-.56,.45-.16,.14-.29,.33-.47,.42-.35,.18-.68,.37-.94,.68-.1,.12-.31,.16-.47,.23-.07,.03-.17,.02-.23,.06-.24,.21-.51,.4-.7,.66-.1,.14-.19,.17-.33,.2-.11,.02-.25,.06-.33,.13-.28,.29-.71,.24-1.01,.49-.05,.04-.18,.05-.23,.01-.23-.19-.5,.14-.73-.06-.02-.02-.12,0-.17,.04-.14,.11-.26,.25-.4,.34-.16,.1-.38,.12-.51,.24-.18,.18-.39,.19-.56,.13-.28-.1-.58,0-.83-.08-.25-.09-.44-.33-.66-.5-.02-.01-.04-.04-.05-.03-.24,.11-.32-.05-.34-.24-.01-.2-.32-.16-.28-.42,.05-.32-.02-.65-.02-.97,0-.3,.23-.47,.46-.59,.24-.12,.45,.03,.57,.23,.15,.26,.44,.33,.62,.55,.2,.23,.42,.44,.66,.63,.43,.33,.88,.29,1.23-.1,.25-.27,.51-.55,.72-.86,.23-.33,.39-.69,.6-1.03,.41-.63,.43-1.41,.75-2.07,0-.02,0-.04,0-.06,.09-.3,.14-.63,.29-.89,.17-.28,.19-.5,.05-.78-.05-.1-.07-.25-.03-.35,.24-.65,.13-1.39,.49-2.01,.05-.09,.06-.24-.11-.29-.12-.03-.21-.2-.37-.04-.56,.56-1.35,.83-1.83,1.52-.24,.35-.68,.58-.98,.93-.19,.23-.44,.41-.66,.61-.38,.35-.78,.68-1.14,1.05-.42,.43-.85,.86-1.39,1.12-.48,.24-.77,.63-1.1,1.01-.08,.09-.13,.21-.22,.27-.46,.31-.94,.6-1.41,.91-.1,.06-.24,.13-.27,.22-.13,.39-.49,.5-.78,.68-.2,.13-.45,.18-.63,.33-.29,.22-.58,.45-.86,.68-.46,.39-.97,.7-1.42,1.1-.28,.25-.34,.39-.12,.72,.22,.35,.42,.78,.75,.99,.71,.45,1.09,1.24,1.82,1.66,.13,.07,.18,.27,.31,.36,.61,.45,1.28,.82,1.82,1.36,.08,.08,.25,.18,.3,.15,.18-.12,.3,0,.43,.07,.42,.22,.83,.45,1.25,.68,.24,.13,.46,.1,.58-.12,.29-.52,.73-.92,1.16-1.31,.3-.27,.66-.49,1.02-.7,.3-.17,.63-.23,.92-.4,.26-.15,.62-.03,.76,.23,.03,.05,.02,.12,0,.18,0,.02-.08,.02-.13,.02-.26,0-.56-.09-.77,0-.47,.21-.95,.42-1.3,.83-.15,.18-.38,.29-.53,.48-.24,.29-.65,.41-.78,.81-.06,.19-.01,.27,.12,.34,.17,.1,.38,.14,.53,.27,.47,.41,1.06,.46,1.62,.52,.44,.05,.87,.1,1.3,.18,.45,.09,.88,.26,1.33,.29,.44,.03,.88,.08,1.31,.12,.26,.02,.53,.2,.8,0,.04-.03,.15,.05,.22,.05,.14,.01,.3,.05,.41,0,.39-.21,.8-.12,1.19-.09,.21,.01,.43,.05,.65,.07,.24,.02,.47,.07,.71,.09,.08,0,.19,.03,.24-.02,.2-.16,.42-.1,.64-.13,.23-.04,.47-.14,.7-.14,.43,0,.82-.15,1.21-.29,.93-.33,1.88-.62,2.73-1.14,.1-.06,.23-.04,.34-.09,.2-.08,.42-.15,.58-.28,.45-.37,.94-.73,1.3-1.19,.26-.33,.67-.59,.75-1.06,0-.05,.16-.13,.23-.11,.06,.01,.14,.17,.12,.21-.14,.29-.29,.57-.46,.83-.52,.79-1.41,1.16-2.06,1.81-.02,.02-.07,.03-.11,.04-.45,.07-.81,.32-1.16,.58-.11,.08-.24,.15-.37,.19-.32,.11-.65,.29-.97,.26-.38-.03-.61,.21-.9,.33-.39,.15-.79,.24-1.19,.34-.35,.09-.71,.19-1.05,.17-.22-.01-.4-.16-.54,.13-.02,.03-.15,.03-.23,.02-.37-.06-.74-.12-1.12-.18-.19-.03-.45-.15-.57-.07-.22,.14-.39-.04-.57,0-.19,.04-.38,.13-.57,.13-.26,0-.51-.05-.77-.09-.67-.1-1.34,0-2.01-.27-.46-.19-1.02-.16-1.53-.22-.4-.04-.81-.02-1.2-.12-.4-.11-.76-.38-1.2-.37-.09,0-.18-.08-.26-.14-.11-.09-.22-.18-.32-.28-.13-.12-.22,.03-.22,.07,.07,.31-.25,.46-.27,.73-.32,.18-.19,.54-.33,.8-.18,.32-.38,.63-.36,1.05,.01,.3-.11,.62-.19,.92-.1,.37-.1,.75-.09,1.13,0,.25,.1,.46,.15,.69,.18,.85,.3,1.18,.76,1.9,.02,.03,.03,.07,.04,.11,.21,.5,.64,.84,.97,1.25,.35,.43,.79,.79,1.19,1.18,.32,.3,.61,.65,1.04,.82,.22,.08,.41,.24,.63,.35,.4,.19,.71,.57,1.19,.6,.05,0,.11,.05,.16,.07,.38,.17,.76,.33,1.14,.5,.27,.12,.58,.21,.79,.41,.12,.11,.21,.15,.35,.15,.4,0,.8-.01,1.2,.07,.4,.09,.82,.2,1.22-.02,.17,.17,.32-.07,.5-.02,.68,.19,1.37,.04,2.05,.02,.25,0,.52-.08,.77-.12,.3-.05,.61-.03,.91-.04Zm35.1-29.08c-.61,.19-1.21,.3-1.62,.77-.16,.18-.34,.32-.54,.44-.23,.15-.5,.27-.69,.46-.34,.35-.63,.75-.95,1.12-.24,.28-.48,.58-.73,.86-.23,.27-.29,.68-.43,1.03-.02,.05-.09,.09-.11,.14-.03,.07-.05,.14-.07,.21,.07,.02,.16,.06,.22,.05,.11-.03,.21-.09,.32-.15,.4-.21,.76-.53,1.25-.53,.13,0,.3-.04,.39-.13,.27-.25,.66-.17,.94-.34,.32-.19,.65-.19,.99-.2,.21,0,.39-.08,.46-.3,.18-.6,.47-1.14,.87-1.62,.15-.18,.29-.4,.35-.62,.06-.23,.05-.47,.24-.66,.03-.03-.02-.23-.07-.25-.27-.11-.56-.18-.82-.26Zm-6.77,8.15c.01,.42,.04,.43,.4,.33,.11-.03,.23-.05,.35-.07,.39-.07,.76-.19,1.13-.35,.62-.28,.98-.85,1.48-1.26,.38-.32,.65-.77,.99-1.14,.2-.22,.35-.48,.59-.67,.28-.22,.5-.51,.74-.78,.03-.04,.06-.12,.04-.16-.02-.04-.1-.08-.14-.07-.12,.02-.23,.05-.34,.09-.22,.09-.43,.26-.65,.28-.54,.04-.97,.33-1.41,.58-.3,.16-.57,.4-.89,.49-.4,.12-.68,.32-.87,.67-.03,.05-.08,.1-.12,.11-.24,.01-.33,.2-.46,.35-.17,.19-.24,.49-.42,.61-.43,.28-.25,.72-.39,1Zm12.5,.62c.25-.05,.52-.06,.75-.17,.41-.2,.79-.45,1.18-.68,.16-.09,.13-.27-.03-.36-.23-.14-.46-.1-.71-.09-.24,0-.47,.04-.67-.17-.36-.37-.77-.33-1.2-.07-.49,.3-.58,.73-.24,1.18,.24,.32,.55,.37,.92,.36Zm-18.5-11.15c.05,.17,.17,.4,.16,.62-.02,.49,.24,.79,.62,1,.35,.19,.62,.43,.79,.78,.03,.05,.11,.08,.17,.12,.02-.07,.07-.14,.07-.21,0-.09-.04-.19-.09-.27-.1-.2-.15-.4-.22-.61-.14-.46-.09-1.01-.58-1.33-.06-.04-.04-.19-.07-.28-.09-.3-.15-.31-.69-.26-.27,.02-.12,.24-.17,.45Zm-35.98,9.19c-.07,.08-.18,.15-.19,.24-.02,.18,.01,.36,.02,.54,0,.22,0,.42,.18,.61,.26,.27,.61,.35,.9,.54,.18-.18,.38,0,.55-.02,.2-.03,.39-.18,.58-.29,.04-.03,.06-.09,.1-.14-.04-.02-.07-.03-.11-.05-.37-.19-.77-.32-1.01-.71-.04-.06-.13-.07-.19-.12-.2-.17-.55-.14-.59-.5,0-.04-.13-.06-.25-.1Zm-30.78-7.7s.03,0,.04,0c-.07-.51-.12-1.04-.23-1.54-.07-.34-.23-.66-.36-.99-.02-.04-.1-.07-.15-.07-.04,0-.09,.07-.11,.11-.03,.11-.06,.24-.05,.35,.02,.33,.05,.66,.09,.99,0,.08,.04,.15,.06,.23,.1,.42,.28,.84,.23,1.29-.04,.33,.22,.5,.34,.74,.01,.02,.08,.03,.11,.02,.03-.01,.06-.06,.06-.09,0-.34-.02-.69-.03-1.03Zm94.3-4c.01,.26-.05,.44-.27,.87-.03,.05-.02,.18,0,.2,.06,.03,.16,.03,.23,0,.07-.03,.12-.11,.17-.17,.13-.17,.27-.35,.39-.53,.14-.22,.28-.44,.39-.67,.09-.18-.07-.37-.27-.33-.17,.03-.35,.08-.52,.14-.18,.06-.19,.21-.18,.36,0,.05,.04,.11,.05,.13Zm-20.42,10s-.04-.08-.06-.11c-.03,.02-.08,.04-.09,.07-.18,.31-.34,.62-.52,.92-.14,.24-.46,.37-.41,.72,.2-.18,.41-.37,.61-.55,.06-.05,.13-.11,.16-.18,.14-.28,.35-.54,.31-.87ZM43.79,14.79c.07-.02,.11-.02,.14-.05,.14-.15,.19-.44,.11-.53-.02-.02-.09-.04-.1-.03-.1,.13-.21,.26-.28,.41-.02,.04,.1,.13,.14,.2Z"/>
        <path d="M11.63,34.21c.38,.08,.8-.13,1.23-.28,.73-.26,1.44-.55,2.11-.95,.36-.21,.68-.47,1.02-.72,.61-.46,1.17-.97,1.58-1.62,.73-.37,1.15-1.06,1.7-1.62,.27-.27,.45-.63,.74-.87,.29-.24,.41-.62,.73-.83,.04-.03,.07-.1,.07-.16-.02-.25,.07-.43,.32-.52,.05-.02,.12-.08,.12-.13,.02-.39,.39-.55,.56-.84,.19-.34,.34-.71,.51-1.06,.33-.66,.63-1.33,1.1-1.91,.1-.12,.27-.22,.1-.41,.31-.38,.1-.91,.41-1.33,.2-.27,.2-.7,.28-1.06-.21-.17,0-.34,.02-.5,.1-.49,.22-.97,.19-1.47-.01-.18,.04-.36,.04-.53,0-.09,0-.2-.05-.26-.2-.25-.2-.52-.19-.82,0-.33-.03-.7-.16-1-.14-.31-.21-.64-.32-.95-.05-.15-.03-.37-.29-.41-.07,0-.11-.15-.17-.23-.34-.52-.59-1.09-1.07-1.51-.06-.05-.04-.18-.06-.28,.11-.01,.25-.07,.32-.03,.3,.19,.61,.35,.69,.77,.04,.22,.21,.42,.33,.63,.22,.38,.48,.73,.66,1.13,.15,.34,.19,.73,.32,1.08,.14,.37,.13,.75,.16,1.13,.02,.21-.05,.46,.18,.61,.02,.01,.04,.03,.04,.04-.03,.47-.04,.95-.09,1.42-.04,.35-.27,.72-.21,1.03,.08,.42-.14,.75-.17,1.13-.02,.36-.25,.7-.37,1.06-.06,.17-.26,.33-.07,.55,.03,.03-.07,.18-.12,.26-.3,.52-.57,1.05-.9,1.55-.27,.4-.38,.87-.65,1.26-.27,.4-.53,.8-.77,1.21-.32,.54-.7,1.03-1.13,1.48-.31,.33-.52,.75-.82,1.1-.38,.45-.78,.88-1.21,1.28-.3,.28-.65,.49-.9,.85-.27,.39-.65,.69-1.12,.88-.23,.09-.43,.25-.56,.51-.12,.24-.3,.49-.64,.48-.07,0-.15,.05-.21,.1-.3,.25-.65,.37-1.03,.43-.11,.02-.21,.09-.32,.14-.11,.04-.22,.09-.33,.12-.13,.04-.27,.07-.39,.13-.27,.12-.53,.26-.8,.39-.65-.15-1.34-.1-1.98-.35-.43-.17-.81-.42-1.21-.63-.04-.02-.1-.03-.1-.06-.06-.37-.43-.5-.62-.77-.15-.2-.24-.48-.54-.54-.03,0-.07-.05-.09-.08-.23-.52-.65-.96-.6-1.59,0-.08,0-.16,0-.24-.08-.59-.07-.58,.07-1.13,.12-.5,.13-1.03,.44-1.47-.16-.33,.11-.53,.23-.79,.12-.27,.26-.54,.34-.82,.1-.33,.33-.59,.41-.94,.05-.25,.32-.46,.52-.67,.49-.51,.82-1.14,1.22-1.71,.03-.05,0-.14,0-.21-.06,.01-.12,0-.16,.03-.12,.07-.24,.14-.34,.24-.39,.38-.83,.68-1.34,.88-.07,.03-.14,.08-.2,.13-.31,.29-.66,.54-.97,.82-.65,.57-1.33,1.08-2.09,1.48-.07,.04-.13,.1-.19,.15-.42,.37-.92,.69-1.24,1.13-.44,.6-1.1,.84-1.64,1.26-.24,.19-.47,.14-.66-.01-.39-.3-.78-.61-1.14-.95-.13-.12-.17-.29-.12-.53,.1-.53,.09-1.09,.1-1.63,0-.47,.06-.91,.34-1.31,.31-.44,.62-.89,.89-1.35,.54-.91,1.27-1.65,1.93-2.46,.34-.42,.72-.8,1.11-1.17,.45-.42,.97-.54,1.56-.49,.19,.02,.29,.12,.31,.31,.04,.33-.02,.65-.19,.92-.25,.38-.54,.74-.81,1.11-.37,.49-.74,.98-1.11,1.47-.04,.05-.07,.1-.12,.14-.17,.14-.36,.26-.5,.42-.11,.13-.12,.34-.23,.47-.42,.51-.81,1.04-1.15,1.61-.09,.16-.19,.29-.19,.49,0,.15-.09,.31-.19,.43-.35,.44-.57,.96-.77,1.48-.1,.25-.05,.35,.25,.6,.16,.13,.29,.15,.48,.01,.29-.21,.61-.36,.91-.55,.24-.16,.46-.35,.69-.52,.22-.17,.45-.33,.67-.5,.08-.06,.13-.15,.18-.24,.13-.26,.34-.42,.58-.58,.6-.4,1.27-.69,1.77-1.23,.47-.51,1.16-.75,1.59-1.32,.08-.1,.24-.14,.36-.21,.2-.12,.46-.2,.6-.37,.37-.44,.86-.64,1.38-.81,.25-.09,.49-.19,.57-.47,0-.02,.02-.03,.04-.05,.28-.35,.71-.58,.85-1.04,.56-.54,1.21-.85,2.01-.75,.23,.03,.37,.19,.3,.43-.08,.28-.18,.57-.32,.83-.4,.74-.92,1.4-1.43,2.06-.22,.29-.53,.55-.58,.96,0,.04-.04,.07-.07,.1-.37,.4-.69,.83-1,1.28-.25,.36-.49,.73-.73,1.1-.25,.4-.48,.83-.71,1.24-.06,.12-.11,.25-.14,.38-.12,.59-.31,1.14-.59,1.68-.18,.34-.38,.68-.19,1.12,.07,.15-.07,.38-.07,.58,0,.57,.12,1.11,.52,1.55,.12,.13,.18,.31,.29,.45,.09,.11,.2,.21,.31,.29,.08,.06,.18,.13,.27,.13,.53-.04,.94,.49,1.5,.32,.08-.02,.16,0,.34-.01Z"/>
        <path d="M31.22,23.47c-.09,.03-.13,.06-.18,.07-.1,0-.21,0-.19-.14,0-.04,.09-.1,.11-.09,.08,.03,.16,.09,.27,.16Z"/>
      </g>
    </g>
  </g>
</svg>