<?xml version="1.0" encoding="UTF-8"?>
<svg id="Layer_2" data-name="Layer 2" xmlns="http://www.w3.org/2000/svg" viewBox="0 0 102.04 49.88">
  <g id="Layer_1-2" data-name="Layer 1">
    <g id="sn8avV.tif">
      <g>
        <path d="M22.18,21.73c0,.08,.01,.16,0,.24-.17,.89,.36,1.53,.77,2.22,.44,.26,.72,.82,1.35,.76,.41,.26,.91-.03,1.32,.22,.48-.21,.98-.07,1.47-.11,.05,0,.11-.04,.16-.07,.26-.13,.51-.3,.78-.38,.28-.08,.43-.19,.52-.48,.11-.35,.36-.64,.58-.95,.3-.43,.68-.73,1.07-1.05,.27-.22,.59-.19,.87-.29,.07-.03,.22,.06,.3,.13,.12,.12-.02,.2-.08,.3-.25,.4-.42,.85-.8,1.16-.33,.27-.63,.56-.95,.84-.24,.21-.29,.41-.15,.72,.16,.35,.31,.71,.47,1.07,.04,.09,.06,.18,.12,.26,.36,.51,.35,1.02,.02,1.54-.02,.03-.07,.05-.08,.09-.37,1.08-1.14,1.87-1.92,2.65-.24,.24-.43,.52-.64,.77-.41,.49-.84,.97-1.25,1.47-.18,.23-.36,.47-.48,.73-.23,.49-.6,.92-.75,1.45-.17,.58,.06,1.18,.61,1.39,.2,.07,.5,.05,.68-.06,.53-.32,1.16-.43,1.64-.86,.34-.3,.71-.56,1.07-.84,.57-.46,1.13-.92,1.7-1.38,.3-.25,.56-.55,.85-.8,.31-.26,.67-.48,.97-.76,.44-.4,.91-.76,1.36-1.14,.71-.6,1.42-1.2,2.12-1.81,.18-.16,.32-.37,.5-.53,.33-.31,.66-.64,1.03-.88,.6-.39,1.3-.43,1.99-.38,.06,0,.14,.06,.17,.12,.12,.17,.18,.37,.08,.56-.18,.37-.32,.76-.65,1.05-.32,.27-.55,.61-.77,.96-.26,.41-.55,.82-1,1.07-.11,.06-.19,.19-.28,.3-.06,.07-.1,.18-.17,.24-.61,.48-.95,1.18-1.39,1.8-.34,.48-.58,1.01-.87,1.52-.28,.48-.29,.96-.11,1.47,.12,.32,.31,.44,.6,.32,.54-.22,1.08-.45,1.62-.67,.08-.03,.62-.48,.71-.55,.44-.36,.82-.77,1.34-1.03,.41-.21,.81-.52,1.1-.88,.22-.27,.52-.41,.75-.64,.3-.29,.72-.47,.88-.91,.03-.09,.13-.16,.2-.22,.61-.49,1.23-.99,1.85-1.48,.04-.04,.13-.04,.15-.08,.35-.68,1.06-.96,1.61-1.42,.34-.29,.59-.62,.84-.95,.57-.75,1.07-1.56,1.72-2.25,.24-.25,.42-.57,.62-.86,.63-.91,1.31-1.77,2.09-2.56,.63-.64,1.22-1.3,1.84-1.95,.36-.38,.82-.67,1.14-1.09,.02-.03,.08-.03,.1-.06,.24-.6,.85-.85,1.24-1.32,.33-.4,.69-.79,1.05-1.17,.41-.43,.87-.81,1.32-1.2,.49-.43,.97-.87,1.49-1.26,.28-.21,.62-.32,.94-.46,.12-.05,.27-.06,.4-.05,.51,.05,.7,.38,.47,.84-.19,.36-.44,.69-.66,1.04-.55,.87-1.19,1.66-1.85,2.44-.27,.32-.25,.4,.13,.61,.12,.07,.26,.12,.35,.22,.34,.37,.78,.49,1.24,.61,.37,.1,.73,.28,1.1,.39,.3,.09,.58,.21,.85,.37,.27,.15,.61,.13,.85,.36,.06,.06,.18,.04,.28,.07,.3,.09,.6,.17,.89,.28,.37,.13,.44,.08,.76-.17,.51-.41,.89-.94,1.44-1.33,.59-.42,1.06-.99,1.58-1.5,.37-.36,.75-.68,1.1-1.07,.41-.45,.92-.8,1.39-1.19,.29-.24,.6-.46,.85-.74,.42-.46,.98-.72,1.47-1.08,.56-.4,1.21-.53,1.89-.5,.29,.01,.31,.12,.25,.42-.08,.45-.47,.67-.71,.99-.28,.38-.64,.69-.97,1.03-.49,.5-.95,1.04-1.51,1.46-.39,.29-.75,.6-1.03,.98-.22,.3-.5,.49-.78,.7-.44,.34-.84,.72-1.17,1.16-.12,.17-.33,.27-.49,.42-.28,.25-.56,.51-.84,.76-.15,.14-.14,.35,.05,.43,.27,.11,.55,.23,.83,.27,.81,.1,1.6,.37,2.43,.38,.04,0,.08,0,.12,.01,.6,.27,1.2,.07,1.81,.02,.41-.03,.83-.26,1.26-.05,.03,.02,.09,.02,.12,0,.39-.31,.9-.22,1.34-.39,.61-.23,1.23-.47,1.89-.57,.13-.02,.28-.05,.39-.12,.87-.56,1.88-.87,2.7-1.53,.74-.59,1.57-1.06,2.21-1.77,.16-.17,.4-.27,.54-.45,.44-.55,.98-1.03,1.26-1.7,.04-.11,.08-.24,.17-.3,.29-.21,.36-.53,.49-.84,.24-.58,.36-1.19,.55-1.78,.19-.57,.18-1.12,.21-1.69,0-.06-.02-.13,0-.18,.22-.42,.01-.79-.14-1.17-.04-.11-.09-.22-.11-.33-.14-.79-.58-1.48-.72-2.27,0-.02,0-.04-.01-.06-.53-.51-.68-1.28-1.24-1.77-.37-.33-.66-.73-.99-1.11-.04-.04-.04-.14-.08-.15-.46-.15-.79-.51-1.18-.76-.38-.24-.76-.49-1.14-.73-.06-.04-.14-.07-.21-.09-.09-.03-.21-.02-.28-.07-.48-.31-1.05-.4-1.54-.69-.32-.19-.65-.37-1.05-.34-.1,0-.22-.08-.33-.12-.11-.04-.23-.12-.33-.11-.46,.07-.84-.19-1.26-.26-.32-.06-.64-.19-.96-.2-.21,0-.43,.04-.65,.05-.31,.01-.63-.03-.95,.03-.69,.13-1.41,.04-2.1,.24-.11,.03-.24,0-.36,0-.2,0-.38,.04-.57,.12-.23,.1-.49,.11-.72,.21-.23,.1-.43,.27-.66,.38-.54,.26-1.13,.4-1.61,.79-.1,.08-.26,.09-.37,.15-.4,.24-.8,.48-1.2,.72-.42,.25-.84,.48-1.25,.75-.42,.28-.88,.53-1.13,1-.04,.07-.09,.14-.16,.18-.51,.27-.79,.76-1.09,1.21-.04,.06-.12,.1-.19,.13-.12,.05-.26-.06-.23-.18,.04-.17,.06-.36,.15-.5,.35-.54,.58-1.17,1.21-1.5,.21-.11,.35-.33,.55-.46,.59-.38,1.2-.73,1.78-1.12,.57-.38,1.15-.76,1.78-1.03,1.09-.46,2.17-.98,3.32-1.28,.36-.09,.75-.03,1.13-.07,.64-.06,1.29-.13,1.93-.2,.58-.06,1.18-.11,1.77,.06,.58,.16,1.19,.23,1.76,.4,.65,.19,1.28,.44,1.92,.67,.15,.05,.3,.1,.44,.17,.7,.32,1.42,.61,2.09,1.01,.55,.33,1.08,.71,1.64,1.03,.18,.1,.34,.28,.48,.44,.24,.26,.47,.53,.69,.81,.29,.37,.58,.75,.85,1.13,.18,.25,.35,.52,.5,.79,.46,.88,.76,1.67,.96,2.67,.04,.21,.15,.4,.23,.6,.23,.6,.06,1.2-.05,1.79-.02,.1-.07,.19-.06,.28,.07,.57-.16,1.08-.29,1.61-.11,.45-.45,.82-.47,1.31,0,.06-.09,.13-.14,.19-.1,.1-.19,.22-.3,.29-.24,.15-.23,.39-.28,.62-.06,.24-.41,.21-.45,.51-.03,.18-.15,.4-.3,.48-.41,.22-.53,.74-.98,.9-.17,.33-.45,.54-.74,.74-.16,.11-.26,.31-.49,.3-.03,0-.08,.03-.1,.06-.29,.54-.91,.66-1.35,1-.44,.34-.98,.56-1.47,.84-.2,.11-.39,.25-.6,.36-.12,.06-.25,.1-.38,.13-.17,.04-.35,.05-.51,.11-.7,.28-1.46,.39-2.16,.71-.4,.18-.85,.13-1.28,.15-.16,0-.35-.05-.47,.03-.36,.23-.77,.13-1.14,.23-.46,.12-.83,0-1.24-.13-.13-.04-.26-.13-.43-.03-.11,.06-.3-.01-.46-.03-.13-.02-.27-.06-.4-.06-.51-.02-1.02-.09-1.49-.26-.55-.19-1.09-.09-1.62,.03-.17,.04-.31,.23-.47,.35-.7,.55-1.33,1.16-1.8,1.92-.04,.07-.08,.14-.14,.19-.74,.55-1.18,1.36-1.68,2.09-.35,.51-.77,.95-1.13,1.44-.36,.49-.75,.95-1.03,1.5-.15,.3-.38,.55-.57,.82-.22,.33-.42,.66-.63,.99-.17,.26-.36,.51-.53,.78-.3,.48-.59,.96-.88,1.45-.26,.45-.53,.91-.76,1.38-.23,.47-.42,.96-.61,1.45-.32,.83-.69,1.65-.93,2.51-.28,.97-.73,1.88-.97,2.87-.03,.11-.08,.23-.08,.34,.02,.5-.1,.97-.22,1.45-.07,.26-.02,.56-.03,.83-.01,.23,.06,.48-.08,.7-.04,.06-.03,.16-.01,.23,.15,.66,.3,1.33,.47,1.98,.06,.24,.18,.47,.28,.7,.14,.3,.26,.57,.64,.7,.32,.11,.58,.38,.87,.59,.58,.4,1.15,.4,1.81-.03,.07-.04,.13-.14,.19-.14,.08,0,.18,.07,.24,.14,.03,.04,.01,.17-.03,.2-.12,.1-.26,.18-.4,.24-.2,.08-.41,.13-.61,.19-.29,.09-.56,.12-.83-.1-.14-.12-.37-.12-.53-.22-.42-.25-.8-.57-1.26-.76-.08-.04-.15-.13-.21-.21-.26-.39-.5-.79-.77-1.18-.3-.44-.4-.96-.58-1.45-.16-.43-.24-.9-.34-1.35-.03-.11-.02-.24-.03-.35-.03-.91-.05-1.83,.13-2.73,.16-.78,.28-1.56,.55-2.32,.21-.58,.27-1.21,.4-1.82,.09-.4,.18-.8,.28-1.19,.09-.36,.15-.73,.31-1.06,.54-1.13,1.11-2.24,1.67-3.36,.02-.03,.01-.09,.04-.11,.59-.57,.82-1.37,1.35-1.99,.26-.3,.37-.72,.56-1.09,.09-.17,.2-.34,.33-.49,.13-.15,.28-.28,.41-.43,.04-.05,.04-.13,.06-.2-.07,0-.16-.02-.2,.02-.45,.42-.88,.85-1.33,1.26-.36,.33-.74,.64-1.11,.96-.06,.05-.13,.09-.19,.15-.28,.27-.48,.62-.87,.76-.15,.37-.53,.51-.79,.77-.69,.65-1.45,1.24-2.11,1.92-.61,.63-1.36,1.08-1.98,1.71-.22,.22-.47,.43-.73,.6-.25,.15-.45,.31-.57,.58-.02,.05-.07,.11-.12,.13-.46,.11-.67,.56-1.08,.75-.39,.18-.74,.43-1.13,.62-.26,.13-.51,.15-.82,.03-.31-.12-.6-.25-.87-.46-.08-.06-.18-.12-.21-.2-.29-.69-.72-1.31-.88-2.07-.14-.66-.07-1.28,.08-1.91,0-.04,.05-.07,.05-.11-.11-.57,.27-.96,.48-1.42,.27-.58,.54-1.17,.81-1.76,.02-.05,0-.11,0-.16-.07,0-.16-.01-.2,.02-.3,.25-.63,.49-.88,.79-.17,.21-.45,.15-.6,.34-.14,.18-.21,.48-.39,.57-.62,.31-.95,.9-1.45,1.33-.36,.31-.76,.6-1.12,.91-.24,.21-.48,.41-.72,.61-.12,.1-.23,.23-.37,.29-.64,.27-1.16,.67-1.56,1.25-.1,.15-.31,.26-.49,.31-.43,.12-.76,.48-1.23,.52-.09,0-.19,.06-.26,.13-.33,.33-.68,.19-1.05,.09-.37-.11-.65-.3-.76-.67-.13-.42-.3-.81-.57-1.15-.03-.04-.06-.11-.06-.16,.02-.53-.09-1.07,.12-1.59,.18-.45,.33-.92,.56-1.35,.18-.34,.46-.64,.68-.96,.04-.05,.03-.14,.05-.21-.09,0-.22-.05-.27,0-.21,.18-.46,.35-.59,.59-.23,.43-.62,.66-.99,.92-.22,.15-.46,.28-.61,.52-.05,.08-.13,.16-.22,.2-.3,.12-.54,.28-.7,.59-.08,.16-.3,.24-.45,.36-.41,.32-.76,.71-1.22,.98-.48,.29-.87,.67-1.3,1.02-.47,.38-1.01,.67-1.57,.9-.02,0-.04,0-.06,0-.57,.41-1.05,.19-1.55-.16-.65-.46-1.04-1.09-1.31-1.81-.04-.11-.05-.24-.03-.35,.08-.62,.18-1.24,.4-1.81,.2-.51,.53-.99,.9-1.43,.33-.39,.62-.82,.95-1.2,.36-.42,.74-.83,1.14-1.21,.12-.12,.28-.19,.36-.36,.06-.11,.18-.22,.3-.28,.63-.28,.97-.87,1.46-1.3,.05-.05,.1-.13,.1-.2,.01-.46-.05-.9-.32-1.28-.29-.4-.46-.43-.91-.22-.26,.13-.53,.24-.8,.36-.14,.06-.26,.08-.43,.04-.29-.07-.62-.12-.93,.04-.08,.04-.21,.06-.29,.03-.34-.16-.71-.05-1.05-.12-.74-.15-1.42-.45-1.91-1.07-.05-.06-.06-.16-.12-.2-.1-.07-.25-.1-.3,.05-.1,.29-.24,.6-.24,.9,0,.51-.25,.94-.43,1.39-.15,.38-.43,.7-.64,1.05-.06,.1-.13,.22-.13,.32,.02,.35-.16,.64-.25,.96-.02,.06-.01,.13-.05,.17-.38,.42-.49,.97-.73,1.45-.23,.45-.52,.87-.8,1.3-.18,.28-.37,.55-.56,.82-.27,.38-.52,.78-.82,1.14-.38,.46-.8,.88-1.19,1.33-.17,.19-.34,.37-.53,.54-.27,.26-.5,.56-.75,.83-.07,.07-.13,.15-.2,.22-.4,.37-.81,.73-1.22,1.09-.51,.44-1.02,.87-1.54,1.3-.38,.05-.5,.45-.81,.62-.72,.39-1.36,.9-2.15,1.18-1.1,.39-2.07,.18-2.97-.52-.22-.17-.44-.33-.63-.53-.13-.14-.22-.32-.28-.5-.13-.41-.26-.82-.34-1.23-.05-.22-.07-.47,.09-.69,.08-.12,.09-.29,.14-.44,.18-.55,.34-1.11,.56-1.65,.14-.34,.35-.66,.53-.98,.28-.49,.55-.99,.84-1.48,.4-.65,.81-1.29,1.21-1.94,.04-.06,.08-.14,.09-.21,.01-.07-.01-.15-.02-.23-.06,.03-.13,.04-.18,.08-.49,.36-.96,.75-1.46,1.09-.68,.46-1.28,1.04-2.03,1.4-.26,.12-.41,.46-.77,.38-.02,0-.07,.04-.08,.08-.13,.37-.5,.52-.78,.69-.42,.26-.87,.51-1.35,.7-.37,.15-.7,.05-.92-.17-.47-.48-.89-1.03-.79-1.76,.09-.66,.2-1.31,.38-1.95,.08-.3,.33-.57,.52-.83,.16-.22,.34-.44,.53-.64,.68-.73,1.35-1.46,2.05-2.16,.32-.32,.68-.58,.98-.93,.26-.3,.65-.5,1.02-.68,.18-.09,.41-.15,.67-.05,.16,.06,.39-.1,.6,.02,.22,.12,.32,.35,.11,.47-.18,.11-.26,.22-.28,.41,0,.09-.06,.21-.13,.26-.42,.33-.61,.86-1.03,1.19-.05,.04-.1,.08-.12,.13-.46,.84-1.18,1.45-1.87,2.07-.33,.29-.58,.63-.83,.98-.33,.48-.67,.97-.98,1.47-.19,.31-.34,.65-.51,.98-.02,.03-.03,.08-.03,.11,.03,.21-.1,.45,.12,.62,.2,.15,.39-.03,.54-.1,.57-.26,1.12-.54,1.64-.9,.67-.47,1.43-.8,2.07-1.31,.38-.3,.76-.59,1.21-.77,.07-.03,.12-.1,.18-.16,.53-.57,1.19-.96,1.85-1.35,.51-.3,.98-.65,1.3-1.17,.22-.35,.48-.67,.74-.99,.5-.64,1.18-1.03,1.91-1.35,.37-.16,.74-.07,1.12-.09,.05,0,.14,.09,.14,.14,.02,.38-.03,.71-.27,1.06-.42,.62-.95,1.15-1.38,1.75-.4,.55-.95,.98-1.27,1.59-.32,.61-.82,1.1-1.19,1.67-.26,.41-.54,.82-.81,1.22-.04,.06-.09,.13-.14,.18-.53,.47-.83,1.08-1.11,1.71-.04,.09-.08,.18-.14,.26-.39,.54-.68,1.13-1.01,1.71-.21,.38-.26,.81-.35,1.23-.02,.11,0,.24-.03,.35-.14,.44,.02,.76,.35,1.06,.38,.35,.8,.57,1.32,.58,.4,.01,.81-.03,1.18-.19,.33-.14,.64-.37,.95-.56,.07-.04,.13-.1,.2-.12,.56-.21,.99-.62,1.43-1.01,.32-.28,.69-.52,1.03-.78,.14-.11,.28-.21,.41-.33,.52-.49,1.05-.98,1.56-1.48,.32-.31,.64-.63,.95-.96,.31-.33,.65-.64,.92-1,.64-.87,1.39-1.66,1.95-2.59,.22-.37,.53-.69,.74-1.06,.23-.41,.39-.85,.57-1.28,.05-.11,.08-.22,.13-.33,.14-.32,.3-.62,.39-.97,.12-.44,.38-.85,.61-1.25,.26-.45,.52-.89,.57-1.44,.04-.44,.2-.87,.37-1.28,.11-.29,.09-.53-.03-.79-.24-.51-.54-.99-.77-1.51-.13-.28-.19-.55-.19-.85,0-.45-.03-.91,.12-1.35,.03-.09,.05-.19,.09-.27,.1-.22,.24-.28,.4-.12,.16,.17,.34,.35,.42,.56,.17,.45,.35,.92,.29,1.43-.02,.2,0,.4,0,.6,0,0,0,0-.01,0Zm22.3,13.84c0,.12,0,.24,0,.36,0,.49,.21,.88,.6,1.15,.28,.2,.59,.28,.94,.09,.31-.17,.6-.39,.9-.54,.56-.28,.99-.69,1.43-1.11,.27-.26,.54-.54,.86-.72,.46-.26,.82-.61,1.19-.97,.09-.08,.16-.19,.26-.24,.54-.3,.83-.91,1.43-1.12,.02,0,.03-.03,.04-.04,.5-.57,1.02-1.11,1.61-1.6,.94-.79,1.89-1.57,2.74-2.47,.12-.13,.28-.21,.41-.33,.39-.34,.78-.67,1.16-1.02,.21-.19,.4-.39,.6-.59,.23-.23,.5-.43,.7-.69,.49-.05,.56-.64,.98-.77,.26-.52,.7-.9,1.05-1.34,.33-.42,.7-.81,1.05-1.21,.05-.05,.15-.07,.2-.12,.33-.32,.66-.64,.97-.98,.09-.09,.08-.22-.04-.31-.06-.04-.14-.08-.21-.11-.78-.35-1.55-.74-2.36-1.03-.38-.14-.79-.21-1.15-.42-.06-.04-.16,0-.24-.01-.46-.02-.89-.21-1.24-.46-.33-.24-.62-.29-1-.29-.39,0-.63,.16-.87,.41-1.07,1.08-2.15,2.14-3.22,3.21-.41,.41-.85,.8-1.14,1.33-.03,.05-.08,.07-.12,.11-.5,.45-.99,.9-1.4,1.45-.39,.52-.71,1.11-1.31,1.45-.15,.36-.49,.59-.67,.95-.26,.52-.55,1.05-1,1.45-.16,.14-.29,.33-.38,.52-.19,.4-.43,.74-.74,1.06-.16,.17-.33,.36-.42,.56-.28,.61-.6,1.18-.99,1.72-.08,.1-.1,.25-.14,.38-.06,.2-.11,.41-.18,.62-.19,.54-.32,1.09-.32,1.66Zm-23.12-14.86c-.07,.45,0,.89,.25,1.29,.02,.04,.1,.05,.15,.05,.02,0,.06-.06,.06-.09,.03-.39-.03-.79,.12-1.17,.02-.04-.03-.11-.04-.16-.06-.24-.13-.49-.19-.73-.03-.11-.16-.15-.22-.06-.05,.08-.11,.17-.11,.26-.02,.2,0,.4,0,.61Z"/>
        <path d="M85.13,26.39c.02,.74-.06,1.42-.25,2.09-.1,.35-.27,.69-.42,1.02-.21,.48-.43,.96-.66,1.43-.11,.23-.25,.44-.37,.66-.03,.05-.05,.15-.02,.19,.04,.05,.15,.11,.2,.09,.19-.08,.4-.16,.56-.29,.52-.45,1.13-.71,1.77-.86,.32-.07,.64,.08,.94,.23,.38,.18,.51,.52,.63,.87,.19,.56,.1,1.1-.17,1.63-.33,.64-.61,1.3-.91,1.95-.05,.1-.07,.22-.11,.33-.06,.2-.11,.41-.19,.61-.15,.38-.3,.76-.3,1.18,0,.19-.11,.38-.1,.57,.02,.39,.06,.78,.13,1.16,.11,.57,.3,1.13,.36,1.71,.02,.21,.09,.46,.28,.63,.1,.09,.17,.22,.22,.34,.18,.44,.43,.83,.71,1.2,.52,.69,1.11,1.27,1.99,1.45,.04,0,.09,.02,.11,.04,.22,.33,.57,.29,.9,.33,.25,.03,.49,.12,.72,.24,.33,.17,.67,.25,1.02,.22,.46-.04,.92,.1,1.39,0,.25-.05,.5-.09,.74-.14,.07-.02,.15-.1,.21-.08,.57,.13,1-.28,1.51-.38,.09-.02,.18-.07,.27-.12,.62-.41,1.25-.81,1.86-1.23,.15-.1,.26-.25,.39-.37,.09-.08,.16-.23,.26-.24,.64-.09,.73-.69,1.05-1.08,.06-.07,.08-.19,.15-.24,.61-.49,.89-1.18,1.18-1.86,.02-.04,.03-.08,.05-.1,.43-.46,.33-1.03,.29-1.58-.01-.16-.15-.31-.21-.47-.02-.06,.03-.15,.04-.22,.07,.02,.15,.01,.2,.05,.31,.25,.44,.58,.47,.97,.03,.47-.04,.9-.27,1.31-.31,.54-.46,1.17-.89,1.64-.12,.13-.21,.28-.32,.42-.13,.17-.26,.35-.39,.51-.21,.26-.42,.53-.65,.76-.25,.25-.54,.45-.81,.69-.35,.32-.71,.62-1.15,.81-.16,.07-.31,.18-.44,.3-.22,.19-.45,.32-.75,.29-.17-.02-.29,.02-.37,.2-.04,.08-.18,.13-.29,.17-.32,.1-.63,.23-.95,.26-.53,.05-1.04,.18-1.55,.3-.17,.04-.4-.12-.57-.08-.46,.13-.88-.04-1.29-.16-.36-.1-.67-.39-1.08-.23-.52-.23-1.12-.27-1.55-.73-.2-.21-.47-.35-.71-.51-.05-.03-.11-.07-.16-.06-.42,.08-.55-.2-.68-.5-.07-.15-.19-.27-.31-.4-.22-.21-.35-.51-.52-.77-.24-.38-.47-.77-.72-1.14-.36-.54-.67-1.09-.75-1.76-.03-.26-.15-.53-.26-.77-.19-.42-.22-.88-.28-1.31-.07-.49,.03-1.01,.25-1.48,.08-.18,.14-.36,.21-.54,.3-.82,.66-1.62,1.14-2.36,.15-.24,.35-.46,.55-.66,.3-.29,.37-.64,.34-1.03-.03-.31-.3-.45-.63-.4-.43,.07-.75,.41-1.2,.42-.03,0-.08,.03-.1,.06-.3,.47-.83,.6-1.24,.91-.46,.33-.9,.7-1.33,1.07-.47,.41-.9,.86-1.39,1.25-.44,.35-.72,.87-1.28,1.08-.14,.06-.21,.34-.34,.38-.19,.05-.34,.13-.44,.27-.37,.48-.92,.75-1.39,1.1-.52,.39-1.15,.64-1.74,.94-.07,.04-.17,.04-.21,.09-.27,.41-.77,.4-1.15,.61-.09,.05-.28,.04-.34-.03-.18-.2-.35-.14-.57-.09-.23,.06-.48,.03-.72,.02-.21,0-.35-.16-.33-.34,.02-.19,.15-.31,.32-.27,.5,.11,.88-.15,1.26-.37,.49-.28,.98-.57,1.42-.92,.25-.2,.4-.55,.72-.67,.56-.21,.86-.75,1.35-1.04,.22-.13,.35-.42,.54-.62,.21-.21,.48-.36,.67-.58,.8-.9,1.67-1.74,2.36-2.73,.57-.81,1.15-1.63,1.6-2.52,.3-.59,.67-1.15,.99-1.73,.11-.2,.21-.42,.29-.63,.25-.67,.36-1.36,.44-2.07,.02-.17,0-.3-.19-.44-.21-.14-.34-.42-.46-.67-.17-.34-.54-.35-.81-.54-.02-.01-.07,0-.1,.02-.44,.2-.93,.28-1.32,.6-.32,.26-.68,.46-1.03,.67-.49,.28-.81,.75-1.23,1.11-.33,.28-.66,.56-.97,.87-.27,.26-.49,.56-.74,.84-.23,.25-.46,.5-.69,.75-.04,.04-.07,.11-.11,.12-.44,.14-.6,.54-.85,.86-.3,.39-.59,.78-.9,1.16-.05,.06-.12,.09-.19,.14-.51,.37-.96,.79-1.42,1.21-.41,.37-.75,.79-1.09,1.21-.27,.33-.67,.56-.96,.88-.33,.37-.7,.68-1.05,1.02-.33,.34-.77,.59-1.03,.97-.41,.6-1.11,.79-1.6,1.27-.09,.09-.25,.12-.38,.15-.27,.06-.48,.23-.77,.27-.24,.03-.43,.34-.73,.33-.02,0-.03,.02-.05,.03-.16,.09-.16,.36-.44,.33-.44-.06-.91,.08-1.32-.22-.14-.1-.31-.18-.47-.24-.31-.11-.52-.31-.7-.58-.21-.33-.49-.6-.66-.99-.17-.37-.25-.78-.46-1.13-.07-.12-.09-.32-.06-.46,.18-.69,.24-1.42,.61-2.06,.54-.94,1.12-1.84,1.87-2.63,.29-.3,.63-.58,.79-.99,.55-.48,1.07-1,1.67-1.42,.47-.33,1.05-.51,1.55-.81,.52-.31,1.08-.26,1.62-.21,.27,.03,.54,.08,.81,.11,.37,.03,.74,.54,.66,.89-.05,.21-.15,.4-.19,.61-.06,.33-.24,.56-.47,.8-.39,.4-.76,.83-1.14,1.26-.4,.45-.96,.57-1.48,.8-.26,.11-.49,.14-.73-.02-.11-.07-.22-.15-.3-.26-.23-.29-.23-.29-.57-.13-.31,.15-.59,.37-.7,.67-.09,.27-.25,.44-.43,.62-.59,.6-.97,1.31-1.31,2.07-.21,.47-.37,.94-.51,1.43-.08,.28-.16,.57-.17,.85-.01,.25,.03,.51,.11,.75,.07,.19,.16,.37,.39,.48,.43,.22,.86,.41,1.35,.32,.19-.04,.42-.08,.53-.2,.19-.21,.43-.29,.66-.36,.6-.19,1.15-.45,1.67-.82,.46-.33,.9-.65,1.28-1.08,.23-.26,.57-.44,.79-.71,.59-.69,1.35-1.2,1.88-1.95,.23-.33,.59-.58,.9-.86,.07-.07,.18-.1,.23-.18,.55-.78,1.46-1.21,1.95-2.04,.43-.12,.46-.6,.78-.84,.52-.39,.82-1.01,1.39-1.37,.16-.1,.23-.31,.37-.45,.71-.77,1.46-1.51,2.24-2.21,.41-.37,.88-.73,1.37-.98,.46-.24,.97-.4,1.45-.62,.11-.05,.27,0,.4,.03,.47,.11,.85,.35,1.14,.76,.17,.24,.38,.45,.55,.69,.1,.14,.18,.3,.23,.47,.18,.58,.3,1.18,.25,1.75Zm-14.38,.78c.04-.15-.17-.27-.31-.43-.15-.19-.28-.06-.42,0-.11,.04-.21,.08-.32,.12-.68,.21-1.03,.81-1.47,1.31-.29,.33-.61,.67-.69,1.14-.03,.15-.07,.3-.11,.45-.1,.36,.07,.55,.42,.45,.26-.07,.52-.18,.74-.32,.2-.13,.4-.26,.55-.5,.22-.34,.58-.59,.86-.9,.32-.34,.61-.71,.74-1.3Z"/>
        <path d="M24.35,16.59c-.06-.48,.11-.94,.22-1.42,.27-1.09,.84-2.03,1.51-2.88,.51-.64,1.06-1.26,1.77-1.72,.64-.41,1.21-.94,1.9-1.28,.24-.12,.48-.26,.73-.36,.67-.25,1.33-.55,2.05-.65,.54-.07,1.06-.22,1.59-.34,.04,0,.08,0,.12,0,.69-.04,1.38-.09,2.07-.13,.23-.02,.48,.06,.7-.1,.05-.04,.17-.03,.23,0,.38,.16,.78,.06,1.17,.11,.46,.05,.92,.13,1.36,.34,.4,.19,.85,.29,1.28,.37,.68,.13,1.27,.46,1.86,.79,.38,.21,.78,.34,1.18,.49,.65,.25,1.3,.54,1.87,.93,.75,.52,1.58,.86,2.37,1.28,.52,.27,1,.62,1.52,.89,.77,.39,1.35,1.01,2.02,1.53,.36,.28,.73,.54,1.12,.75,.32,.17,.59,.38,.85,.63,.21,.21,.45,.38,.68,.57,.04,.04,.12,.11,.11,.12-.05,.06-.1,.13-.17,.16-.15,.06-.26-.01-.37-.12-.21-.22-.42-.42-.64-.63-.09-.08-.16-.2-.26-.24-.41-.15-.75-.41-1.09-.67-.24-.18-.48-.35-.7-.54-.39-.33-.76-.67-1.15-.99-.09-.07-.21-.1-.32-.13-.23-.07-.41-.21-.6-.35-.36-.27-.73-.54-1.14-.72-.83-.35-1.63-.74-2.34-1.31-.09-.07-.2-.1-.31-.14-.07-.03-.18-.02-.22-.06-.28-.34-.72-.38-1.08-.57-.36-.19-.76-.29-1.13-.46-.21-.1-.46-.11-.61-.33-.05-.08-.2-.1-.31-.14-.05-.02-.14,.01-.17-.02-.48-.52-1.19-.29-1.75-.57-.14-.07-.31-.07-.44-.16-.49-.34-1.04-.43-1.61-.44-.13,0-.27,.06-.4,.07-.09,.01-.19,0-.28,0-.06,0-.11-.07-.16-.07-.25,.03-.51,.05-.75,.11-.24,.06-.43-.21-.69-.07-.09,.05-.26,.1-.34,.05-.27-.17-.48-.07-.71,.06-.05,.03-.13,.08-.16,.06-.29-.16-.51,.04-.76,.11-.07,.02-.16,.04-.23,.03-.17-.02-.4-.15-.48-.08-.12,.09-.2,.2-.37,.22-.21,.03-.42,.09-.63,.13-.66,.15-1.28,.43-1.9,.69-.61,.26-1.15,.65-1.68,1.06-.18,.14-.4,.24-.6,.35-.07,.04-.19,.06-.2,.11-.05,.28-.34,.33-.46,.49-.28,.38-.67,.64-.95,1.02-.43,.59-.79,1.21-1.13,1.85-.19,.36-.35,.74-.5,1.12-.04,.1-.03,.23-.04,.35-.03,.35,.04,.71-.11,1.05-.04,.08-.04,.21,0,.3,.19,.5,.15,1.08,.48,1.54,.17,.24,.36,.47,.54,.7,.05,.06,.1,.12,.15,.18-.09,.02-.22,.08-.28,.05-.18-.11-.39-.23-.49-.4-.45-.79-.84-1.6-.76-2.57Z"/>
        <path d="M47.36,19.25c-.02,.07-.01,.12-.03,.14-.06,.08-.12,.17-.2,.21-.19,.1-.4,.15-.57,.26-.15,.1-.25,.3-.4,.4-.14,.09-.24,.34-.5,.17-.06-.04-.26,.13-.38,.22-.19,.14-.32,.35-.59,.36-.06,0-.13,.13-.17,.22-.03,.05,0,.12-.02,.18-.06,.22-.24,.41-.38,.4-.14-.01-.34-.38-.28-.58,.16-.52,.32-1.04,.55-1.53,.16-.34,.55-.46,.87-.64,.12-.07,.26-.07,.38-.14,.15-.08,.27-.1,.44-.05,.33,.1,.69,.12,1.03,.2,.1,.02,.19,.11,.27,.17Z"/>
      </g>
    </g>
  </g>
</svg>