<?xml version="1.0" encoding="UTF-8"?>
<svg id="Layer_1" data-name="Layer 1" xmlns="http://www.w3.org/2000/svg" viewBox="0 0 104.26 36.92">
  <defs>
    <style>
      .cls-1 {
        fill: #000000;
      }
    </style>
  </defs>
  <path class="cls-1" d="M52.75,36.92c-4.23,0-12.52-3.31-12.52-10.98,0-5.37,3.78-10.78,9.72-15.26-7.16-4.15-14.31-7.69-24.02-7.69C14.66,3,3,8.16,3,16.8c0,5.47,4.54,9.14,11.3,9.14,13.58,0,18.49-13.49,18.54-13.63,.27-.78,1.13-1.19,1.91-.92,.78,.28,1.19,1.13,.92,1.91-.05,.16-5.69,15.63-21.37,15.63C5.88,28.94,0,23.95,0,16.8,0,8.65,9.09,0,25.94,0c11.01,0,19.09,4.31,26.74,8.8C60.85,3.56,72.05,0,83.14,0c15.57,0,21.12,5.67,21.12,10.98,0,7.61-7.21,11.97-19.79,11.97-3.96,0-7.54-.45-10.83-1.21-3.7,8.33-11.45,15.18-20.89,15.18Zm.09-24.54c-6.07,4.26-9.61,9.21-9.61,13.56,0,5.68,6.71,7.98,9.52,7.98,7.89,0,14.55-5.87,17.91-12.97-6.74-2.03-12.33-5.33-17.8-8.56,0,0-.01,0-.02-.01Zm21.88,6.52c2.99,.67,6.21,1.05,9.74,1.05,6.27,0,16.79-1.17,16.79-8.97,0-4.77-7.28-7.98-18.12-7.98-9.41,0-19.4,2.75-27.47,7.56,4.96,2.91,10.08,5.8,16.13,7.58,.78-2.32,1.2-4.7,1.2-7,0-.83,.67-1.5,1.5-1.5s1.5,.67,1.5,1.5c0,2.57-.44,5.2-1.27,7.76Z"/>
</svg>